<?xml version="1.0" standalone="no"?>
<!DOCTYPE svg PUBLIC "-//W3C//DTD SVG 1.1//EN" "http://www.w3.org/Graphics/SVG/1.1/DTD/svg11.dtd" >
<svg xmlns="http://www.w3.org/2000/svg" xmlns:xlink="http://www.w3.org/1999/xlink" version="1.1">
<metadata>
Created by FontForge 20201107 at Fri May 24 21:06:22 2024
 By 
Copyright 2016 The Inter Project Authors (https://github.com/rsms/inter)
</metadata>
<defs>
<font id="Inter24pt-ExtraLightItalic" horiz-adv-x="0" >
  <font-face 
    font-family="Inter 24pt ExtraLight"
    font-weight="250"
    font-style="italic"
    font-stretch="normal"
    units-per-em="2048"
    panose-1="2 0 5 3 0 0 0 2 0 4"
    ascent="1638"
    descent="-410"
    x-height="1084"
    cap-height="1490"
    bbox="-1498 -654 5295 2243"
    underline-thickness="77"
    underline-position="-373"
    slope="-9.3988"
    unicode-range="U+0020-1F852"
  />
<missing-glyph horiz-adv-x="1340" 
d="M856 -416h-688l376 2272h688zM389 -192l-10 -64h320l10 64h-215l236 127l11 65h-320l-11 -64h216zM474 320l-42 -256h320l42 256h-320zM698 128h-192l21 128h192zM538 704l-43 -256h320l43 256h-192l-22 -128h64l11 64h64l-21 -128h-192l32 192h-64zM559 832l-11 -64h320
l37 224h-64l-26 -160h-256zM580 960l-11 -64h192l27 160h128l10 64h-320l-10 -64h128l-16 -96h-128zM756 1248h-64l15 96h64zM654 1408l-37 -224h320l11 64h-128l26 160h-192zM675 1536l-10 -64h320l10 64h-144l16 96h144l11 64h-320l-11 -64h112l-16 -96h-112z" />
    <glyph glyph-name=".notdef" horiz-adv-x="1340" 
d="M856 -416h-688l376 2272h688zM389 -192l-10 -64h320l10 64h-215l236 127l11 65h-320l-11 -64h216zM474 320l-42 -256h320l42 256h-320zM698 128h-192l21 128h192zM538 704l-43 -256h320l43 256h-192l-22 -128h64l11 64h64l-21 -128h-192l32 192h-64zM559 832l-11 -64h320
l37 224h-64l-26 -160h-256zM580 960l-11 -64h192l27 160h128l10 64h-320l-10 -64h128l-16 -96h-128zM756 1248h-64l15 96h64zM654 1408l-37 -224h320l11 64h-128l26 160h-192zM675 1536l-10 -64h320l10 64h-144l16 96h144l11 64h-320l-11 -64h112l-16 -96h-112z" />
    <glyph glyph-name=".null" horiz-adv-x="978" 
 />
    <glyph glyph-name="nonmarkingreturn" horiz-adv-x="682" 
 />
    <glyph glyph-name="space" unicode=" " horiz-adv-x="517" 
 />
    <glyph glyph-name="exclam" unicode="!" horiz-adv-x="483" 
d="M175 405l176 1085h95l-184 -1085h-87zM155 -12q-34 0 -55 25t-15 59q5 32 30 52.5t55 20.5q35 0 55.5 -25t14.5 -59q-4 -31 -29 -52t-56 -21z" />
    <glyph glyph-name="quotedbl" unicode="&#x22;" horiz-adv-x="770" 
d="M308 1018l68 472h93l-88 -472h-73zM546 1018l68 472h93l-88 -472h-73z" />
    <glyph glyph-name="numbersign" unicode="#" horiz-adv-x="1237" 
d="M677 0l393 1490h80l-392 -1490h-81zM16 446l23 80h1111l-21 -80h-1113zM154 0l393 1490h79l-392 -1490h-80zM154 963l22 80h1111l-21 -80h-1112z" />
    <glyph glyph-name="dollar" unicode="$" horiz-adv-x="1216" 
d="M451 -197l312 1884h78l-312 -1884h-78zM518 -23q-146 0 -248 50.5t-149.5 141t-33.5 211.5h92q-9 -99 28.5 -170t118 -109t196.5 -38q122 0 221 41t163 115t80 171q13 75 -11.5 130t-89 96.5t-172.5 75.5l-162 51q-175 55 -253 146t-55 229q19 115 93 204t186 139.5
t246 50.5q136 0 231 -52t140.5 -143.5t31.5 -211.5h-90q13 145 -71.5 233t-246.5 88q-109 0 -201 -40t-152.5 -110.5t-76.5 -160.5q-11 -71 14.5 -126t87.5 -95t156 -69l158 -50q89 -28 155.5 -64t109.5 -82.5t59.5 -107t3.5 -136.5q-19 -119 -94 -211t-193.5 -144.5
t-271.5 -52.5z" />
    <glyph glyph-name="percent" unicode="%" horiz-adv-x="1734" 
d="M499 857q-82 0 -138 40.5t-79 110.5t-9 160l5 31q16 90 62 160t114.5 110t150.5 40t137.5 -40.5t78.5 -110.5t8 -160l-5 -32q-15 -89 -61 -159t-114 -110t-150 -40zM509 931q88 0 152 66t81 171l6 31q17 105 -25 170.5t-128 65.5q-88 0 -152.5 -66t-82.5 -171l-5 -32
q-17 -104 25 -169.5t129 -65.5zM1198 -19q-83 0 -138.5 40t-79 110.5t-8.5 159.5l5 32q16 90 62 159.5t114.5 109.5t149.5 40q83 0 138 -40t78.5 -110.5t8.5 -160.5l-5 -31q-15 -90 -61 -160t-114.5 -109.5t-149.5 -39.5zM1208 55q87 0 151.5 65.5t81.5 170.5l5 32
q18 105 -24 170t-129 65t-152 -66t-82 -171l-6 -31q-17 -105 25 -170t130 -65zM218 0l1268 1490h95l-1270 -1490h-93z" />
    <glyph glyph-name="ampersand" unicode="&#x26;" horiz-adv-x="1246" 
d="M443 -19q-128 0 -220 53t-134 144t-24 205q13 77 53.5 139t111.5 122t176 130l247 164q53 36 99 75.5t78.5 87t41.5 105.5q17 96 -36.5 157.5t-152.5 61.5q-69 0 -129 -31t-101.5 -85t-52.5 -124q-10 -55 5.5 -104t50.5 -105t85 -134l537 -842h-106l-493 777
q-57 90 -99.5 157t-61 129t-6.5 135q15 90 68 159.5t132.5 109.5t171.5 40q96 0 163 -41t98 -111.5t16 -160.5q-11 -69 -48 -127t-91.5 -106.5t-120.5 -93.5l-272 -181q-128 -86 -194 -156.5t-81 -160.5q-14 -86 19 -155.5t103.5 -110t167.5 -40.5q102 0 197.5 42t175 118
t136.5 177.5t82 219.5l87 -3q-17 -90 -50 -167.5t-76 -141.5t-92 -114l-25 -26q-81 -83 -195 -135t-241 -52z" />
    <glyph glyph-name="quotesingle" unicode="'" horiz-adv-x="532" 
d="M308 1018l68 472h93l-88 -472h-73z" />
    <glyph glyph-name="parenleft" unicode="(" horiz-adv-x="607" 
d="M208 621q27 161 81.5 326t131.5 323t170 297h90q-98 -151 -175 -311t-129.5 -320.5t-78.5 -314.5q-25 -150 -25 -301t25 -304t75 -311h-90q-74 220 -93.5 453t18.5 463z" />
    <glyph glyph-name="parenright" unicode=")" horiz-adv-x="607" 
d="M-43 -294q102 156 177.5 309.5t126 304.5t74.5 301q26 154 26.5 314.5t-23.5 320.5t-73 311h90q49 -139 73 -297t24 -323t-26 -326q-39 -230 -135 -463t-244 -452h-90z" />
    <glyph glyph-name="asterisk" unicode="*" horiz-adv-x="965" 
d="M461 652l64 358l-338 -184l-30 70l344 175l-284 175l49 68l278 -183l56 359h79l-64 -358l338 182l30 -68l-344 -177l285 -173l-49 -70l-279 185l-56 -359h-79z" />
    <glyph glyph-name="plus" unicode="+" horiz-adv-x="1261" 
d="M521 140l147 884h85l-146 -884h-86zM188 538l15 88h883l-14 -88h-884z" />
    <glyph glyph-name="comma" unicode="," horiz-adv-x="483" 
d="M-18 -295l168 469h98l-196 -469h-70z" />
    <glyph glyph-name="hyphen" unicode="-" horiz-adv-x="854" 
d="M742 663l-14 -84h-588l14 84h588z" />
    <glyph glyph-name="period" unicode="." horiz-adv-x="483" 
d="M155 -12q-34 0 -55 25t-15 59q5 32 30 52.5t55 20.5q35 0 55.5 -25t15.5 -59q-5 -31 -30 -52t-56 -21z" />
    <glyph glyph-name="slash" unicode="/" horiz-adv-x="627" 
d="M766 1560l-775 -1784h-88l775 1784h88z" />
    <glyph glyph-name="zero" unicode="0" horiz-adv-x="1203" 
d="M510 -19q-152 0 -249 94t-130.5 265.5t5.5 403.5q39 234 129 405.5t218 265.5t280 94t248.5 -94t129.5 -265.5t-6 -405.5q-38 -232 -128 -403.5t-217.5 -265.5t-279.5 -94zM521 66q126 0 232 83t182.5 236t110.5 362q35 211 10.5 362.5t-102.5 233.5t-203 82t-232 -83
t-183 -236t-111 -365q-35 -209 -10.5 -360.5t103 -233t203.5 -81.5z" />
    <glyph glyph-name="one" unicode="1" horiz-adv-x="716" 
d="M687 1490l-247 -1490h-90l231 1397h-5l-377 -237l18 103l361 227h109z" />
    <glyph glyph-name="two" unicode="2" horiz-adv-x="1181" 
d="M39 0l12 77l594 530q124 112 201.5 193t117.5 150t52 145q17 98 -13 172.5t-99.5 116.5t-172.5 42q-105 0 -193 -45t-146.5 -123t-76.5 -179h-88q20 124 91 221.5t178.5 154t237.5 56.5q128 0 218.5 -54.5t131.5 -148.5t21 -214q-11 -65 -36.5 -124t-72.5 -121.5
t-119.5 -136t-176.5 -166.5l-513 -457l-1 -4h793l-14 -85h-926z" />
    <glyph glyph-name="three" unicode="3" horiz-adv-x="1180" 
d="M509 -21q-137 0 -237.5 52.5t-148.5 146t-29 212.5h93q-15 -96 22 -170t116 -115t189 -41q116 0 212 43.5t158.5 118.5t77.5 167q17 100 -25 174t-131 115.5t-216 41.5h-55l14 86h54q109 0 201.5 38t154 108t76.5 164q15 89 -16 158t-100 108.5t-172 39.5
q-102 0 -189.5 -40t-145.5 -112t-75 -168h-90q21 119 93 210t180 143t235 52t217 -51.5t131.5 -139.5t22.5 -199q-21 -127 -113 -221t-231 -129l-2 -5q100 -20 166 -72.5t94.5 -130.5t12.5 -172q-20 -117 -96 -210t-192.5 -147.5t-255.5 -54.5z" />
    <glyph glyph-name="four" unicode="4" horiz-adv-x="1231" 
d="M68 372l12 73l886 1045h64l-20 -122h-44l-770 -907v-4h925l-14 -85h-1039zM741 0l66 396l5 33l176 1061h90l-247 -1490h-90z" />
    <glyph glyph-name="five" unicode="5" horiz-adv-x="1118" 
d="M451 -20q-127 0 -218 52.5t-133.5 143.5t-24.5 208h91q-19 -139 58.5 -229t230.5 -90q115 0 212 53t162.5 145t84.5 207q20 119 -13.5 209t-110 140.5t-184.5 50.5q-105 0 -202 -43t-151 -116l-94 7l202 772h764l-14 -86h-683l-154 -580h3q62 56 149.5 94t192.5 38
q132 0 227.5 -62.5t138.5 -172t19 -253.5q-23 -141 -101.5 -251t-195 -173.5t-256.5 -63.5z" />
    <glyph glyph-name="six" unicode="6" horiz-adv-x="1147" 
d="M499 -19q-104 0 -186 42.5t-134.5 128.5t-68 218t13.5 310q28 165 79 314t128 265t183 183t242 67q116 0 199.5 -47.5t126.5 -133t36 -198.5h-90q3 131 -67 212.5t-205 81.5q-133 0 -241.5 -85.5t-185.5 -252t-116 -408.5l4 1q39 75 106 132t151 89t174 32
q126 0 220.5 -62t139.5 -169.5t23 -243.5q-21 -130 -95.5 -238.5t-187 -173t-249.5 -64.5zM500 66q107 0 200.5 53t158 142.5t82.5 197.5q18 109 -16 197t-109 139.5t-180 51.5q-84 0 -162 -32t-139 -89t-97.5 -130t-38.5 -155q-1 -117 35 -201t104 -129t162 -45z" />
    <glyph glyph-name="seven" unicode="7" horiz-adv-x="1091" 
d="M115 0l931 1401l1 4h-820l14 85h923l-15 -90l-931 -1400h-103z" />
    <glyph glyph-name="eight" unicode="8" horiz-adv-x="1163" 
d="M492 -19q-135 0 -236 54t-150 146.5t-29 207.5q15 94 70 174t136 135.5t176 72.5l1 3q-118 35 -174 133t-36 220q18 109 88.5 195.5t175 136.5t223.5 50q120 0 209.5 -50.5t133.5 -137t25 -196.5q-13 -81 -57.5 -152.5t-113.5 -123.5t-155 -75l-2 -3q88 -18 151.5 -73.5
t93 -136t13.5 -174.5q-19 -115 -97 -207t-194.5 -145.5t-251.5 -53.5zM496 65q112 0 208 43t160.5 117.5t79.5 167.5q16 95 -21.5 170.5t-116.5 120t-188 44.5q-110 0 -207 -44.5t-162 -120.5t-81 -172q-15 -92 21.5 -166t116 -117t190.5 -43zM619 809q96 0 181 41.5
t143 113t72 159.5q15 87 -17 155.5t-100.5 107.5t-164.5 39q-95 0 -179.5 -39.5t-142 -108.5t-72.5 -156q-14 -88 17 -158.5t99.5 -112t163.5 -41.5z" />
    <glyph glyph-name="nine" unicode="9" horiz-adv-x="1147" 
d="M460 -19q-116 0 -200.5 48t-128 134t-37.5 199h91q-3 -131 69 -213.5t206 -82.5t241.5 86t184 252.5t115.5 408.5l-4 -1q-39 -74 -105.5 -131t-150 -89t-173.5 -32q-126 0 -221.5 62t-140.5 170t-23 243q22 130 95.5 237.5t185.5 172.5t250 64q103 0 185.5 -42.5
t135 -128.5t68.5 -217.5t-13 -309.5q-28 -165 -78.5 -314t-127.5 -265.5t-182 -183.5t-242 -67zM583 645q83 0 160 32.5t137.5 89t97 129.5t38.5 154q1 118 -36 201.5t-106.5 128t-164.5 44.5q-106 0 -198.5 -52.5t-155.5 -141.5t-82 -197q-17 -109 17.5 -197t111 -139.5
t181.5 -51.5z" />
    <glyph glyph-name="colon" unicode=":" horiz-adv-x="484" 
d="M156 -12q-34 0 -55 25t-15 59q5 32 30 52.5t55 20.5q35 0 55.5 -25t15.5 -59q-5 -31 -30 -52t-56 -21zM302 876q-34 0 -55 25t-15 59q5 32 30 52.5t55 20.5q35 0 55.5 -25t15.5 -59q-5 -31 -30 -52t-56 -21z" />
    <glyph glyph-name="semicolon" unicode=";" horiz-adv-x="488" 
d="M-18 -295l168 469h98l-196 -469h-70zM307 876q-34 0 -55 25t-15 59q5 32 30 52.5t55 20.5q35 0 55.5 -25t15.5 -59q-5 -31 -30 -52t-56 -21z" />
    <glyph glyph-name="less" unicode="&#x3c;" horiz-adv-x="1261" 
d="M176 546l13 72l927 503l-17 -100l-815 -441l11 15l-4 -26l-7 13l670 -440l-17 -100z" />
    <glyph glyph-name="equal" unicode="=" horiz-adv-x="1261" 
d="M283 742l14 84h761l-14 -84h-761zM216 338l14 84h761l-14 -84h-761z" />
    <glyph glyph-name="greater" unicode="&#x3e;" horiz-adv-x="1261" 
d="M1086 546l-927 -504l16 100l813 440l-8 -13l4 26l5 -15l-668 441l16 100l761 -503z" />
    <glyph glyph-name="question" unicode="?" horiz-adv-x="985" 
d="M389 441l14 85q14 85 45.5 142t85 102t134.5 96q111 69 163 134t65 142q14 86 -16 150t-93.5 99.5t-151.5 35.5q-92 0 -170.5 -40.5t-132 -113t-70.5 -168.5h-92q20 119 86 210.5t165 143.5t217 52q115 0 199.5 -48t125.5 -132.5t22 -192.5q-17 -101 -79.5 -179
t-189.5 -157q-75 -47 -120 -86t-68 -84t-35 -109l-13 -82h-91zM360 -12q-33 0 -52.5 23t-13.5 56q5 33 32 55.5t60 22.5t52 -22.5t14 -55.5q-6 -33 -32.5 -56t-59.5 -23z" />
    <glyph glyph-name="at" unicode="@" horiz-adv-x="1971" 
d="M845 -393q-194 0 -345 69t-250.5 193t-137.5 291.5t-6 363.5q33 196 126 363t232 291.5t311.5 193.5t365.5 69q189 0 336.5 -69t244.5 -191.5t134.5 -285t6.5 -349.5q-18 -107 -55.5 -198t-93.5 -158t-128 -104.5t-159 -37.5q-72 0 -113.5 25t-55.5 73t-5 116h-4
q-55 -97 -149 -159.5t-216 -62.5q-123 0 -205.5 65.5t-116.5 176t-12 244.5q23 136 95 245t176.5 173t224.5 64q115 0 187.5 -58t98.5 -147h4l30 185h84l-113 -685q-16 -92 4 -134t92 -42q84 0 154.5 50.5t120 144t70.5 223.5q29 173 -3 321t-117.5 259.5t-217.5 173.5
t-303 62q-172 0 -329.5 -62.5t-285.5 -175t-213.5 -265.5t-115.5 -335q-30 -181 2.5 -333.5t119.5 -265t222.5 -174.5t310.5 -62q84 0 166.5 15.5t158.5 41.5t138 60l22 -73q-66 -36 -145.5 -64.5t-166.5 -44.5t-176 -16zM893 121q101 0 184 51.5t139.5 143.5t75.5 211
q20 120 -2.5 209.5t-84 139.5t-161.5 50q-98 0 -184 -52t-145.5 -142t-78.5 -205t5.5 -207t88.5 -145.5t163 -53.5z" />
    <glyph glyph-name="A" unicode="A" horiz-adv-x="1296" 
d="M-51 0l800 1490h112l307 -1490h-93l-216 1067q-15 80 -33 173.5t-37 209.5h27q-57 -115 -104.5 -208t-92.5 -175l-568 -1067h-102zM266 468l14 85h740l-14 -85h-740z" />
    <glyph glyph-name="B" unicode="B" horiz-adv-x="1286" 
d="M95 0l247 1490h485q137 0 228 -48.5t130.5 -135.5t19.5 -205q-14 -87 -57.5 -155.5t-107 -114.5t-138.5 -67v-3q76 -10 138 -57.5t93 -126.5t13 -186q-19 -117 -86.5 -205t-177.5 -137t-259 -49h-528zM201 85h430q177 0 289 87.5t136 228.5q16 96 -20 166.5t-112 109
t-180 38.5h-438zM320 799h425q97 0 175.5 41.5t129.5 112t65 156.5q23 140 -56 218t-240 78h-399z" />
    <glyph glyph-name="C" unicode="C" horiz-adv-x="1435" 
d="M659 -21q-164 0 -283 73t-183 206t-64 313q0 174 53.5 341.5t155 302.5t244 215.5t320.5 80.5q127 0 222 -41.5t158 -112t94.5 -157.5t32.5 -179h-92q-4 77 -31 149t-79 129t-129 90.5t-179 33.5q-152 0 -277 -71.5t-215 -192.5t-139 -273t-49 -314q0 -163 57.5 -276
t157.5 -171t229 -58q104 0 194 33.5t162 90.5t124.5 129t81.5 149h93q-31 -91 -90.5 -178t-144.5 -157.5t-191.5 -112.5t-232.5 -42z" />
    <glyph glyph-name="D" unicode="D" horiz-adv-x="1407" 
d="M522 0h-376l14 85h357q200 0 350 79.5t245 228.5t129 356q34 206 -5.5 352.5t-152.5 225t-301 78.5h-406l14 85h393q210 0 345.5 -88.5t189 -254.5t14.5 -398q-38 -236 -145.5 -403.5t-275.5 -256.5t-389 -89zM435 1490l-247 -1490h-93l247 1490h93z" />
    <glyph glyph-name="E" unicode="E" horiz-adv-x="1180" 
d="M95 0l247 1490h884l-15 -86h-790l-100 -606h731l-14 -85h-731l-104 -628h798l-14 -85h-892z" />
    <glyph glyph-name="F" unicode="F" horiz-adv-x="1148" 
d="M95 0l247 1490h863l-14 -85h-771l-101 -611h694l-14 -85h-694l-117 -709h-93z" />
    <glyph glyph-name="G" unicode="G" horiz-adv-x="1464" 
d="M662 -21q-166 0 -286 73t-183.5 206t-63.5 312q0 174 53 341.5t154 303t243.5 216t320.5 80.5q127 0 222.5 -42t159 -113t95.5 -158t33 -177h-93q-3 75 -30 146.5t-79 129.5t-129.5 92t-181.5 34q-158 0 -283.5 -74t-213 -197t-134.5 -274t-47 -306q0 -232 117.5 -368.5
t329.5 -136.5q151 0 276 69t209 194t112 294l30 -12h-506l15 85h564l-14 -87q-24 -142 -85.5 -258t-152.5 -199.5t-205.5 -128.5t-246.5 -45z" />
    <glyph glyph-name="H" unicode="H" horiz-adv-x="1451" 
d="M95 0l247 1490h94l-114 -686h895l114 686h92l-247 -1490h-92l119 719h-895l-119 -719h-94z" />
    <glyph glyph-name="I" unicode="I" horiz-adv-x="463" 
d="M435 1490l-247 -1490h-93l247 1490h93z" />
    <glyph glyph-name="J" unicode="J" horiz-adv-x="1098" 
d="M442 -20q-164 0 -259.5 88.5t-95.5 247.5q0 14 1 32t5.5 48t12.5 82h92q-8 -50 -12 -79t-5 -45t-1 -29q0 -123 68.5 -191.5t196.5 -68.5q146 0 246.5 90t127.5 251l179 1084h93l-179 -1084q-33 -200 -158.5 -313t-311.5 -113z" />
    <glyph glyph-name="K" unicode="K" horiz-adv-x="1222" 
d="M248 499l2 106q68 65 132 124.5t128 118.5t132 122l568 520h127l-732 -668l-12 -7zM95 0l247 1490h93l-88 -525l-58 -351l-8 -52l-93 -562h-93zM987 0l-440 805l66 65l476 -870h-102z" />
    <glyph glyph-name="L" unicode="L" horiz-adv-x="1103" 
d="M95 0l247 1490h94l-233 -1405h740l-14 -85h-834z" />
    <glyph glyph-name="M" unicode="M" horiz-adv-x="1774" 
d="M95 0l247 1490h126l284 -1109q8 -34 17.5 -73t19 -80t18 -81t16.5 -75l-29 2q19 36 41 76t45 81t44.5 80t40.5 72l650 1107h130l-247 -1490h-91l173 1045q7 42 15 88.5t16.5 94.5t17 95.5t16.5 92.5l16 -2q-28 -51 -55 -101t-53.5 -97.5t-51.5 -91t-48 -82.5l-615 -1042
h-82l-271 1044q-12 52 -26.5 112t-29.5 126t-31 134l18 -2q-7 -46 -14 -94t-14.5 -95.5t-14.5 -93.5t-15 -89l-172 -1042h-91z" />
    <glyph glyph-name="N" unicode="N" horiz-adv-x="1504" 
d="M95 0l247 1490h96l576 -1075q25 -45 51.5 -97.5t54.5 -109t55 -114.5l-17 -7q8 57 16 116t16.5 115.5t16.5 103.5l177 1068h92l-247 -1490h-95l-560 1038q-26 49 -54 104t-58.5 118t-65.5 135l18 9q-11 -74 -20.5 -139.5t-17.5 -122t-16 -103.5l-172 -1039h-93z" />
    <glyph glyph-name="O" unicode="O" horiz-adv-x="1489" 
d="M657 -21q-163 0 -281.5 73.5t-182.5 207t-64 311.5q0 175 53.5 342t155 302t243.5 215.5t319 80.5q162 0 280.5 -73.5t182.5 -206.5t64 -313q0 -173 -54 -340.5t-154.5 -302.5t-242.5 -215.5t-319 -80.5zM661 67q156 0 280.5 73.5t212.5 196t135 273t47 305.5
q0 158 -54 271.5t-152.5 175t-232.5 61.5q-157 0 -282 -73.5t-213.5 -196.5t-135.5 -273.5t-47 -305.5q0 -156 54 -270t153.5 -175.5t234.5 -61.5z" />
    <glyph glyph-name="P" unicode="P" horiz-adv-x="1210" 
d="M95 0l247 1490h483q138 0 230.5 -56t132.5 -156t18 -230q-21 -130 -93.5 -228.5t-184 -154t-249.5 -55.5h-428l14 85h427q112 0 201 44.5t147 124.5t75 185q17 106 -14.5 186t-105.5 125t-185 45h-390l-232 -1405h-93z" />
    <glyph glyph-name="Q" unicode="Q" horiz-adv-x="1489" 
d="M763 466h96l168 -286l16 -27l172 -293h-96l-140 239l-16 27zM657 -21q-163 0 -281.5 73.5t-182.5 207t-64 311.5q0 175 53.5 342t155 302t243.5 215.5t319 80.5q162 0 280.5 -73.5t182.5 -206.5t64 -313q0 -173 -54 -340.5t-154.5 -302.5t-242.5 -215.5t-319 -80.5z
M661 67q156 0 280.5 73.5t212.5 196t135 273t47 305.5q0 158 -54 271.5t-152.5 175t-232.5 61.5q-157 0 -282 -73.5t-213.5 -196.5t-135.5 -273.5t-47 -305.5q0 -156 54 -270t153.5 -175.5t234.5 -61.5z" />
    <glyph glyph-name="R" unicode="R" horiz-adv-x="1247" 
d="M95 0l247 1490h487q138 0 231 -54.5t133 -152.5t18 -229q-22 -129 -94.5 -226.5t-184 -151.5t-248.5 -54h-436l15 85h430q111 0 201 43.5t149 122t76 183.5q27 160 -54 254.5t-247 94.5h-398l-232 -1405h-93zM973 0l-249 675h99l251 -675h-101z" />
    <glyph glyph-name="S" unicode="S" horiz-adv-x="1216" 
d="M518 -23q-146 0 -248 50.5t-149.5 141t-33.5 211.5h92q-9 -99 28.5 -170t118 -109t196.5 -38q122 0 221 41t163 115t80 171q13 75 -11.5 130t-89 96.5t-172.5 75.5l-162 51q-175 55 -253 146t-55 229q19 115 93 204t186 139.5t246 50.5q136 0 231 -52t140.5 -143.5
t31.5 -211.5h-90q13 145 -71.5 233t-246.5 88q-109 0 -201 -40t-152.5 -110.5t-76.5 -160.5q-11 -71 14.5 -126t87.5 -95t156 -69l158 -50q89 -28 155.5 -64t109.5 -82.5t59.5 -107t3.5 -136.5q-19 -119 -94 -211t-193.5 -144.5t-271.5 -52.5z" />
    <glyph glyph-name="T" unicode="T" horiz-adv-x="1249" 
d="M227 1405l15 85h1080l-15 -85h-493l-233 -1405h-92l233 1405h-495z" />
    <glyph glyph-name="U" unicode="U" horiz-adv-x="1429" 
d="M627 -20q-161 0 -275.5 69.5t-166.5 189.5t-27 272l162 979h93l-162 -981q-22 -129 19.5 -228.5t134.5 -156.5t225 -57q137 0 251 58.5t190 160t98 229.5l161 975h92l-163 -986q-25 -152 -114.5 -270.5t-224 -186t-293.5 -67.5z" />
    <glyph glyph-name="V" unicode="V" horiz-adv-x="1296" 
d="M503 0l-308 1490h94l218 -1067q16 -80 33 -174t37 -209h-27q57 115 106 209.5t91 173.5l567 1067h101l-800 -1490h-112z" />
    <glyph glyph-name="W" unicode="W" horiz-adv-x="1893" 
d="M365 0l-170 1490h93l117 -1066q7 -62 12.5 -123.5t11 -124t10.5 -125.5h-16q25 63 50.5 125.5t51.5 124t53 123.5l465 1066h117l110 -1066q6 -62 12 -123.5t11 -124t10 -125.5h-17q26 63 51.5 125.5t52 124t53.5 123.5l471 1066h97l-664 -1490h-118l-113 1054
q-10 93 -17.5 189t-14.5 197h21q-40 -100 -79 -196t-81 -190l-461 -1054h-119z" />
    <glyph glyph-name="X" unicode="X" horiz-adv-x="1268" 
d="M-48 0l694 793l-12 -68l-413 765h104l225 -417q25 -47 47.5 -90t44.5 -86t43 -90h-24q38 47 74 90t73.5 86.5t77.5 89.5l367 417h111l-668 -763l11 68l430 -795h-104l-248 458q-23 44 -45 85.5t-43 83t-42 86.5h26q-37 -45 -71.5 -86.5t-70.5 -83t-74 -85.5l-401 -458
h-112z" />
    <glyph glyph-name="Y" unicode="Y" horiz-adv-x="1290" 
d="M509 0l112 675l-426 815h101l258 -493q36 -68 68.5 -134.5t65.5 -139.5h-38q56 73 111.5 140t111.5 134l420 493h116l-696 -815l-111 -675h-93z" />
    <glyph glyph-name="Z" unicode="Z" horiz-adv-x="1196" 
d="M27 0l13 75l1068 1329h-847l14 86h962l-13 -77l-1069 -1328h854l-14 -85h-968z" />
    <glyph glyph-name="bracketleft" unicode="[" horiz-adv-x="607" 
d="M73 -288l308 1861h282l-13 -80h-195l-282 -1701h196l-14 -80h-282z" />
    <glyph glyph-name="backslash" unicode="\" horiz-adv-x="624" 
d="M383 -224l-185 1784h85l185 -1784h-85z" />
    <glyph glyph-name="bracketright" unicode="]" horiz-adv-x="607" 
d="M-23 -288l13 80h196l281 1700h-195l13 81h283l-308 -1861h-283z" />
    <glyph glyph-name="asciicircum" unicode="^" horiz-adv-x="808" 
d="M530 1396h36l-9 -55h-36zM106 814l402 628h90l194 -628h-93l-166 556h21l-353 -556h-95z" />
    <glyph glyph-name="underscore" unicode="_" horiz-adv-x="900" 
d="M811 0l-15 -85h-900l15 85h900z" />
    <glyph glyph-name="grave" unicode="`" horiz-adv-x="525" 
d="M428 1230l-114 290h105l87 -290h-78z" />
    <glyph glyph-name="a" unicode="a" horiz-adv-x="1168" 
d="M454 -20q-134 0 -225 70.5t-128 197t-9 293.5q27 165 106 291.5t193.5 197t247.5 70.5q93 0 162 -34.5t112 -94t55 -134.5h5l41 247h88l-179 -1084h-88l40 242h-6q-38 -74 -101 -133.5t-142.5 -94t-171.5 -34.5zM474 63q113 0 207 60.5t158 168t87 249.5q24 142 -3 249.5
t-99.5 167t-185.5 59.5q-112 0 -207 -59.5t-160.5 -167t-89.5 -249.5q-23 -143 5.5 -250.5t102 -167.5t185.5 -60z" />
    <glyph glyph-name="b" unicode="b" horiz-adv-x="1168" 
d="M534 -20q-94 0 -163.5 34.5t-113 94.5t-59.5 135h-5l-40 -244h-88l247 1490h89l-108 -652h4q37 76 98.5 135t141 93t170.5 34q117 0 202 -54t131 -151t46 -228q0 -125 -38.5 -247.5t-110.5 -221.5t-174 -158.5t-229 -59.5zM527 63q108 0 195 52.5t148.5 140t94 194.5
t32.5 216q0 162 -80 256.5t-220 94.5q-111 0 -197.5 -52.5t-147 -140.5t-92 -195.5t-31.5 -215.5q0 -160 78 -255t220 -95z" />
    <glyph glyph-name="c" unicode="c" horiz-adv-x="1073" 
d="M480 -19q-129 0 -221 62t-137.5 171.5t-36.5 251.5q8 124 52.5 238t120 203.5t176 141.5t220.5 52q87 0 154.5 -28t114 -74t72 -102.5t28.5 -114.5l-87 -12q-3 45 -22 89t-54 80t-86.5 57.5t-121.5 21.5q-102 0 -186.5 -46t-147.5 -124.5t-100 -178t-44 -207.5
q-9 -118 25 -207.5t105.5 -140t176.5 -50.5q71 0 132.5 22.5t110.5 59.5t84 81.5t53 90.5l87 -17q-22 -58 -65.5 -115t-104.5 -103t-136.5 -74t-161.5 -28z" />
    <glyph glyph-name="d" unicode="d" horiz-adv-x="1167" 
d="M459 -20q-175 0 -276.5 117.5t-101.5 313.5q0 128 39 250.5t111.5 221.5t174.5 158t227 59q94 0 164.5 -35t114 -95t55.5 -135h5l108 655h89l-246 -1490h-88l40 241h-5q-39 -75 -100.5 -134.5t-140.5 -93t-170 -33.5zM470 63q110 0 197 53t147.5 141t92 195.5t31.5 215.5
q0 160 -78 254.5t-220 94.5q-109 0 -196 -52t-148 -139.5t-93.5 -194t-32.5 -216.5q0 -161 80 -256.5t220 -95.5z" />
    <glyph glyph-name="e" unicode="e" horiz-adv-x="1081" 
d="M483 -19q-121 0 -211 52t-140 149t-50 233q0 142 43.5 267t122.5 219.5t186.5 147.5t235.5 53q107 0 182 -37t114 -103t39 -152q0 -106 -59 -169t-170 -95t-270 -42.5t-359 -10.5l8 77q186 0 328 7.5t238.5 31t145.5 71.5t49 129q0 94 -64 152t-188 58q-115 0 -206.5 -50
t-156 -135.5t-98 -194t-33.5 -226.5q0 -103 35.5 -181.5t106.5 -123t175 -44.5q124 0 224 62t153 161l85 -16q-61 -128 -185 -209t-281 -81z" />
    <glyph glyph-name="f" unicode="f" horiz-adv-x="585" 
d="M635 1084l-13 -80h-537l13 80h537zM-109 -437q-17 0 -30.5 1t-27 2.5t-30.5 3.5l21 83q19 -2 35.5 -3.5t37.5 -1.5q80 0 130 41t64 127l241 1454q13 81 52.5 136.5t101 84.5t138.5 29q26 0 49.5 -2t46.5 -6l-22 -79q-18 3 -38 4t-44 1q-80 0 -130.5 -43t-65.5 -129
l-240 -1450q-13 -82 -51.5 -138.5t-98.5 -85.5t-139 -29z" />
    <glyph glyph-name="g" unicode="g" horiz-adv-x="1167" 
d="M412 -435q-115 0 -198 33t-130 95t-56 150l85 17q9 -67 45 -114.5t99.5 -73t156.5 -25.5q172 0 282 91t137 255l41 254l-4 -1q-40 -74 -101.5 -131.5t-139.5 -89.5t-168 -32q-116 0 -201 51.5t-132 146.5t-47 225q0 125 39 246.5t111.5 220.5t174 158t227.5 59
q72 0 129 -20t99.5 -56t69.5 -84.5t37 -104.5l5 1l41 248h88l-182 -1099q-23 -139 -93 -232.5t-176 -140.5t-239 -47zM472 76q111 0 197.5 51t146.5 137t91 191.5t31 213.5q0 159 -77.5 253.5t-220.5 94.5q-107 0 -194 -51.5t-148.5 -138t-94.5 -193t-33 -215.5
q0 -161 80.5 -252t221.5 -91z" />
    <glyph glyph-name="h" unicode="h" horiz-adv-x="1137" 
d="M268 691l-114 -691h-89l247 1490h89l-109 -654h-22q43 90 106 148.5t140.5 87t161.5 28.5q113 0 194.5 -48t119 -136t17.5 -212l-117 -704h-89l116 699q25 146 -47.5 231.5t-213.5 85.5q-95 0 -177.5 -39.5t-139 -113t-73.5 -172.5z" />
    <glyph glyph-name="i" unicode="i" horiz-adv-x="400" 
d="M66 0l179 1084h89l-179 -1084h-89zM329 1326q-29 0 -46.5 21t-12.5 50q4 29 29 49.5t54 20.5q30 0 47 -20.5t13 -49.5q-5 -29 -29.5 -50t-54.5 -21z" />
    <glyph glyph-name="j" unicode="j" horiz-adv-x="403" 
d="M249 1084h89l-204 -1231q-14 -83 -59 -144t-111.5 -94t-144.5 -33h-31l13 83h28q78 0 140 50.5t77 142.5zM333 1326q-29 0 -46.5 21t-12.5 50q4 29 29 49.5t54 20.5q30 0 47 -20.5t13 -49.5q-5 -29 -29.5 -50t-54.5 -21z" />
    <glyph glyph-name="k" unicode="k" horiz-adv-x="969" 
d="M213 430l21 124h20l622 530h117l-567 -483l-10 -4zM65 0l247 1490h89l-247 -1490h-89zM738 0l-373 588l75 60l412 -648h-114z" />
    <glyph glyph-name="l" unicode="l" horiz-adv-x="399" 
d="M401 1490l-247 -1490h-89l247 1490h89z" />
    <glyph glyph-name="m" unicode="m" horiz-adv-x="1719" 
d="M65 0l180 1084h87l-40 -245l-17 3q38 89 100 146t135 85t145 28q85 0 146.5 -35t95.5 -96.5t35 -144.5l-22 7q34 83 94 143.5t138 93t165 32.5q104 0 175 -46t101 -132.5t9 -208.5l-118 -714h-88l119 720q17 99 -6 165t-77.5 99t-133.5 33q-87 0 -162.5 -38t-127 -107.5
t-67.5 -165.5l-117 -706h-88l120 725q23 140 -36 216t-176 76q-86 0 -163.5 -40t-131 -112t-70.5 -168l-115 -697h-89z" />
    <glyph glyph-name="n" unicode="n" horiz-adv-x="1137" 
d="M268 688l-114 -688h-88l179 1084h87l-41 -248l-21 2q64 135 175 198.5t237 63.5q114 0 194.5 -48.5t116.5 -137.5t15 -213l-116 -701h-88l116 702q24 146 -45.5 230t-208.5 84q-97 0 -181.5 -40.5t-142 -114.5t-74.5 -173z" />
    <glyph glyph-name="o" unicode="o" horiz-adv-x="1133" 
d="M479 -21q-122 0 -211.5 56t-137.5 155.5t-48 230.5q0 127 41 248.5t117.5 218.5t182 155t232.5 58q122 0 210.5 -56t137 -155.5t48.5 -231.5q0 -127 -41.5 -248.5t-117.5 -218.5t-181 -154.5t-232 -57.5zM481 62q109 0 197.5 51.5t152 137.5t97.5 192t34 215
q0 108 -36 189t-105 126t-168 45q-107 0 -195.5 -51t-152.5 -136.5t-99.5 -192t-35.5 -217.5q0 -161 81.5 -260t229.5 -99z" />
    <glyph glyph-name="p" unicode="p" horiz-adv-x="1168" 
d="M-4 -418l249 1502h87l-41 -246h4q37 76 99 135t142.5 93t170.5 34q117 0 202 -54t131 -151t46 -228q0 -125 -38.5 -247.5t-110.5 -221.5t-174 -158.5t-229 -59.5q-94 0 -163.5 35t-112.5 95t-59 135h-4l-110 -663h-89zM527 63q109 0 195.5 52.5t148 140t94 194.5
t32.5 216q0 162 -80 256.5t-220 94.5q-111 0 -197.5 -52.5t-147 -140.5t-92 -195.5t-31.5 -215.5q0 -160 78 -255t220 -95z" />
    <glyph glyph-name="q" unicode="q" horiz-adv-x="1168" 
d="M853 -418h-89l110 659h-5q-40 -77 -101.5 -136t-139.5 -92t-169 -33q-116 0 -201 53.5t-131 150.5t-46 228q0 127 38.5 249t111.5 221.5t175 158.5t227 59q95 0 165 -35t113.5 -95t58.5 -135h4l41 249h87zM470 63q110 0 197 53t147.5 141t92 195.5t31.5 216.5
q0 159 -77.5 253.5t-218.5 94.5q-109 0 -196 -52t-148.5 -139.5t-94.5 -194t-33 -216.5q0 -162 79.5 -257t220.5 -95z" />
    <glyph glyph-name="r" unicode="r" horiz-adv-x="634" 
d="M66 0l179 1084h87l-30 -182h4q51 88 144 140.5t203 52.5q13 0 22.5 -0.5t19.5 -0.5l-15 -89q-7 1 -19.5 2t-30.5 1q-88 0 -164.5 -38.5t-128 -108.5t-67.5 -163l-115 -698h-89z" />
    <glyph glyph-name="s" unicode="s" horiz-adv-x="979" 
d="M403 -20q-105 0 -181 33t-118.5 95t-45.5 150q-1 11 0 17.5t1 17.5l87 6q-5 -118 63 -178t195 -60q94 0 172 33.5t126 93t49 136.5q1 62 -42.5 98.5t-128.5 57.5l-172 43q-120 31 -181 90.5t-58 151.5q2 100 59.5 175t151 117.5t204.5 42.5q146 0 229 -69.5t93 -196.5
v-16.5v-18.5l-85 -7q0 110 -59 169t-179 59q-88 0 -161.5 -33t-118 -90t-45.5 -130q-1 -63 44 -102.5t137 -62.5l169 -42q117 -29 176.5 -86t56.5 -148q-2 -78 -37 -141.5t-96 -109.5t-139 -70.5t-166 -24.5z" />
    <glyph glyph-name="t" unicode="t" horiz-adv-x="539" 
d="M585 1084l-14 -81h-486l14 81h486zM314 1362h89l-187 -1134q-14 -84 17.5 -120.5t111.5 -29.5q16 0 35 1.5t36 2.5l-5 -80q-18 -2 -39.5 -3.5t-41.5 -2.5q-118 -8 -170.5 53t-33.5 173z" />
    <glyph glyph-name="u" unicode="u" horiz-adv-x="1138" 
d="M456 -16q-112 0 -193 47.5t-118 136.5t-16 212l116 704h89l-116 -700q-23 -145 48.5 -231t212.5 -86q95 0 177.5 40t139.5 113t73 173l114 691h89l-180 -1084h-87l41 248h21q-64 -135 -174 -199.5t-237 -64.5z" />
    <glyph glyph-name="v" unicode="v" horiz-adv-x="1064" 
d="M393 0l-247 1084h91l159 -710q18 -80 33 -160.5t31 -159.5h-27q43 79 85.5 159.5t86.5 160.5l393 710h100l-606 -1084h-99z" />
    <glyph glyph-name="w" unicode="w" horiz-adv-x="1570" 
d="M287 0l-142 1084h91l85 -689q10 -80 18.5 -163.5t16.5 -172.5h-18q38 88 75.5 171.5t76.5 164.5l333 689h100l103 -689q12 -80 22 -163.5t19 -172.5h-18q37 88 73.5 171.5t72.5 164.5l314 689h95l-501 -1084h-102l-113 740q-7 47 -13 94.5t-11.5 96.5t-11.5 98h27
l-44 -98t-43.5 -96.5t-44.5 -94.5l-358 -740h-102z" />
    <glyph glyph-name="x" unicode="x" horiz-adv-x="1022" 
d="M-44 0l535 588l-12 -67l-323 563h101l151 -266q34 -60 65.5 -119t62.5 -117h-45q51 58 101.5 117t104.5 119l239 266h111l-510 -565l10 67l339 -586h-101l-174 303q-32 58 -61 113t-60 110h46q-49 -55 -96 -110t-99 -113l-274 -303h-111z" />
    <glyph glyph-name="y" unicode="y" horiz-adv-x="1064" 
d="M-30 -410l26 80l57 -2q52 -10 94.5 1t80 50t77.5 110l91 165l-250 1090h91l159 -710q18 -81 33.5 -162t30.5 -162h-27q42 81 84.5 162t87.5 162l393 710h100l-719 -1286q-43 -77 -88.5 -125.5t-98 -71.5t-116.5 -23q-30 0 -54.5 3.5t-51.5 8.5z" />
    <glyph glyph-name="z" unicode="z" horiz-adv-x="1006" 
d="M22 0l13 75l802 920l1 5h-631l14 84h747l-13 -79l-797 -917l-1 -4h660l-14 -84h-781z" />
    <glyph glyph-name="braceleft" unicode="{" horiz-adv-x="768" 
d="M147 622l11 66q124 0 178 47t74 169l55 332q15 86 42.5 149.5t71 105t104.5 62t141 20.5l-13 -80q-118 0 -178 -61t-82 -197l-58 -351q-11 -67 -33.5 -116t-62 -81.5t-101 -48.5t-149.5 -16zM516 -288q-80 0 -134.5 20.5t-84 62t-36.5 105t8 149.5l54 332q21 123 -17 170
t-163 48l11 66q88 0 144 -16.5t84.5 -49.5t35 -82.5t-5.5 -116.5l-57 -350q-23 -135 16.5 -196.5t157.5 -61.5zM143 598l15 90h160l-15 -90h-160z" />
    <glyph glyph-name="bar" unicode="|" horiz-adv-x="538" 
d="M546 1970l-406 -2450h-81l406 2450h81z" />
    <glyph glyph-name="braceright" unicode="}" horiz-adv-x="768" 
d="M648 622q-89 0 -144.5 16t-84.5 48.5t-35 81.5t5 116l58 351q22 136 -17.5 197t-157.5 61l13 80q81 0 135.5 -20.5t84 -62t36 -105t-7.5 -149.5l-55 -332q-20 -122 18 -169t163 -47zM-23 -288l13 80q119 0 179 61.5t81 196.5l58 350q12 67 34.5 116.5t62 82.5t100.5 49.5
t150 16.5l-11 -66q-125 -1 -179 -48.5t-74 -169.5l-55 -332q-14 -86 -41.5 -149.5t-71 -105t-104.5 -62t-142 -20.5zM644 599l-160 -1l15 90h160z" />
    <glyph glyph-name="asciitilde" unicode="~" horiz-adv-x="1261" 
d="M143 472q19 82 65 137t110 82.5t135 27.5q76 0 127 -30t101 -73q41 -34 76 -55t83 -21q71 0 127.5 44t81.5 119l83 -8q-23 -78 -69 -131.5t-106.5 -80.5t-127.5 -27q-69 1 -116.5 29.5t-96.5 70.5q-41 36 -79.5 57t-94.5 21q-77 1 -136 -43t-79 -123z" />
    <glyph glyph-name="uni00A0" unicode="&#xa0;" horiz-adv-x="517" 
 />
    <glyph glyph-name="exclamdown" unicode="&#xa1;" horiz-adv-x="485" 
d="M39 -394l184 1084h88l-174 -1084h-98zM308 942q-32 0 -52 23.5t-14 56.5q5 34 32.5 57t60.5 23t52.5 -23t14.5 -57q-6 -33 -33 -56.5t-61 -23.5z" />
    <glyph glyph-name="cent" unicode="&#xa2;" horiz-adv-x="1074" 
d="M430 0l247 1490h76l-247 -1490h-76zM513 186q-128 0 -220 62t-137.5 171t-36.5 252q8 124 52 238t120 203.5t176.5 141.5t219.5 52q87 0 154.5 -28t114.5 -74.5t72.5 -102.5t28.5 -114l-87 -12q-3 45 -22 88.5t-54 79.5t-87 58t-121 22q-102 0 -186.5 -46t-147.5 -124.5
t-100 -178t-44 -207.5q-9 -118 24.5 -208t105.5 -140t177 -50q71 0 132 22.5t110 59.5t84.5 81.5t53.5 90.5l86 -17q-21 -58 -64.5 -115t-104.5 -103t-136.5 -74t-162.5 -28z" />
    <glyph glyph-name="sterling" unicode="&#xa3;" horiz-adv-x="1176" 
d="M19 44l7 41q92 0 149 62t72 184l87 723q16 134 82 236t171 159.5t234 57.5q120 0 202.5 -51t120.5 -140.5t21 -206.5l-88 -4q20 142 -47.5 229.5t-211.5 87.5q-102 0 -187 -45.5t-140 -127.5t-68 -192l-87 -723q-8 -61 -28 -108t-50.5 -82t-68.5 -57t-81 -32.5t-89 -10.5
zM6 0l14 85h755q71 0 108 31.5t48 102.5l9 53h87l-8 -47q-19 -113 -83 -169t-177 -56h-753zM122 697l13 79h737l-13 -79h-737z" />
    <glyph glyph-name="currency" unicode="&#xa4;" horiz-adv-x="1364" 
d="M586 -20q-122 0 -220 48t-164 133.5t-92 200t-4 246.5q22 134 85.5 248t157 199t207 132t235.5 47q124 0 222.5 -47.5t164.5 -132.5t92 -199t5 -247q-22 -133 -85.5 -247.5t-158 -200t-208 -133t-237.5 -47.5zM598 64q105 0 202.5 41.5t178 116.5t135.5 173.5t74 212.5
q26 154 -20 276.5t-147.5 194t-241.5 70.5q-139 1 -264 -70.5t-212 -194.5t-113 -276q-25 -152 21.5 -275.5t147 -196t239.5 -72.5zM1169 977l-50 64l215 189l51 -64zM1130 -5l-153 189l70 62l152 -188zM48 -5l-50 64l215 188l50 -63zM336 978l-152 189l69 63l152 -189z" />
    <glyph glyph-name="yen" unicode="&#xa5;" horiz-adv-x="1029" 
d="M269 1490l295 -841l-85 -21l-312 862h102zM500 649l573 841h104l-598 -862zM592 722l-120 -722h-93l121 722h92zM928 694l-12 -75h-776l13 75h775zM892 477l-12 -75h-776l13 75h775z" />
    <glyph glyph-name="brokenbar" unicode="&#xa6;" horiz-adv-x="378" 
d="M122 391h85l-112 -671h-85zM388 1490l-110 -669h-86l111 669h85z" />
    <glyph glyph-name="section" unicode="&#xa7;" horiz-adv-x="1056" 
d="M383 -302q-106 0 -181.5 38.5t-113.5 111t-33 176.5l87 8q-4 -121 62 -186.5t189 -65.5q118 0 207 59.5t106 166.5q9 48 -5 85t-55 75t-116 87l-160 105q-92 62 -149 115.5t-80 109t-12 120.5q12 75 56 129.5t104 83t120 26.5l3 3q-57 52 -91.5 108.5t-19.5 147.5
q15 90 68.5 159t136.5 108t185 39q103 0 169 -38.5t97.5 -109t25.5 -166.5l-85 -9q5 111 -47.5 176t-168.5 65q-118 0 -197.5 -65t-96.5 -165q-9 -55 8 -96t56 -76t98 -74l158 -105q93 -62 149 -115t78.5 -107t11.5 -119q-12 -76 -56 -131.5t-103.5 -84.5t-119.5 -24l-4 -2
q55 -41 86.5 -81t42.5 -83.5t2 -96.5q-15 -92 -73.5 -160t-146 -105t-192.5 -37zM564 335q57 -38 122 -23.5t115 66.5t63 126q8 51 -10.5 91.5t-65.5 82.5t-128 95l-145 94q-58 39 -123.5 25.5t-116 -64.5t-62.5 -124q-8 -51 10.5 -93t67.5 -85t131 -98z" />
    <glyph glyph-name="dieresis" unicode="&#xa8;" horiz-adv-x="1137" 
d="M903 1326q-29 0 -46 21t-12 50q4 29 28.5 49.5t53.5 20.5t46 -20.5t12 -49.5t-29 -50t-53 -21zM494 1326q-29 0 -46 21t-13 50q5 29 29.5 49.5t53.5 20.5t46 -20.5t12 -49.5t-29 -50t-53 -21z" />
    <glyph glyph-name="copyright" unicode="&#xa9;" horiz-adv-x="1815" 
d="M524 744q20 120 93 218t179.5 156t225.5 58q92 0 164 -35.5t117.5 -98t54.5 -143.5h-93q-16 85 -83.5 137.5t-167.5 52.5q-95 0 -181.5 -46t-146 -124.5t-75.5 -174.5q-15 -95 18.5 -172.5t104.5 -124t166 -46.5q101 0 182.5 52t125.5 136h93q-35 -80 -96.5 -142.5
t-141 -98.5t-171.5 -36q-119 0 -209.5 58.5t-134 156.5t-24.5 217zM814 -23q-142 0 -261 49t-206.5 136.5t-136 204.5t-48.5 252q0 177 73.5 337.5t200 286t289.5 198t343 72.5q141 0 260.5 -49t207 -136t136 -203.5t48.5 -252.5q0 -177 -73.5 -338t-200 -286.5t-289.5 -198
t-343 -72.5zM823 65q162 0 307.5 64t258 175.5t177.5 255.5t65 303q0 161 -73 288t-202 200.5t-297 73.5q-162 0 -307.5 -64t-258 -175.5t-178 -255t-65.5 -301.5q0 -162 73 -289.5t202.5 -201t297.5 -73.5z" />
    <glyph glyph-name="ordfeminine" unicode="&#xaa;" horiz-adv-x="854" 
d="M372 639q-78 0 -139 27.5t-91 82.5t-17 135q13 77 59 125.5t127 76t196 40.5q112 14 178 28.5t74 64.5l4 23q14 85 -40.5 138.5t-156.5 53.5q-65 0 -121 -21.5t-95 -59.5t-55 -86l-82 10q24 70 78 122t128 81t159 29q66 0 120 -18.5t91.5 -53t53 -84.5t5.5 -114l-97 -585
h-84l25 150h-5q-45 -71 -126.5 -118t-188.5 -47zM396 712q82 0 150.5 35t115 97.5t60.5 145.5l20 124q-20 -15 -56 -25.5t-82.5 -17.5t-101.5 -15q-140 -17 -209.5 -57t-82.5 -116q-14 -81 41 -126t145 -45z" />
    <glyph glyph-name="guillemotleft" unicode="&#xab;" horiz-adv-x="944" 
d="M405 144l-318 466l472 466h105l-467 -466l313 -466h-105zM700 144l-318 466l472 466h105l-467 -466l313 -466h-105z" />
    <glyph glyph-name="logicalnot" unicode="&#xac;" horiz-adv-x="1261" 
d="M863 315l51 310h-676l13 83h762l-65 -393h-85z" />
    <glyph glyph-name="registered" unicode="&#xae;" horiz-adv-x="1306" 
d="M620 346q-120 0 -218 45.5t-165 125.5t-94.5 185.5t-7.5 225.5t82.5 225.5t156 185.5t206.5 125.5t233 45.5t218 -45.5t165 -125.5t95 -185.5t8 -225.5t-83 -225.5t-156.5 -185.5t-206.5 -125.5t-233 -45.5zM630 423q105 0 203.5 39.5t179.5 109.5t136 162t73 197
q23 138 -26.5 252t-152 182t-240.5 68q-105 0 -203 -39.5t-179.5 -109.5t-136 -162t-71.5 -197q-23 -138 25.5 -252t151 -182t240.5 -68zM830 665l-89 244h79l92 -244h-82zM479 665l88 536h234q54 0 91 -20.5t53.5 -58t7.5 -87.5q-8 -50 -37 -88t-73.5 -59.5t-98.5 -21.5
h-190l10 64h183q54 0 88.5 28.5t42.5 76.5q7 49 -18 75t-79 26h-151l-78 -471h-73z" />
    <glyph glyph-name="macron" unicode="&#xaf;" horiz-adv-x="821" 
d="M805 1430l-13 -78h-495l14 78h494z" />
    <glyph glyph-name="degree" unicode="&#xb0;" horiz-adv-x="871" 
d="M516 880q-87 0 -154.5 42t-103 113.5t-28.5 157.5q9 88 57.5 159t123.5 113t162 42t154 -42t102.5 -113t27.5 -159q-8 -86 -56.5 -157.5t-123.5 -113.5t-161 -42zM523 961q64 0 119.5 31t92 84t42.5 118t-20.5 117.5t-76.5 84t-114 31.5q-65 0 -121 -31.5t-92 -84.5
t-42 -117q-6 -65 20.5 -118t77 -84t114.5 -31z" />
    <glyph glyph-name="plusminus" unicode="&#xb1;" horiz-adv-x="1261" 
d="M122 117l14 85h876l-14 -85h-876zM217 685l14 85h876l-15 -85h-875zM554 338l129 780h86l-129 -780h-86z" />
    <glyph glyph-name="two.sups" unicode="&#xb2;" horiz-adv-x="817" 
d="M168 894l11 68l365 270q68 52 111.5 89.5t66 70t28.5 68.5q11 68 -37.5 110t-135.5 42q-90 0 -153 -45.5t-75 -117.5h-85q17 105 107.5 172t218.5 67q124 0 193.5 -62.5t53.5 -161.5q-6 -35 -22 -67.5t-46 -66t-75.5 -71.5t-111.5 -85l-276 -200v-3h476l-13 -77h-601z
" />
    <glyph glyph-name="three.sups" unicode="&#xb3;" horiz-adv-x="813" 
d="M467 884q-90 0 -155.5 29t-97 80.5t-21.5 117.5h90q-11 -68 45 -110t151 -42q99 0 167.5 43.5t79.5 107.5q11 67 -50.5 108.5t-170.5 41.5h-43l12 71h43q95 0 163.5 38.5t78.5 102.5q10 62 -37.5 102t-135.5 40q-87 0 -151 -40.5t-75 -106.5h-87q11 65 56.5 114.5
t115.5 78t154 28.5q125 0 194 -60.5t54 -150.5q-11 -66 -67 -113t-140 -63v-3q94 -15 140.5 -67t34.5 -125q-10 -63 -58.5 -113.5t-123 -79.5t-166.5 -29z" />
    <glyph glyph-name="acute" unicode="&#xb4;" horiz-adv-x="350" 
d="M159 1260l210 274h105l-235 -274h-80z" />
    <glyph glyph-name="uni00B5" unicode="&#xb5;" horiz-adv-x="1149" 
d="M-4 -418l249 1502h89l-115 -692q-16 -100 14.5 -173t97.5 -113t160 -40q94 0 173 40.5t133.5 113.5t70.5 172l115 692h88l-143 -869q-12 -73 13 -103.5t93 -30.5h26l-14 -81h-27q-107 0 -151.5 53t-27.5 162l25 147h37q-18 -108 -64 -180.5t-107.5 -116t-127 -62.5
t-121.5 -19q-57 0 -117.5 19t-109.5 62.5t-72.5 116t-5.5 180.5h37l-129 -780h-89z" />
    <glyph glyph-name="paragraph" unicode="&#xb6;" horiz-adv-x="1096" 
d="M1037 1404h-229l-141 -852h-84q-159 0 -259 61t-139 167.5t-17 241.5q23 134 97 239.5t194 167t279 61.5h313zM729 0l246 1490h92l-247 -1490h-91z" />
    <glyph glyph-name="periodcentered" unicode="&#xb7;" horiz-adv-x="483" 
d="M260 621q-34 0 -55 25t-15 59q5 32 30 52.5t55 20.5q35 0 55.5 -25t15.5 -59q-5 -31 -30 -52t-56 -21z" />
    <glyph glyph-name="cedilla" unicode="&#xb8;" horiz-adv-x="403" 
d="M-52 -418l11 65h104q60 0 96 25t43 71q8 46 -19 71.5t-92 25.5h-66l67 188h55v-28l-32 -97q89 -3 131.5 -44.5t30.5 -114.5q-13 -78 -72 -120t-152 -42h-105z" />
    <glyph glyph-name="one.sups" unicode="&#xb9;" horiz-adv-x="528" 
d="M579 1676l-130 -782h-88l116 700h-4l-231 -124l14 86l225 120h98z" />
    <glyph glyph-name="ordmasculine" unicode="&#xba;" horiz-adv-x="912" 
d="M472 638q-113 0 -190.5 56t-110.5 154.5t-12 224.5q22 127 87 225.5t161 154.5t209 56t190.5 -56t110.5 -154t12 -226q-21 -126 -86.5 -224.5t-161 -154.5t-209.5 -56zM485 714q89 0 164 46.5t125.5 128t67.5 184.5q17 104 -7 185t-83 127.5t-148 46.5t-164 -46.5
t-126 -127.5t-68 -185t6.5 -185t83.5 -127.5t149 -46.5z" />
    <glyph glyph-name="guillemotright" unicode="&#xbb;" horiz-adv-x="945" 
d="M4 144l467 466l-313 466h105l318 -466l-472 -466h-105zM299 144l467 466l-313 466h105l318 -466l-472 -466h-105z" />
    <glyph glyph-name="onequarter" unicode="&#xbc;" horiz-adv-x="1401" 
d="M510 1490l-130 -782h-84l116 702h-3l-207 -125l14 84l200 121h94zM4 0l1269 1490h94l-1269 -1490h-94zM670 175l11 67l464 540h57l-17 -102h-37l-372 -429l-1 -4h497l-12 -72h-590zM1038 0l32 196l6 30l92 556h82l-130 -782h-82z" />
    <glyph glyph-name="onehalf" unicode="&#xbd;" horiz-adv-x="1521" 
d="M510 1490l-130 -782h-84l116 702h-3l-207 -125l14 84l200 121h94zM4 0l1269 1490h94l-1269 -1490h-94zM805 0l10 65l326 273q62 53 100.5 91t58.5 71t25 69q12 69 -26.5 110.5t-113.5 41.5q-77 0 -133.5 -45.5t-69.5 -117.5h-82q17 103 96 169t192 66q111 0 173.5 -62
t45.5 -160q-5 -33 -19.5 -64.5t-40.5 -65t-67 -73t-101 -90.5l-238 -201l-1 -4h407l-12 -73h-530z" />
    <glyph glyph-name="threequarters" unicode="&#xbe;" horiz-adv-x="1596" 
d="M398 697q-80 0 -137.5 28.5t-85 79t-18.5 115.5h86q-10 -67 35.5 -108.5t126.5 -41.5q83 0 144 42t73 107q13 69 -37 112t-146 43h-43l11 70h43q81 0 140.5 39.5t69.5 104.5q11 63 -28.5 102t-113.5 39t-131 -40t-69 -106h-83q12 64 53 113.5t103.5 77t135.5 27.5
q113 0 172.5 -61t44.5 -148q-11 -66 -60.5 -113.5t-124.5 -64.5l-1 -4q86 -15 124.5 -68t26.5 -126q-17 -94 -104 -156.5t-207 -62.5zM198 0l1269 1490h94l-1269 -1490h-94zM864 175l11 67l464 540h57l-17 -102h-37l-372 -429l-1 -4h497l-12 -72h-590zM1232 0l32 196l6 30
l92 556h82l-130 -782h-82z" />
    <glyph glyph-name="questiondown" unicode="&#xbf;" horiz-adv-x="940" 
d="M554 681l-14 -85q-14 -85 -45.5 -142t-85 -102t-134.5 -96q-111 -68 -163 -133.5t-65 -142.5q-14 -85 16 -149.5t94 -100t151 -35.5q92 0 170.5 40.5t132.5 113.5t70 168h92q-20 -118 -86.5 -210t-165 -144t-216.5 -52q-114 0 -199 48.5t-125.5 132.5t-22.5 192
q17 101 79.5 179t188.5 157q76 48 121 86.5t68 83.5t34 109l14 82h91zM583 1134q33 0 52 -22.5t14 -56.5q-6 -32 -32.5 -55t-59.5 -23t-52 23t-14 55q6 34 32.5 56.5t59.5 22.5z" />
    <glyph glyph-name="Agrave" unicode="&#xc0;" horiz-adv-x="1296" 
d="M-51 0l800 1490h112l307 -1490h-93l-216 1067q-15 80 -33 173.5t-37 209.5h27q-57 -115 -104.5 -208t-92.5 -175l-568 -1067h-102zM266 468l14 85h740l-14 -85h-740zM795 1636l-114 290h105l87 -290h-78z" />
    <glyph glyph-name="Aacute" unicode="&#xc1;" horiz-adv-x="1296" 
d="M-51 0l800 1490h112l307 -1490h-93l-216 1067q-15 80 -33 173.5t-37 209.5h27q-57 -115 -104.5 -208t-92.5 -175l-568 -1067h-102zM266 468l14 85h740l-14 -85h-740zM786 1666l210 274h105l-235 -274h-80z" />
    <glyph glyph-name="Acircumflex" unicode="&#xc2;" horiz-adv-x="1296" 
d="M-51 0l800 1490h112l307 -1490h-93l-216 1067q-15 80 -33 173.5t-37 209.5h27q-57 -115 -104.5 -208t-92.5 -175l-568 -1067h-102zM266 468l14 85h740l-14 -85h-740zM641 1661h-95l1 4l295 272h76l206 -272l-1 -4h-97l-157 212z" />
    <glyph glyph-name="Atilde" unicode="&#xc3;" horiz-adv-x="1296" 
d="M-51 0l800 1490h112l307 -1490h-93l-216 1067q-15 80 -33 173.5t-37 209.5h27q-57 -115 -104.5 -208t-92.5 -175l-568 -1067h-102zM266 468l14 85h740l-14 -85h-740zM973 1710q-40 0 -70 16t-54.5 37t-48.5 37t-54 16q-42 0 -71.5 -28t-39.5 -72h-72q17 75 66 124t118 49
q45 0 75 -16t53 -37t46 -37.5t52 -16.5q37 0 63 23.5t45 75.5h72q-22 -79 -70 -125t-110 -46z" />
    <glyph glyph-name="Adieresis" unicode="&#xc4;" horiz-adv-x="1296" 
d="M-51 0l800 1490h112l307 -1490h-93l-216 1067q-15 80 -33 173.5t-37 209.5h27q-57 -115 -104.5 -208t-92.5 -175l-568 -1067h-102zM266 468l14 85h740l-14 -85h-740zM1050 1732q-29 0 -46 21t-12 50q4 29 28.5 49.5t53.5 20.5t46 -20.5t12 -49.5t-29 -50t-53 -21z
M641 1732q-29 0 -46 21t-13 50q5 29 29.5 49.5t53.5 20.5t46 -20.5t12 -49.5t-29 -50t-53 -21z" />
    <glyph glyph-name="Aring" unicode="&#xc5;" horiz-adv-x="1296" 
d="M-51 0l800 1490h112l307 -1490h-93l-216 1067q-15 80 -33 173.5t-37 209.5h27q-57 -115 -104.5 -208t-92.5 -175l-568 -1067h-102zM266 468l14 85h740l-14 -85h-740zM833 1618q-54 0 -94 26t-59.5 69.5t-10.5 95.5q8 50 39.5 90.5t77.5 64.5t97 24q54 0 94.5 -26
t59.5 -69t11 -96q-8 -49 -40 -90t-78 -65t-97 -24zM837 1690q49 0 89 33.5t48 81.5q8 47 -20 79.5t-75 32.5q-49 0 -88.5 -34t-47.5 -82q-8 -46 19.5 -78.5t74.5 -32.5z" />
    <glyph glyph-name="AE" unicode="&#xc6;" horiz-adv-x="1922" 
d="M-51 0l984 1490h1024l-14 -86h-737l-102 -615h693l-14 -85h-692l-103 -619h755l-14 -85h-849l233 1403h-138l-924 -1403h-102zM335 481l14 84h674l-15 -84h-673z" />
    <glyph glyph-name="Ccedilla" unicode="&#xc7;" horiz-adv-x="1435" 
d="M659 -21q-164 0 -283 73t-183 206t-64 313q0 174 53.5 341.5t155 302.5t244 215.5t320.5 80.5q127 0 222 -41.5t158 -112t94.5 -157.5t32.5 -179h-92q-4 77 -31 149t-79 129t-129 90.5t-179 33.5q-152 0 -277 -71.5t-215 -192.5t-139 -273t-49 -314q0 -163 57.5 -276
t157.5 -171t229 -58q104 0 194 33.5t162 90.5t124.5 129t81.5 149h93q-31 -91 -90.5 -178t-144.5 -157.5t-191.5 -112.5t-232.5 -42zM485 -420l11 65h104q60 0 96 25t43 71q8 46 -19 71.5t-92 25.5h-66l67 188h55v-28l-32 -97q89 -3 131.5 -44.5t30.5 -114.5
q-13 -78 -72 -120t-152 -42h-105z" />
    <glyph glyph-name="Egrave" unicode="&#xc8;" horiz-adv-x="1180" 
d="M95 0l247 1490h884l-15 -86h-790l-100 -606h731l-14 -85h-731l-104 -628h798l-14 -85h-892zM777 1636l-114 290h105l87 -290h-78z" />
    <glyph glyph-name="Eacute" unicode="&#xc9;" horiz-adv-x="1180" 
d="M95 0l247 1490h884l-15 -86h-790l-100 -606h731l-14 -85h-731l-104 -628h798l-14 -85h-892zM768 1666l210 274h105l-235 -274h-80z" />
    <glyph glyph-name="Ecircumflex" unicode="&#xca;" horiz-adv-x="1180" 
d="M95 0l247 1490h884l-15 -86h-790l-100 -606h731l-14 -85h-731l-104 -628h798l-14 -85h-892zM623 1661h-95l1 4l295 272h76l206 -272l-1 -4h-97l-157 212z" />
    <glyph glyph-name="Edieresis" unicode="&#xcb;" horiz-adv-x="1180" 
d="M95 0l247 1490h884l-15 -86h-790l-100 -606h731l-14 -85h-731l-104 -628h798l-14 -85h-892zM1032 1732q-29 0 -46 21t-12 50q4 29 28.5 49.5t53.5 20.5t46 -20.5t12 -49.5t-29 -50t-53 -21zM623 1732q-29 0 -46 21t-13 50q5 29 29.5 49.5t53.5 20.5t46 -20.5t12 -49.5
t-29 -50t-53 -21z" />
    <glyph glyph-name="Igrave" unicode="&#xcc;" horiz-adv-x="463" 
d="M435 1490l-247 -1490h-93l247 1490h93zM377 1636l-114 290h105l87 -290h-78z" />
    <glyph glyph-name="Iacute" unicode="&#xcd;" horiz-adv-x="463" 
d="M435 1490l-247 -1490h-93l247 1490h93zM368 1666l210 274h105l-235 -274h-80z" />
    <glyph glyph-name="Icircumflex" unicode="&#xce;" horiz-adv-x="463" 
d="M435 1490l-247 -1490h-93l247 1490h93zM223 1661h-95l1 4l295 272h76l206 -272l-1 -4h-97l-157 212z" />
    <glyph glyph-name="Idieresis" unicode="&#xcf;" horiz-adv-x="463" 
d="M435 1490l-247 -1490h-93l247 1490h93zM633 1732q-29 0 -46 21t-12 50q4 29 28.5 49.5t53.5 20.5t46 -20.5t12 -49.5t-29 -50t-53 -21zM224 1732q-29 0 -46 21t-13 50q5 29 29.5 49.5t53.5 20.5t46 -20.5t12 -49.5t-29 -50t-53 -21z" />
    <glyph glyph-name="Eth" unicode="&#xd0;" horiz-adv-x="1430" 
d="M545 0h-376l14 85h357q200 0 350 79.5t245 228.5t129 356q34 206 -5.5 352.5t-152.5 225t-301 78.5h-406l14 85h393q210 0 345.5 -88.5t189 -254.5t14.5 -398q-38 -236 -145.5 -403.5t-275.5 -256.5t-389 -89zM458 1490l-247 -1490h-93l247 1490h93zM51 704l13 82h622
l-14 -82h-621z" />
    <glyph glyph-name="Ntilde" unicode="&#xd1;" horiz-adv-x="1504" 
d="M95 0l247 1490h96l576 -1075q25 -45 51.5 -97.5t54.5 -109t55 -114.5l-17 -7q8 57 16 116t16.5 115.5t16.5 103.5l177 1068h92l-247 -1490h-95l-560 1038q-26 49 -54 104t-58.5 118t-65.5 135l18 9q-11 -74 -20.5 -139.5t-17.5 -122t-16 -103.5l-172 -1039h-93z
M1076 1710q-40 0 -70 16t-54.5 37t-48.5 37t-54 16q-42 0 -71.5 -28t-39.5 -72h-72q17 75 66 124t118 49q45 0 75 -16t53 -37t46 -37.5t52 -16.5q37 0 63 23.5t45 75.5h72q-22 -79 -70 -125t-110 -46z" />
    <glyph glyph-name="Ograve" unicode="&#xd2;" horiz-adv-x="1489" 
d="M657 -21q-163 0 -281.5 73.5t-182.5 207t-64 311.5q0 175 53.5 342t155 302t243.5 215.5t319 80.5q162 0 280.5 -73.5t182.5 -206.5t64 -313q0 -173 -54 -340.5t-154.5 -302.5t-242.5 -215.5t-319 -80.5zM661 67q156 0 280.5 73.5t212.5 196t135 273t47 305.5
q0 158 -54 271.5t-152.5 175t-232.5 61.5q-157 0 -282 -73.5t-213.5 -196.5t-135.5 -273.5t-47 -305.5q0 -156 54 -270t153.5 -175.5t234.5 -61.5zM891 1636l-114 290h105l87 -290h-78z" />
    <glyph glyph-name="Oacute" unicode="&#xd3;" horiz-adv-x="1489" 
d="M657 -21q-163 0 -281.5 73.5t-182.5 207t-64 311.5q0 175 53.5 342t155 302t243.5 215.5t319 80.5q162 0 280.5 -73.5t182.5 -206.5t64 -313q0 -173 -54 -340.5t-154.5 -302.5t-242.5 -215.5t-319 -80.5zM661 67q156 0 280.5 73.5t212.5 196t135 273t47 305.5
q0 158 -54 271.5t-152.5 175t-232.5 61.5q-157 0 -282 -73.5t-213.5 -196.5t-135.5 -273.5t-47 -305.5q0 -156 54 -270t153.5 -175.5t234.5 -61.5zM882 1666l210 274h105l-235 -274h-80z" />
    <glyph glyph-name="Ocircumflex" unicode="&#xd4;" horiz-adv-x="1489" 
d="M657 -21q-163 0 -281.5 73.5t-182.5 207t-64 311.5q0 175 53.5 342t155 302t243.5 215.5t319 80.5q162 0 280.5 -73.5t182.5 -206.5t64 -313q0 -173 -54 -340.5t-154.5 -302.5t-242.5 -215.5t-319 -80.5zM661 67q156 0 280.5 73.5t212.5 196t135 273t47 305.5
q0 158 -54 271.5t-152.5 175t-232.5 61.5q-157 0 -282 -73.5t-213.5 -196.5t-135.5 -273.5t-47 -305.5q0 -156 54 -270t153.5 -175.5t234.5 -61.5zM737 1661h-95l1 4l295 272h76l206 -272l-1 -4h-97l-157 212z" />
    <glyph glyph-name="Otilde" unicode="&#xd5;" horiz-adv-x="1489" 
d="M657 -21q-163 0 -281.5 73.5t-182.5 207t-64 311.5q0 175 53.5 342t155 302t243.5 215.5t319 80.5q162 0 280.5 -73.5t182.5 -206.5t64 -313q0 -173 -54 -340.5t-154.5 -302.5t-242.5 -215.5t-319 -80.5zM661 67q156 0 280.5 73.5t212.5 196t135 273t47 305.5
q0 158 -54 271.5t-152.5 175t-232.5 61.5q-157 0 -282 -73.5t-213.5 -196.5t-135.5 -273.5t-47 -305.5q0 -156 54 -270t153.5 -175.5t234.5 -61.5zM1069 1710q-40 0 -70 16t-54.5 37t-48.5 37t-54 16q-42 0 -71.5 -28t-39.5 -72h-72q17 75 66 124t118 49q45 0 75 -16t53 -37
t46 -37.5t52 -16.5q37 0 63 23.5t45 75.5h72q-22 -79 -70 -125t-110 -46z" />
    <glyph glyph-name="Odieresis" unicode="&#xd6;" horiz-adv-x="1489" 
d="M657 -21q-163 0 -281.5 73.5t-182.5 207t-64 311.5q0 175 53.5 342t155 302t243.5 215.5t319 80.5q162 0 280.5 -73.5t182.5 -206.5t64 -313q0 -173 -54 -340.5t-154.5 -302.5t-242.5 -215.5t-319 -80.5zM661 67q156 0 280.5 73.5t212.5 196t135 273t47 305.5
q0 158 -54 271.5t-152.5 175t-232.5 61.5q-157 0 -282 -73.5t-213.5 -196.5t-135.5 -273.5t-47 -305.5q0 -156 54 -270t153.5 -175.5t234.5 -61.5zM1146 1732q-29 0 -46 21t-12 50q4 29 28.5 49.5t53.5 20.5t46 -20.5t12 -49.5t-29 -50t-53 -21zM737 1732q-29 0 -46 21
t-13 50q5 29 29.5 49.5t53.5 20.5t46 -20.5t12 -49.5t-29 -50t-53 -21z" />
    <glyph glyph-name="multiply" unicode="&#xd7;" horiz-adv-x="1261" 
d="M944 143l-684 820l66 55l684 -820zM188 142l-55 65l950 813l56 -66z" />
    <glyph glyph-name="Oslash" unicode="&#xd8;" horiz-adv-x="1489" 
d="M657 -23q-163 0 -281.5 73.5t-182.5 207t-64 311.5q0 175 53.5 342t155 302t243.5 215.5t319 80.5q162 0 280.5 -73.5t182.5 -206.5t64 -313q0 -173 -54 -340.5t-154.5 -302.5t-242.5 -215.5t-319 -80.5zM661 65q156 0 280.5 73.5t212.5 196t135 273t47 305.5
q0 158 -54 271.5t-152.5 175t-232.5 61.5q-157 0 -282 -73.5t-213.5 -196.5t-135.5 -273.5t-47 -305.5q0 -156 54 -270t153.5 -175.5t234.5 -61.5zM178 -27l-61 50l1263 1490l60 -50z" />
    <glyph glyph-name="Ugrave" unicode="&#xd9;" horiz-adv-x="1429" 
d="M627 -20q-161 0 -275.5 69.5t-166.5 189.5t-27 272l162 979h93l-162 -981q-22 -129 19.5 -228.5t134.5 -156.5t225 -57q137 0 251 58.5t190 160t98 229.5l161 975h92l-163 -986q-25 -152 -114.5 -270.5t-224 -186t-293.5 -67.5zM860 1636l-114 290h105l87 -290h-78z" />
    <glyph glyph-name="Uacute" unicode="&#xda;" horiz-adv-x="1429" 
d="M627 -20q-161 0 -275.5 69.5t-166.5 189.5t-27 272l162 979h93l-162 -981q-22 -129 19.5 -228.5t134.5 -156.5t225 -57q137 0 251 58.5t190 160t98 229.5l161 975h92l-163 -986q-25 -152 -114.5 -270.5t-224 -186t-293.5 -67.5zM851 1666l210 274h105l-235 -274h-80z" />
    <glyph glyph-name="Ucircumflex" unicode="&#xdb;" horiz-adv-x="1429" 
d="M627 -20q-161 0 -275.5 69.5t-166.5 189.5t-27 272l162 979h93l-162 -981q-22 -129 19.5 -228.5t134.5 -156.5t225 -57q137 0 251 58.5t190 160t98 229.5l161 975h92l-163 -986q-25 -152 -114.5 -270.5t-224 -186t-293.5 -67.5zM706 1661h-95l1 4l295 272h76l206 -272
l-1 -4h-97l-157 212z" />
    <glyph glyph-name="Udieresis" unicode="&#xdc;" horiz-adv-x="1429" 
d="M627 -20q-161 0 -275.5 69.5t-166.5 189.5t-27 272l162 979h93l-162 -981q-22 -129 19.5 -228.5t134.5 -156.5t225 -57q137 0 251 58.5t190 160t98 229.5l161 975h92l-163 -986q-25 -152 -114.5 -270.5t-224 -186t-293.5 -67.5zM1116 1732q-29 0 -46 21t-12 50
q4 29 28.5 49.5t53.5 20.5t46 -20.5t12 -49.5t-29 -50t-53 -21zM707 1732q-29 0 -46 21t-13 50q5 29 29.5 49.5t53.5 20.5t46 -20.5t12 -49.5t-29 -50t-53 -21z" />
    <glyph glyph-name="Yacute" unicode="&#xdd;" horiz-adv-x="1290" 
d="M509 0l112 675l-426 815h101l258 -493q36 -68 68.5 -134.5t65.5 -139.5h-38q56 73 111.5 140t111.5 134l420 493h116l-696 -815l-111 -675h-93zM782 1666l210 274h105l-235 -274h-80z" />
    <glyph glyph-name="Thorn" unicode="&#xde;" horiz-adv-x="1180" 
d="M324 1490h92l-247 -1490h-91zM312 1149h381q144 0 236.5 -52t131 -142t20.5 -204q-19 -118 -86 -208.5t-176.5 -141.5t-256.5 -52h-381l15 86h381q115 0 201.5 36t140.5 105.5t71 169.5q17 101 -15 171.5t-107.5 108.5t-189.5 38h-381z" />
    <glyph glyph-name="germandbls" unicode="&#xdf;" horiz-adv-x="1146" 
d="M95 0l188 1137q20 116 81 199t155 128.5t211 45.5q115 0 194.5 -44.5t114.5 -126.5t15 -196q-22 -138 -107 -232.5t-218 -131.5l-1 -7q149 -21 226 -123t51 -255q-19 -116 -88 -205t-174.5 -139t-235.5 -50h-122l14 85h123q103 0 186.5 39t138 108.5t68.5 161.5
q26 148 -67.5 239t-279.5 91h-58l14 83h45q106 0 189 41.5t136.5 115.5t68.5 170q23 133 -42.5 212t-203.5 79q-136 0 -228.5 -77t-115.5 -211l-188 -1137h-90z" />
    <glyph glyph-name="agrave" unicode="&#xe0;" horiz-adv-x="1168" 
d="M454 -20q-134 0 -225 70.5t-128 197t-9 293.5q27 165 106 291.5t193.5 197t247.5 70.5q93 0 162 -34.5t112 -94t55 -134.5h5l41 247h88l-179 -1084h-88l40 242h-6q-38 -74 -101 -133.5t-142.5 -94t-171.5 -34.5zM474 63q113 0 207 60.5t158 168t87 249.5q24 142 -3 249.5
t-99.5 167t-185.5 59.5q-112 0 -207 -59.5t-160.5 -167t-89.5 -249.5q-23 -143 5.5 -250.5t102 -167.5t185.5 -60zM644 1230l-114 290h105l87 -290h-78z" />
    <glyph glyph-name="aacute" unicode="&#xe1;" horiz-adv-x="1168" 
d="M454 -20q-134 0 -225 70.5t-128 197t-9 293.5q27 165 106 291.5t193.5 197t247.5 70.5q93 0 162 -34.5t112 -94t55 -134.5h5l41 247h88l-179 -1084h-88l40 242h-6q-38 -74 -101 -133.5t-142.5 -94t-171.5 -34.5zM474 63q113 0 207 60.5t158 168t87 249.5q24 142 -3 249.5
t-99.5 167t-185.5 59.5q-112 0 -207 -59.5t-160.5 -167t-89.5 -249.5q-23 -143 5.5 -250.5t102 -167.5t185.5 -60zM635 1260l210 274h105l-235 -274h-80z" />
    <glyph glyph-name="acircumflex" unicode="&#xe2;" horiz-adv-x="1168" 
d="M454 -20q-134 0 -225 70.5t-128 197t-9 293.5q27 165 106 291.5t193.5 197t247.5 70.5q93 0 162 -34.5t112 -94t55 -134.5h5l41 247h88l-179 -1084h-88l40 242h-6q-38 -74 -101 -133.5t-142.5 -94t-171.5 -34.5zM474 63q113 0 207 60.5t158 168t87 249.5q24 142 -3 249.5
t-99.5 167t-185.5 59.5q-112 0 -207 -59.5t-160.5 -167t-89.5 -249.5q-23 -143 5.5 -250.5t102 -167.5t185.5 -60zM490 1255h-95l1 4l295 272h76l206 -272l-1 -4h-97l-157 212z" />
    <glyph glyph-name="atilde" unicode="&#xe3;" horiz-adv-x="1168" 
d="M454 -20q-134 0 -225 70.5t-128 197t-9 293.5q27 165 106 291.5t193.5 197t247.5 70.5q93 0 162 -34.5t112 -94t55 -134.5h5l41 247h88l-179 -1084h-88l40 242h-6q-38 -74 -101 -133.5t-142.5 -94t-171.5 -34.5zM474 63q113 0 207 60.5t158 168t87 249.5q24 142 -3 249.5
t-99.5 167t-185.5 59.5q-112 0 -207 -59.5t-160.5 -167t-89.5 -249.5q-23 -143 5.5 -250.5t102 -167.5t185.5 -60zM822 1304q-40 0 -70 16t-54.5 37t-48.5 37t-54 16q-42 0 -71.5 -28t-39.5 -72h-72q17 75 66 124t118 49q45 0 75 -16t53 -37t46 -37.5t52 -16.5q37 0 63 23.5
t45 75.5h72q-22 -79 -70 -125t-110 -46z" />
    <glyph glyph-name="adieresis" unicode="&#xe4;" horiz-adv-x="1168" 
d="M454 -20q-134 0 -225 70.5t-128 197t-9 293.5q27 165 106 291.5t193.5 197t247.5 70.5q93 0 162 -34.5t112 -94t55 -134.5h5l41 247h88l-179 -1084h-88l40 242h-6q-38 -74 -101 -133.5t-142.5 -94t-171.5 -34.5zM474 63q113 0 207 60.5t158 168t87 249.5q24 142 -3 249.5
t-99.5 167t-185.5 59.5q-112 0 -207 -59.5t-160.5 -167t-89.5 -249.5q-23 -143 5.5 -250.5t102 -167.5t185.5 -60zM900 1326q-29 0 -46 21t-12 50q4 29 28.5 49.5t53.5 20.5t46 -20.5t12 -49.5t-29 -50t-53 -21zM491 1326q-29 0 -46 21t-13 50q5 29 29.5 49.5t53.5 20.5
t46 -20.5t12 -49.5t-29 -50t-53 -21z" />
    <glyph glyph-name="aring" unicode="&#xe5;" horiz-adv-x="1168" 
d="M454 -20q-134 0 -225 70.5t-128 197t-9 293.5q27 165 106 291.5t193.5 197t247.5 70.5q93 0 162 -34.5t112 -94t55 -134.5h5l41 247h88l-179 -1084h-88l40 242h-6q-38 -74 -101 -133.5t-142.5 -94t-171.5 -34.5zM474 63q113 0 207 60.5t158 168t87 249.5q24 142 -3 249.5
t-99.5 167t-185.5 59.5q-112 0 -207 -59.5t-160.5 -167t-89.5 -249.5q-23 -143 5.5 -250.5t102 -167.5t185.5 -60zM677 1215q-53 0 -92 24.5t-57.5 67t-10.5 93.5q9 52 41.5 93.5t80 66.5t99.5 25q54 0 93 -25t57.5 -66.5t9.5 -93.5q-8 -51 -40.5 -93.5t-79.5 -67
t-101 -24.5zM683 1286q51 0 91.5 33.5t48.5 83.5q8 48 -17.5 79t-72.5 31q-51 0 -91.5 -32.5t-49.5 -82.5q-8 -48 17.5 -80t73.5 -32z" />
    <glyph glyph-name="ae" unicode="&#xe6;" horiz-adv-x="1789" 
d="M356 -21q-165 0 -246.5 89t-56.5 240q16 97 71 163.5t152.5 101t238.5 34.5q55 0 107 -0.5t107.5 -1t116.5 -0.5l-8 -76q-78 0 -160.5 0.5t-158.5 0.5q-165 0 -262 -54.5t-115 -169.5q-20 -119 37.5 -182t185.5 -63q122 0 209.5 52.5t141 142t71.5 198.5l56 330
q20 118 -46 188.5t-200 70.5q-87 0 -161.5 -34t-124 -94t-64.5 -137h-90q18 101 81 179t158 122.5t207 44.5q113 0 192 -43.5t115 -120t19 -175.5l-68 -401l-5 -4q-30 -115 -96.5 -206t-168 -143t-235.5 -52zM1197 -19q-132 0 -221 48t-133.5 144.5t-44.5 242.5
q0 155 43.5 285t122.5 225t187.5 147t238.5 52q101 0 174 -32.5t113 -94t40 -146.5q0 -89 -48 -151t-150.5 -100t-265.5 -55.5t-393 -17.5l6 75q217 0 363 13.5t234 43t126.5 79t38.5 120.5q0 90 -62 136.5t-177 46.5q-142 0 -253.5 -71t-177 -198.5t-71.5 -294.5
q-2 -15 -4 -27.5t-3 -22t-1 -18.5q0 -178 75.5 -262t242.5 -84q124 0 212.5 46.5t160.5 145.5l81 -26q-82 -126 -193 -187.5t-261 -61.5z" />
    <glyph glyph-name="ccedilla" unicode="&#xe7;" horiz-adv-x="1073" 
d="M480 -19q-129 0 -221 62t-137.5 171.5t-36.5 251.5q8 124 52.5 238t120 203.5t176 141.5t220.5 52q87 0 154.5 -28t114 -74t72 -102.5t28.5 -114.5l-87 -12q-3 45 -22 89t-54 80t-86.5 57.5t-121.5 21.5q-102 0 -186.5 -46t-147.5 -124.5t-100 -178t-44 -207.5
q-9 -118 25 -207.5t105.5 -140t176.5 -50.5q71 0 132.5 22.5t110.5 59.5t84 81.5t53 90.5l87 -17q-22 -58 -65.5 -115t-104.5 -103t-136.5 -74t-161.5 -28zM309 -418l11 65h104q60 0 96 25t43 71q8 46 -19 71.5t-92 25.5h-66l67 188h55v-28l-32 -97q89 -3 131.5 -44.5
t30.5 -114.5q-13 -78 -72 -120t-152 -42h-105z" />
    <glyph glyph-name="egrave" unicode="&#xe8;" horiz-adv-x="1081" 
d="M483 -19q-121 0 -211 52t-140 149t-50 233q0 142 43.5 267t122.5 219.5t186.5 147.5t235.5 53q107 0 182 -37t114 -103t39 -152q0 -106 -59 -169t-170 -95t-270 -42.5t-359 -10.5l8 77q186 0 328 7.5t238.5 31t145.5 71.5t49 129q0 94 -64 152t-188 58q-115 0 -206.5 -50
t-156 -135.5t-98 -194t-33.5 -226.5q0 -103 35.5 -181.5t106.5 -123t175 -44.5q124 0 224 62t153 161l85 -16q-61 -128 -185 -209t-281 -81zM649 1230l-114 290h105l87 -290h-78z" />
    <glyph glyph-name="eacute" unicode="&#xe9;" horiz-adv-x="1081" 
d="M483 -19q-121 0 -211 52t-140 149t-50 233q0 142 43.5 267t122.5 219.5t186.5 147.5t235.5 53q107 0 182 -37t114 -103t39 -152q0 -106 -59 -169t-170 -95t-270 -42.5t-359 -10.5l8 77q186 0 328 7.5t238.5 31t145.5 71.5t49 129q0 94 -64 152t-188 58q-115 0 -206.5 -50
t-156 -135.5t-98 -194t-33.5 -226.5q0 -103 35.5 -181.5t106.5 -123t175 -44.5q124 0 224 62t153 161l85 -16q-61 -128 -185 -209t-281 -81zM640 1260l210 274h105l-235 -274h-80z" />
    <glyph glyph-name="ecircumflex" unicode="&#xea;" horiz-adv-x="1081" 
d="M483 -19q-121 0 -211 52t-140 149t-50 233q0 142 43.5 267t122.5 219.5t186.5 147.5t235.5 53q107 0 182 -37t114 -103t39 -152q0 -106 -59 -169t-170 -95t-270 -42.5t-359 -10.5l8 77q186 0 328 7.5t238.5 31t145.5 71.5t49 129q0 94 -64 152t-188 58q-115 0 -206.5 -50
t-156 -135.5t-98 -194t-33.5 -226.5q0 -103 35.5 -181.5t106.5 -123t175 -44.5q124 0 224 62t153 161l85 -16q-61 -128 -185 -209t-281 -81zM495 1255h-95l1 4l295 272h76l206 -272l-1 -4h-97l-157 212z" />
    <glyph glyph-name="edieresis" unicode="&#xeb;" horiz-adv-x="1081" 
d="M483 -19q-121 0 -211 52t-140 149t-50 233q0 142 43.5 267t122.5 219.5t186.5 147.5t235.5 53q107 0 182 -37t114 -103t39 -152q0 -106 -59 -169t-170 -95t-270 -42.5t-359 -10.5l8 77q186 0 328 7.5t238.5 31t145.5 71.5t49 129q0 94 -64 152t-188 58q-115 0 -206.5 -50
t-156 -135.5t-98 -194t-33.5 -226.5q0 -103 35.5 -181.5t106.5 -123t175 -44.5q124 0 224 62t153 161l85 -16q-61 -128 -185 -209t-281 -81zM905 1326q-29 0 -46 21t-12 50q4 29 28.5 49.5t53.5 20.5t46 -20.5t12 -49.5t-29 -50t-53 -21zM496 1326q-29 0 -46 21t-13 50
q5 29 29.5 49.5t53.5 20.5t46 -20.5t12 -49.5t-29 -50t-53 -21z" />
    <glyph glyph-name="igrave" unicode="&#xec;" horiz-adv-x="400" 
d="M66 0l179 1084h89l-179 -1084h-89zM278 1230l-114 290h105l87 -290h-78z" />
    <glyph glyph-name="iacute" unicode="&#xed;" horiz-adv-x="400" 
d="M66 0l179 1084h89l-179 -1084h-89zM269 1260l210 274h105l-235 -274h-80z" />
    <glyph glyph-name="icircumflex" unicode="&#xee;" horiz-adv-x="400" 
d="M66 0l179 1084h89l-179 -1084h-89zM124 1255h-95l1 4l295 272h76l206 -272l-1 -4h-97l-157 212z" />
    <glyph glyph-name="idieresis" unicode="&#xef;" horiz-adv-x="400" 
d="M66 0l179 1084h89l-179 -1084h-89zM534 1326q-29 0 -46 21t-12 50q4 29 28.5 49.5t53.5 20.5t46 -20.5t12 -49.5t-29 -50t-53 -21zM125 1326q-29 0 -46 21t-13 50q5 29 29.5 49.5t53.5 20.5t46 -20.5t12 -49.5t-29 -50t-53 -21z" />
    <glyph glyph-name="eth" unicode="&#xf0;" horiz-adv-x="1146" 
d="M1096 1445l-625 -269l-13 68l624 268zM480 -24q-138 1 -235.5 72t-139.5 193.5t-17 275.5q26 155 108 277t199.5 192.5t248.5 70.5q83 0 147.5 -28t110.5 -78.5t72 -117.5h10q-20 131 -76.5 254.5t-153 232t-237.5 190.5l46 72q130 -75 233 -182.5t170 -241.5t91.5 -288
t-2.5 -321q-28 -177 -112 -305.5t-204 -197.5t-259 -70zM495 60q115 0 213.5 60.5t166 163.5t88.5 230q21 125 -10.5 230t-109.5 169.5t-196 64.5q-115 0 -214.5 -62.5t-166.5 -167t-88 -231.5q-21 -126 10.5 -230t110 -165.5t196.5 -61.5z" />
    <glyph glyph-name="ntilde" unicode="&#xf1;" horiz-adv-x="1137" 
d="M268 688l-114 -688h-88l179 1084h87l-41 -248l-21 2q64 135 175 198.5t237 63.5q114 0 194.5 -48.5t116.5 -137.5t15 -213l-116 -701h-88l116 702q24 146 -45.5 230t-208.5 84q-97 0 -181.5 -40.5t-142 -114.5t-74.5 -173zM826 1304q-40 0 -70 16t-54.5 37t-48.5 37
t-54 16q-42 0 -71.5 -28t-39.5 -72h-72q17 75 66 124t118 49q45 0 75 -16t53 -37t46 -37.5t52 -16.5q37 0 63 23.5t45 75.5h72q-22 -79 -70 -125t-110 -46z" />
    <glyph glyph-name="ograve" unicode="&#xf2;" horiz-adv-x="1133" 
d="M479 -21q-122 0 -211.5 56t-137.5 155.5t-48 230.5q0 127 41 248.5t117.5 218.5t182 155t232.5 58q122 0 210.5 -56t137 -155.5t48.5 -231.5q0 -127 -41.5 -248.5t-117.5 -218.5t-181 -154.5t-232 -57.5zM481 62q109 0 197.5 51.5t152 137.5t97.5 192t34 215
q0 108 -36 189t-105 126t-168 45q-107 0 -195.5 -51t-152.5 -136.5t-99.5 -192t-35.5 -217.5q0 -161 81.5 -260t229.5 -99zM646 1230l-114 290h105l87 -290h-78z" />
    <glyph glyph-name="oacute" unicode="&#xf3;" horiz-adv-x="1133" 
d="M479 -21q-122 0 -211.5 56t-137.5 155.5t-48 230.5q0 127 41 248.5t117.5 218.5t182 155t232.5 58q122 0 210.5 -56t137 -155.5t48.5 -231.5q0 -127 -41.5 -248.5t-117.5 -218.5t-181 -154.5t-232 -57.5zM481 62q109 0 197.5 51.5t152 137.5t97.5 192t34 215
q0 108 -36 189t-105 126t-168 45q-107 0 -195.5 -51t-152.5 -136.5t-99.5 -192t-35.5 -217.5q0 -161 81.5 -260t229.5 -99zM637 1260l210 274h105l-235 -274h-80z" />
    <glyph glyph-name="ocircumflex" unicode="&#xf4;" horiz-adv-x="1133" 
d="M479 -21q-122 0 -211.5 56t-137.5 155.5t-48 230.5q0 127 41 248.5t117.5 218.5t182 155t232.5 58q122 0 210.5 -56t137 -155.5t48.5 -231.5q0 -127 -41.5 -248.5t-117.5 -218.5t-181 -154.5t-232 -57.5zM481 62q109 0 197.5 51.5t152 137.5t97.5 192t34 215
q0 108 -36 189t-105 126t-168 45q-107 0 -195.5 -51t-152.5 -136.5t-99.5 -192t-35.5 -217.5q0 -161 81.5 -260t229.5 -99zM492 1255h-95l1 4l295 272h76l206 -272l-1 -4h-97l-157 212z" />
    <glyph glyph-name="otilde" unicode="&#xf5;" horiz-adv-x="1133" 
d="M479 -21q-122 0 -211.5 56t-137.5 155.5t-48 230.5q0 127 41 248.5t117.5 218.5t182 155t232.5 58q122 0 210.5 -56t137 -155.5t48.5 -231.5q0 -127 -41.5 -248.5t-117.5 -218.5t-181 -154.5t-232 -57.5zM481 62q109 0 197.5 51.5t152 137.5t97.5 192t34 215
q0 108 -36 189t-105 126t-168 45q-107 0 -195.5 -51t-152.5 -136.5t-99.5 -192t-35.5 -217.5q0 -161 81.5 -260t229.5 -99zM824 1304q-40 0 -70 16t-54.5 37t-48.5 37t-54 16q-42 0 -71.5 -28t-39.5 -72h-72q17 75 66 124t118 49q45 0 75 -16t53 -37t46 -37.5t52 -16.5
q37 0 63 23.5t45 75.5h72q-22 -79 -70 -125t-110 -46z" />
    <glyph glyph-name="odieresis" unicode="&#xf6;" horiz-adv-x="1133" 
d="M479 -21q-122 0 -211.5 56t-137.5 155.5t-48 230.5q0 127 41 248.5t117.5 218.5t182 155t232.5 58q122 0 210.5 -56t137 -155.5t48.5 -231.5q0 -127 -41.5 -248.5t-117.5 -218.5t-181 -154.5t-232 -57.5zM481 62q109 0 197.5 51.5t152 137.5t97.5 192t34 215
q0 108 -36 189t-105 126t-168 45q-107 0 -195.5 -51t-152.5 -136.5t-99.5 -192t-35.5 -217.5q0 -161 81.5 -260t229.5 -99zM901 1326q-29 0 -46 21t-12 50q4 29 28.5 49.5t53.5 20.5t46 -20.5t12 -49.5t-29 -50t-53 -21zM492 1326q-29 0 -46 21t-13 50q5 29 29.5 49.5
t53.5 20.5t46 -20.5t12 -49.5t-29 -50t-53 -21z" />
    <glyph glyph-name="divide" unicode="&#xf7;" horiz-adv-x="1261" 
d="M1082 626l-15 -88h-874l15 88h874zM570 157q-33 0 -53 23.5t-16 56.5q2 21 14.5 38.5t32 28t40.5 9.5q32 1 52.5 -22t16.5 -57q-4 -33 -29.5 -55t-57.5 -22zM685 851q-21 0 -38 10.5t-25.5 29t-5.5 40.5q3 32 29 54.5t59 22.5q32 0 52.5 -23t15.5 -57q-4 -32 -29.5 -55
t-57.5 -22z" />
    <glyph glyph-name="oslash" unicode="&#xf8;" horiz-adv-x="1134" 
d="M479 -20q-122 0 -211.5 56t-137.5 155.5t-48 230.5q0 127 41 248.5t117.5 218.5t182 155t232.5 58q122 0 210.5 -56t137 -155.5t48.5 -231.5q0 -127 -41.5 -248.5t-117.5 -218.5t-181 -154.5t-232 -57.5zM481 63q109 0 197.5 51.5t152 137.5t97.5 192t34 215
q0 108 -36 189t-105 126t-168 45q-107 0 -195.5 -51t-152.5 -136.5t-99.5 -192t-35.5 -217.5q0 -161 81.5 -260t229.5 -99zM56 -24l-50 50l1073 1083l50 -49z" />
    <glyph glyph-name="ugrave" unicode="&#xf9;" horiz-adv-x="1138" 
d="M456 -16q-112 0 -193 47.5t-118 136.5t-16 212l116 704h89l-116 -700q-23 -145 48.5 -231t212.5 -86q95 0 177.5 40t139.5 113t73 173l114 691h89l-180 -1084h-87l41 248h21q-64 -135 -174 -199.5t-237 -64.5zM647 1230l-114 290h105l87 -290h-78z" />
    <glyph glyph-name="uacute" unicode="&#xfa;" horiz-adv-x="1138" 
d="M456 -16q-112 0 -193 47.5t-118 136.5t-16 212l116 704h89l-116 -700q-23 -145 48.5 -231t212.5 -86q95 0 177.5 40t139.5 113t73 173l114 691h89l-180 -1084h-87l41 248h21q-64 -135 -174 -199.5t-237 -64.5zM638 1260l210 274h105l-235 -274h-80z" />
    <glyph glyph-name="ucircumflex" unicode="&#xfb;" horiz-adv-x="1138" 
d="M456 -16q-112 0 -193 47.5t-118 136.5t-16 212l116 704h89l-116 -700q-23 -145 48.5 -231t212.5 -86q95 0 177.5 40t139.5 113t73 173l114 691h89l-180 -1084h-87l41 248h21q-64 -135 -174 -199.5t-237 -64.5zM493 1255h-95l1 4l295 272h76l206 -272l-1 -4h-97l-157 212z
" />
    <glyph glyph-name="udieresis" unicode="&#xfc;" horiz-adv-x="1138" 
d="M456 -16q-112 0 -193 47.5t-118 136.5t-16 212l116 704h89l-116 -700q-23 -145 48.5 -231t212.5 -86q95 0 177.5 40t139.5 113t73 173l114 691h89l-180 -1084h-87l41 248h21q-64 -135 -174 -199.5t-237 -64.5zM903 1326q-29 0 -46 21t-12 50q4 29 28.5 49.5t53.5 20.5
t46 -20.5t12 -49.5t-29 -50t-53 -21zM494 1326q-29 0 -46 21t-13 50q5 29 29.5 49.5t53.5 20.5t46 -20.5t12 -49.5t-29 -50t-53 -21z" />
    <glyph glyph-name="yacute" unicode="&#xfd;" horiz-adv-x="1064" 
d="M-30 -410l26 80l57 -2q52 -10 94.5 1t80 50t77.5 110l91 165l-250 1090h91l159 -710q18 -81 33.5 -162t30.5 -162h-27q42 81 84.5 162t87.5 162l393 710h100l-719 -1286q-43 -77 -88.5 -125.5t-98 -71.5t-116.5 -23q-30 0 -54.5 3.5t-51.5 8.5zM600 1260l210 274h105
l-235 -274h-80z" />
    <glyph glyph-name="thorn" unicode="&#xfe;" horiz-adv-x="1146" 
d="M519 -23q-88 0 -153.5 33.5t-107 93.5t-57.5 138h-7l-109 -660h-89l316 1908h89l-104 -630h6q41 78 102 137.5t138.5 92.5t165.5 33q133 0 220 -74t121 -203t6 -295q-27 -167 -103.5 -296.5t-188 -203.5t-245.5 -74zM524 60q111 0 202.5 63.5t154 174.5t86.5 253
q23 142 -2.5 252.5t-96 173.5t-181.5 63q-112 0 -204 -63t-154.5 -173.5t-85.5 -252.5q-24 -141 1.5 -252t96.5 -175t183 -64z" />
    <glyph glyph-name="ydieresis" unicode="&#xff;" horiz-adv-x="1064" 
d="M-30 -410l26 80l57 -2q52 -10 94.5 1t80 50t77.5 110l91 165l-250 1090h91l159 -710q18 -81 33.5 -162t30.5 -162h-27q42 81 84.5 162t87.5 162l393 710h100l-719 -1286q-43 -77 -88.5 -125.5t-98 -71.5t-116.5 -23q-30 0 -54.5 3.5t-51.5 8.5zM864 1326q-29 0 -46 21
t-12 50q4 29 28.5 49.5t53.5 20.5t46 -20.5t12 -49.5t-29 -50t-53 -21zM455 1326q-29 0 -46 21t-13 50q5 29 29.5 49.5t53.5 20.5t46 -20.5t12 -49.5t-29 -50t-53 -21z" />
    <glyph glyph-name="Amacron" unicode="&#x100;" horiz-adv-x="1296" 
d="M-51 0l800 1490h112l307 -1490h-93l-216 1067q-15 80 -33 173.5t-37 209.5h27q-57 -115 -104.5 -208t-92.5 -175l-568 -1067h-102zM266 468l14 85h740l-14 -85h-740zM1111 1836l-13 -78h-495l14 78h494z" />
    <glyph glyph-name="amacron" unicode="&#x101;" horiz-adv-x="1168" 
d="M454 -20q-134 0 -225 70.5t-128 197t-9 293.5q27 165 106 291.5t193.5 197t247.5 70.5q93 0 162 -34.5t112 -94t55 -134.5h5l41 247h88l-179 -1084h-88l40 242h-6q-38 -74 -101 -133.5t-142.5 -94t-171.5 -34.5zM474 63q113 0 207 60.5t158 168t87 249.5q24 142 -3 249.5
t-99.5 167t-185.5 59.5q-112 0 -207 -59.5t-160.5 -167t-89.5 -249.5q-23 -143 5.5 -250.5t102 -167.5t185.5 -60zM960 1430l-13 -78h-495l14 78h494z" />
    <glyph glyph-name="Abreve" unicode="&#x102;" horiz-adv-x="1296" 
d="M-51 0l800 1490h112l307 -1490h-93l-216 1067q-15 80 -33 173.5t-37 209.5h27q-57 -115 -104.5 -208t-92.5 -175l-568 -1067h-102zM266 468l14 85h740l-14 -85h-740zM832 1651q-75 0 -130.5 36t-81.5 97t-13 135h74q-14 -83 33.5 -139.5t130.5 -56.5q55 0 103.5 26
t82.5 70.5t43 99.5h74q-13 -74 -59 -135t-113 -97t-144 -36z" />
    <glyph glyph-name="abreve" unicode="&#x103;" horiz-adv-x="1168" 
d="M454 -20q-134 0 -225 70.5t-128 197t-9 293.5q27 165 106 291.5t193.5 197t247.5 70.5q93 0 162 -34.5t112 -94t55 -134.5h5l41 247h88l-179 -1084h-88l40 242h-6q-38 -74 -101 -133.5t-142.5 -94t-171.5 -34.5zM474 63q113 0 207 60.5t158 168t87 249.5q24 142 -3 249.5
t-99.5 167t-185.5 59.5q-112 0 -207 -59.5t-160.5 -167t-89.5 -249.5q-23 -143 5.5 -250.5t102 -167.5t185.5 -60zM681 1245q-75 0 -130.5 36t-81.5 97t-13 135h74q-14 -83 33.5 -139.5t130.5 -56.5q55 0 103.5 26t82.5 70.5t43 99.5h74q-13 -74 -59 -135t-113 -97t-144 -36
z" />
    <glyph glyph-name="Aogonek" unicode="&#x104;" horiz-adv-x="1296" 
d="M-51 0l800 1490h112l307 -1490h-93l-216 1067q-15 80 -33 173.5t-37 209.5h27q-57 -115 -104.5 -208t-92.5 -175l-568 -1067h-102zM266 468l14 85h740l-14 -85h-740zM1027 -423q-89 0 -134.5 43.5t-32.5 123.5q14 77 75 143t157 136l77 -23q-97 -73 -152.5 -129.5
t-65.5 -116.5q-8 -46 18 -71.5t86 -25.5q15 0 29.5 2t27.5 5l1 -75q-19 -5 -40.5 -8.5t-45.5 -3.5z" />
    <glyph glyph-name="aogonek" unicode="&#x105;" horiz-adv-x="1168" 
d="M454 -20q-134 0 -225 70.5t-128 197t-9 293.5q27 165 106 291.5t193.5 197t247.5 70.5q93 0 162 -34.5t112 -94t55 -134.5h5l41 247h88l-179 -1084h-88l40 242h-6q-38 -74 -101 -133.5t-142.5 -94t-171.5 -34.5zM474 63q113 0 207 60.5t158 168t87 249.5q24 142 -3 249.5
t-99.5 167t-185.5 59.5q-112 0 -207 -59.5t-160.5 -167t-89.5 -249.5q-23 -143 5.5 -250.5t102 -167.5t185.5 -60zM781 -422q-89 0 -134 44t-32 123q13 76 73.5 141t156.5 134l78 -20q-96 -72 -151.5 -128t-66.5 -117q-7 -46 18.5 -71t85.5 -25q15 0 29.5 2t27.5 5l1 -76
q-19 -5 -40.5 -8.5t-45.5 -3.5z" />
    <glyph glyph-name="Cacute" unicode="&#x106;" horiz-adv-x="1435" 
d="M659 -21q-164 0 -283 73t-183 206t-64 313q0 174 53.5 341.5t155 302.5t244 215.5t320.5 80.5q127 0 222 -41.5t158 -112t94.5 -157.5t32.5 -179h-92q-4 77 -31 149t-79 129t-129 90.5t-179 33.5q-152 0 -277 -71.5t-215 -192.5t-139 -273t-49 -314q0 -163 57.5 -276
t157.5 -171t229 -58q104 0 194 33.5t162 90.5t124.5 129t81.5 149h93q-31 -91 -90.5 -178t-144.5 -157.5t-191.5 -112.5t-232.5 -42zM880 1666l210 274h105l-235 -274h-80z" />
    <glyph glyph-name="cacute" unicode="&#x107;" horiz-adv-x="1073" 
d="M480 -19q-129 0 -221 62t-137.5 171.5t-36.5 251.5q8 124 52.5 238t120 203.5t176 141.5t220.5 52q87 0 154.5 -28t114 -74t72 -102.5t28.5 -114.5l-87 -12q-3 45 -22 89t-54 80t-86.5 57.5t-121.5 21.5q-102 0 -186.5 -46t-147.5 -124.5t-100 -178t-44 -207.5
q-9 -118 25 -207.5t105.5 -140t176.5 -50.5q71 0 132.5 22.5t110.5 59.5t84 81.5t53 90.5l87 -17q-22 -58 -65.5 -115t-104.5 -103t-136.5 -74t-161.5 -28zM635 1260l210 274h105l-235 -274h-80z" />
    <glyph glyph-name="Ccircumflex" unicode="&#x108;" horiz-adv-x="1435" 
d="M659 -21q-164 0 -283 73t-183 206t-64 313q0 174 53.5 341.5t155 302.5t244 215.5t320.5 80.5q127 0 222 -41.5t158 -112t94.5 -157.5t32.5 -179h-92q-4 77 -31 149t-79 129t-129 90.5t-179 33.5q-152 0 -277 -71.5t-215 -192.5t-139 -273t-49 -314q0 -163 57.5 -276
t157.5 -171t229 -58q104 0 194 33.5t162 90.5t124.5 129t81.5 149h93q-31 -91 -90.5 -178t-144.5 -157.5t-191.5 -112.5t-232.5 -42zM735 1661h-95l1 4l295 272h76l206 -272l-1 -4h-97l-157 212z" />
    <glyph glyph-name="ccircumflex" unicode="&#x109;" horiz-adv-x="1073" 
d="M480 -19q-129 0 -221 62t-137.5 171.5t-36.5 251.5q8 124 52.5 238t120 203.5t176 141.5t220.5 52q87 0 154.5 -28t114 -74t72 -102.5t28.5 -114.5l-87 -12q-3 45 -22 89t-54 80t-86.5 57.5t-121.5 21.5q-102 0 -186.5 -46t-147.5 -124.5t-100 -178t-44 -207.5
q-9 -118 25 -207.5t105.5 -140t176.5 -50.5q71 0 132.5 22.5t110.5 59.5t84 81.5t53 90.5l87 -17q-22 -58 -65.5 -115t-104.5 -103t-136.5 -74t-161.5 -28zM490 1255h-95l1 4l295 272h76l206 -272l-1 -4h-97l-157 212z" />
    <glyph glyph-name="Cdotaccent" unicode="&#x10a;" horiz-adv-x="1435" 
d="M659 -21q-164 0 -283 73t-183 206t-64 313q0 174 53.5 341.5t155 302.5t244 215.5t320.5 80.5q127 0 222 -41.5t158 -112t94.5 -157.5t32.5 -179h-92q-4 77 -31 149t-79 129t-129 90.5t-179 33.5q-152 0 -277 -71.5t-215 -192.5t-139 -273t-49 -314q0 -163 57.5 -276
t157.5 -171t229 -58q104 0 194 33.5t162 90.5t124.5 129t81.5 149h93q-31 -91 -90.5 -178t-144.5 -157.5t-191.5 -112.5t-232.5 -42zM940 1732q-29 0 -46.5 21t-12.5 50q4 29 29 49.5t54 20.5q30 0 47 -20.5t13 -49.5q-5 -29 -29.5 -50t-54.5 -21z" />
    <glyph glyph-name="cdotaccent" unicode="&#x10b;" horiz-adv-x="1073" 
d="M480 -19q-129 0 -221 62t-137.5 171.5t-36.5 251.5q8 124 52.5 238t120 203.5t176 141.5t220.5 52q87 0 154.5 -28t114 -74t72 -102.5t28.5 -114.5l-87 -12q-3 45 -22 89t-54 80t-86.5 57.5t-121.5 21.5q-102 0 -186.5 -46t-147.5 -124.5t-100 -178t-44 -207.5
q-9 -118 25 -207.5t105.5 -140t176.5 -50.5q71 0 132.5 22.5t110.5 59.5t84 81.5t53 90.5l87 -17q-22 -58 -65.5 -115t-104.5 -103t-136.5 -74t-161.5 -28zM695 1326q-29 0 -46.5 21t-12.5 50q4 29 29 49.5t54 20.5q30 0 47 -20.5t13 -49.5q-5 -29 -29.5 -50t-54.5 -21z" />
    <glyph glyph-name="Ccaron" unicode="&#x10c;" horiz-adv-x="1435" 
d="M659 -21q-164 0 -283 73t-183 206t-64 313q0 174 53.5 341.5t155 302.5t244 215.5t320.5 80.5q127 0 222 -41.5t158 -112t94.5 -157.5t32.5 -179h-92q-4 77 -31 149t-79 129t-129 90.5t-179 33.5q-152 0 -277 -71.5t-215 -192.5t-139 -273t-49 -314q0 -163 57.5 -276
t157.5 -171t229 -58q104 0 194 33.5t162 90.5t124.5 129t81.5 149h93q-31 -91 -90.5 -178t-144.5 -157.5t-191.5 -112.5t-232.5 -42zM782 1935l157 -212l227 212h97l-1 -3l-297 -273h-76l-204 273l1 3h96z" />
    <glyph glyph-name="ccaron" unicode="&#x10d;" horiz-adv-x="1073" 
d="M480 -19q-129 0 -221 62t-137.5 171.5t-36.5 251.5q8 124 52.5 238t120 203.5t176 141.5t220.5 52q87 0 154.5 -28t114 -74t72 -102.5t28.5 -114.5l-87 -12q-3 45 -22 89t-54 80t-86.5 57.5t-121.5 21.5q-102 0 -186.5 -46t-147.5 -124.5t-100 -178t-44 -207.5
q-9 -118 25 -207.5t105.5 -140t176.5 -50.5q71 0 132.5 22.5t110.5 59.5t84 81.5t53 90.5l87 -17q-22 -58 -65.5 -115t-104.5 -103t-136.5 -74t-161.5 -28zM537 1529l157 -212l227 212h97l-1 -3l-297 -273h-76l-204 273l1 3h96z" />
    <glyph glyph-name="Dcaron" unicode="&#x10e;" horiz-adv-x="1407" 
d="M522 0h-376l14 85h357q200 0 350 79.5t245 228.5t129 356q34 206 -5.5 352.5t-152.5 225t-301 78.5h-406l14 85h393q210 0 345.5 -88.5t189 -254.5t14.5 -398q-38 -236 -145.5 -403.5t-275.5 -256.5t-389 -89zM435 1490l-247 -1490h-93l247 1490h93zM636 1935l157 -212
l227 212h97l-1 -3l-297 -273h-76l-204 273l1 3h96z" />
    <glyph glyph-name="dcaron" unicode="&#x10f;" horiz-adv-x="1175" 
d="M459 -20q-175 0 -276.5 117.5t-101.5 313.5q0 128 39 250.5t111.5 221.5t174.5 158t227 59q94 0 164.5 -35t114 -95t55.5 -135h5l108 655h89l-246 -1490h-88l40 241h-5q-39 -75 -100.5 -134.5t-140.5 -93t-170 -33.5zM470 63q110 0 197 53t147.5 141t92 195.5t31.5 215.5
q0 160 -78 254.5t-220 94.5q-109 0 -196 -52t-148 -139.5t-93.5 -194t-32.5 -216.5q0 -161 80 -256.5t220 -95.5zM1245 1182l62 378h93l-89 -378h-66z" />
    <glyph glyph-name="Dcroat" unicode="&#x110;" horiz-adv-x="1430" 
d="M545 0h-376l14 85h357q200 0 350 79.5t245 228.5t129 356q34 206 -5.5 352.5t-152.5 225t-301 78.5h-406l14 85h393q210 0 345.5 -88.5t189 -254.5t14.5 -398q-38 -236 -145.5 -403.5t-275.5 -256.5t-389 -89zM458 1490l-247 -1490h-93l247 1490h93zM51 704l13 82h622
l-14 -82h-621z" />
    <glyph glyph-name="dcroat" unicode="&#x111;" horiz-adv-x="1167" 
d="M459 -20q-175 0 -276.5 117.5t-101.5 313.5q0 128 39 250.5t111.5 221.5t174.5 158t227 59q94 0 164.5 -35t114 -95t55.5 -135h5l108 655h89l-246 -1490h-88l40 241h-5q-39 -75 -100.5 -134.5t-140.5 -93t-170 -33.5zM470 63q110 0 197 53t147.5 141t92 195.5t31.5 215.5
q0 160 -78 254.5t-220 94.5q-109 0 -196 -52t-148 -139.5t-93.5 -194t-32.5 -216.5q0 -161 80 -256.5t220 -95.5zM749 1242l13 78h583l-12 -78h-584z" />
    <glyph glyph-name="Emacron" unicode="&#x112;" horiz-adv-x="1180" 
d="M95 0l247 1490h884l-15 -86h-790l-100 -606h731l-14 -85h-731l-104 -628h798l-14 -85h-892zM1093 1836l-13 -78h-495l14 78h494z" />
    <glyph glyph-name="emacron" unicode="&#x113;" horiz-adv-x="1081" 
d="M483 -19q-121 0 -211 52t-140 149t-50 233q0 142 43.5 267t122.5 219.5t186.5 147.5t235.5 53q107 0 182 -37t114 -103t39 -152q0 -106 -59 -169t-170 -95t-270 -42.5t-359 -10.5l8 77q186 0 328 7.5t238.5 31t145.5 71.5t49 129q0 94 -64 152t-188 58q-115 0 -206.5 -50
t-156 -135.5t-98 -194t-33.5 -226.5q0 -103 35.5 -181.5t106.5 -123t175 -44.5q124 0 224 62t153 161l85 -16q-61 -128 -185 -209t-281 -81zM965 1430l-13 -78h-495l14 78h494z" />
    <glyph glyph-name="Ebreve" unicode="&#x114;" horiz-adv-x="1180" 
d="M95 0l247 1490h884l-15 -86h-790l-100 -606h731l-14 -85h-731l-104 -628h798l-14 -85h-892zM814 1651q-75 0 -130.5 36t-81.5 97t-13 135h74q-14 -83 33.5 -139.5t130.5 -56.5q55 0 103.5 26t82.5 70.5t43 99.5h74q-13 -74 -59 -135t-113 -97t-144 -36z" />
    <glyph glyph-name="ebreve" unicode="&#x115;" horiz-adv-x="1081" 
d="M483 -19q-121 0 -211 52t-140 149t-50 233q0 142 43.5 267t122.5 219.5t186.5 147.5t235.5 53q107 0 182 -37t114 -103t39 -152q0 -106 -59 -169t-170 -95t-270 -42.5t-359 -10.5l8 77q186 0 328 7.5t238.5 31t145.5 71.5t49 129q0 94 -64 152t-188 58q-115 0 -206.5 -50
t-156 -135.5t-98 -194t-33.5 -226.5q0 -103 35.5 -181.5t106.5 -123t175 -44.5q124 0 224 62t153 161l85 -16q-61 -128 -185 -209t-281 -81zM686 1245q-75 0 -130.5 36t-81.5 97t-13 135h74q-14 -83 33.5 -139.5t130.5 -56.5q55 0 103.5 26t82.5 70.5t43 99.5h74
q-13 -74 -59 -135t-113 -97t-144 -36z" />
    <glyph glyph-name="Edotaccent" unicode="&#x116;" horiz-adv-x="1180" 
d="M95 0l247 1490h884l-15 -86h-790l-100 -606h731l-14 -85h-731l-104 -628h798l-14 -85h-892zM828 1732q-29 0 -46.5 21t-12.5 50q4 29 29 49.5t54 20.5q30 0 47 -20.5t13 -49.5q-5 -29 -29.5 -50t-54.5 -21z" />
    <glyph glyph-name="edotaccent" unicode="&#x117;" horiz-adv-x="1081" 
d="M483 -19q-121 0 -211 52t-140 149t-50 233q0 142 43.5 267t122.5 219.5t186.5 147.5t235.5 53q107 0 182 -37t114 -103t39 -152q0 -106 -59 -169t-170 -95t-270 -42.5t-359 -10.5l8 77q186 0 328 7.5t238.5 31t145.5 71.5t49 129q0 94 -64 152t-188 58q-115 0 -206.5 -50
t-156 -135.5t-98 -194t-33.5 -226.5q0 -103 35.5 -181.5t106.5 -123t175 -44.5q124 0 224 62t153 161l85 -16q-61 -128 -185 -209t-281 -81zM700 1326q-29 0 -46.5 21t-12.5 50q4 29 29 49.5t54 20.5q30 0 47 -20.5t13 -49.5q-5 -29 -29.5 -50t-54.5 -21z" />
    <glyph glyph-name="Eogonek" unicode="&#x118;" horiz-adv-x="1180" 
d="M95 0l247 1490h884l-15 -86h-790l-100 -606h731l-14 -85h-731l-104 -628h798l-14 -85h-892zM845 -423q-89 0 -134.5 44t-32.5 122t76.5 145.5t168.5 138.5l63 -27q-96 -73 -151.5 -129.5t-65.5 -116.5q-8 -46 17.5 -71.5t85.5 -25.5q15 0 29.5 2t27.5 5l2 -75
q-19 -5 -40.5 -8.5t-45.5 -3.5z" />
    <glyph glyph-name="eogonek" unicode="&#x119;" horiz-adv-x="1081" 
d="M483 -19q-121 0 -211 52t-140 149t-50 233q0 142 43.5 267t122.5 219.5t186.5 147.5t235.5 53q107 0 182 -37t114 -103t39 -152q0 -106 -59 -169t-170 -95t-270 -42.5t-359 -10.5l8 77q186 0 328 7.5t238.5 31t145.5 71.5t49 129q0 94 -64 152t-188 58q-115 0 -206.5 -50
t-156 -135.5t-98 -194t-33.5 -226.5q0 -103 35.5 -181.5t106.5 -123t175 -44.5q124 0 224 62t153 161l85 -16q-61 -128 -185 -209t-281 -81zM683 -384q-92 0 -137.5 43.5t-32.5 122.5q14 80 75.5 158.5t134.5 157.5l225 170q-42 -67 -97 -130t-108.5 -122.5t-92 -115
t-46.5 -107.5q-8 -46 17.5 -71.5t88.5 -25.5q19 0 36.5 2t32.5 5l2 -75q-22 -5 -46.5 -8.5t-51.5 -3.5z" />
    <glyph glyph-name="Ecaron" unicode="&#x11a;" horiz-adv-x="1180" 
d="M95 0l247 1490h884l-15 -86h-790l-100 -606h731l-14 -85h-731l-104 -628h798l-14 -85h-892zM669 1935l157 -212l227 212h97l-1 -3l-297 -273h-76l-204 273l1 3h96z" />
    <glyph glyph-name="ecaron" unicode="&#x11b;" horiz-adv-x="1081" 
d="M483 -19q-121 0 -211 52t-140 149t-50 233q0 142 43.5 267t122.5 219.5t186.5 147.5t235.5 53q107 0 182 -37t114 -103t39 -152q0 -106 -59 -169t-170 -95t-270 -42.5t-359 -10.5l8 77q186 0 328 7.5t238.5 31t145.5 71.5t49 129q0 94 -64 152t-188 58q-115 0 -206.5 -50
t-156 -135.5t-98 -194t-33.5 -226.5q0 -103 35.5 -181.5t106.5 -123t175 -44.5q124 0 224 62t153 161l85 -16q-61 -128 -185 -209t-281 -81zM542 1529l157 -212l227 212h97l-1 -3l-297 -273h-76l-204 273l1 3h96z" />
    <glyph glyph-name="Gcircumflex" unicode="&#x11c;" horiz-adv-x="1464" 
d="M662 -21q-166 0 -286 73t-183.5 206t-63.5 312q0 174 53 341.5t154 303t243.5 216t320.5 80.5q127 0 222.5 -42t159 -113t95.5 -158t33 -177h-93q-3 75 -30 146.5t-79 129.5t-129.5 92t-181.5 34q-158 0 -283.5 -74t-213 -197t-134.5 -274t-47 -306q0 -232 117.5 -368.5
t329.5 -136.5q151 0 276 69t209 194t112 294l30 -12h-506l15 85h564l-14 -87q-24 -142 -85.5 -258t-152.5 -199.5t-205.5 -128.5t-246.5 -45zM728 1661h-95l1 4l295 272h76l206 -272l-1 -4h-97l-157 212z" />
    <glyph glyph-name="gcircumflex" unicode="&#x11d;" horiz-adv-x="1167" 
d="M412 -435q-115 0 -198 33t-130 95t-56 150l85 17q9 -67 45 -114.5t99.5 -73t156.5 -25.5q172 0 282 91t137 255l41 254l-4 -1q-40 -74 -101.5 -131.5t-139.5 -89.5t-168 -32q-116 0 -201 51.5t-132 146.5t-47 225q0 125 39 246.5t111.5 220.5t174 158t227.5 59
q72 0 129 -20t99.5 -56t69.5 -84.5t37 -104.5l5 1l41 248h88l-182 -1099q-23 -139 -93 -232.5t-176 -140.5t-239 -47zM472 76q111 0 197.5 51t146.5 137t91 191.5t31 213.5q0 159 -77.5 253.5t-220.5 94.5q-107 0 -194 -51.5t-148.5 -138t-94.5 -193t-33 -215.5
q0 -161 80.5 -252t221.5 -91zM489 1255h-95l1 4l295 272h76l206 -272l-1 -4h-97l-157 212z" />
    <glyph glyph-name="Gbreve" unicode="&#x11e;" horiz-adv-x="1464" 
d="M662 -21q-166 0 -286 73t-183.5 206t-63.5 312q0 174 53 341.5t154 303t243.5 216t320.5 80.5q127 0 222.5 -42t159 -113t95.5 -158t33 -177h-93q-3 75 -30 146.5t-79 129.5t-129.5 92t-181.5 34q-158 0 -283.5 -74t-213 -197t-134.5 -274t-47 -306q0 -232 117.5 -368.5
t329.5 -136.5q151 0 276 69t209 194t112 294l30 -12h-506l15 85h564l-14 -87q-24 -142 -85.5 -258t-152.5 -199.5t-205.5 -128.5t-246.5 -45zM919 1651q-75 0 -130.5 36t-81.5 97t-13 135h74q-14 -83 33.5 -139.5t130.5 -56.5q55 0 103.5 26t82.5 70.5t43 99.5h74
q-13 -74 -59 -135t-113 -97t-144 -36z" />
    <glyph glyph-name="gbreve" unicode="&#x11f;" horiz-adv-x="1167" 
d="M412 -435q-115 0 -198 33t-130 95t-56 150l85 17q9 -67 45 -114.5t99.5 -73t156.5 -25.5q172 0 282 91t137 255l41 254l-4 -1q-40 -74 -101.5 -131.5t-139.5 -89.5t-168 -32q-116 0 -201 51.5t-132 146.5t-47 225q0 125 39 246.5t111.5 220.5t174 158t227.5 59
q72 0 129 -20t99.5 -56t69.5 -84.5t37 -104.5l5 1l41 248h88l-182 -1099q-23 -139 -93 -232.5t-176 -140.5t-239 -47zM472 76q111 0 197.5 51t146.5 137t91 191.5t31 213.5q0 159 -77.5 253.5t-220.5 94.5q-107 0 -194 -51.5t-148.5 -138t-94.5 -193t-33 -215.5
q0 -161 80.5 -252t221.5 -91zM681 1245q-75 0 -130.5 36t-81.5 97t-13 135h74q-14 -83 33.5 -139.5t130.5 -56.5q55 0 103.5 26t82.5 70.5t43 99.5h74q-13 -74 -59 -135t-113 -97t-144 -36z" />
    <glyph glyph-name="Gdotaccent" unicode="&#x120;" horiz-adv-x="1464" 
d="M662 -21q-166 0 -286 73t-183.5 206t-63.5 312q0 174 53 341.5t154 303t243.5 216t320.5 80.5q127 0 222.5 -42t159 -113t95.5 -158t33 -177h-93q-3 75 -30 146.5t-79 129.5t-129.5 92t-181.5 34q-158 0 -283.5 -74t-213 -197t-134.5 -274t-47 -306q0 -232 117.5 -368.5
t329.5 -136.5q151 0 276 69t209 194t112 294l30 -12h-506l15 85h564l-14 -87q-24 -142 -85.5 -258t-152.5 -199.5t-205.5 -128.5t-246.5 -45zM933 1732q-29 0 -46.5 21t-12.5 50q4 29 29 49.5t54 20.5q30 0 47 -20.5t13 -49.5q-5 -29 -29.5 -50t-54.5 -21z" />
    <glyph glyph-name="gdotaccent" unicode="&#x121;" horiz-adv-x="1167" 
d="M412 -435q-115 0 -198 33t-130 95t-56 150l85 17q9 -67 45 -114.5t99.5 -73t156.5 -25.5q172 0 282 91t137 255l41 254l-4 -1q-40 -74 -101.5 -131.5t-139.5 -89.5t-168 -32q-116 0 -201 51.5t-132 146.5t-47 225q0 125 39 246.5t111.5 220.5t174 158t227.5 59
q72 0 129 -20t99.5 -56t69.5 -84.5t37 -104.5l5 1l41 248h88l-182 -1099q-23 -139 -93 -232.5t-176 -140.5t-239 -47zM472 76q111 0 197.5 51t146.5 137t91 191.5t31 213.5q0 159 -77.5 253.5t-220.5 94.5q-107 0 -194 -51.5t-148.5 -138t-94.5 -193t-33 -215.5
q0 -161 80.5 -252t221.5 -91zM694 1326q-29 0 -46.5 21t-12.5 50q4 29 29 49.5t54 20.5q30 0 47 -20.5t13 -49.5q-5 -29 -29.5 -50t-54.5 -21z" />
    <glyph glyph-name="uni0122" unicode="&#x122;" horiz-adv-x="1464" 
d="M662 -21q-166 0 -286 73t-183.5 206t-63.5 312q0 174 53 341.5t154 303t243.5 216t320.5 80.5q127 0 222.5 -42t159 -113t95.5 -158t33 -177h-93q-3 75 -30 146.5t-79 129.5t-129.5 92t-181.5 34q-158 0 -283.5 -74t-213 -197t-134.5 -274t-47 -306q0 -232 117.5 -368.5
t329.5 -136.5q151 0 276 69t209 194t112 294l30 -12h-506l15 85h564l-14 -87q-24 -142 -85.5 -258t-152.5 -199.5t-205.5 -128.5t-246.5 -45zM425 -494l154 376h93l-177 -376h-70z" />
    <glyph glyph-name="uni0123" unicode="&#x123;" horiz-adv-x="1167" 
d="M412 -435q-115 0 -198 33t-130 95t-56 150l85 17q9 -67 45 -114.5t99.5 -73t156.5 -25.5q172 0 282 91t137 255l41 254l-4 -1q-40 -74 -101.5 -131.5t-139.5 -89.5t-168 -32q-116 0 -201 51.5t-132 146.5t-47 225q0 125 39 246.5t111.5 220.5t174 158t227.5 59
q72 0 129 -20t99.5 -56t69.5 -84.5t37 -104.5l5 1l41 248h88l-182 -1099q-23 -139 -93 -232.5t-176 -140.5t-239 -47zM472 76q111 0 197.5 51t146.5 137t91 191.5t31 213.5q0 159 -77.5 253.5t-220.5 94.5q-107 0 -194 -51.5t-148.5 -138t-94.5 -193t-33 -215.5
q0 -161 80.5 -252t221.5 -91zM637 1235l15 90q12 67 42.5 119.5t65.5 91t59 62.5l54 -46q-38 -43 -81.5 -97.5t-56.5 -131.5l-15 -88h-83z" />
    <glyph glyph-name="Hcircumflex" unicode="&#x124;" horiz-adv-x="1451" 
d="M95 0l247 1490h94l-114 -686h895l114 686h92l-247 -1490h-92l119 719h-895l-119 -719h-94zM718 1661h-95l1 4l295 272h76l206 -272l-1 -4h-97l-157 212z" />
    <glyph glyph-name="hcircumflex" unicode="&#x125;" horiz-adv-x="1137" 
d="M268 691l-114 -691h-89l247 1490h89l-109 -654h-22q43 90 106 148.5t140.5 87t161.5 28.5q113 0 194.5 -48t119 -136t17.5 -212l-117 -704h-89l116 699q25 146 -47.5 231.5t-213.5 85.5q-95 0 -177.5 -39.5t-139 -113t-73.5 -172.5zM191 1661h-95l1 4l295 272h76
l206 -272l-1 -4h-97l-157 212z" />
    <glyph glyph-name="Hbar" unicode="&#x126;" horiz-adv-x="1483" 
d="M1493 1112l-14 -83h-1314l14 83h1314zM113 0l247 1490h93l-114 -686h895l114 686h92l-247 -1490h-92l119 719h-895l-119 -719h-93z" />
    <glyph glyph-name="hbar" unicode="&#x127;" horiz-adv-x="1137" 
d="M268 691l-114 -691h-89l247 1490h89l-109 -654h-22q43 90 106 148.5t140.5 87t161.5 28.5q113 0 194.5 -48t119 -136t17.5 -212l-117 -704h-89l116 699q25 146 -47.5 231.5t-213.5 85.5q-95 0 -177.5 -39.5t-139 -113t-73.5 -172.5zM68 1242l13 78h583l-12 -78h-584z" />
    <glyph glyph-name="Itilde" unicode="&#x128;" horiz-adv-x="463" 
d="M435 1490l-247 -1490h-93l247 1490h93zM555 1710q-40 0 -70 16t-54.5 37t-48.5 37t-54 16q-42 0 -71.5 -28t-39.5 -72h-72q17 75 66 124t118 49q45 0 75 -16t53 -37t46 -37.5t52 -16.5q37 0 63 23.5t45 75.5h72q-22 -79 -70 -125t-110 -46z" />
    <glyph glyph-name="itilde" unicode="&#x129;" horiz-adv-x="400" 
d="M66 0l179 1084h89l-179 -1084h-89zM456 1304q-40 0 -70 16t-54.5 37t-48.5 37t-54 16q-42 0 -71.5 -28t-39.5 -72h-72q17 75 66 124t118 49q45 0 75 -16t53 -37t46 -37.5t52 -16.5q37 0 63 23.5t45 75.5h72q-22 -79 -70 -125t-110 -46z" />
    <glyph glyph-name="Imacron" unicode="&#x12a;" horiz-adv-x="463" 
d="M435 1490l-247 -1490h-93l247 1490h93zM693 1836l-13 -78h-495l14 78h494z" />
    <glyph glyph-name="imacron" unicode="&#x12b;" horiz-adv-x="400" 
d="M66 0l179 1084h89l-179 -1084h-89zM594 1430l-13 -78h-495l14 78h494z" />
    <glyph glyph-name="Ibreve" unicode="&#x12c;" horiz-adv-x="463" 
d="M435 1490l-247 -1490h-93l247 1490h93zM414 1651q-75 0 -130.5 36t-81.5 97t-13 135h74q-14 -83 33.5 -139.5t130.5 -56.5q55 0 103.5 26t82.5 70.5t43 99.5h74q-13 -74 -59 -135t-113 -97t-144 -36z" />
    <glyph glyph-name="ibreve" unicode="&#x12d;" horiz-adv-x="400" 
d="M66 0l179 1084h89l-179 -1084h-89zM316 1245q-75 0 -130.5 36t-81.5 97t-13 135h74q-14 -83 33.5 -139.5t130.5 -56.5q55 0 103.5 26t82.5 70.5t43 99.5h74q-13 -74 -59 -135t-113 -97t-144 -36z" />
    <glyph glyph-name="Iogonek" unicode="&#x12e;" horiz-adv-x="463" 
d="M435 1490l-247 -1490h-93l247 1490h93zM46 -423q-89 0 -134.5 44t-32.5 122t76.5 145.5t168.5 138.5l63 -27q-96 -73 -151.5 -129.5t-65.5 -116.5q-8 -46 17.5 -71.5t85.5 -25.5q15 0 29.5 2t27.5 5l2 -75q-19 -5 -40.5 -8.5t-45.5 -3.5z" />
    <glyph glyph-name="iogonek" unicode="&#x12f;" horiz-adv-x="400" 
d="M66 0l179 1084h89l-179 -1084h-89zM13 -423q-89 0 -134.5 44t-32.5 122t76.5 145.5t168.5 138.5l63 -27q-96 -73 -151.5 -129.5t-65.5 -116.5q-8 -46 17.5 -71.5t85.5 -25.5q15 0 29.5 2t27.5 5l2 -75q-19 -5 -40.5 -8.5t-45.5 -3.5zM329 1326q-29 0 -46.5 21t-12.5 50
q4 29 29 49.5t54 20.5q30 0 47 -20.5t13 -49.5q-5 -29 -29.5 -50t-54.5 -21z" />
    <glyph glyph-name="Idotaccent" unicode="&#x130;" horiz-adv-x="463" 
d="M435 1490l-247 -1490h-93l247 1490h93zM428 1732q-29 0 -46.5 21t-12.5 50q4 29 29 49.5t54 20.5q30 0 47 -20.5t13 -49.5q-5 -29 -29.5 -50t-54.5 -21z" />
    <glyph glyph-name="dotlessi" unicode="&#x131;" horiz-adv-x="400" 
d="M66 0l179 1084h89l-179 -1084h-89z" />
    <glyph glyph-name="IJ" unicode="&#x132;" horiz-adv-x="1561" 
d="M435 1490l-247 -1490h-93l247 1490h93zM905 -20q-164 0 -259.5 88.5t-95.5 247.5q0 14 1 32t5.5 48t12.5 82h92q-8 -50 -12 -79t-5 -45t-1 -29q0 -123 68.5 -191.5t196.5 -68.5q146 0 246.5 90t127.5 251l179 1084h93l-179 -1084q-33 -200 -158.5 -313t-311.5 -113z" />
    <glyph glyph-name="ij" unicode="&#x133;" horiz-adv-x="803" 
d="M66 0l179 1084h89l-179 -1084h-89zM329 1326q-29 0 -46.5 21t-12.5 50q4 29 29 49.5t54 20.5q30 0 47 -20.5t13 -49.5q-5 -29 -29.5 -50t-54.5 -21zM649 1084h89l-204 -1231q-14 -83 -59 -144t-111.5 -94t-144.5 -33h-31l13 83h28q78 0 140 50.5t77 142.5zM733 1326
q-29 0 -46.5 21t-12.5 50q4 29 29 49.5t54 20.5q30 0 47 -20.5t13 -49.5q-5 -29 -29.5 -50t-54.5 -21z" />
    <glyph glyph-name="Jcircumflex" unicode="&#x134;" horiz-adv-x="1098" 
d="M442 -20q-164 0 -259.5 88.5t-95.5 247.5q0 14 1 32t5.5 48t12.5 82h92q-8 -50 -12 -79t-5 -45t-1 -29q0 -123 68.5 -191.5t196.5 -68.5q146 0 246.5 90t127.5 251l179 1084h93l-179 -1084q-33 -200 -158.5 -313t-311.5 -113zM879 1661h-95l1 4l295 272h76l206 -272
l-1 -4h-97l-157 212z" />
    <glyph glyph-name="jcircumflex" unicode="&#x135;" horiz-adv-x="403" 
d="M249 1084h89l-204 -1231q-14 -83 -59 -144t-111.5 -94t-144.5 -33h-31l13 83h28q78 0 140 50.5t77 142.5zM128 1255h-95l1 4l295 272h76l206 -272l-1 -4h-97l-157 212z" />
    <glyph glyph-name="uni0136" unicode="&#x136;" horiz-adv-x="1222" 
d="M248 499l2 106q68 65 132 124.5t128 118.5t132 122l568 520h127l-732 -668l-12 -7zM95 0l247 1490h93l-88 -525l-58 -351l-8 -52l-93 -562h-93zM987 0l-440 805l66 65l476 -870h-102zM334 -494l154 376h93l-177 -376h-70z" />
    <glyph glyph-name="uni0137" unicode="&#x137;" horiz-adv-x="969" 
d="M213 430l21 124h20l622 530h117l-567 -483l-10 -4zM65 0l247 1490h89l-247 -1490h-89zM738 0l-373 588l75 60l412 -648h-114zM211 -494l154 376h93l-177 -376h-70z" />
    <glyph glyph-name="kgreenlandic" unicode="&#x138;" horiz-adv-x="981" 
d="M334 1084l-179 -1084h-89l179 1084h89zM1039 1084l-657 -580h-187l14 83h149l565 497h116zM748 0l-426 518l72 54l468 -572h-114z" />
    <glyph glyph-name="Lacute" unicode="&#x139;" horiz-adv-x="1103" 
d="M95 0l247 1490h94l-233 -1405h740l-14 -85h-834zM369 1666l210 274h105l-235 -274h-80z" />
    <glyph glyph-name="lacute" unicode="&#x13a;" horiz-adv-x="399" 
d="M401 1490l-247 -1490h-89l247 1490h89zM337 1666l210 274h105l-235 -274h-80z" />
    <glyph glyph-name="uni013B" unicode="&#x13b;" horiz-adv-x="1103" 
d="M95 0l247 1490h94l-233 -1405h740l-14 -85h-834zM284 -494l154 376h93l-177 -376h-70z" />
    <glyph glyph-name="uni013C" unicode="&#x13c;" horiz-adv-x="399" 
d="M401 1490l-247 -1490h-89l247 1490h89zM-111 -494l154 376h93l-177 -376h-70z" />
    <glyph glyph-name="Lcaron" unicode="&#x13d;" horiz-adv-x="1088" 
d="M95 0l247 1490h94l-233 -1405h740l-14 -85h-834zM701 1182l62 378h93l-89 -378h-66z" />
    <glyph glyph-name="lcaron" unicode="&#x13e;" horiz-adv-x="444" 
d="M401 1490l-247 -1490h-89l247 1490h89zM491 1182l62 378h93l-89 -378h-66z" />
    <glyph glyph-name="Ldot" unicode="&#x13f;" horiz-adv-x="1070" 
d="M91 0l247 1490h94l-233 -1405h740l-14 -85h-834zM679 723q-29 0 -46.5 21t-12.5 50q4 29 29 49.5t54 20.5q30 0 47 -20.5t13 -49.5q-5 -29 -29.5 -50t-54.5 -21z" />
    <glyph glyph-name="ldot" unicode="&#x140;" horiz-adv-x="548" 
d="M401 1490l-247 -1490h-89l247 1490h89zM473 666q-34 0 -55 25t-15 59q5 32 30 52.5t55 20.5q35 0 55.5 -25t15.5 -59q-5 -31 -30 -52t-56 -21z" />
    <glyph glyph-name="Lslash" unicode="&#x141;" horiz-adv-x="1103" 
d="M95 0l247 1490h94l-233 -1405h740l-14 -85h-834zM158 594l16 97l788 416l-16 -97z" />
    <glyph glyph-name="lslash" unicode="&#x142;" horiz-adv-x="399" 
d="M401 1490l-247 -1490h-89l247 1490h89zM22 757l14 87l467 248l-14 -88z" />
    <glyph glyph-name="Nacute" unicode="&#x143;" horiz-adv-x="1504" 
d="M95 0l247 1490h96l576 -1075q25 -45 51.5 -97.5t54.5 -109t55 -114.5l-17 -7q8 57 16 116t16.5 115.5t16.5 103.5l177 1068h92l-247 -1490h-95l-560 1038q-26 49 -54 104t-58.5 118t-65.5 135l18 9q-11 -74 -20.5 -139.5t-17.5 -122t-16 -103.5l-172 -1039h-93zM889 1666
l210 274h105l-235 -274h-80z" />
    <glyph glyph-name="nacute" unicode="&#x144;" horiz-adv-x="1137" 
d="M268 688l-114 -688h-88l179 1084h87l-41 -248l-21 2q64 135 175 198.5t237 63.5q114 0 194.5 -48.5t116.5 -137.5t15 -213l-116 -701h-88l116 702q24 146 -45.5 230t-208.5 84q-97 0 -181.5 -40.5t-142 -114.5t-74.5 -173zM639 1260l210 274h105l-235 -274h-80z" />
    <glyph glyph-name="uni0145" unicode="&#x145;" horiz-adv-x="1504" 
d="M95 0l247 1490h96l576 -1075q25 -45 51.5 -97.5t54.5 -109t55 -114.5l-17 -7q8 57 16 116t16.5 115.5t16.5 103.5l177 1068h92l-247 -1490h-95l-560 1038q-26 49 -54 104t-58.5 118t-65.5 135l18 9q-11 -74 -20.5 -139.5t-17.5 -122t-16 -103.5l-172 -1039h-93zM441 -494
l154 376h93l-177 -376h-70z" />
    <glyph glyph-name="uni0146" unicode="&#x146;" horiz-adv-x="1137" 
d="M268 688l-114 -688h-88l179 1084h87l-41 -248l-21 2q64 135 175 198.5t237 63.5q114 0 194.5 -48.5t116.5 -137.5t15 -213l-116 -701h-88l116 702q24 146 -45.5 230t-208.5 84q-97 0 -181.5 -40.5t-142 -114.5t-74.5 -173zM258 -494l154 376h93l-177 -376h-70z" />
    <glyph glyph-name="Ncaron" unicode="&#x147;" horiz-adv-x="1504" 
d="M95 0l247 1490h96l576 -1075q25 -45 51.5 -97.5t54.5 -109t55 -114.5l-17 -7q8 57 16 116t16.5 115.5t16.5 103.5l177 1068h92l-247 -1490h-95l-560 1038q-26 49 -54 104t-58.5 118t-65.5 135l18 9q-11 -74 -20.5 -139.5t-17.5 -122t-16 -103.5l-172 -1039h-93zM791 1935
l157 -212l227 212h97l-1 -3l-297 -273h-76l-204 273l1 3h96z" />
    <glyph glyph-name="ncaron" unicode="&#x148;" horiz-adv-x="1137" 
d="M268 688l-114 -688h-88l179 1084h87l-41 -248l-21 2q64 135 175 198.5t237 63.5q114 0 194.5 -48.5t116.5 -137.5t15 -213l-116 -701h-88l116 702q24 146 -45.5 230t-208.5 84q-97 0 -181.5 -40.5t-142 -114.5t-74.5 -173zM541 1529l157 -212l227 212h97l-1 -3l-297 -273
h-76l-204 273l1 3h96z" />
    <glyph glyph-name="Eng" unicode="&#x14a;" horiz-adv-x="1504" 
d="M860 -418l13 83q18 0 40 -0.5t35 -0.5q73 0 109.5 31.5t48.5 103.5l54 329h92l-55 -331q-18 -109 -82 -162.5t-172 -53.5h-43t-40 1zM95 0l247 1490h96l576 -1075q25 -45 51.5 -97.5t54.5 -109t55 -114.5l-17 -7q8 57 16 116t16.5 115.5t16.5 103.5l177 1068h92
l-247 -1490h-95l-560 1038q-26 49 -54 104t-58.5 118t-65.5 135l18 9q-11 -74 -20.5 -139.5t-17.5 -122t-16 -103.5l-172 -1039h-93z" />
    <glyph glyph-name="eng" unicode="&#x14b;" horiz-adv-x="1137" 
d="M521 -418l14 83q18 0 41.5 -0.5t36.5 -0.5q72 0 109 31.5t48 103.5l33 201h89l-33 -203q-18 -110 -82.5 -163t-171.5 -53h-43.5t-40.5 1zM268 688l-114 -688h-88l179 1084h87l-41 -248l-21 2q64 135 175 198.5t237 63.5q114 0 194.5 -48.5t116.5 -137.5t15 -213
l-116 -701h-88l116 702q24 146 -45.5 230t-208.5 84q-97 0 -181.5 -40.5t-142 -114.5t-74.5 -173z" />
    <glyph glyph-name="Omacron" unicode="&#x14c;" horiz-adv-x="1489" 
d="M657 -21q-163 0 -281.5 73.5t-182.5 207t-64 311.5q0 175 53.5 342t155 302t243.5 215.5t319 80.5q162 0 280.5 -73.5t182.5 -206.5t64 -313q0 -173 -54 -340.5t-154.5 -302.5t-242.5 -215.5t-319 -80.5zM661 67q156 0 280.5 73.5t212.5 196t135 273t47 305.5
q0 158 -54 271.5t-152.5 175t-232.5 61.5q-157 0 -282 -73.5t-213.5 -196.5t-135.5 -273.5t-47 -305.5q0 -156 54 -270t153.5 -175.5t234.5 -61.5zM1207 1836l-13 -78h-495l14 78h494z" />
    <glyph glyph-name="omacron" unicode="&#x14d;" horiz-adv-x="1133" 
d="M479 -21q-122 0 -211.5 56t-137.5 155.5t-48 230.5q0 127 41 248.5t117.5 218.5t182 155t232.5 58q122 0 210.5 -56t137 -155.5t48.5 -231.5q0 -127 -41.5 -248.5t-117.5 -218.5t-181 -154.5t-232 -57.5zM481 62q109 0 197.5 51.5t152 137.5t97.5 192t34 215
q0 108 -36 189t-105 126t-168 45q-107 0 -195.5 -51t-152.5 -136.5t-99.5 -192t-35.5 -217.5q0 -161 81.5 -260t229.5 -99zM962 1430l-13 -78h-495l14 78h494z" />
    <glyph glyph-name="Obreve" unicode="&#x14e;" horiz-adv-x="1489" 
d="M657 -21q-163 0 -281.5 73.5t-182.5 207t-64 311.5q0 175 53.5 342t155 302t243.5 215.5t319 80.5q162 0 280.5 -73.5t182.5 -206.5t64 -313q0 -173 -54 -340.5t-154.5 -302.5t-242.5 -215.5t-319 -80.5zM661 67q156 0 280.5 73.5t212.5 196t135 273t47 305.5
q0 158 -54 271.5t-152.5 175t-232.5 61.5q-157 0 -282 -73.5t-213.5 -196.5t-135.5 -273.5t-47 -305.5q0 -156 54 -270t153.5 -175.5t234.5 -61.5zM928 1651q-75 0 -130.5 36t-81.5 97t-13 135h74q-14 -83 33.5 -139.5t130.5 -56.5q55 0 103.5 26t82.5 70.5t43 99.5h74
q-13 -74 -59 -135t-113 -97t-144 -36z" />
    <glyph glyph-name="obreve" unicode="&#x14f;" horiz-adv-x="1133" 
d="M479 -21q-122 0 -211.5 56t-137.5 155.5t-48 230.5q0 127 41 248.5t117.5 218.5t182 155t232.5 58q122 0 210.5 -56t137 -155.5t48.5 -231.5q0 -127 -41.5 -248.5t-117.5 -218.5t-181 -154.5t-232 -57.5zM481 62q109 0 197.5 51.5t152 137.5t97.5 192t34 215
q0 108 -36 189t-105 126t-168 45q-107 0 -195.5 -51t-152.5 -136.5t-99.5 -192t-35.5 -217.5q0 -161 81.5 -260t229.5 -99zM683 1245q-75 0 -130.5 36t-81.5 97t-13 135h74q-14 -83 33.5 -139.5t130.5 -56.5q55 0 103.5 26t82.5 70.5t43 99.5h74q-13 -74 -59 -135t-113 -97
t-144 -36z" />
    <glyph glyph-name="Ohungarumlaut" unicode="&#x150;" horiz-adv-x="1489" 
d="M657 -21q-163 0 -281.5 73.5t-182.5 207t-64 311.5q0 175 53.5 342t155 302t243.5 215.5t319 80.5q162 0 280.5 -73.5t182.5 -206.5t64 -313q0 -173 -54 -340.5t-154.5 -302.5t-242.5 -215.5t-319 -80.5zM661 67q156 0 280.5 73.5t212.5 196t135 273t47 305.5
q0 158 -54 271.5t-152.5 175t-232.5 61.5q-157 0 -282 -73.5t-213.5 -196.5t-135.5 -273.5t-47 -305.5q0 -156 54 -270t153.5 -175.5t234.5 -61.5zM773 1636h-78l170 290h102zM1033 1636h-79l205 290h103z" />
    <glyph glyph-name="ohungarumlaut" unicode="&#x151;" horiz-adv-x="1133" 
d="M479 -21q-122 0 -211.5 56t-137.5 155.5t-48 230.5q0 127 41 248.5t117.5 218.5t182 155t232.5 58q122 0 210.5 -56t137 -155.5t48.5 -231.5q0 -127 -41.5 -248.5t-117.5 -218.5t-181 -154.5t-232 -57.5zM481 62q109 0 197.5 51.5t152 137.5t97.5 192t34 215
q0 108 -36 189t-105 126t-168 45q-107 0 -195.5 -51t-152.5 -136.5t-99.5 -192t-35.5 -217.5q0 -161 81.5 -260t229.5 -99zM528 1230h-78l170 290h102zM788 1230h-79l205 290h103z" />
    <glyph glyph-name="OE" unicode="&#x152;" horiz-adv-x="1903" 
d="M659 0q-193 0 -321.5 93t-180 261t-14.5 391q37 225 143.5 392.5t264.5 260t351 92.5h205l-14 -85h-203q-166 1 -303 -81.5t-229.5 -231t-126.5 -347.5q-32 -198 10.5 -346.5t153 -231t280.5 -83.5h199l-15 -84h-200zM818 0l247 1490h883l-14 -86h-790l-100 -606h730
l-14 -85h-731l-104 -628h798l-14 -85h-891z" />
    <glyph glyph-name="oe" unicode="&#x153;" horiz-adv-x="1950" 
d="M479 -21q-122 0 -211.5 56t-137.5 155.5t-48 230.5q0 127 41 248.5t117.5 218.5t182 155t232.5 58q122 0 210.5 -56t137 -155.5t48.5 -231.5q0 -127 -41.5 -248.5t-117.5 -218.5t-181 -154.5t-232 -57.5zM481 62q109 0 197.5 51.5t152 137.5t97.5 192t34 215
q0 108 -36 189t-105 126t-168 45q-107 0 -195.5 -51t-152.5 -136.5t-99.5 -192t-35.5 -217.5q0 -161 81.5 -260t229.5 -99zM1352 -19q-121 0 -211 52t-140 149t-50 233q0 142 43.5 267t122.5 219.5t186.5 147.5t235.5 53q107 0 182 -37t114 -103t39 -152q0 -106 -59 -169
t-170 -95t-270 -42.5t-359 -10.5l8 77q186 0 328 7.5t238.5 31t145.5 71.5t49 129q0 94 -64 152t-188 58q-115 0 -206.5 -50t-156 -135.5t-98 -194t-33.5 -226.5q0 -103 35.5 -181.5t106.5 -123t175 -44.5q124 0 224 62t153 161l85 -16q-61 -128 -185 -209t-281 -81z" />
    <glyph glyph-name="Racute" unicode="&#x154;" horiz-adv-x="1247" 
d="M95 0l247 1490h487q138 0 231 -54.5t133 -152.5t18 -229q-22 -129 -94.5 -226.5t-184 -151.5t-248.5 -54h-436l15 85h430q111 0 201 43.5t149 122t76 183.5q27 160 -54 254.5t-247 94.5h-398l-232 -1405h-93zM973 0l-249 675h99l251 -675h-101zM757 1666l210 274h105
l-235 -274h-80z" />
    <glyph glyph-name="racute" unicode="&#x155;" horiz-adv-x="634" 
d="M66 0l179 1084h87l-30 -182h4q51 88 144 140.5t203 52.5q13 0 22.5 -0.5t19.5 -0.5l-15 -89q-7 1 -19.5 2t-30.5 1q-88 0 -164.5 -38.5t-128 -108.5t-67.5 -163l-115 -698h-89zM463 1260l210 274h105l-235 -274h-80z" />
    <glyph glyph-name="uni0156" unicode="&#x156;" horiz-adv-x="1247" 
d="M95 0l247 1490h487q138 0 231 -54.5t133 -152.5t18 -229q-22 -129 -94.5 -226.5t-184 -151.5t-248.5 -54h-436l15 85h430q111 0 201 43.5t149 122t76 183.5q27 160 -54 254.5t-247 94.5h-398l-232 -1405h-93zM973 0l-249 675h99l251 -675h-101zM322 -494l154 376h93
l-177 -376h-70z" />
    <glyph glyph-name="uni0157" unicode="&#x157;" horiz-adv-x="634" 
d="M66 0l179 1084h87l-30 -182h4q51 88 144 140.5t203 52.5q13 0 22.5 -0.5t19.5 -0.5l-15 -89q-7 1 -19.5 2t-30.5 1q-88 0 -164.5 -38.5t-128 -108.5t-67.5 -163l-115 -698h-89zM-110 -494l154 376h93l-177 -376h-70z" />
    <glyph glyph-name="Rcaron" unicode="&#x158;" horiz-adv-x="1247" 
d="M95 0l247 1490h487q138 0 231 -54.5t133 -152.5t18 -229q-22 -129 -94.5 -226.5t-184 -151.5t-248.5 -54h-436l15 85h430q111 0 201 43.5t149 122t76 183.5q27 160 -54 254.5t-247 94.5h-398l-232 -1405h-93zM973 0l-249 675h99l251 -675h-101zM659 1935l157 -212
l227 212h97l-1 -3l-297 -273h-76l-204 273l1 3h96z" />
    <glyph glyph-name="rcaron" unicode="&#x159;" horiz-adv-x="634" 
d="M66 0l179 1084h87l-30 -182h4q51 88 144 140.5t203 52.5q13 0 22.5 -0.5t19.5 -0.5l-15 -89q-7 1 -19.5 2t-30.5 1q-88 0 -164.5 -38.5t-128 -108.5t-67.5 -163l-115 -698h-89zM365 1529l157 -212l227 212h97l-1 -3l-297 -273h-76l-204 273l1 3h96z" />
    <glyph glyph-name="Sacute" unicode="&#x15a;" horiz-adv-x="1216" 
d="M518 -23q-146 0 -248 50.5t-149.5 141t-33.5 211.5h92q-9 -99 28.5 -170t118 -109t196.5 -38q122 0 221 41t163 115t80 171q13 75 -11.5 130t-89 96.5t-172.5 75.5l-162 51q-175 55 -253 146t-55 229q19 115 93 204t186 139.5t246 50.5q136 0 231 -52t140.5 -143.5
t31.5 -211.5h-90q13 145 -71.5 233t-246.5 88q-109 0 -201 -40t-152.5 -110.5t-76.5 -160.5q-11 -71 14.5 -126t87.5 -95t156 -69l158 -50q89 -28 155.5 -64t109.5 -82.5t59.5 -107t3.5 -136.5q-19 -119 -94 -211t-193.5 -144.5t-271.5 -52.5zM744 1666l210 274h105
l-235 -274h-80z" />
    <glyph glyph-name="sacute" unicode="&#x15b;" horiz-adv-x="979" 
d="M403 -20q-105 0 -181 33t-118.5 95t-45.5 150q-1 11 0 17.5t1 17.5l87 6q-5 -118 63 -178t195 -60q94 0 172 33.5t126 93t49 136.5q1 62 -42.5 98.5t-128.5 57.5l-172 43q-120 31 -181 90.5t-58 151.5q2 100 59.5 175t151 117.5t204.5 42.5q146 0 229 -69.5t93 -196.5
v-16.5v-18.5l-85 -7q0 110 -59 169t-179 59q-88 0 -161.5 -33t-118 -90t-45.5 -130q-1 -63 44 -102.5t137 -62.5l169 -42q117 -29 176.5 -86t56.5 -148q-2 -78 -37 -141.5t-96 -109.5t-139 -70.5t-166 -24.5zM565 1260l210 274h105l-235 -274h-80z" />
    <glyph glyph-name="Scircumflex" unicode="&#x15c;" horiz-adv-x="1216" 
d="M518 -23q-146 0 -248 50.5t-149.5 141t-33.5 211.5h92q-9 -99 28.5 -170t118 -109t196.5 -38q122 0 221 41t163 115t80 171q13 75 -11.5 130t-89 96.5t-172.5 75.5l-162 51q-175 55 -253 146t-55 229q19 115 93 204t186 139.5t246 50.5q136 0 231 -52t140.5 -143.5
t31.5 -211.5h-90q13 145 -71.5 233t-246.5 88q-109 0 -201 -40t-152.5 -110.5t-76.5 -160.5q-11 -71 14.5 -126t87.5 -95t156 -69l158 -50q89 -28 155.5 -64t109.5 -82.5t59.5 -107t3.5 -136.5q-19 -119 -94 -211t-193.5 -144.5t-271.5 -52.5zM599 1661h-95l1 4l295 272h76
l206 -272l-1 -4h-97l-157 212z" />
    <glyph glyph-name="scircumflex" unicode="&#x15d;" horiz-adv-x="979" 
d="M403 -20q-105 0 -181 33t-118.5 95t-45.5 150q-1 11 0 17.5t1 17.5l87 6q-5 -118 63 -178t195 -60q94 0 172 33.5t126 93t49 136.5q1 62 -42.5 98.5t-128.5 57.5l-172 43q-120 31 -181 90.5t-58 151.5q2 100 59.5 175t151 117.5t204.5 42.5q146 0 229 -69.5t93 -196.5
v-16.5v-18.5l-85 -7q0 110 -59 169t-179 59q-88 0 -161.5 -33t-118 -90t-45.5 -130q-1 -63 44 -102.5t137 -62.5l169 -42q117 -29 176.5 -86t56.5 -148q-2 -78 -37 -141.5t-96 -109.5t-139 -70.5t-166 -24.5zM419 1255h-95l1 4l295 272h76l206 -272l-1 -4h-97l-157 212z" />
    <glyph glyph-name="Scedilla" unicode="&#x15e;" horiz-adv-x="1216" 
d="M518 -23q-146 0 -248 50.5t-149.5 141t-33.5 211.5h92q-9 -99 28.5 -170t118 -109t196.5 -38q122 0 221 41t163 115t80 171q13 75 -11.5 130t-89 96.5t-172.5 75.5l-162 51q-175 55 -253 146t-55 229q19 115 93 204t186 139.5t246 50.5q136 0 231 -52t140.5 -143.5
t31.5 -211.5h-90q13 145 -71.5 233t-246.5 88q-109 0 -201 -40t-152.5 -110.5t-76.5 -160.5q-11 -71 14.5 -126t87.5 -95t156 -69l158 -50q89 -28 155.5 -64t109.5 -82.5t59.5 -107t3.5 -136.5q-19 -119 -94 -211t-193.5 -144.5t-271.5 -52.5zM352 -418l11 65h104
q60 0 96 25t43 71q8 46 -19 71.5t-92 25.5h-66l67 188h55v-28l-32 -97q89 -3 131.5 -44.5t30.5 -114.5q-13 -78 -72 -120t-152 -42h-105z" />
    <glyph glyph-name="scedilla" unicode="&#x15f;" horiz-adv-x="979" 
d="M403 -20q-105 0 -181 33t-118.5 95t-45.5 150q-1 11 0 17.5t1 17.5l87 6q-5 -118 63 -178t195 -60q94 0 172 33.5t126 93t49 136.5q1 62 -42.5 98.5t-128.5 57.5l-172 43q-120 31 -181 90.5t-58 151.5q2 100 59.5 175t151 117.5t204.5 42.5q146 0 229 -69.5t93 -196.5
v-16.5v-18.5l-85 -7q0 110 -59 169t-179 59q-88 0 -161.5 -33t-118 -90t-45.5 -130q-1 -63 44 -102.5t137 -62.5l169 -42q117 -29 176.5 -86t56.5 -148q-2 -78 -37 -141.5t-96 -109.5t-139 -70.5t-166 -24.5zM238 -418l11 65h104q60 0 96 25t43 71q8 46 -19 71.5t-92 25.5
h-66l67 188h55v-28l-32 -97q89 -3 131.5 -44.5t30.5 -114.5q-13 -78 -72 -120t-152 -42h-105z" />
    <glyph glyph-name="Scaron" unicode="&#x160;" horiz-adv-x="1216" 
d="M518 -23q-146 0 -248 50.5t-149.5 141t-33.5 211.5h92q-9 -99 28.5 -170t118 -109t196.5 -38q122 0 221 41t163 115t80 171q13 75 -11.5 130t-89 96.5t-172.5 75.5l-162 51q-175 55 -253 146t-55 229q19 115 93 204t186 139.5t246 50.5q136 0 231 -52t140.5 -143.5
t31.5 -211.5h-90q13 145 -71.5 233t-246.5 88q-109 0 -201 -40t-152.5 -110.5t-76.5 -160.5q-11 -71 14.5 -126t87.5 -95t156 -69l158 -50q89 -28 155.5 -64t109.5 -82.5t59.5 -107t3.5 -136.5q-19 -119 -94 -211t-193.5 -144.5t-271.5 -52.5zM646 1935l157 -212l227 212h97
l-1 -3l-297 -273h-76l-204 273l1 3h96z" />
    <glyph glyph-name="scaron" unicode="&#x161;" horiz-adv-x="979" 
d="M403 -20q-105 0 -181 33t-118.5 95t-45.5 150q-1 11 0 17.5t1 17.5l87 6q-5 -118 63 -178t195 -60q94 0 172 33.5t126 93t49 136.5q1 62 -42.5 98.5t-128.5 57.5l-172 43q-120 31 -181 90.5t-58 151.5q2 100 59.5 175t151 117.5t204.5 42.5q146 0 229 -69.5t93 -196.5
v-16.5v-18.5l-85 -7q0 110 -59 169t-179 59q-88 0 -161.5 -33t-118 -90t-45.5 -130q-1 -63 44 -102.5t137 -62.5l169 -42q117 -29 176.5 -86t56.5 -148q-2 -78 -37 -141.5t-96 -109.5t-139 -70.5t-166 -24.5zM466 1529l157 -212l227 212h97l-1 -3l-297 -273h-76l-204 273
l1 3h96z" />
    <glyph glyph-name="uni021A" unicode="&#x162;" horiz-adv-x="1249" 
d="M227 1405l15 85h1080l-15 -85h-493l-233 -1405h-92l233 1405h-495zM368 -418l11 65h104q60 0 96 25t43 71q8 46 -19 71.5t-92 25.5h-66l67 188h55v-28l-32 -97q89 -3 131.5 -44.5t30.5 -114.5q-13 -78 -72 -120t-152 -42h-105z" />
    <glyph glyph-name="uni0163" unicode="&#x163;" horiz-adv-x="539" 
d="M585 1084l-14 -81h-486l14 81h486zM314 1362h89l-187 -1134q-14 -84 17.5 -120.5t111.5 -29.5q16 0 35 1.5t36 2.5l-5 -80q-18 -2 -39.5 -3.5t-41.5 -2.5q-118 -8 -170.5 53t-33.5 173zM85 -418l11 65h104q60 0 96 25t43 71q8 46 -19 71.5t-92 25.5h-66l67 188h55v-28
l-32 -97q89 -3 131.5 -44.5t30.5 -114.5q-13 -78 -72 -120t-152 -42h-105z" />
    <glyph glyph-name="Tcaron" unicode="&#x164;" horiz-adv-x="1249" 
d="M227 1405l15 85h1080l-15 -85h-493l-233 -1405h-92l233 1405h-495zM663 1935l157 -212l227 212h97l-1 -3l-297 -273h-76l-204 273l1 3h96z" />
    <glyph glyph-name="tcaron" unicode="&#x165;" horiz-adv-x="539" 
d="M585 1084l-14 -81h-486l14 81h486zM314 1362h89l-187 -1134q-14 -84 17.5 -120.5t111.5 -29.5q16 0 35 1.5t36 2.5l-5 -80q-18 -2 -39.5 -3.5t-41.5 -2.5q-118 -8 -170.5 53t-33.5 173zM440 1203l62 378h93l-89 -378h-66z" />
    <glyph glyph-name="Tbar" unicode="&#x166;" horiz-adv-x="1249" 
d="M227 1405l15 85h1080l-15 -85h-493l-233 -1405h-92l233 1405h-495zM283 725l13 84h746l-13 -84h-746z" />
    <glyph glyph-name="tbar" unicode="&#x167;" horiz-adv-x="540" 
d="M529 746l-13 -80h-486l13 80h486zM586 1084l-14 -81h-486l14 81h486zM315 1362h89l-187 -1134q-14 -84 17.5 -120.5t111.5 -29.5q16 0 35 1.5t36 2.5l-5 -80q-18 -2 -39.5 -3.5t-41.5 -2.5q-118 -8 -170.5 53t-33.5 173z" />
    <glyph glyph-name="Utilde" unicode="&#x168;" horiz-adv-x="1429" 
d="M627 -20q-161 0 -275.5 69.5t-166.5 189.5t-27 272l162 979h93l-162 -981q-22 -129 19.5 -228.5t134.5 -156.5t225 -57q137 0 251 58.5t190 160t98 229.5l161 975h92l-163 -986q-25 -152 -114.5 -270.5t-224 -186t-293.5 -67.5zM1038 1710q-40 0 -70 16t-54.5 37
t-48.5 37t-54 16q-42 0 -71.5 -28t-39.5 -72h-72q17 75 66 124t118 49q45 0 75 -16t53 -37t46 -37.5t52 -16.5q37 0 63 23.5t45 75.5h72q-22 -79 -70 -125t-110 -46z" />
    <glyph glyph-name="utilde" unicode="&#x169;" horiz-adv-x="1138" 
d="M456 -16q-112 0 -193 47.5t-118 136.5t-16 212l116 704h89l-116 -700q-23 -145 48.5 -231t212.5 -86q95 0 177.5 40t139.5 113t73 173l114 691h89l-180 -1084h-87l41 248h21q-64 -135 -174 -199.5t-237 -64.5zM825 1304q-40 0 -70 16t-54.5 37t-48.5 37t-54 16
q-42 0 -71.5 -28t-39.5 -72h-72q17 75 66 124t118 49q45 0 75 -16t53 -37t46 -37.5t52 -16.5q37 0 63 23.5t45 75.5h72q-22 -79 -70 -125t-110 -46z" />
    <glyph glyph-name="Umacron" unicode="&#x16a;" horiz-adv-x="1429" 
d="M627 -20q-161 0 -275.5 69.5t-166.5 189.5t-27 272l162 979h93l-162 -981q-22 -129 19.5 -228.5t134.5 -156.5t225 -57q137 0 251 58.5t190 160t98 229.5l161 975h92l-163 -986q-25 -152 -114.5 -270.5t-224 -186t-293.5 -67.5zM1176 1836l-13 -78h-495l14 78h494z" />
    <glyph glyph-name="umacron" unicode="&#x16b;" horiz-adv-x="1138" 
d="M456 -16q-112 0 -193 47.5t-118 136.5t-16 212l116 704h89l-116 -700q-23 -145 48.5 -231t212.5 -86q95 0 177.5 40t139.5 113t73 173l114 691h89l-180 -1084h-87l41 248h21q-64 -135 -174 -199.5t-237 -64.5zM963 1430l-13 -78h-495l14 78h494z" />
    <glyph glyph-name="Ubreve" unicode="&#x16c;" horiz-adv-x="1429" 
d="M627 -20q-161 0 -275.5 69.5t-166.5 189.5t-27 272l162 979h93l-162 -981q-22 -129 19.5 -228.5t134.5 -156.5t225 -57q137 0 251 58.5t190 160t98 229.5l161 975h92l-163 -986q-25 -152 -114.5 -270.5t-224 -186t-293.5 -67.5zM897 1651q-75 0 -130.5 36t-81.5 97
t-13 135h74q-14 -83 33.5 -139.5t130.5 -56.5q55 0 103.5 26t82.5 70.5t43 99.5h74q-13 -74 -59 -135t-113 -97t-144 -36z" />
    <glyph glyph-name="ubreve" unicode="&#x16d;" horiz-adv-x="1138" 
d="M456 -16q-112 0 -193 47.5t-118 136.5t-16 212l116 704h89l-116 -700q-23 -145 48.5 -231t212.5 -86q95 0 177.5 40t139.5 113t73 173l114 691h89l-180 -1084h-87l41 248h21q-64 -135 -174 -199.5t-237 -64.5zM685 1245q-75 0 -130.5 36t-81.5 97t-13 135h74
q-14 -83 33.5 -139.5t130.5 -56.5q55 0 103.5 26t82.5 70.5t43 99.5h74q-13 -74 -59 -135t-113 -97t-144 -36z" />
    <glyph glyph-name="Uring" unicode="&#x16e;" horiz-adv-x="1429" 
d="M627 -20q-161 0 -275.5 69.5t-166.5 189.5t-27 272l162 979h93l-162 -981q-22 -129 19.5 -228.5t134.5 -156.5t225 -57q137 0 251 58.5t190 160t98 229.5l161 975h92l-163 -986q-25 -152 -114.5 -270.5t-224 -186t-293.5 -67.5zM898 1618q-54 0 -94 26t-59.5 69.5
t-10.5 95.5q8 50 39.5 90.5t77.5 64.5t97 24q54 0 94.5 -26t59.5 -69t11 -96q-8 -49 -40 -90t-78 -65t-97 -24zM902 1690q49 0 89 33.5t48 81.5q8 47 -20 79.5t-75 32.5q-49 0 -88.5 -34t-47.5 -82q-8 -46 19.5 -78.5t74.5 -32.5z" />
    <glyph glyph-name="uring" unicode="&#x16f;" horiz-adv-x="1138" 
d="M456 -16q-112 0 -193 47.5t-118 136.5t-16 212l116 704h89l-116 -700q-23 -145 48.5 -231t212.5 -86q95 0 177.5 40t139.5 113t73 173l114 691h89l-180 -1084h-87l41 248h21q-64 -135 -174 -199.5t-237 -64.5zM680 1215q-53 0 -92 24.5t-57.5 67t-10.5 93.5
q9 52 41.5 93.5t80 66.5t99.5 25q54 0 93 -25t57.5 -66.5t9.5 -93.5q-8 -51 -40.5 -93.5t-79.5 -67t-101 -24.5zM686 1286q51 0 91.5 33.5t48.5 83.5q8 48 -17.5 79t-72.5 31q-51 0 -91.5 -32.5t-49.5 -82.5q-8 -48 17.5 -80t73.5 -32z" />
    <glyph glyph-name="Uhungarumlaut" unicode="&#x170;" horiz-adv-x="1429" 
d="M627 -20q-161 0 -275.5 69.5t-166.5 189.5t-27 272l162 979h93l-162 -981q-22 -129 19.5 -228.5t134.5 -156.5t225 -57q137 0 251 58.5t190 160t98 229.5l161 975h92l-163 -986q-25 -152 -114.5 -270.5t-224 -186t-293.5 -67.5zM743 1636h-78l170 290h102zM1003 1636h-79
l205 290h103z" />
    <glyph glyph-name="uhungarumlaut" unicode="&#x171;" horiz-adv-x="1138" 
d="M456 -16q-112 0 -193 47.5t-118 136.5t-16 212l116 704h89l-116 -700q-23 -145 48.5 -231t212.5 -86q95 0 177.5 40t139.5 113t73 173l114 691h89l-180 -1084h-87l41 248h21q-64 -135 -174 -199.5t-237 -64.5zM530 1230h-78l170 290h102zM790 1230h-79l205 290h103z" />
    <glyph glyph-name="Uogonek" unicode="&#x172;" horiz-adv-x="1429" 
d="M627 -20q-161 0 -275.5 69.5t-166.5 189.5t-27 272l162 979h93l-162 -981q-22 -129 19.5 -228.5t134.5 -156.5t225 -57q137 0 251 58.5t190 160t98 229.5l161 975h92l-163 -986q-25 -152 -114.5 -270.5t-224 -186t-293.5 -67.5zM637 -422q-82 0 -131.5 42.5t-36.5 124.5
q11 64 52 111.5t102.5 85.5t133 74t144 78.5t136.5 98t110 132.5t64 183l48 -3q-21 -129 -77.5 -219.5t-132.5 -153.5t-157 -109.5t-153 -85.5t-120.5 -82t-57.5 -100q-9 -51 20 -74t84 -23q15 0 29.5 2t27.5 5l1 -75q-19 -5 -40.5 -8.5t-45.5 -3.5z" />
    <glyph glyph-name="uogonek" unicode="&#x173;" horiz-adv-x="1138" 
d="M456 -16q-112 0 -193 47.5t-118 136.5t-16 212l116 704h89l-116 -700q-23 -145 48.5 -231t212.5 -86q95 0 177.5 40t139.5 113t73 173l114 691h89l-180 -1084h-87l41 248h21q-64 -135 -174 -199.5t-237 -64.5zM751 -423q-89 0 -134.5 44t-32.5 122t76.5 145.5
t168.5 138.5l63 -27q-96 -73 -151.5 -129.5t-65.5 -116.5q-8 -46 17.5 -71.5t85.5 -25.5q15 0 29.5 2t27.5 5l2 -75q-19 -5 -40.5 -8.5t-45.5 -3.5z" />
    <glyph glyph-name="Wcircumflex" unicode="&#x174;" horiz-adv-x="1893" 
d="M365 0l-170 1490h93l117 -1066q7 -62 12.5 -123.5t11 -124t10.5 -125.5h-16q25 63 50.5 125.5t51.5 124t53 123.5l465 1066h117l110 -1066q6 -62 12 -123.5t11 -124t10 -125.5h-17q26 63 51.5 125.5t52 124t53.5 123.5l471 1066h97l-664 -1490h-118l-113 1054
q-10 93 -17.5 189t-14.5 197h21q-40 -100 -79 -196t-81 -190l-461 -1054h-119zM938 1661h-95l1 4l295 272h76l206 -272l-1 -4h-97l-157 212z" />
    <glyph glyph-name="wcircumflex" unicode="&#x175;" horiz-adv-x="1570" 
d="M287 0l-142 1084h91l85 -689q10 -80 18.5 -163.5t16.5 -172.5h-18q38 88 75.5 171.5t76.5 164.5l333 689h100l103 -689q12 -80 22 -163.5t19 -172.5h-18q37 88 73.5 171.5t72.5 164.5l314 689h95l-501 -1084h-102l-113 740q-7 47 -13 94.5t-11.5 96.5t-11.5 98h27
l-44 -98t-43.5 -96.5t-44.5 -94.5l-358 -740h-102zM710 1255h-95l1 4l295 272h76l206 -272l-1 -4h-97l-157 212z" />
    <glyph glyph-name="Ycircumflex" unicode="&#x176;" horiz-adv-x="1290" 
d="M509 0l112 675l-426 815h101l258 -493q36 -68 68.5 -134.5t65.5 -139.5h-38q56 73 111.5 140t111.5 134l420 493h116l-696 -815l-111 -675h-93zM637 1661h-95l1 4l295 272h76l206 -272l-1 -4h-97l-157 212z" />
    <glyph glyph-name="ycircumflex" unicode="&#x177;" horiz-adv-x="1064" 
d="M-30 -410l26 80l57 -2q52 -10 94.5 1t80 50t77.5 110l91 165l-250 1090h91l159 -710q18 -81 33.5 -162t30.5 -162h-27q42 81 84.5 162t87.5 162l393 710h100l-719 -1286q-43 -77 -88.5 -125.5t-98 -71.5t-116.5 -23q-30 0 -54.5 3.5t-51.5 8.5zM455 1255h-95l1 4l295 272
h76l206 -272l-1 -4h-97l-157 212z" />
    <glyph glyph-name="Ydieresis" unicode="&#x178;" horiz-adv-x="1290" 
d="M509 0l112 675l-426 815h101l258 -493q36 -68 68.5 -134.5t65.5 -139.5h-38q56 73 111.5 140t111.5 134l420 493h116l-696 -815l-111 -675h-93zM1046 1732q-29 0 -46 21t-12 50q4 29 28.5 49.5t53.5 20.5t46 -20.5t12 -49.5t-29 -50t-53 -21zM637 1732q-29 0 -46 21
t-13 50q5 29 29.5 49.5t53.5 20.5t46 -20.5t12 -49.5t-29 -50t-53 -21z" />
    <glyph glyph-name="Zacute" unicode="&#x179;" horiz-adv-x="1196" 
d="M27 0l13 75l1068 1329h-847l14 86h962l-13 -77l-1069 -1328h854l-14 -85h-968zM735 1666l210 274h105l-235 -274h-80z" />
    <glyph glyph-name="zacute" unicode="&#x17a;" horiz-adv-x="1006" 
d="M22 0l13 75l802 920l1 5h-631l14 84h747l-13 -79l-797 -917l-1 -4h660l-14 -84h-781zM566 1260l210 274h105l-235 -274h-80z" />
    <glyph glyph-name="Zdotaccent" unicode="&#x17b;" horiz-adv-x="1196" 
d="M27 0l13 75l1068 1329h-847l14 86h962l-13 -77l-1069 -1328h854l-14 -85h-968zM795 1732q-29 0 -46.5 21t-12.5 50q4 29 29 49.5t54 20.5q30 0 47 -20.5t13 -49.5q-5 -29 -29.5 -50t-54.5 -21z" />
    <glyph glyph-name="zdotaccent" unicode="&#x17c;" horiz-adv-x="1006" 
d="M22 0l13 75l802 920l1 5h-631l14 84h747l-13 -79l-797 -917l-1 -4h660l-14 -84h-781zM626 1326q-29 0 -46.5 21t-12.5 50q4 29 29 49.5t54 20.5q30 0 47 -20.5t13 -49.5q-5 -29 -29.5 -50t-54.5 -21z" />
    <glyph glyph-name="Zcaron" unicode="&#x17d;" horiz-adv-x="1196" 
d="M27 0l13 75l1068 1329h-847l14 86h962l-13 -77l-1069 -1328h854l-14 -85h-968zM637 1935l157 -212l227 212h97l-1 -3l-297 -273h-76l-204 273l1 3h96z" />
    <glyph glyph-name="zcaron" unicode="&#x17e;" horiz-adv-x="1006" 
d="M22 0l13 75l802 920l1 5h-631l14 84h747l-13 -79l-797 -917l-1 -4h660l-14 -84h-781zM468 1529l157 -212l227 212h97l-1 -3l-297 -273h-76l-204 273l1 3h96z" />
    <glyph glyph-name="longs" unicode="&#x17f;" horiz-adv-x="504" 
d="M-166 -437q-16 0 -29.5 1t-27.5 2.5t-30 3.5l20 83q20 -2 36.5 -3.5t36.5 -1.5q81 0 130.5 41t63.5 127l241 1454q14 81 53.5 136.5t100.5 84.5t139 29q26 0 49 -2t47 -6l-22 -79q-19 3 -38.5 4t-43.5 1q-80 0 -130.5 -43t-65.5 -129l-240 -1450q-14 -82 -52 -138.5
t-98 -85.5t-140 -29z" />
    <glyph glyph-name="bbar" unicode="&#x180;" horiz-adv-x="1168" 
d="M534 -20q-94 0 -163.5 34.5t-113 94.5t-59.5 135h-5l-40 -244h-88l247 1490h89l-108 -652h4q37 76 98.5 135t141 93t170.5 34q117 0 202 -54t131 -151t46 -228q0 -125 -38.5 -247.5t-110.5 -221.5t-174 -158.5t-229 -59.5zM527 63q108 0 195 52.5t148.5 140t94 194.5
t32.5 216q0 162 -80 256.5t-220 94.5q-111 0 -197.5 -52.5t-147 -140.5t-92 -195.5t-31.5 -215.5q0 -160 78 -255t220 -95zM68 1242l13 78h583l-12 -78h-584z" />
    <glyph glyph-name="uni0181" unicode="&#x181;" horiz-adv-x="1486" 
d="M143 1105l25 153q19 114 86.5 173t181.5 59h105l-14 -85h-103q-75 0 -115.5 -36t-52.5 -112l-26 -152h-87zM295 0l247 1490h485q137 0 228 -48.5t130.5 -135.5t19.5 -205q-14 -87 -57.5 -155.5t-107 -114.5t-138.5 -67v-3q76 -10 138 -57.5t93 -126.5t13 -186
q-19 -117 -86.5 -205t-177.5 -137t-259 -49h-528zM401 85h430q177 0 289 87.5t136 228.5q16 96 -20 166.5t-112 109t-180 38.5h-438zM520 799h425q97 0 175.5 41.5t129.5 112t65 156.5q23 140 -56 218t-240 78h-399z" />
    <glyph glyph-name="uni0182" unicode="&#x182;" horiz-adv-x="1279" 
d="M96 0l246 1490h841l-16 -86h-747l-98 -598h466q135 1 226.5 -48.5t131 -138.5t19.5 -208q-20 -127 -87 -219t-174.5 -142t-249.5 -50h-558zM202 84h466q112 1 197 42.5t138.5 115.5t70.5 171q23 138 -57 223t-245 85h-465z" />
    <glyph glyph-name="uni0183" unicode="&#x183;" horiz-adv-x="1168" 
d="M345 1409l-33 81h733l-13 -81h-687zM534 -20q-94 0 -163.5 34.5t-113 94.5t-59.5 135h-5l-40 -244h-88l247 1490h89l-108 -652h4q37 76 98.5 135t141 93t170.5 34q117 0 202 -54t131 -151t46 -228q0 -125 -38.5 -247.5t-110.5 -221.5t-174 -158.5t-229 -59.5zM527 63
q108 0 195 52.5t148.5 140t94 194.5t32.5 216q0 162 -80 256.5t-220 94.5q-111 0 -197.5 -52.5t-147 -140.5t-92 -195.5t-31.5 -215.5q0 -160 78 -255t220 -95z" />
    <glyph glyph-name="uni0184" unicode="&#x184;" horiz-adv-x="1421" 
d="M188 977l-70 44l346 469h102zM482 860h456q137 0 227.5 -56t128.5 -152t18 -219q-21 -129 -90 -226.5t-176.5 -152t-244.5 -54.5h-524l247 1490h93l-233 -1405h422q110 0 197 44t143.5 122.5t73.5 181.5q16 97 -12 174.5t-97.5 122.5t-179.5 45h-463z" />
    <glyph glyph-name="uni0185" unicode="&#x185;" horiz-adv-x="1229" 
d="M143 625l-66 41l308 418h98zM437 645h327q120 0 200.5 -40t116.5 -112.5t20 -168.5q-16 -97 -75.5 -170t-153 -113.5t-213.5 -40.5h-396l180 1084h89l-166 -999h300q140 0 233.5 64.5t112.5 172.5q19 110 -48.5 174t-208.5 64h-332z" />
    <glyph glyph-name="uni0186" unicode="&#x186;" horiz-adv-x="1435" 
d="M843 1511q164 0 283 -73t183.5 -206t64.5 -313q0 -174 -54 -341.5t-155 -302.5t-244 -215.5t-321 -80.5q-127 0 -221.5 42t-158 112t-95 157.5t-32.5 178.5h92q4 -77 31 -149t79.5 -129t129.5 -90.5t178 -33.5q153 0 277.5 71.5t214.5 192.5t139 273.5t49 313.5
q0 163 -57.5 276t-157.5 171t-229 58q-104 0 -193.5 -33.5t-162 -90.5t-125 -129t-81.5 -149h-93q31 91 90.5 178t144.5 157.5t191.5 112.5t232.5 42z" />
    <glyph glyph-name="uni0187" unicode="&#x187;" horiz-adv-x="1435" 
d="M1322 1021l73 441q18 109 82 162t171 53h43t39 -1l-13 -80h-40h-35q-73 0 -111 -31t-49 -103l-73 -441h-87zM659 -21q-164 0 -283 73t-183 206t-64 313q0 174 53.5 341.5t155 302.5t244 215.5t320.5 80.5q127 0 222 -41.5t158 -112t94.5 -157.5t32.5 -179h-92
q-4 77 -31 149t-79 129t-129 90.5t-179 33.5q-152 0 -277 -71.5t-215 -192.5t-139 -273t-49 -314q0 -163 57.5 -276t157.5 -171t229 -58q104 0 194 33.5t162 90.5t124.5 129t81.5 149h93q-31 -91 -90.5 -178t-144.5 -157.5t-191.5 -112.5t-232.5 -42z" />
    <glyph glyph-name="uni0188" unicode="&#x188;" horiz-adv-x="1073" 
d="M944 775l-11 243q-9 114 51 173.5t172 59.5q20 0 41 -0.5t39 -0.5l-14 -80q-18 0 -41.5 0.5t-36.5 0.5q-68 0 -100 -34.5t-28 -105.5l7 -248zM480 -19q-129 0 -221 62t-137.5 171.5t-36.5 251.5q8 124 52.5 238t120 203.5t176 141.5t220.5 52q87 0 154.5 -28t114 -74
t72 -102.5t28.5 -114.5l-87 -12q-3 45 -22 89t-54 80t-86.5 57.5t-121.5 21.5q-102 0 -186.5 -46t-147.5 -124.5t-100 -178t-44 -207.5q-9 -118 25 -207.5t105.5 -140t176.5 -50.5q71 0 132.5 22.5t110.5 59.5t84 81.5t53 90.5l87 -17q-22 -58 -65.5 -115t-104.5 -103
t-136.5 -74t-161.5 -28z" />
    <glyph glyph-name="Dbar1" unicode="&#x189;" horiz-adv-x="1430" 
d="M545 0h-376l14 85h357q200 0 350 79.5t245 228.5t129 356q34 206 -5.5 352.5t-152.5 225t-301 78.5h-406l14 85h393q210 0 345.5 -88.5t189 -254.5t14.5 -398q-38 -236 -145.5 -403.5t-275.5 -256.5t-389 -89zM458 1490l-247 -1490h-93l247 1490h93zM51 704l13 82h622
l-14 -82h-621z" />
    <glyph glyph-name="uni018A" unicode="&#x18a;" horiz-adv-x="1607" 
d="M144 1105l25 153q19 114 87 173t181 59h105l-14 -85h-103q-74 0 -114.5 -36t-53.5 -112l-25 -152h-88zM722 0h-376l14 85h357q200 0 350 79.5t245 228.5t129 356q34 206 -5.5 352.5t-152.5 225t-301 78.5h-406l14 85h393q210 0 345.5 -88.5t189 -254.5t14.5 -398
q-38 -236 -145.5 -403.5t-275.5 -256.5t-389 -89zM635 1490l-247 -1490h-93l247 1490h93z" />
    <glyph glyph-name="uni018B" unicode="&#x18b;" horiz-adv-x="1179" 
d="M998 0h-558q-135 0 -226 52.5t-130 146.5t-18 217q20 121 87.5 209t175 136t247.5 47h456l95 582h-738l16 90h838zM912 87l104 634h-457q-162 -1 -265.5 -84.5t-124.5 -217.5q-16 -100 10 -174.5t95.5 -115.5t180.5 -42h457z" />
    <glyph glyph-name="uni018C" unicode="&#x18c;" horiz-adv-x="1167" 
d="M1110 1409h-687l13 81h733zM459 -20q-175 0 -276.5 117.5t-101.5 313.5q0 128 39 250.5t111.5 221.5t174.5 158t227 59q94 0 164.5 -35t114 -95t55.5 -135h5l108 655h89l-246 -1490h-88l40 241h-5q-39 -75 -100.5 -134.5t-140.5 -93t-170 -33.5zM470 63q110 0 197 53
t147.5 141t92 195.5t31.5 215.5q0 160 -78 254.5t-220 94.5q-109 0 -196 -52t-148 -139.5t-93.5 -194t-32.5 -216.5q0 -161 80 -256.5t220 -95.5z" />
    <glyph glyph-name="deltaturn" unicode="&#x18d;" horiz-adv-x="946" 
d="M632 -376h-641l15 84l502 -1q-32 45 -73 97.5t-92.5 115t-118.5 138.5q-75 84 -123.5 168t-67 171.5t-6.5 180.5l4 21q23 164 97.5 284t187.5 185.5t252 64.5q136 1 226 -66t126.5 -187.5t11.5 -282.5l-2 -20q-21 -138 -94 -247t-183 -174t-243 -71q-23 0 -45.5 1.5
t-52.5 5.5q53 -62 99.5 -117t87.5 -104.5t77 -95t67 -89.5zM831 577l2 20q22 138 -3 239.5t-94.5 156.5t-182.5 55q-109 0 -198.5 -56t-148 -157t-78.5 -236l-2 -21q-16 -114 16 -209.5t109 -190.5q42 -11 77.5 -15.5t68.5 -5.5q112 1 203 56t151.5 150t79.5 214z" />
    <glyph glyph-name="Eturn" unicode="&#x18e;" horiz-adv-x="1180" 
d="M1153 1490l-247 -1490h-884l15 86h790l100 606h-731l14 85h731l104 628h-798l14 85h892z" />
    <glyph glyph-name="uni018F" unicode="&#x18f;" horiz-adv-x="1463" 
d="M637 -21q-176 0 -299.5 79.5t-178 222t-23.5 333.5l13 83h1176l-14 -85h-1116l33 9q-28 -169 17.5 -293.5t150.5 -192.5t255 -68q165 0 299 85t223.5 237.5t123.5 354.5q34 206 -10 358.5t-152 236.5t-270 84q-103 0 -192.5 -34t-161.5 -92t-123.5 -129.5t-79.5 -146.5
h-94q30 90 90.5 177t146.5 158t194.5 113t234.5 42q188 0 315 -96t179 -268t14 -402q-28 -172 -94.5 -312.5t-165.5 -242t-223.5 -156.5t-267.5 -55z" />
    <glyph glyph-name="Epsilon1" unicode="&#x190;" horiz-adv-x="1179" 
d="M490 -21q-140 0 -240 55t-146 149.5t-26 212.5q16 94 68.5 170.5t136 129t187.5 71.5l2 5q-126 35 -187 128.5t-40 220.5q18 111 87.5 199t175.5 139.5t233 51.5t219 -52t135 -143t24 -210h-90q16 96 -17.5 168t-105.5 112t-174 40t-186.5 -40t-140 -110t-70.5 -161
q-15 -93 22.5 -162t117.5 -106t189 -37h55l-14 -86h-55q-125 0 -228.5 -41.5t-170 -115.5t-83.5 -173q-15 -93 21 -168t115.5 -118.5t194.5 -43.5q111 0 205.5 41t158 115t79.5 170h93q-20 -119 -97.5 -212t-194 -146t-253.5 -53z" />
    <glyph glyph-name="uni0191" unicode="&#x191;" horiz-adv-x="1148" 
d="M-184 -418l14 83q18 0 40 -0.5t35 -0.5q72 0 109 31.5t48 103.5l54 329h93l-55 -331q-18 -109 -82 -162.5t-172 -53.5h-43t-41 1zM95 0l247 1490h863l-14 -85h-771l-101 -611h694l-14 -85h-694l-117 -709h-93z" />
    <glyph glyph-name="florin" unicode="&#x192;" horiz-adv-x="611" 
d="M632 1075l-14 -81h-200l-187 -1126q-15 -90 -62 -154t-115 -98t-148 -34q-28 -1 -50 3t-44 12l27 81q16 -5 39 -8t42 -3q75 0 139 53t79 148l187 1126h-193l14 81h193l30 189q16 92 64 157t116 100t144 35q32 0 62 -5t52 -14l-38 -82q-16 6 -33.5 9t-40.5 3
q-85 0 -151 -53t-81 -150l-32 -189h201z" />
    <glyph glyph-name="uni0193" unicode="&#x193;" horiz-adv-x="1464" 
d="M1332 1027l64 434q10 74 43 122t86.5 71t123.5 23q21 0 42.5 -0.5t39.5 -0.5l-13 -80h-40h-35q-73 0 -111 -31t-49 -104l-73 -440zM662 -21q-166 0 -286 73t-183.5 206t-63.5 312q0 174 53 341.5t154 303t243.5 216t320.5 80.5q127 0 222.5 -42t159 -113t95.5 -158
t33 -177h-93q-3 75 -30 146.5t-79 129.5t-129.5 92t-181.5 34q-158 0 -283.5 -74t-213 -197t-134.5 -274t-47 -306q0 -232 117.5 -368.5t329.5 -136.5q151 0 276 69t209 194t112 294l30 -12h-506l15 85h564l-14 -87q-24 -142 -85.5 -258t-152.5 -199.5t-205.5 -128.5
t-246.5 -45z" />
    <glyph glyph-name="Gamma1" unicode="&#x194;" horiz-adv-x="1078" 
d="M106 1490h101l326 -1345q31 -125 50 -202.5t27 -124t2 -78.5q-9 -54 -40.5 -95.5t-80.5 -64t-111 -22.5q-95 0 -142.5 51t-33.5 134q3 18 11 39.5t23 50.5t38 70t55.5 96.5t75.5 130.5l782 1360h103l-804 -1390q-66 -114 -106.5 -185.5t-60.5 -112t-24 -64.5
q-6 -40 19.5 -67.5t75.5 -27.5q49 0 84.5 28.5t42.5 67.5q3 24 -2.5 64.5t-22 114t-45.5 194.5z" />
    <glyph glyph-name="uni0195" unicode="&#x195;" horiz-adv-x="1842" 
d="M65 0l247 1490h89l-91 -550h9q55 88 150 140t215 52q113 0 191 -47.5t111.5 -136t13.5 -211.5l-37 -222h-89l36 217q23 144 -47.5 230t-210.5 87q-93 0 -173 -41t-134 -113.5t-70 -170.5l-120 -724h-90zM1116 -19q-104 0 -170.5 49.5t-88.5 151.5t4 259l27 160h89
l-26 -160q-23 -139 -7 -222t65 -119.5t124 -36.5q123 0 225.5 101.5t182.5 311t133 534.5l18 108h91l-20 -118q-57 -347 -151 -573t-219 -336t-277 -110z" />
    <glyph glyph-name="Iota" unicode="&#x196;" horiz-adv-x="444" 
d="M285 -2q-109 -6 -157 42.5t-30 157.5l215 1292h88l-212 -1282q-13 -79 15 -106.5t98 -21.5q10 1 15.5 1t13.5 1l-5 -80q-9 -1 -19.5 -2t-21.5 -2z" />
    <glyph glyph-name="uni0197" unicode="&#x197;" horiz-adv-x="523" 
d="M465 1490l-247 -1490h-93l247 1490h93zM45 730l12 76h496l-13 -76h-495z" />
    <glyph glyph-name="uni0198" unicode="&#x198;" horiz-adv-x="1296" 
d="M96 0l246 1490h93l-143 -864h10l850 791q51 48 106.5 68t107 11.5t92.5 -45.5l-55 -66q-46 34 -96 25.5t-107 -61.5l-611 -566l559 -783h-115l-514 719l-250 -235l-80 -484h-93z" />
    <glyph glyph-name="uni0199" unicode="&#x199;" horiz-adv-x="969" 
d="M208 860l37 224l29 169q18 109 82.5 162.5t172.5 53.5q21 0 43 -0.5t39 -0.5l-13 -80h-40h-36q-72 0 -109.5 -31t-49.5 -104l-29 -169l-37 -224h-89zM214 430l21 124h19l622 530h118l-567 -483l-11 -4zM66 0l179 1084h89l-179 -1084h-89zM739 0l-373 588l74 60l413 -648
h-114z" />
    <glyph glyph-name="uni019A" unicode="&#x19a;" horiz-adv-x="399" 
d="M401 1490l-247 -1490h-89l247 1490h89zM-60 729l13 78h583l-12 -78h-584z" />
    <glyph glyph-name="lambdabar" unicode="&#x19b;" horiz-adv-x="1193" 
d="M729 1430l-16 -92l-460 -186l16 91zM602 965l-503 -965h-111l594 1119l60 -32zM408 1510q94 -1 140 -45t67 -142l226 -1092q13 -61 25.5 -95t29 -47.5t41.5 -13.5q8 0 20 1.5t23 3.5l-1 -83q-13 -5 -30.5 -8t-36.5 -3q-45 0 -76.5 16.5t-52.5 59.5t-37 124l-170 811
l-59 286q-15 77 -49 109.5t-92 32.5q-15 1 -34 -1t-38 -7l2 80q22 6 50 10t52 3z" />
    <glyph glyph-name="mcapturn" unicode="&#x19c;" horiz-adv-x="1695" 
d="M1401 223l210 1267h99l-248 -1490h-91zM1437 412l53 1q-16 -127 -75 -223.5t-151 -151t-207 -54.5q-110 0 -181.5 47t-98.5 138t-6 222l182 1099h98l-182 -1099q-18 -106 2.5 -177t74 -107t136.5 -36q90 0 164.5 44t124.5 121.5t66 175.5zM781 412l52 1
q-16 -127 -75.5 -223.5t-152 -151t-208.5 -54.5q-110 0 -181 47t-98 138t-6 222l182 1099h99l-182 -1099q-17 -107 2.5 -178.5t73 -106.5t136.5 -35q91 0 165.5 44t125 121.5t67.5 175.5z" />
    <glyph glyph-name="Nhook" unicode="&#x19d;" horiz-adv-x="1504" 
d="M-184 -418l14 83q18 0 40 -0.5t35 -0.5q72 0 109 31.5t48 103.5l54 329h93l-55 -331q-18 -109 -82 -162.5t-172 -53.5h-43t-41 1zM95 0l247 1490h96l576 -1075q25 -45 51.5 -97.5t54.5 -109t55 -114.5l-17 -7q8 57 16 116t16.5 115.5t16.5 103.5l177 1068h92l-247 -1490
h-95l-560 1038q-26 49 -54 104t-58.5 118t-65.5 135l18 9q-11 -74 -20.5 -139.5t-17.5 -122t-16 -103.5l-172 -1039h-93z" />
    <glyph glyph-name="uni019E" unicode="&#x19e;" horiz-adv-x="1138" 
d="M269 691l-114 -691h-89l179 1084h87l-41 -248h-20q42 90 106.5 148.5t142.5 87t163 28.5q113 0 193.5 -48t117 -136t15.5 -212l-186 -1122h-88l184 1117q25 146 -42.5 231.5t-207.5 85.5q-96 0 -181 -39.5t-144 -113t-75 -172.5z" />
    <glyph glyph-name="Obar" unicode="&#x19f;" horiz-adv-x="1489" 
d="M1341 787l-10 -84h-1124l10 84h1124zM657 -21q-163 0 -281.5 73.5t-182.5 207t-64 311.5q0 175 53.5 342t155 302t243.5 215.5t319 80.5q162 0 280.5 -73.5t182.5 -206.5t64 -313q0 -173 -54 -340.5t-154.5 -302.5t-242.5 -215.5t-319 -80.5zM661 67q156 0 280.5 73.5
t212.5 196t135 273t47 305.5q0 158 -54 271.5t-152.5 175t-232.5 61.5q-157 0 -282 -73.5t-213.5 -196.5t-135.5 -273.5t-47 -305.5q0 -156 54 -270t153.5 -175.5t234.5 -61.5z" />
    <glyph glyph-name="Ohorn" unicode="&#x1a0;" horiz-adv-x="1487" 
d="M892 1439l12 72q49 0 83.5 -2t67 -5.5t74.5 -6.5t104 -5t157 -2q57 0 67 57l27 169h88l-28 -165q-11 -68 -52 -103.5t-109 -35.5q-71 0 -125.5 4t-106 9t-113 9t-146.5 5zM657 -21q-163 0 -281.5 73.5t-182.5 207t-64 311.5q0 175 53.5 342t155 302t243.5 215.5t319 80.5
q162 0 280.5 -73.5t182.5 -206.5t64 -313q0 -173 -54 -340.5t-154.5 -302.5t-242.5 -215.5t-319 -80.5zM661 67q156 0 280.5 73.5t212.5 196t135 273t47 305.5q0 158 -54 271.5t-152.5 175t-232.5 61.5q-157 0 -282 -73.5t-213.5 -196.5t-135.5 -273.5t-47 -305.5
q0 -156 54 -270t153.5 -175.5t234.5 -61.5z" />
    <glyph glyph-name="ohorn" unicode="&#x1a1;" horiz-adv-x="1132" 
d="M647 1031l11 70q44 -2 84 -4.5l80 -5t83.5 -4.5t94.5 -2q57 0 67 57l28 167h84l-27 -157q-7 -45 -28 -76t-54.5 -46t-78.5 -15q-86 1 -172 7t-172 9zM479 -21q-122 0 -211.5 56t-137.5 155.5t-48 230.5q0 127 41 248.5t117.5 218.5t182 155t232.5 58q122 0 210.5 -56
t137 -155.5t48.5 -231.5q0 -127 -41.5 -248.5t-117.5 -218.5t-181 -154.5t-232 -57.5zM481 62q109 0 197.5 51.5t152 137.5t97.5 192t34 215q0 108 -36 189t-105 126t-168 45q-107 0 -195.5 -51t-152.5 -136.5t-99.5 -192t-35.5 -217.5q0 -161 81.5 -260t229.5 -99z" />
    <glyph glyph-name="OI" unicode="&#x1a2;" horiz-adv-x="1588" 
d="M1174 779l-99 -597q-53 -64 -126 -109t-159 -69t-177 -24q-172 0 -293 88t-173 244t-17 362l10 69l103 2l-12 -71q-30 -184 11.5 -320.5t142.5 -211.5t250 -75q100 0 194 38t152 102l95 572h98zM1263 1317l-104 -624h-98l97 590q-38 65 -119 102t-182 37q-112 0 -212 -45
t-180.5 -128t-136 -198.5t-78.5 -255.5l-16 -95h-100l15 95q35 213 137.5 374t254.5 251t332 90q87 0 162.5 -23t134.5 -66.5t93 -103.5zM1555 1490l-316 -1908h-99l300 1811l-244 -141l17 98l246 140h96z" />
    <glyph glyph-name="uni01A3" unicode="&#x1a3;" horiz-adv-x="1082" 
d="M406 61q55 0 103 15.5t92 40.5l92 557h98l-97 -589q-45 -34 -93.5 -58.5t-101 -37.5t-110.5 -13q-135 1 -225 72.5t-126.5 195t-12.5 277.5l5 28q27 172 105 304t194 206.5t258 73.5q55 1 102.5 -11t88 -35t73.5 -54l-93 -566h-99l87 530q-34 25 -78 38t-97 13
q-114 0 -203.5 -64t-150.5 -176.5t-89 -258.5l-4 -33q-22 -135 6 -237t99 -159.5t177 -58.5zM1140 1118l-253 -1536h-98l234 1419l-241 -138l20 121l242 134h96z" />
    <glyph glyph-name="uni01A4" unicode="&#x1a4;" horiz-adv-x="1410" 
d="M144 1105l25 153q19 114 87 173t181 59h105l-14 -85h-103q-74 0 -114.5 -36t-53.5 -112l-25 -152h-88zM295 0l247 1490h483q138 0 230.5 -56t132.5 -156t18 -230q-21 -130 -93.5 -228.5t-184 -154t-249.5 -55.5h-428l14 85h427q112 0 201 44.5t147 124.5t75 185
q17 106 -14.5 186t-105.5 125t-185 45h-390l-232 -1405h-93z" />
    <glyph glyph-name="uni01A5" unicode="&#x1a5;" horiz-adv-x="1168" 
d="M208 860l37 224l28 169q18 109 82.5 162.5t173.5 53.5q20 0 42 -0.5t39 -0.5l-13 -80h-40h-35q-72 0 -110 -31t-50 -104l-28 -169l-38 -224h-88zM-4 -418l249 1502h87l-41 -246h4q37 76 99 135t142.5 93t170.5 34q117 0 202 -54t131 -151t46 -228q0 -125 -38.5 -247.5
t-110.5 -221.5t-174 -158.5t-229 -59.5q-94 0 -163.5 35t-112.5 95t-59 135h-4l-110 -663h-89zM527 63q109 0 195.5 52.5t148 140t94 194.5t32.5 216q0 162 -80 256.5t-220 94.5q-111 0 -197.5 -52.5t-147 -140.5t-92 -195.5t-31.5 -215.5q0 -160 78 -255t220 -95z" />
    <glyph glyph-name="YR" unicode="&#x1a6;" horiz-adv-x="1336" 
d="M222 1386l34 203h102l-32 -203h-104zM240 1490h454q140 0 233.5 -52.5t134 -149t18.5 -229.5q-18 -104 -71.5 -188.5t-135 -142.5t-183.5 -82l-29 -11h-491l13 87h420q91 0 170.5 42.5t134.5 119t71 176.5q25 154 -54 248t-245 93h-352l-232 -1401h-102zM988 -368
l-383 1032h109l384 -1025l-1 -7h-109z" />
    <glyph glyph-name="uni01A7" unicode="&#x1a7;" horiz-adv-x="1216" 
d="M517 -24q-150 0 -253.5 53.5t-149.5 146.5t-26 212q12 76 48 136t93.5 107t136.5 82.5t176 63.5l175 48q105 30 180 70t119.5 95.5t56.5 128.5q14 89 -21 158.5t-111 109t-184 39.5q-109 0 -199 -40.5t-151.5 -112.5t-85.5 -168h-91q26 120 100 211.5t185 143.5t246 52
t232 -51t143 -140.5t27 -205.5q-23 -137 -130 -228.5t-301 -145.5l-178 -50q-118 -33 -196.5 -75t-122.5 -97.5t-56 -131.5q-24 -146 70 -235t275 -89q117 0 212.5 39t160 110t85.5 168h94q-26 -120 -102.5 -211t-193 -142t-263.5 -51z" />
    <glyph glyph-name="uni01A8" unicode="&#x1a8;" horiz-adv-x="978" 
d="M157 800q31 95 89.5 162t141 102t184.5 35q109 0 186 -37.5t112.5 -105t20.5 -157.5q-18 -107 -99.5 -175.5t-226.5 -102.5l-185 -42q-102 -24 -161.5 -68t-72.5 -122q-17 -101 54.5 -163.5t208.5 -62.5q132 0 220 61.5t121 176.5l86 -9q-27 -99 -89 -168.5t-152 -106.5
t-201 -37q-115 0 -196 39t-118.5 109.5t-22.5 163.5q18 106 97 171t219 97l184 43q109 25 171 72t75 125q16 98 -51.5 158t-192.5 60q-122 0 -202 -59.5t-116 -167.5z" />
    <glyph glyph-name="uni01A9" unicode="&#x1a9;" horiz-adv-x="1175" 
d="M-3 0l15 84l614 555q23 21 46 41.5t45.5 40t44 38.5t41.5 37l-7 -45q-19 23 -40 48.5t-42.5 52t-43.5 54.5l-404 511l12 73h1068l-14 -85h-774h-99.5t-94.5 1l6 18q16 -20 34 -41.5t37.5 -45t39.5 -48.5l396 -504l-6 -38l-565 -511q-34 -31 -67.5 -60t-66 -56.5
t-62.5 -54.5l1 19q55 1 112 1h117h783l-14 -85h-1112z" />
    <glyph glyph-name="eshlooprev" unicode="&#x1aa;" horiz-adv-x="918" 
d="M666 1219l107 49l-231 -1399q-18 -111 3.5 -156t88.5 -45q16 0 35 2.5t35 6.5l-15 -84q-17 -6 -40.5 -9t-44.5 -2q-105 -1 -145.5 71t-16.5 216zM189 1265q14 84 63 150t121 104t154 38q81 0 140.5 -40t89 -106t16.5 -146q-13 -81 -62.5 -147t-121.5 -104.5t-155 -39.5
q-79 0 -139.5 39.5t-89.5 106.5t-16 145zM448 1067q56 0 104.5 25.5t82.5 70.5t43 103q14 90 -32.5 145t-130.5 55q-55 0 -104 -25.5t-83 -70.5t-44 -104q-15 -88 33.5 -143.5t130.5 -55.5z" />
    <glyph glyph-name="uni01AB" unicode="&#x1ab;" horiz-adv-x="539" 
d="M42 -416l13 81q18 -1 40.5 -1h35.5q77 0 116 34.5t49 111.5l29 197h87l-29 -196q-9 -74 -41 -125t-86.5 -77t-131.5 -26q-20 0 -42.5 0.5t-39.5 0.5zM585 1084l-14 -81h-486l14 81h486zM314 1362h89l-187 -1134q-14 -84 17.5 -120.5t111.5 -29.5q16 0 35 1.5t36 2.5
l-5 -80q-18 -2 -39.5 -3.5t-41.5 -2.5q-118 -8 -170.5 53t-33.5 173z" />
    <glyph glyph-name="uni01AC" unicode="&#x1ac;" horiz-adv-x="1228" 
d="M180 1105l25 153q19 114 87 173t181 59h106l-15 -85h-103q-74 0 -114.5 -36t-53.5 -112l-25 -152h-88zM564 1405l15 85h722l-15 -85h-476l-232 -1405h-92l232 1405h-154z" />
    <glyph glyph-name="uni01AD" unicode="&#x1ad;" horiz-adv-x="655" 
d="M397 -15q-112 0 -178 70t-46 188l136 825h87l-134 -813q-15 -91 29.5 -139.5t124.5 -48.5q21 0 40 2.5t41 7.5l1 -77q-23 -8 -48 -11.5t-53 -3.5zM140 1027l13 80h480l-13 -80h-480zM279 883l37 224l28 169q18 109 82.5 162.5t173.5 53.5q20 0 42 -0.5t40 -0.5l-14 -80
h-40h-35q-72 0 -110 -31t-50 -104l-28 -169l-37 -224h-89z" />
    <glyph glyph-name="Trthook" unicode="&#x1ae;" horiz-adv-x="1249" 
d="M564 0l-25 -152q-17 -98 20 -139t112 -42h50l-13 -84h-69q-52 0 -92.5 17t-66.5 50.5t-35 83t2 113.5l27 153h90zM227 1405l15 85h1080l-15 -85h-493l-233 -1405h-92l233 1405h-495z" />
    <glyph glyph-name="Uhorn" unicode="&#x1af;" horiz-adv-x="1447" 
d="M1327 1412l13 78h134q57 0 67 57l27 169h88l-28 -165q-11 -68 -52 -103.5t-109 -35.5h-140zM627 -20q-161 0 -275.5 69.5t-166.5 189.5t-27 272l162 979h93l-162 -981q-22 -129 19.5 -228.5t134.5 -156.5t225 -57q137 0 251 58.5t190 160t98 229.5l161 975h92l-163 -986
q-25 -152 -114.5 -270.5t-224 -186t-293.5 -67.5z" />
    <glyph glyph-name="uhorn" unicode="&#x1b0;" horiz-adv-x="1205" 
d="M1013 1013l12 71h84q63 0 73 62l30 181h84l-29 -175q-11 -68 -52.5 -103.5t-109.5 -35.5h-92zM456 -16q-112 0 -193 47.5t-118 136.5t-16 212l116 704h89l-116 -700q-23 -145 48.5 -231t212.5 -86q95 0 177.5 40t139.5 113t73 173l114 691h89l-180 -1084h-87l41 248h21
q-64 -135 -174 -199.5t-237 -64.5z" />
    <glyph glyph-name="Upsilon2" unicode="&#x1b1;" horiz-adv-x="1478" 
d="M141 720q39 229 161.5 397.5t335.5 275.5l2 11h-385l14 86h490l-20 -115q-120 -55 -225 -145t-179.5 -216.5t-102.5 -292.5q-30 -183 13.5 -331.5t150 -235t265.5 -86.5q159 1 294 87.5t227 234.5t123 331q28 166 -4.5 293t-108.5 217t-178 144l19 115h491l-15 -86h-385
l-1 -11q175 -104 242 -275t30 -399q-27 -161 -95 -297t-169 -234.5t-224.5 -153t-260.5 -54.5q-135 0 -240 55t-173.5 155t-93 235t1.5 295z" />
    <glyph glyph-name="Vcursive" unicode="&#x1b2;" horiz-adv-x="1183" 
d="M490 -23q-147 1 -249 59.5t-145.5 169.5t-17.5 268l169 1016h99l-166 -1016q-34 -202 52.5 -305.5t273.5 -102.5q186 -1 312 105t158 303l125 753q16 106 -16.5 149.5t-118.5 44.5q-20 -1 -39 -3t-39 -8l15 85q21 7 46.5 11t53.5 4q115 0 168.5 -71.5t31.5 -211.5
l-124 -753q-26 -160 -108 -270.5t-206 -168t-275 -58.5z" />
    <glyph glyph-name="uni01B3" unicode="&#x1b3;" horiz-adv-x="1274" 
d="M602 737l6 35h34l-5 -35h-35zM162 1490h107l354 -727l525 639q47 58 103.5 83.5t110.5 23t92 -32.5l-49 -70q-38 23 -90 13t-99 -66l-561 -678l-111 -675h-92l111 675z" />
    <glyph glyph-name="uni01B4" unicode="&#x1b4;" horiz-adv-x="1341" 
d="M1002 1084l109 198q32 59 61 102.5t59.5 71.5t67.5 42t86 14q27 0 49 -2.5t39 -5.5l-17 -77q-13 2 -31 3.5t-32 1.5q-43 0 -73 -16t-57.5 -53t-63.5 -101l-102 -178h-95zM-30 -410l26 80l57 -2q52 -10 94.5 1t80 50t77.5 110l91 165l-250 1090h91l159 -710
q18 -81 33.5 -162t30.5 -162h-27q42 81 84.5 162t87.5 162l393 710h100l-719 -1286q-43 -77 -88.5 -125.5t-98 -71.5t-116.5 -23q-30 0 -54.5 3.5t-51.5 8.5z" />
    <glyph glyph-name="Zbar" unicode="&#x1b5;" horiz-adv-x="1196" 
d="M27 0l13 75l1068 1329h-847l14 86h962l-13 -77l-1069 -1328h854l-14 -85h-968zM253 702l13 84h746l-13 -84h-746z" />
    <glyph glyph-name="zbar" unicode="&#x1b6;" horiz-adv-x="1006" 
d="M22 0l13 75l802 920l1 5h-631l14 84h747l-13 -79l-797 -917l-1 -4h660l-14 -84h-781zM247 509l12 76h496l-13 -76h-495z" />
    <glyph glyph-name="uni01B7" unicode="&#x1b7;" horiz-adv-x="1354" 
d="M6 70h93q-17 -124 31 -220.5t146.5 -150.5t228.5 -54q145 0 267 66.5t204.5 183.5t106.5 267q26 154 -29.5 273t-175.5 188.5t-291 74.5h-83l14 81l703 638l-4 -15h-910l15 88h1027l-12 -70l-698 -635l-1 -8q189 -8 319 -90t188 -217.5t30 -306.5q-21 -123 -78.5 -232.5
t-146.5 -193t-204 -131t-251 -47.5q-158 0 -276.5 64.5t-176.5 180t-36 266.5z" />
    <glyph glyph-name="uni01B8" unicode="&#x1b8;" horiz-adv-x="1353" 
d="M1191 70q-28 -151 -124.5 -266t-236.5 -180t-298 -65q-136 0 -235 47.5t-160.5 130.5t-83 191t-1.5 228q29 175 132.5 312t261 219t346.5 90l2 8l-488 635l12 70h1027l-15 -88h-910l2 15l492 -638l-12 -81h-83q-173 -5 -316.5 -75t-237.5 -190t-120 -278
q-25 -147 18 -262t141 -181.5t240 -66.5q134 0 251.5 54.5t198 150.5t103.5 220h94z" />
    <glyph glyph-name="uni01B9" unicode="&#x1b9;" horiz-adv-x="1156" 
d="M412 -404q-141 0 -236 58.5t-136.5 158t-21.5 221.5q21 130 101 227t202 152t269 57l1 3l-366 540l11 71h820l-15 -85h-694v-3l354 -523l-13 -79h-80q-133 0 -239 -43.5t-173.5 -124.5t-86.5 -192q-16 -98 16 -178.5t108.5 -128t192.5 -47.5q108 0 199 41.5t152 115
t78 170.5h93q-21 -121 -98 -214t-191 -145t-247 -52z" />
    <glyph glyph-name="uni01BA" unicode="&#x1ba;" horiz-adv-x="980" 
d="M179 1085l845 -1l-13 -77l-669 -483h-45l12 75l559 400h-704zM38 -152q-17 -102 46.5 -154t196.5 -52q87 0 161.5 30.5t127.5 90.5t74 146h99q-22 -100 -87.5 -180t-164 -126t-221.5 -46q-118 0 -197 35t-114 100.5t-19 159.5q11 65 42.5 115t83 88t122.5 66.5t160 48.5
q112 26 179.5 51.5t101 60t41.5 86.5q14 81 -53 118.5t-237 37.5h-45l21 85h38q139 0 227 -26.5t125 -80t23 -135.5q-9 -56 -37.5 -98t-78.5 -74.5t-124 -58.5t-174 -50q-110 -26 -176 -59.5t-98.5 -77.5t-42.5 -101z" />
    <glyph glyph-name="uni01BB" unicode="&#x1bb;" horiz-adv-x="1181" 
d="M39 0l12 77l594 530q124 112 201.5 193t117.5 150t52 145q17 98 -13 172.5t-99.5 116.5t-172.5 42q-105 0 -193 -45t-146.5 -123t-76.5 -179h-88q20 124 91 221.5t178.5 154t237.5 56.5q128 0 218.5 -54.5t131.5 -148.5t21 -214q-11 -65 -36.5 -124t-72.5 -121.5
t-119.5 -136t-176.5 -166.5l-513 -457l-1 -4h793l-14 -85h-926zM301 568l13 84h746l-13 -84h-746z" />
    <glyph glyph-name="uni01BC" unicode="&#x1bc;" horiz-adv-x="1164" 
d="M464 1490l-14 -85h-223l15 85h222zM497 -20q-127 0 -218 52.5t-133.5 143.5t-24.5 208h91q-19 -139 58.5 -229t230.5 -90q114 0 211.5 53t163 145t84.5 207q20 119 -14 209t-110 140.5t-184 50.5q-105 0 -202 -43t-152 -116l-93 7l201 772h765l-14 -86h-683l-154 -580h3
q62 56 149.5 94t192.5 38q132 0 227.5 -62.5t138.5 -172t19 -253.5q-23 -141 -101.5 -251t-195 -173.5t-256.5 -63.5z" />
    <glyph glyph-name="uni01BD" unicode="&#x1bd;" horiz-adv-x="865" 
d="M220 507l-86 10l156 565h594l-17 -89h-507l-98 -360q46 41 114 66t138 26q157 2 237 -98t54 -267q-18 -112 -77 -197t-151.5 -132.5t-213.5 -48.5q-73 0 -134.5 21.5t-106.5 62.5t-66 98.5t-12 129.5l98 13q-14 -107 48 -172.5t178 -64.5q135 -1 225.5 78t112.5 207
q21 130 -35.5 207t-178.5 79q-85 0 -157 -38t-115 -96zM381 1082l-15 -89h-266l14 89h267z" />
    <glyph glyph-name="glottalstopbarinv" unicode="&#x1be;" horiz-adv-x="998" 
d="M766 287q10 57 -11.5 94.5t-59.5 65.5t-81.5 56t-80.5 65.5t-54.5 94.5t-3.5 142l87 532h100l-88 -530q-12 -74 7 -121.5t57 -80t82 -59t81.5 -58t57 -77.5t7.5 -118q-15 -94 -77.5 -164.5t-159.5 -109t-218 -38.5q-129 0 -212 51t-118 132.5t-20 171.5h99
q-12 -79 16.5 -140t92 -95.5t156.5 -34.5q90 0 163.5 28t120.5 78.5t57 114.5zM849 1074l-14 -82h-560l15 82h559z" />
    <glyph glyph-name="uni01BF" unicode="&#x1bf;" horiz-adv-x="1134" 
d="M282 938l-200 -1354h-100l228 1534h88zM239 821l-47 1q59 101 128.5 170.5t151.5 105.5t176 35q130 1 215 -62.5t118.5 -179t9.5 -270.5l-8 -47q-30 -194 -137.5 -332.5t-298.5 -237t-473 -173.5l14 84q250 70 417.5 157t260.5 208.5t117 292.5l8 49q18 127 -7.5 222.5
t-93 148.5t-177.5 53q-73 0 -139 -27.5t-124.5 -78t-110.5 -119.5z" />
    <glyph glyph-name="pipe" unicode="&#x1c0;" horiz-adv-x="377" 
d="M389 1507l-251 -1507h-84l250 1507h85z" />
    <glyph glyph-name="pipedbl" unicode="&#x1c1;" horiz-adv-x="625" 
d="M338 1507l-251 -1507h-84l250 1507h85zM611 1507l-251 -1507h-84l250 1507h85z" />
    <glyph glyph-name="pipedblbar" unicode="&#x1c2;" horiz-adv-x="400" 
d="M401 1507l-251 -1507h-84l250 1507h85zM-15 995l13 78h583l-12 -78h-584zM-101 480l13 78h583l-12 -78h-584z" />
    <glyph glyph-name="exclam1" unicode="&#x1c3;" horiz-adv-x="483" 
d="M175 405l176 1085h95l-184 -1085h-87zM155 -12q-34 0 -55 25t-15 59q5 32 30 52.5t55 20.5q35 0 55.5 -25t14.5 -59q-4 -31 -29 -52t-56 -21z" />
    <glyph glyph-name="Dzcaron_" unicode="&#x1c5;" horiz-adv-x="2412" 
d="M522 0h-376l14 85h357q200 0 350 79.5t245 228.5t129 356q34 206 -5.5 352.5t-152.5 225t-301 78.5h-406l14 85h393q210 0 345.5 -88.5t189 -254.5t14.5 -398q-38 -236 -145.5 -403.5t-275.5 -256.5t-389 -89zM435 1490l-247 -1490h-93l247 1490h93zM1429 0l13 75
l802 920l1 5h-631l14 84h747l-13 -79l-797 -917l-1 -4h660l-14 -84h-781zM1875 1529l157 -212l227 212h97l-1 -3l-297 -273h-76l-204 273l1 3h96z" />
    <glyph glyph-name="uni01C6" unicode="&#x1c6;" horiz-adv-x="2072" 
d="M459 -20q-175 0 -276.5 117.5t-101.5 313.5q0 128 39 250.5t111.5 221.5t174.5 158t227 59q94 0 164.5 -35t114 -95t55.5 -135h5l108 655h89l-246 -1490h-88l40 241h-5q-39 -75 -100.5 -134.5t-140.5 -93t-170 -33.5zM470 63q110 0 197 53t147.5 141t92 195.5t31.5 215.5
q0 160 -78 254.5t-220 94.5q-109 0 -196 -52t-148 -139.5t-93.5 -194t-32.5 -216.5q0 -161 80 -256.5t220 -95.5zM1088 0l13 75l802 920l1 5h-631l14 84h747l-13 -79l-797 -917l-1 -4h660l-14 -84h-781zM1534 1529l157 -212l227 212h97l-1 -3l-297 -273h-76l-204 273l1 3h96
z" />
    <glyph glyph-name="uni01C7" unicode="&#x1c7;" horiz-adv-x="2201" 
d="M95 0l247 1490h94l-233 -1405h740l-14 -85h-834zM1545 -20q-164 0 -259.5 88.5t-95.5 247.5q0 14 1 32t5.5 48t12.5 82h92q-8 -50 -12 -79t-5 -45t-1 -29q0 -123 68.5 -191.5t196.5 -68.5q146 0 246.5 90t127.5 251l179 1084h93l-179 -1084q-33 -200 -158.5 -313
t-311.5 -113z" />
    <glyph glyph-name="uni01C8" unicode="&#x1c8;" horiz-adv-x="1506" 
d="M95 0l247 1490h94l-233 -1405h740l-14 -85h-834zM1352 1084h89l-204 -1231q-14 -83 -59 -144t-111.5 -94t-144.5 -33h-31l13 83h28q78 0 140 50.5t77 142.5zM1436 1326q-29 0 -46.5 21t-12.5 50q4 29 29 49.5t54 20.5q30 0 47 -20.5t13 -49.5q-5 -29 -29.5 -50t-54.5 -21
z" />
    <glyph glyph-name="uni01C9" unicode="&#x1c9;" horiz-adv-x="803" 
d="M401 1490l-247 -1490h-89l247 1490h89zM648 1084h89l-204 -1231q-14 -83 -59 -144t-111.5 -94t-144.5 -33h-31l13 83h28q78 0 140 50.5t77 142.5zM733 1326q-29 0 -46.5 21t-12.5 50q4 29 29 49.5t54 20.5q30 0 47 -20.5t13 -49.5q-5 -29 -29.5 -50t-54.5 -21z" />
    <glyph glyph-name="uni01CA" unicode="&#x1ca;" horiz-adv-x="2602" 
d="M95 0l247 1490h96l576 -1075q25 -45 51.5 -97.5t54.5 -109t55 -114.5l-17 -7q8 57 16 116t16.5 115.5t16.5 103.5l177 1068h92l-247 -1490h-95l-560 1038q-26 49 -54 104t-58.5 118t-65.5 135l18 9q-11 -74 -20.5 -139.5t-17.5 -122t-16 -103.5l-172 -1039h-93zM1946 -20
q-164 0 -259.5 88.5t-95.5 247.5q0 14 1 32t5.5 48t12.5 82h92q-8 -50 -12 -79t-5 -45t-1 -29q0 -123 68.5 -191.5t196.5 -68.5q146 0 246.5 90t127.5 251l179 1084h93l-179 -1084q-33 -200 -158.5 -313t-311.5 -113z" />
    <glyph glyph-name="uni01CB" unicode="&#x1cb;" horiz-adv-x="1908" 
d="M95 0l247 1490h96l576 -1075q25 -45 51.5 -97.5t54.5 -109t55 -114.5l-17 -7q8 57 16 116t16.5 115.5t16.5 103.5l177 1068h92l-247 -1490h-95l-560 1038q-26 49 -54 104t-58.5 118t-65.5 135l18 9q-11 -74 -20.5 -139.5t-17.5 -122t-16 -103.5l-172 -1039h-93z
M1753 1084h89l-204 -1231q-14 -83 -59 -144t-111.5 -94t-144.5 -33h-31l13 83h28q78 0 140 50.5t77 142.5zM1837 1326q-29 0 -46.5 21t-12.5 50q4 29 29 49.5t54 20.5q30 0 47 -20.5t13 -49.5q-5 -29 -29.5 -50t-54.5 -21z" />
    <glyph glyph-name="uni01CC" unicode="&#x1cc;" horiz-adv-x="1540" 
d="M268 688l-114 -688h-88l179 1084h87l-41 -248l-21 2q64 135 175 198.5t237 63.5q114 0 194.5 -48.5t116.5 -137.5t15 -213l-116 -701h-88l116 702q24 146 -45.5 230t-208.5 84q-97 0 -181.5 -40.5t-142 -114.5t-74.5 -173zM1386 1084h89l-204 -1231q-14 -83 -59 -144
t-111.5 -94t-144.5 -33h-31l13 83h28q78 0 140 50.5t77 142.5zM1470 1326q-29 0 -46.5 21t-12.5 50q4 29 29 49.5t54 20.5q30 0 47 -20.5t13 -49.5q-5 -29 -29.5 -50t-54.5 -21z" />
    <glyph glyph-name="uni01CD" unicode="&#x1cd;" horiz-adv-x="1296" 
d="M-51 0l800 1490h112l307 -1490h-93l-216 1067q-15 80 -33 173.5t-37 209.5h27q-57 -115 -104.5 -208t-92.5 -175l-568 -1067h-102zM266 468l14 85h740l-14 -85h-740zM688 1935l157 -212l227 212h97l-1 -3l-297 -273h-76l-204 273l1 3h96z" />
    <glyph glyph-name="uni01CE" unicode="&#x1ce;" horiz-adv-x="1168" 
d="M454 -20q-134 0 -225 70.5t-128 197t-9 293.5q27 165 106 291.5t193.5 197t247.5 70.5q93 0 162 -34.5t112 -94t55 -134.5h5l41 247h88l-179 -1084h-88l40 242h-6q-38 -74 -101 -133.5t-142.5 -94t-171.5 -34.5zM474 63q113 0 207 60.5t158 168t87 249.5q24 142 -3 249.5
t-99.5 167t-185.5 59.5q-112 0 -207 -59.5t-160.5 -167t-89.5 -249.5q-23 -143 5.5 -250.5t102 -167.5t185.5 -60zM537 1529l157 -212l227 212h97l-1 -3l-297 -273h-76l-204 273l1 3h96z" />
    <glyph glyph-name="uni01CF" unicode="&#x1cf;" horiz-adv-x="463" 
d="M435 1490l-247 -1490h-93l247 1490h93zM270 1935l157 -212l227 212h97l-1 -3l-297 -273h-76l-204 273l1 3h96z" />
    <glyph glyph-name="uni01D0" unicode="&#x1d0;" horiz-adv-x="400" 
d="M66 0l179 1084h89l-179 -1084h-89zM171 1529l157 -212l227 212h97l-1 -3l-297 -273h-76l-204 273l1 3h96z" />
    <glyph glyph-name="uni01D1" unicode="&#x1d1;" horiz-adv-x="1489" 
d="M657 -21q-163 0 -281.5 73.5t-182.5 207t-64 311.5q0 175 53.5 342t155 302t243.5 215.5t319 80.5q162 0 280.5 -73.5t182.5 -206.5t64 -313q0 -173 -54 -340.5t-154.5 -302.5t-242.5 -215.5t-319 -80.5zM661 67q156 0 280.5 73.5t212.5 196t135 273t47 305.5
q0 158 -54 271.5t-152.5 175t-232.5 61.5q-157 0 -282 -73.5t-213.5 -196.5t-135.5 -273.5t-47 -305.5q0 -156 54 -270t153.5 -175.5t234.5 -61.5zM783 1935l157 -212l227 212h97l-1 -3l-297 -273h-76l-204 273l1 3h96z" />
    <glyph glyph-name="uni01D2" unicode="&#x1d2;" horiz-adv-x="1133" 
d="M479 -21q-122 0 -211.5 56t-137.5 155.5t-48 230.5q0 127 41 248.5t117.5 218.5t182 155t232.5 58q122 0 210.5 -56t137 -155.5t48.5 -231.5q0 -127 -41.5 -248.5t-117.5 -218.5t-181 -154.5t-232 -57.5zM481 62q109 0 197.5 51.5t152 137.5t97.5 192t34 215
q0 108 -36 189t-105 126t-168 45q-107 0 -195.5 -51t-152.5 -136.5t-99.5 -192t-35.5 -217.5q0 -161 81.5 -260t229.5 -99zM538 1529l157 -212l227 212h97l-1 -3l-297 -273h-76l-204 273l1 3h96z" />
    <glyph glyph-name="uni01D3" unicode="&#x1d3;" horiz-adv-x="1429" 
d="M627 -20q-161 0 -275.5 69.5t-166.5 189.5t-27 272l162 979h93l-162 -981q-22 -129 19.5 -228.5t134.5 -156.5t225 -57q137 0 251 58.5t190 160t98 229.5l161 975h92l-163 -986q-25 -152 -114.5 -270.5t-224 -186t-293.5 -67.5zM753 1935l157 -212l227 212h97l-1 -3
l-297 -273h-76l-204 273l1 3h96z" />
    <glyph glyph-name="uni01D4" unicode="&#x1d4;" horiz-adv-x="1138" 
d="M456 -16q-112 0 -193 47.5t-118 136.5t-16 212l116 704h89l-116 -700q-23 -145 48.5 -231t212.5 -86q95 0 177.5 40t139.5 113t73 173l114 691h89l-180 -1084h-87l41 248h21q-64 -135 -174 -199.5t-237 -64.5zM540 1529l157 -212l227 212h97l-1 -3l-297 -273h-76
l-204 273l1 3h96z" />
    <glyph glyph-name="uni01D5" unicode="&#x1d5;" horiz-adv-x="1429" 
d="M627 -20q-161 0 -275.5 69.5t-166.5 189.5t-27 272l162 979h93l-162 -981q-22 -129 19.5 -228.5t134.5 -156.5t225 -57q137 0 251 58.5t190 160t98 229.5l161 975h92l-163 -986q-25 -152 -114.5 -270.5t-224 -186t-293.5 -67.5zM1114 1692q-29 0 -46 21t-13 50
q5 29 29.5 49.5t53.5 20.5t46 -20.5t12 -49.5t-29 -50t-53 -21zM705 1692q-29 0 -46 21t-13 50q5 29 29.5 49.5t53.5 20.5t45.5 -20.5t12.5 -49.5q-5 -29 -29 -50t-53 -21zM1226 2082l-14 -73h-494l13 73h495z" />
    <glyph glyph-name="uni01D6" unicode="&#x1d6;" horiz-adv-x="1138" 
d="M456 -16q-112 0 -193 47.5t-118 136.5t-16 212l116 704h89l-116 -700q-23 -145 48.5 -231t212.5 -86q95 0 177.5 40t139.5 113t73 173l114 691h89l-180 -1084h-87l41 248h21q-64 -135 -174 -199.5t-237 -64.5zM901 1286q-29 0 -46 21t-13 50q5 29 29.5 49.5t53.5 20.5
t46 -20.5t12 -49.5t-29 -50t-53 -21zM492 1286q-29 0 -46 21t-13 50q5 29 29.5 49.5t53.5 20.5t45.5 -20.5t12.5 -49.5q-5 -29 -29 -50t-53 -21zM1013 1676l-14 -73h-494l13 73h495z" />
    <glyph glyph-name="uni01D7" unicode="&#x1d7;" horiz-adv-x="1429" 
d="M627 -20q-161 0 -275.5 69.5t-166.5 189.5t-27 272l162 979h93l-162 -981q-22 -129 19.5 -228.5t134.5 -156.5t225 -57q137 0 251 58.5t190 160t98 229.5l161 975h92l-163 -986q-25 -152 -114.5 -270.5t-224 -186t-293.5 -67.5zM1114 1692q-29 0 -46 21t-13 50
q5 29 29.5 49.5t53.5 20.5t46 -20.5t12 -49.5t-29 -50t-53 -21zM705 1692q-29 0 -46 21t-13 50q5 29 29.5 49.5t53.5 20.5t45.5 -20.5t12.5 -49.5q-5 -29 -29 -50t-53 -21zM909 1969l210 274h105l-234 -274h-81z" />
    <glyph glyph-name="uni01D8" unicode="&#x1d8;" horiz-adv-x="1138" 
d="M456 -16q-112 0 -193 47.5t-118 136.5t-16 212l116 704h89l-116 -700q-23 -145 48.5 -231t212.5 -86q95 0 177.5 40t139.5 113t73 173l114 691h89l-180 -1084h-87l41 248h21q-64 -135 -174 -199.5t-237 -64.5zM901 1286q-29 0 -46 21t-13 50q5 29 29.5 49.5t53.5 20.5
t46 -20.5t12 -49.5t-29 -50t-53 -21zM492 1286q-29 0 -46 21t-13 50q5 29 29.5 49.5t53.5 20.5t45.5 -20.5t12.5 -49.5q-5 -29 -29 -50t-53 -21zM696 1563l210 274h105l-234 -274h-81z" />
    <glyph glyph-name="uni01D9" unicode="&#x1d9;" horiz-adv-x="1429" 
d="M627 -20q-161 0 -275.5 69.5t-166.5 189.5t-27 272l162 979h93l-162 -981q-22 -129 19.5 -228.5t134.5 -156.5t225 -57q137 0 251 58.5t190 160t98 229.5l161 975h92l-163 -986q-25 -152 -114.5 -270.5t-224 -186t-293.5 -67.5zM1114 1692q-29 0 -46 21t-12 50
q4 29 28.5 49.5t53.5 20.5t46 -20.5t12 -49.5q-4 -29 -28.5 -50t-53.5 -21zM705 1692q-29 0 -46 21t-12 50q4 29 28.5 49.5t53.5 20.5t46 -20.5t12 -49.5t-29 -50t-53 -21zM804 2238l157 -212l228 212h96v-3l-297 -273h-76l-204 273v3h96z" />
    <glyph glyph-name="uni01DA" unicode="&#x1da;" horiz-adv-x="1138" 
d="M456 -16q-112 0 -193 47.5t-118 136.5t-16 212l116 704h89l-116 -700q-23 -145 48.5 -231t212.5 -86q95 0 177.5 40t139.5 113t73 173l114 691h89l-180 -1084h-87l41 248h21q-64 -135 -174 -199.5t-237 -64.5zM901 1286q-29 0 -46 21t-12 50q4 29 28.5 49.5t53.5 20.5
t46 -20.5t12 -49.5q-4 -29 -28.5 -50t-53.5 -21zM492 1286q-29 0 -46 21t-12 50q4 29 28.5 49.5t53.5 20.5t46 -20.5t12 -49.5t-29 -50t-53 -21zM591 1832l157 -212l228 212h96v-3l-297 -273h-76l-204 273v3h96z" />
    <glyph glyph-name="uni01DB" unicode="&#x1db;" horiz-adv-x="1429" 
d="M627 -20q-161 0 -275.5 69.5t-166.5 189.5t-27 272l162 979h93l-162 -981q-22 -129 19.5 -228.5t134.5 -156.5t225 -57q137 0 251 58.5t190 160t98 229.5l161 975h92l-163 -986q-25 -152 -114.5 -270.5t-224 -186t-293.5 -67.5zM1114 1692q-29 0 -46 21t-13 50
q5 29 29.5 49.5t53.5 20.5t46 -20.5t12 -49.5t-29 -50t-53 -21zM705 1692q-29 0 -46 21t-13 50q5 29 29.5 49.5t53.5 20.5t45.5 -20.5t12.5 -49.5q-5 -29 -29 -50t-53 -21zM902 1969l-142 274h105l118 -274h-81z" />
    <glyph glyph-name="uni01DC" unicode="&#x1dc;" horiz-adv-x="1138" 
d="M456 -16q-112 0 -193 47.5t-118 136.5t-16 212l116 704h89l-116 -700q-23 -145 48.5 -231t212.5 -86q95 0 177.5 40t139.5 113t73 173l114 691h89l-180 -1084h-87l41 248h21q-64 -135 -174 -199.5t-237 -64.5zM901 1286q-29 0 -46 21t-13 50q5 29 29.5 49.5t53.5 20.5
t46 -20.5t12 -49.5t-29 -50t-53 -21zM492 1286q-29 0 -46 21t-13 50q5 29 29.5 49.5t53.5 20.5t45.5 -20.5t12.5 -49.5q-5 -29 -29 -50t-53 -21zM689 1563l-142 274h105l118 -274h-81z" />
    <glyph glyph-name="eturn" unicode="&#x1dd;" horiz-adv-x="1081" 
d="M598 1102q121 0 211 -52t140 -149t50 -233q0 -142 -43.5 -266.5t-122.5 -219t-186.5 -148t-235.5 -53.5q-107 0 -182 37.5t-114.5 103.5t-39.5 152q0 105 59 168.5t170.5 95.5t270.5 42.5t359 10.5l-8 -78q-186 0 -328 -7t-238.5 -30.5t-146 -71.5t-49.5 -130
q0 -93 64.5 -151.5t188.5 -58.5q115 0 206.5 50t155.5 135.5t98 194.5t34 226q0 103 -35.5 182t-106.5 123.5t-175 44.5q-124 0 -224 -62t-154 -161l-85 15q62 128 186 209t281 81z" />
    <glyph glyph-name="uni01DE" unicode="&#x1de;" horiz-adv-x="1296" 
d="M-51 0l800 1490h112l307 -1490h-93l-216 1067q-15 80 -33 173.5t-37 209.5h27q-57 -115 -104.5 -208t-92.5 -175l-568 -1067h-102zM266 468l14 85h740l-14 -85h-740zM1048 1692q-29 0 -46 21t-13 50q5 29 29.5 49.5t53.5 20.5t46 -20.5t12 -49.5t-29 -50t-53 -21z
M639 1692q-29 0 -46 21t-13 50q5 29 29.5 49.5t53.5 20.5t45.5 -20.5t12.5 -49.5q-5 -29 -29 -50t-53 -21zM1160 2082l-14 -73h-494l13 73h495z" />
    <glyph glyph-name="uni01DF" unicode="&#x1df;" horiz-adv-x="1168" 
d="M454 -20q-134 0 -225 70.5t-128 197t-9 293.5q27 165 106 291.5t193.5 197t247.5 70.5q93 0 162 -34.5t112 -94t55 -134.5h5l41 247h88l-179 -1084h-88l40 242h-6q-38 -74 -101 -133.5t-142.5 -94t-171.5 -34.5zM474 63q113 0 207 60.5t158 168t87 249.5q24 142 -3 249.5
t-99.5 167t-185.5 59.5q-112 0 -207 -59.5t-160.5 -167t-89.5 -249.5q-23 -143 5.5 -250.5t102 -167.5t185.5 -60zM898 1286q-29 0 -46 21t-13 50q5 29 29.5 49.5t53.5 20.5t46 -20.5t12 -49.5t-29 -50t-53 -21zM489 1286q-29 0 -46 21t-13 50q5 29 29.5 49.5t53.5 20.5
t45.5 -20.5t12.5 -49.5q-5 -29 -29 -50t-53 -21zM1010 1676l-14 -73h-494l13 73h495z" />
    <glyph glyph-name="uni01E0" unicode="&#x1e0;" horiz-adv-x="1296" 
d="M-51 0l800 1490h112l307 -1490h-93l-216 1067q-15 80 -33 173.5t-37 209.5h27q-57 -115 -104.5 -208t-92.5 -175l-568 -1067h-102zM266 468l14 85h740l-14 -85h-740zM840 1692q-29 0 -46.5 21t-13.5 50q5 29 29.5 49.5t54.5 20.5q29 0 46.5 -20.5t12.5 -49.5
q-4 -30 -28.5 -50.5t-54.5 -20.5zM1160 2082l-13 -73h-495l14 73h494z" />
    <glyph glyph-name="uni01E1" unicode="&#x1e1;" horiz-adv-x="1168" 
d="M454 -20q-134 0 -225 70.5t-128 197t-9 293.5q27 165 106 291.5t193.5 197t247.5 70.5q93 0 162 -34.5t112 -94t55 -134.5h5l41 247h88l-179 -1084h-88l40 242h-6q-38 -74 -101 -133.5t-142.5 -94t-171.5 -34.5zM474 63q113 0 207 60.5t158 168t87 249.5q24 142 -3 249.5
t-99.5 167t-185.5 59.5q-112 0 -207 -59.5t-160.5 -167t-89.5 -249.5q-23 -143 5.5 -250.5t102 -167.5t185.5 -60zM689 1286q-29 0 -46.5 21t-13.5 50q5 29 29.5 49.5t54.5 20.5q29 0 46.5 -20.5t12.5 -49.5q-4 -30 -28.5 -50.5t-54.5 -20.5zM1009 1676l-13 -73h-495l14 73
h494z" />
    <glyph glyph-name="uni01E2" unicode="&#x1e2;" horiz-adv-x="1922" 
d="M-51 0l984 1490h1024l-14 -86h-737l-102 -615h693l-14 -85h-692l-103 -619h755l-14 -85h-849l233 1403h-138l-924 -1403h-102zM335 481l14 84h674l-15 -84h-673zM1717 1836l-13 -78h-495l14 78h494z" />
    <glyph glyph-name="uni01E3" unicode="&#x1e3;" horiz-adv-x="1789" 
d="M356 -21q-165 0 -246.5 89t-56.5 240q16 97 71 163.5t152.5 101t238.5 34.5q55 0 107 -0.5t107.5 -1t116.5 -0.5l-8 -76q-78 0 -160.5 0.5t-158.5 0.5q-165 0 -262 -54.5t-115 -169.5q-20 -119 37.5 -182t185.5 -63q122 0 209.5 52.5t141 142t71.5 198.5l56 330
q20 118 -46 188.5t-200 70.5q-87 0 -161.5 -34t-124 -94t-64.5 -137h-90q18 101 81 179t158 122.5t207 44.5q113 0 192 -43.5t115 -120t19 -175.5l-68 -401l-5 -4q-30 -115 -96.5 -206t-168 -143t-235.5 -52zM1197 -19q-132 0 -221 48t-133.5 144.5t-44.5 242.5
q0 155 43.5 285t122.5 225t187.5 147t238.5 52q101 0 174 -32.5t113 -94t40 -146.5q0 -89 -48 -151t-150.5 -100t-265.5 -55.5t-393 -17.5l6 75q217 0 363 13.5t234 43t126.5 79t38.5 120.5q0 90 -62 136.5t-177 46.5q-142 0 -253.5 -71t-177 -198.5t-71.5 -294.5
q-2 -15 -4 -27.5t-3 -22t-1 -18.5q0 -178 75.5 -262t242.5 -84q124 0 212.5 46.5t160.5 145.5l81 -26q-82 -126 -193 -187.5t-261 -61.5zM1262 1430l-13 -78h-495l14 78h494z" />
    <glyph glyph-name="Gbar" unicode="&#x1e4;" horiz-adv-x="1464" 
d="M662 -21q-166 0 -286 73t-183.5 206t-63.5 312q0 174 53 341.5t154 303t243.5 216t320.5 80.5q127 0 222.5 -42t159 -113t95.5 -158t33 -177h-93q-3 75 -30 146.5t-79 129.5t-129.5 92t-181.5 34q-158 0 -283.5 -74t-213 -197t-134.5 -274t-47 -306q0 -232 117.5 -368.5
t329.5 -136.5q151 0 276 69t209 194t112 294l30 -12h-506l15 85h564l-14 -87q-24 -142 -85.5 -258t-152.5 -199.5t-205.5 -128.5t-246.5 -45zM741 327l13 77h669l-13 -77h-669z" />
    <glyph glyph-name="gbar" unicode="&#x1e5;" horiz-adv-x="1167" 
d="M412 -435q-115 0 -198 33t-130 95t-56 150l85 17q9 -67 45 -114.5t99.5 -73t156.5 -25.5q172 0 282 91t137 255l41 254l-4 -1q-40 -74 -101.5 -131.5t-139.5 -89.5t-168 -32q-116 0 -201 51.5t-132 146.5t-47 225q0 125 39 246.5t111.5 220.5t174 158t227.5 59
q72 0 129 -20t99.5 -56t69.5 -84.5t37 -104.5l5 1l41 248h88l-182 -1099q-23 -139 -93 -232.5t-176 -140.5t-239 -47zM472 76q111 0 197.5 51t146.5 137t91 191.5t31 213.5q0 159 -77.5 253.5t-220.5 94.5q-107 0 -194 -51.5t-148.5 -138t-94.5 -193t-33 -215.5
q0 -161 80.5 -252t221.5 -91zM716 511l12 76h496l-13 -76h-495z" />
    <glyph glyph-name="Gcaron" unicode="&#x1e6;" horiz-adv-x="1464" 
d="M662 -21q-166 0 -286 73t-183.5 206t-63.5 312q0 174 53 341.5t154 303t243.5 216t320.5 80.5q127 0 222.5 -42t159 -113t95.5 -158t33 -177h-93q-3 75 -30 146.5t-79 129.5t-129.5 92t-181.5 34q-158 0 -283.5 -74t-213 -197t-134.5 -274t-47 -306q0 -232 117.5 -368.5
t329.5 -136.5q151 0 276 69t209 194t112 294l30 -12h-506l15 85h564l-14 -87q-24 -142 -85.5 -258t-152.5 -199.5t-205.5 -128.5t-246.5 -45zM774 1935l157 -212l227 212h97l-1 -3l-297 -273h-76l-204 273l1 3h96z" />
    <glyph glyph-name="gcaron" unicode="&#x1e7;" horiz-adv-x="1167" 
d="M412 -435q-115 0 -198 33t-130 95t-56 150l85 17q9 -67 45 -114.5t99.5 -73t156.5 -25.5q172 0 282 91t137 255l41 254l-4 -1q-40 -74 -101.5 -131.5t-139.5 -89.5t-168 -32q-116 0 -201 51.5t-132 146.5t-47 225q0 125 39 246.5t111.5 220.5t174 158t227.5 59
q72 0 129 -20t99.5 -56t69.5 -84.5t37 -104.5l5 1l41 248h88l-182 -1099q-23 -139 -93 -232.5t-176 -140.5t-239 -47zM472 76q111 0 197.5 51t146.5 137t91 191.5t31 213.5q0 159 -77.5 253.5t-220.5 94.5q-107 0 -194 -51.5t-148.5 -138t-94.5 -193t-33 -215.5
q0 -161 80.5 -252t221.5 -91zM536 1529l157 -212l227 212h97l-1 -3l-297 -273h-76l-204 273l1 3h96z" />
    <glyph glyph-name="uni01E8" unicode="&#x1e8;" horiz-adv-x="1222" 
d="M248 499l2 106q68 65 132 124.5t128 118.5t132 122l568 520h127l-732 -668l-12 -7zM95 0l247 1490h93l-88 -525l-58 -351l-8 -52l-93 -562h-93zM987 0l-440 805l66 65l476 -870h-102zM684 1935l157 -212l227 212h97l-1 -3l-297 -273h-76l-204 273l1 3h96z" />
    <glyph glyph-name="uni01E9" unicode="&#x1e9;" horiz-adv-x="969" 
d="M213 430l21 124h20l622 530h117l-567 -483l-10 -4zM65 0l247 1490h89l-247 -1490h-89zM738 0l-373 588l75 60l412 -648h-114zM238 1935l157 -212l227 212h97l-1 -3l-297 -273h-76l-204 273l1 3h96z" />
    <glyph glyph-name="uni01EA" unicode="&#x1ea;" horiz-adv-x="1489" 
d="M657 -21q-163 0 -281.5 73.5t-182.5 207t-64 311.5q0 175 53.5 342t155 302t243.5 215.5t319 80.5q162 0 280.5 -73.5t182.5 -206.5t64 -313q0 -173 -54 -340.5t-154.5 -302.5t-242.5 -215.5t-319 -80.5zM661 67q156 0 280.5 73.5t212.5 196t135 273t47 305.5
q0 158 -54 271.5t-152.5 175t-232.5 61.5q-157 0 -282 -73.5t-213.5 -196.5t-135.5 -273.5t-47 -305.5q0 -156 54 -270t153.5 -175.5t234.5 -61.5zM674 -423q-83 0 -132 44t-35 130q14 79 63.5 132.5t122 96.5t158 89.5t170.5 110.5t159.5 159.5t126.5 236.5t68 342h52
q-14 -206 -63 -354t-120.5 -250.5t-154.5 -171t-165 -116.5t-152.5 -86.5t-116.5 -80t-56 -100.5q-8 -53 19.5 -77.5t81.5 -24.5q15 0 30.5 2t28.5 5l1 -75q-19 -5 -40.5 -8.5t-45.5 -3.5z" />
    <glyph glyph-name="uni01EB" unicode="&#x1eb;" horiz-adv-x="1133" 
d="M479 -21q-122 0 -211.5 56t-137.5 155.5t-48 230.5q0 127 41 248.5t117.5 218.5t182 155t232.5 58q122 0 210.5 -56t137 -155.5t48.5 -231.5q0 -127 -41.5 -248.5t-117.5 -218.5t-181 -154.5t-232 -57.5zM481 62q109 0 197.5 51.5t152 137.5t97.5 192t34 215
q0 108 -36 189t-105 126t-168 45q-107 0 -195.5 -51t-152.5 -136.5t-99.5 -192t-35.5 -217.5q0 -161 81.5 -260t229.5 -99zM483 -434q-90 0 -134.5 43.5t-31.5 122.5q12 71 59 122.5t115.5 96.5t145 94t148 113.5t125.5 157t76 223.5h56q-24 -141 -76.5 -240t-121 -167.5
t-141 -117.5t-136.5 -89.5t-107.5 -83t-52.5 -98.5q-7 -46 18.5 -71.5t85.5 -25.5q17 0 33 2t31 5l2 -75q-21 -5 -44.5 -8.5t-49.5 -3.5z" />
    <glyph glyph-name="uni01EC" unicode="&#x1ec;" horiz-adv-x="1489" 
d="M657 -21q-163 0 -281.5 73.5t-182.5 207t-64 311.5q0 175 53.5 342t155 302t243.5 215.5t319 80.5q162 0 280.5 -73.5t182.5 -206.5t64 -313q0 -173 -54 -340.5t-154.5 -302.5t-242.5 -215.5t-319 -80.5zM661 67q156 0 280.5 73.5t212.5 196t135 273t47 305.5
q0 158 -54 271.5t-152.5 175t-232.5 61.5q-157 0 -282 -73.5t-213.5 -196.5t-135.5 -273.5t-47 -305.5q0 -156 54 -270t153.5 -175.5t234.5 -61.5zM674 -423q-83 0 -132 44t-35 130q14 79 63.5 132.5t122 96.5t158 89.5t170.5 110.5t159.5 159.5t126.5 236.5t68 342h52
q-14 -206 -63 -354t-120.5 -250.5t-154.5 -171t-165 -116.5t-152.5 -86.5t-116.5 -80t-56 -100.5q-8 -53 19.5 -77.5t81.5 -24.5q15 0 30.5 2t28.5 5l1 -75q-19 -5 -40.5 -8.5t-45.5 -3.5zM1207 1836l-13 -78h-495l14 78h494z" />
    <glyph glyph-name="uni01ED" unicode="&#x1ed;" horiz-adv-x="1133" 
d="M479 -21q-122 0 -211.5 56t-137.5 155.5t-48 230.5q0 127 41 248.5t117.5 218.5t182 155t232.5 58q122 0 210.5 -56t137 -155.5t48.5 -231.5q0 -127 -41.5 -248.5t-117.5 -218.5t-181 -154.5t-232 -57.5zM481 62q109 0 197.5 51.5t152 137.5t97.5 192t34 215
q0 108 -36 189t-105 126t-168 45q-107 0 -195.5 -51t-152.5 -136.5t-99.5 -192t-35.5 -217.5q0 -161 81.5 -260t229.5 -99zM483 -434q-90 0 -134.5 43.5t-31.5 122.5q12 71 59 122.5t115.5 96.5t145 94t148 113.5t125.5 157t76 223.5h56q-24 -141 -76.5 -240t-121 -167.5
t-141 -117.5t-136.5 -89.5t-107.5 -83t-52.5 -98.5q-7 -46 18.5 -71.5t85.5 -25.5q17 0 33 2t31 5l2 -75q-21 -5 -44.5 -8.5t-49.5 -3.5zM962 1430l-13 -78h-495l14 78h494z" />
    <glyph glyph-name="uni01EE" unicode="&#x1ee;" horiz-adv-x="1354" 
d="M6 70h93q-17 -124 31 -220.5t146.5 -150.5t228.5 -54q145 0 267 66.5t204.5 183.5t106.5 267q26 154 -29.5 273t-175.5 188.5t-291 74.5h-83l14 81l703 638l-4 -15h-910l15 88h1027l-12 -70l-698 -635l-1 -8q189 -8 319 -90t188 -217.5t30 -306.5q-21 -123 -78.5 -232.5
t-146.5 -193t-204 -131t-251 -47.5q-158 0 -276.5 64.5t-176.5 180t-36 266.5zM745 2121l157 -212l227 212h97l-1 -3l-297 -273h-76l-204 273l1 3h96z" />
    <glyph glyph-name="uni01EF" unicode="&#x1ef;" horiz-adv-x="1176" 
d="M449 -402q-137 0 -238.5 52t-150.5 144.5t-30 212.5h93q-15 -96 22 -169.5t115.5 -114.5t189.5 -41q116 0 211.5 47t158.5 129.5t80 186.5q18 112 -21 194t-131 126.5t-234 44.5h-104l13 80l553 529v3h-712l14 85h840l-13 -76l-604 -579l3 27q170 8 286.5 -45.5
t169.5 -154.5t31 -236q-22 -127 -96.5 -228t-189 -159t-256.5 -58zM563 1552l157 -212l227 212h97l-1 -3l-297 -273h-76l-204 273l1 3h96z" />
    <glyph glyph-name="uni01F0" unicode="&#x1f0;" horiz-adv-x="403" 
d="M249 1084h89l-204 -1231q-14 -83 -59 -144t-111.5 -94t-144.5 -33h-31l13 83h28q78 0 140 50.5t77 142.5zM175 1529l157 -212l227 212h97l-1 -3l-297 -273h-76l-204 273l1 3h96z" />
    <glyph glyph-name="uni01F1" unicode="&#x1f1;" horiz-adv-x="2603" 
d="M522 0h-376l14 85h357q200 0 350 79.5t245 228.5t129 356q34 206 -5.5 352.5t-152.5 225t-301 78.5h-406l14 85h393q210 0 345.5 -88.5t189 -254.5t14.5 -398q-38 -236 -145.5 -403.5t-275.5 -256.5t-389 -89zM435 1490l-247 -1490h-93l247 1490h93zM1434 0l13 75
l1068 1329h-847l14 86h962l-13 -77l-1069 -1328h854l-14 -85h-968z" />
    <glyph glyph-name="uni01F2" unicode="&#x1f2;" horiz-adv-x="2412" 
d="M522 0h-376l14 85h357q200 0 350 79.5t245 228.5t129 356q34 206 -5.5 352.5t-152.5 225t-301 78.5h-406l14 85h393q210 0 345.5 -88.5t189 -254.5t14.5 -398q-38 -236 -145.5 -403.5t-275.5 -256.5t-389 -89zM435 1490l-247 -1490h-93l247 1490h93zM1429 0l13 75
l802 920l1 5h-631l14 84h747l-13 -79l-797 -917l-1 -4h660l-14 -84h-781z" />
    <glyph glyph-name="uni01F3" unicode="&#x1f3;" horiz-adv-x="2072" 
d="M459 -20q-175 0 -276.5 117.5t-101.5 313.5q0 128 39 250.5t111.5 221.5t174.5 158t227 59q94 0 164.5 -35t114 -95t55.5 -135h5l108 655h89l-246 -1490h-88l40 241h-5q-39 -75 -100.5 -134.5t-140.5 -93t-170 -33.5zM470 63q110 0 197 53t147.5 141t92 195.5t31.5 215.5
q0 160 -78 254.5t-220 94.5q-109 0 -196 -52t-148 -139.5t-93.5 -194t-32.5 -216.5q0 -161 80 -256.5t220 -95.5zM1088 0l13 75l802 920l1 5h-631l14 84h747l-13 -79l-797 -917l-1 -4h660l-14 -84h-781z" />
    <glyph glyph-name="uni01F4" unicode="&#x1f4;" horiz-adv-x="1464" 
d="M662 -21q-166 0 -286 73t-183.5 206t-63.5 312q0 174 53 341.5t154 303t243.5 216t320.5 80.5q127 0 222.5 -42t159 -113t95.5 -158t33 -177h-93q-3 75 -30 146.5t-79 129.5t-129.5 92t-181.5 34q-158 0 -283.5 -74t-213 -197t-134.5 -274t-47 -306q0 -232 117.5 -368.5
t329.5 -136.5q151 0 276 69t209 194t112 294l30 -12h-506l15 85h564l-14 -87q-24 -142 -85.5 -258t-152.5 -199.5t-205.5 -128.5t-246.5 -45zM873 1666l210 274h105l-235 -274h-80z" />
    <glyph glyph-name="uni01F5" unicode="&#x1f5;" horiz-adv-x="1167" 
d="M412 -435q-115 0 -198 33t-130 95t-56 150l85 17q9 -67 45 -114.5t99.5 -73t156.5 -25.5q172 0 282 91t137 255l41 254l-4 -1q-40 -74 -101.5 -131.5t-139.5 -89.5t-168 -32q-116 0 -201 51.5t-132 146.5t-47 225q0 125 39 246.5t111.5 220.5t174 158t227.5 59
q72 0 129 -20t99.5 -56t69.5 -84.5t37 -104.5l5 1l41 248h88l-182 -1099q-23 -139 -93 -232.5t-176 -140.5t-239 -47zM472 76q111 0 197.5 51t146.5 137t91 191.5t31 213.5q0 159 -77.5 253.5t-220.5 94.5q-107 0 -194 -51.5t-148.5 -138t-94.5 -193t-33 -215.5
q0 -161 80.5 -252t221.5 -91zM634 1260l210 274h105l-235 -274h-80z" />
    <glyph glyph-name="uni01F6" unicode="&#x1f6;" horiz-adv-x="2181" 
d="M1515 -20q-128 1 -218 52t-129 148t-16 235l49 297h-895l-118 -712h-93l247 1490h93l-115 -693h895l114 693h93l-179 -1080q-27 -168 47.5 -256t227.5 -88q105 0 187.5 41t136.5 119.5t72 189.5l112 676h91l-113 -684q-23 -140 -92.5 -235.5t-172 -143.5t-224.5 -49z" />
    <glyph glyph-name="uni01F7" unicode="&#x1f7;" horiz-adv-x="1026" 
d="M303 1489l-315 -1907h-102l315 1907h102zM-27 -151l14 87q197 41 355.5 121t278 195.5t197 265t110.5 328.5l9 49q24 132 14 231t-53 164.5t-117.5 98.5t-180.5 33q-77 0 -144 -19t-122.5 -56.5t-100.5 -94.5l13 158q76 50 168.5 75t196.5 25q170 0 276.5 -69.5
t145.5 -207t5 -342.5l-8 -43q-33 -199 -121 -365t-224 -294t-316 -214t-396 -126z" />
    <glyph glyph-name="uni01F8" unicode="&#x1f8;" horiz-adv-x="1504" 
d="M95 0l247 1490h96l576 -1075q25 -45 51.5 -97.5t54.5 -109t55 -114.5l-17 -7q8 57 16 116t16.5 115.5t16.5 103.5l177 1068h92l-247 -1490h-95l-560 1038q-26 49 -54 104t-58.5 118t-65.5 135l18 9q-11 -74 -20.5 -139.5t-17.5 -122t-16 -103.5l-172 -1039h-93zM898 1636
l-114 290h105l87 -290h-78z" />
    <glyph glyph-name="uni01F9" unicode="&#x1f9;" horiz-adv-x="1137" 
d="M268 688l-114 -688h-88l179 1084h87l-41 -248l-21 2q64 135 175 198.5t237 63.5q114 0 194.5 -48.5t116.5 -137.5t15 -213l-116 -701h-88l116 702q24 146 -45.5 230t-208.5 84q-97 0 -181.5 -40.5t-142 -114.5t-74.5 -173zM648 1230l-114 290h105l87 -290h-78z" />
    <glyph glyph-name="Aringacute" unicode="&#x1fa;" horiz-adv-x="1296" 
d="M-51 0l800 1490h112l307 -1490h-93l-216 1067q-15 80 -33 173.5t-37 209.5h27q-57 -115 -104.5 -208t-92.5 -175l-568 -1067h-102zM266 468l14 85h740l-14 -85h-740zM862 2047l151 153h99l-173 -153h-77zM833 1618q-54 0 -94.5 26t-59.5 69.5t-10 95.5q8 50 39.5 90.5
t77.5 64.5t97 24q54 0 94.5 -26t60 -69t10.5 -96q-8 -49 -40 -90t-77.5 -65t-97.5 -24zM837 1690q49 0 89 33.5t48 81.5q8 47 -20 79.5t-75 32.5q-49 0 -88.5 -34t-47.5 -82q-8 -46 19.5 -78.5t74.5 -32.5z" />
    <glyph glyph-name="aringacute" unicode="&#x1fb;" horiz-adv-x="1168" 
d="M454 -20q-134 0 -225 70.5t-128 197t-9 293.5q27 165 106 291.5t193.5 197t247.5 70.5q93 0 162 -34.5t112 -94t55 -134.5h5l41 247h88l-179 -1084h-88l40 242h-6q-38 -74 -101 -133.5t-142.5 -94t-171.5 -34.5zM474 63q113 0 207 60.5t158 168t87 249.5q24 142 -3 249.5
t-99.5 167t-185.5 59.5q-112 0 -207 -59.5t-160.5 -167t-89.5 -249.5q-23 -143 5.5 -250.5t102 -167.5t185.5 -60zM711 1641l151 153h99l-173 -153h-77zM682 1212q-54 0 -94.5 26t-59.5 69.5t-10 95.5q8 50 39.5 90.5t77.5 64.5t97 24q54 0 94.5 -26t60 -69t10.5 -96
q-8 -49 -40 -90t-77.5 -65t-97.5 -24zM686 1284q49 0 89 33.5t48 81.5q8 47 -20 79.5t-75 32.5q-49 0 -88.5 -34t-47.5 -82q-8 -46 19.5 -78.5t74.5 -32.5z" />
    <glyph glyph-name="AEacute" unicode="&#x1fc;" horiz-adv-x="1922" 
d="M-51 0l984 1490h1024l-14 -86h-737l-102 -615h693l-14 -85h-692l-103 -619h755l-14 -85h-849l233 1403h-138l-924 -1403h-102zM335 481l14 84h674l-15 -84h-673zM1392 1666l210 274h105l-235 -274h-80z" />
    <glyph glyph-name="aeacute" unicode="&#x1fd;" horiz-adv-x="1789" 
d="M356 -21q-165 0 -246.5 89t-56.5 240q16 97 71 163.5t152.5 101t238.5 34.5q55 0 107 -0.5t107.5 -1t116.5 -0.5l-8 -76q-78 0 -160.5 0.5t-158.5 0.5q-165 0 -262 -54.5t-115 -169.5q-20 -119 37.5 -182t185.5 -63q122 0 209.5 52.5t141 142t71.5 198.5l56 330
q20 118 -46 188.5t-200 70.5q-87 0 -161.5 -34t-124 -94t-64.5 -137h-90q18 101 81 179t158 122.5t207 44.5q113 0 192 -43.5t115 -120t19 -175.5l-68 -401l-5 -4q-30 -115 -96.5 -206t-168 -143t-235.5 -52zM1197 -19q-132 0 -221 48t-133.5 144.5t-44.5 242.5
q0 155 43.5 285t122.5 225t187.5 147t238.5 52q101 0 174 -32.5t113 -94t40 -146.5q0 -89 -48 -151t-150.5 -100t-265.5 -55.5t-393 -17.5l6 75q217 0 363 13.5t234 43t126.5 79t38.5 120.5q0 90 -62 136.5t-177 46.5q-142 0 -253.5 -71t-177 -198.5t-71.5 -294.5
q-2 -15 -4 -27.5t-3 -22t-1 -18.5q0 -178 75.5 -262t242.5 -84q124 0 212.5 46.5t160.5 145.5l81 -26q-82 -126 -193 -187.5t-261 -61.5zM937 1260l210 274h105l-235 -274h-80z" />
    <glyph glyph-name="Oslashacute" unicode="&#x1fe;" horiz-adv-x="1489" 
d="M657 -23q-163 0 -281.5 73.5t-182.5 207t-64 311.5q0 175 53.5 342t155 302t243.5 215.5t319 80.5q162 0 280.5 -73.5t182.5 -206.5t64 -313q0 -173 -54 -340.5t-154.5 -302.5t-242.5 -215.5t-319 -80.5zM661 65q156 0 280.5 73.5t212.5 196t135 273t47 305.5
q0 158 -54 271.5t-152.5 175t-232.5 61.5q-157 0 -282 -73.5t-213.5 -196.5t-135.5 -273.5t-47 -305.5q0 -156 54 -270t153.5 -175.5t234.5 -61.5zM178 -27l-61 50l1263 1490l60 -50zM882 1665l210 274h105l-235 -274h-80z" />
    <glyph glyph-name="oslashacute" unicode="&#x1ff;" horiz-adv-x="1134" 
d="M479 -20q-122 0 -211.5 56t-137.5 155.5t-48 230.5q0 127 41 248.5t117.5 218.5t182 155t232.5 58q122 0 210.5 -56t137 -155.5t48.5 -231.5q0 -127 -41.5 -248.5t-117.5 -218.5t-181 -154.5t-232 -57.5zM481 63q109 0 197.5 51.5t152 137.5t97.5 192t34 215
q0 108 -36 189t-105 126t-168 45q-107 0 -195.5 -51t-152.5 -136.5t-99.5 -192t-35.5 -217.5q0 -161 81.5 -260t229.5 -99zM56 -24l-50 50l1073 1083l50 -49zM637 1261l210 274h105l-235 -274h-80z" />
    <glyph glyph-name="uni0200" unicode="&#x200;" horiz-adv-x="1296" 
d="M-51 0l800 1490h112l307 -1490h-93l-216 1067q-15 80 -33 173.5t-37 209.5h27q-57 -115 -104.5 -208t-92.5 -175l-568 -1067h-102zM266 468l14 85h740l-14 -85h-740zM924 1636l-96 290h101l73 -290h-78zM664 1636l-132 290h103l108 -290h-79z" />
    <glyph glyph-name="uni0201" unicode="&#x201;" horiz-adv-x="1168" 
d="M454 -20q-134 0 -225 70.5t-128 197t-9 293.5q27 165 106 291.5t193.5 197t247.5 70.5q93 0 162 -34.5t112 -94t55 -134.5h5l41 247h88l-179 -1084h-88l40 242h-6q-38 -74 -101 -133.5t-142.5 -94t-171.5 -34.5zM474 63q113 0 207 60.5t158 168t87 249.5q24 142 -3 249.5
t-99.5 167t-185.5 59.5q-112 0 -207 -59.5t-160.5 -167t-89.5 -249.5q-23 -143 5.5 -250.5t102 -167.5t185.5 -60zM773 1230l-96 290h101l73 -290h-78zM513 1230l-132 290h103l108 -290h-79z" />
    <glyph glyph-name="uni0202" unicode="&#x202;" horiz-adv-x="1296" 
d="M-51 0l800 1490h112l307 -1490h-93l-216 1067q-15 80 -33 173.5t-37 209.5h27q-57 -115 -104.5 -208t-92.5 -175l-568 -1067h-102zM266 468l14 85h740l-14 -85h-740zM876 1916q78 0 134 -34t82.5 -91.5t14.5 -129.5h-73q13 78 -36.5 130.5t-132.5 52.5t-150 -52.5
t-81 -130.5h-73q13 72 58.5 129.5t112.5 91.5t144 34z" />
    <glyph glyph-name="uni0203" unicode="&#x203;" horiz-adv-x="1168" 
d="M454 -20q-134 0 -225 70.5t-128 197t-9 293.5q27 165 106 291.5t193.5 197t247.5 70.5q93 0 162 -34.5t112 -94t55 -134.5h5l41 247h88l-179 -1084h-88l40 242h-6q-38 -74 -101 -133.5t-142.5 -94t-171.5 -34.5zM474 63q113 0 207 60.5t158 168t87 249.5q24 142 -3 249.5
t-99.5 167t-185.5 59.5q-112 0 -207 -59.5t-160.5 -167t-89.5 -249.5q-23 -143 5.5 -250.5t102 -167.5t185.5 -60zM725 1510q78 0 134 -34t82.5 -91.5t14.5 -129.5h-73q13 78 -36.5 130.5t-132.5 52.5t-150 -52.5t-81 -130.5h-73q13 72 58.5 129.5t112.5 91.5t144 34z" />
    <glyph glyph-name="uni0204" unicode="&#x204;" horiz-adv-x="1180" 
d="M95 0l247 1490h884l-15 -86h-790l-100 -606h731l-14 -85h-731l-104 -628h798l-14 -85h-892zM906 1636l-96 290h101l73 -290h-78zM646 1636l-132 290h103l108 -290h-79z" />
    <glyph glyph-name="uni0205" unicode="&#x205;" horiz-adv-x="1081" 
d="M483 -19q-121 0 -211 52t-140 149t-50 233q0 142 43.5 267t122.5 219.5t186.5 147.5t235.5 53q107 0 182 -37t114 -103t39 -152q0 -106 -59 -169t-170 -95t-270 -42.5t-359 -10.5l8 77q186 0 328 7.5t238.5 31t145.5 71.5t49 129q0 94 -64 152t-188 58q-115 0 -206.5 -50
t-156 -135.5t-98 -194t-33.5 -226.5q0 -103 35.5 -181.5t106.5 -123t175 -44.5q124 0 224 62t153 161l85 -16q-61 -128 -185 -209t-281 -81zM778 1230l-96 290h101l73 -290h-78zM518 1230l-132 290h103l108 -290h-79z" />
    <glyph glyph-name="uni0206" unicode="&#x206;" horiz-adv-x="1180" 
d="M95 0l247 1490h884l-15 -86h-790l-100 -606h731l-14 -85h-731l-104 -628h798l-14 -85h-892zM858 1916q78 0 134 -34t82.5 -91.5t14.5 -129.5h-73q13 78 -36.5 130.5t-132.5 52.5t-150 -52.5t-81 -130.5h-73q13 72 58.5 129.5t112.5 91.5t144 34z" />
    <glyph glyph-name="uni0207" unicode="&#x207;" horiz-adv-x="1081" 
d="M483 -19q-121 0 -211 52t-140 149t-50 233q0 142 43.5 267t122.5 219.5t186.5 147.5t235.5 53q107 0 182 -37t114 -103t39 -152q0 -106 -59 -169t-170 -95t-270 -42.5t-359 -10.5l8 77q186 0 328 7.5t238.5 31t145.5 71.5t49 129q0 94 -64 152t-188 58q-115 0 -206.5 -50
t-156 -135.5t-98 -194t-33.5 -226.5q0 -103 35.5 -181.5t106.5 -123t175 -44.5q124 0 224 62t153 161l85 -16q-61 -128 -185 -209t-281 -81zM730 1510q78 0 134 -34t82.5 -91.5t14.5 -129.5h-73q13 78 -36.5 130.5t-132.5 52.5t-150 -52.5t-81 -130.5h-73q13 72 58.5 129.5
t112.5 91.5t144 34z" />
    <glyph glyph-name="uni0208" unicode="&#x208;" horiz-adv-x="463" 
d="M435 1490l-247 -1490h-93l247 1490h93zM507 1636l-96 290h101l73 -290h-78zM247 1636l-132 290h103l108 -290h-79z" />
    <glyph glyph-name="uni0209" unicode="&#x209;" horiz-adv-x="400" 
d="M66 0l179 1084h89l-179 -1084h-89zM408 1230l-96 290h101l73 -290h-78zM148 1230l-132 290h103l108 -290h-79z" />
    <glyph glyph-name="uni020A" unicode="&#x20a;" horiz-adv-x="463" 
d="M435 1490l-247 -1490h-93l247 1490h93zM458 1916q78 0 134 -34t82.5 -91.5t14.5 -129.5h-73q13 78 -36.5 130.5t-132.5 52.5t-150 -52.5t-81 -130.5h-73q13 72 58.5 129.5t112.5 91.5t144 34z" />
    <glyph glyph-name="uni020B" unicode="&#x20b;" horiz-adv-x="400" 
d="M66 0l179 1084h89l-179 -1084h-89zM359 1510q78 0 134 -34t82.5 -91.5t14.5 -129.5h-73q13 78 -36.5 130.5t-132.5 52.5t-150 -52.5t-81 -130.5h-73q13 72 58.5 129.5t112.5 91.5t144 34z" />
    <glyph glyph-name="uni020C" unicode="&#x20c;" horiz-adv-x="1489" 
d="M657 -21q-163 0 -281.5 73.5t-182.5 207t-64 311.5q0 175 53.5 342t155 302t243.5 215.5t319 80.5q162 0 280.5 -73.5t182.5 -206.5t64 -313q0 -173 -54 -340.5t-154.5 -302.5t-242.5 -215.5t-319 -80.5zM661 67q156 0 280.5 73.5t212.5 196t135 273t47 305.5
q0 158 -54 271.5t-152.5 175t-232.5 61.5q-157 0 -282 -73.5t-213.5 -196.5t-135.5 -273.5t-47 -305.5q0 -156 54 -270t153.5 -175.5t234.5 -61.5zM1020 1636l-96 290h101l73 -290h-78zM760 1636l-132 290h103l108 -290h-79z" />
    <glyph glyph-name="uni020D" unicode="&#x20d;" horiz-adv-x="1133" 
d="M479 -21q-122 0 -211.5 56t-137.5 155.5t-48 230.5q0 127 41 248.5t117.5 218.5t182 155t232.5 58q122 0 210.5 -56t137 -155.5t48.5 -231.5q0 -127 -41.5 -248.5t-117.5 -218.5t-181 -154.5t-232 -57.5zM481 62q109 0 197.5 51.5t152 137.5t97.5 192t34 215
q0 108 -36 189t-105 126t-168 45q-107 0 -195.5 -51t-152.5 -136.5t-99.5 -192t-35.5 -217.5q0 -161 81.5 -260t229.5 -99zM775 1230l-96 290h101l73 -290h-78zM515 1230l-132 290h103l108 -290h-79z" />
    <glyph glyph-name="uni020E" unicode="&#x20e;" horiz-adv-x="1489" 
d="M657 -21q-163 0 -281.5 73.5t-182.5 207t-64 311.5q0 175 53.5 342t155 302t243.5 215.5t319 80.5q162 0 280.5 -73.5t182.5 -206.5t64 -313q0 -173 -54 -340.5t-154.5 -302.5t-242.5 -215.5t-319 -80.5zM661 67q156 0 280.5 73.5t212.5 196t135 273t47 305.5
q0 158 -54 271.5t-152.5 175t-232.5 61.5q-157 0 -282 -73.5t-213.5 -196.5t-135.5 -273.5t-47 -305.5q0 -156 54 -270t153.5 -175.5t234.5 -61.5zM972 1916q78 0 134 -34t82.5 -91.5t14.5 -129.5h-73q13 78 -36.5 130.5t-132.5 52.5t-150 -52.5t-81 -130.5h-73
q13 72 58.5 129.5t112.5 91.5t144 34z" />
    <glyph glyph-name="uni020F" unicode="&#x20f;" horiz-adv-x="1133" 
d="M479 -21q-122 0 -211.5 56t-137.5 155.5t-48 230.5q0 127 41 248.5t117.5 218.5t182 155t232.5 58q122 0 210.5 -56t137 -155.5t48.5 -231.5q0 -127 -41.5 -248.5t-117.5 -218.5t-181 -154.5t-232 -57.5zM481 62q109 0 197.5 51.5t152 137.5t97.5 192t34 215
q0 108 -36 189t-105 126t-168 45q-107 0 -195.5 -51t-152.5 -136.5t-99.5 -192t-35.5 -217.5q0 -161 81.5 -260t229.5 -99zM727 1510q78 0 134 -34t82.5 -91.5t14.5 -129.5h-73q13 78 -36.5 130.5t-132.5 52.5t-150 -52.5t-81 -130.5h-73q13 72 58.5 129.5t112.5 91.5
t144 34z" />
    <glyph glyph-name="uni0210" unicode="&#x210;" horiz-adv-x="1247" 
d="M95 0l247 1490h487q138 0 231 -54.5t133 -152.5t18 -229q-22 -129 -94.5 -226.5t-184 -151.5t-248.5 -54h-436l15 85h430q111 0 201 43.5t149 122t76 183.5q27 160 -54 254.5t-247 94.5h-398l-232 -1405h-93zM973 0l-249 675h99l251 -675h-101zM895 1636l-96 290h101
l73 -290h-78zM635 1636l-132 290h103l108 -290h-79z" />
    <glyph glyph-name="uni0211" unicode="&#x211;" horiz-adv-x="634" 
d="M66 0l179 1084h87l-30 -182h4q51 88 144 140.5t203 52.5q13 0 22.5 -0.5t19.5 -0.5l-15 -89q-7 1 -19.5 2t-30.5 1q-88 0 -164.5 -38.5t-128 -108.5t-67.5 -163l-115 -698h-89zM601 1230l-96 290h101l73 -290h-78zM341 1230l-132 290h103l108 -290h-79z" />
    <glyph glyph-name="uni0212" unicode="&#x212;" horiz-adv-x="1247" 
d="M95 0l247 1490h487q138 0 231 -54.5t133 -152.5t18 -229q-22 -129 -94.5 -226.5t-184 -151.5t-248.5 -54h-436l15 85h430q111 0 201 43.5t149 122t76 183.5q27 160 -54 254.5t-247 94.5h-398l-232 -1405h-93zM973 0l-249 675h99l251 -675h-101zM847 1916q78 0 134 -34
t82.5 -91.5t14.5 -129.5h-73q13 78 -36.5 130.5t-132.5 52.5t-150 -52.5t-81 -130.5h-73q13 72 58.5 129.5t112.5 91.5t144 34z" />
    <glyph glyph-name="uni0213" unicode="&#x213;" horiz-adv-x="634" 
d="M66 0l179 1084h87l-30 -182h4q51 88 144 140.5t203 52.5q13 0 22.5 -0.5t19.5 -0.5l-15 -89q-7 1 -19.5 2t-30.5 1q-88 0 -164.5 -38.5t-128 -108.5t-67.5 -163l-115 -698h-89zM553 1510q78 0 134 -34t82.5 -91.5t14.5 -129.5h-73q13 78 -36.5 130.5t-132.5 52.5
t-150 -52.5t-81 -130.5h-73q13 72 58.5 129.5t112.5 91.5t144 34z" />
    <glyph glyph-name="uni0214" unicode="&#x214;" horiz-adv-x="1429" 
d="M627 -20q-161 0 -275.5 69.5t-166.5 189.5t-27 272l162 979h93l-162 -981q-22 -129 19.5 -228.5t134.5 -156.5t225 -57q137 0 251 58.5t190 160t98 229.5l161 975h92l-163 -986q-25 -152 -114.5 -270.5t-224 -186t-293.5 -67.5zM990 1636l-96 290h101l73 -290h-78z
M730 1636l-132 290h103l108 -290h-79z" />
    <glyph glyph-name="uni0215" unicode="&#x215;" horiz-adv-x="1138" 
d="M456 -16q-112 0 -193 47.5t-118 136.5t-16 212l116 704h89l-116 -700q-23 -145 48.5 -231t212.5 -86q95 0 177.5 40t139.5 113t73 173l114 691h89l-180 -1084h-87l41 248h21q-64 -135 -174 -199.5t-237 -64.5zM777 1230l-96 290h101l73 -290h-78zM517 1230l-132 290h103
l108 -290h-79z" />
    <glyph glyph-name="uni0216" unicode="&#x216;" horiz-adv-x="1429" 
d="M627 -20q-161 0 -275.5 69.5t-166.5 189.5t-27 272l162 979h93l-162 -981q-22 -129 19.5 -228.5t134.5 -156.5t225 -57q137 0 251 58.5t190 160t98 229.5l161 975h92l-163 -986q-25 -152 -114.5 -270.5t-224 -186t-293.5 -67.5zM941 1916q78 0 134 -34t82.5 -91.5
t14.5 -129.5h-73q13 78 -36.5 130.5t-132.5 52.5t-150 -52.5t-81 -130.5h-73q13 72 58.5 129.5t112.5 91.5t144 34z" />
    <glyph glyph-name="uni0217" unicode="&#x217;" horiz-adv-x="1138" 
d="M456 -16q-112 0 -193 47.5t-118 136.5t-16 212l116 704h89l-116 -700q-23 -145 48.5 -231t212.5 -86q95 0 177.5 40t139.5 113t73 173l114 691h89l-180 -1084h-87l41 248h21q-64 -135 -174 -199.5t-237 -64.5zM728 1510q78 0 134 -34t82.5 -91.5t14.5 -129.5h-73
q13 78 -36.5 130.5t-132.5 52.5t-150 -52.5t-81 -130.5h-73q13 72 58.5 129.5t112.5 91.5t144 34z" />
    <glyph glyph-name="uni0218" unicode="&#x218;" horiz-adv-x="1216" 
d="M518 -23q-146 0 -248 50.5t-149.5 141t-33.5 211.5h92q-9 -99 28.5 -170t118 -109t196.5 -38q122 0 221 41t163 115t80 171q13 75 -11.5 130t-89 96.5t-172.5 75.5l-162 51q-175 55 -253 146t-55 229q19 115 93 204t186 139.5t246 50.5q136 0 231 -52t140.5 -143.5
t31.5 -211.5h-90q13 145 -71.5 233t-246.5 88q-109 0 -201 -40t-152.5 -110.5t-76.5 -160.5q-11 -71 14.5 -126t87.5 -95t156 -69l158 -50q89 -28 155.5 -64t109.5 -82.5t59.5 -107t3.5 -136.5q-19 -119 -94 -211t-193.5 -144.5t-271.5 -52.5zM298 -494l154 376h93
l-177 -376h-70z" />
    <glyph glyph-name="uni0219" unicode="&#x219;" horiz-adv-x="979" 
d="M403 -20q-105 0 -181 33t-118.5 95t-45.5 150q-1 11 0 17.5t1 17.5l87 6q-5 -118 63 -178t195 -60q94 0 172 33.5t126 93t49 136.5q1 62 -42.5 98.5t-128.5 57.5l-172 43q-120 31 -181 90.5t-58 151.5q2 100 59.5 175t151 117.5t204.5 42.5q146 0 229 -69.5t93 -196.5
v-16.5v-18.5l-85 -7q0 110 -59 169t-179 59q-88 0 -161.5 -33t-118 -90t-45.5 -130q-1 -63 44 -102.5t137 -62.5l169 -42q117 -29 176.5 -86t56.5 -148q-2 -78 -37 -141.5t-96 -109.5t-139 -70.5t-166 -24.5zM183 -494l154 376h93l-177 -376h-70z" />
    <glyph glyph-name="uni021A.1" unicode="&#x21a;" horiz-adv-x="1249" 
d="M227 1405l15 85h1080l-15 -85h-493l-233 -1405h-92l233 1405h-495zM314 -494l154 376h93l-177 -376h-70z" />
    <glyph glyph-name="uni021B" unicode="&#x21b;" horiz-adv-x="539" 
d="M585 1084l-14 -81h-486l14 81h486zM314 1362h89l-187 -1134q-14 -84 17.5 -120.5t111.5 -29.5q16 0 35 1.5t36 2.5l-5 -80q-18 -2 -39.5 -3.5t-41.5 -2.5q-118 -8 -170.5 53t-33.5 173zM24 -494l154 376h93l-177 -376h-70z" />
    <glyph glyph-name="uni021C" unicode="&#x21c;" horiz-adv-x="1179" 
d="M149 358l14 84q186 53 340 122.5t269.5 154t185.5 182t87 205.5q24 146 -60 231t-249 85q-116 0 -210.5 -40.5t-155 -110.5t-75.5 -158h-100q20 118 97 207t195 139.5t259 50.5q139 0 236 -49t141.5 -139t22.5 -215q-21 -125 -103 -238t-214 -210t-305 -173.5
t-375 -127.5zM811 694l64 63q72 -38 114.5 -97.5t56 -143.5t-5.5 -194q-25 -150 -96 -263.5t-194.5 -200.5t-305 -157.5t-427.5 -136.5l15 90q225 61 387 125.5t270 142t168.5 176t82.5 229.5q23 141 -9.5 233t-119.5 134z" />
    <glyph glyph-name="uni021D" unicode="&#x21d;" horiz-adv-x="997" 
d="M118 245l15 82q182 28 328.5 96.5t239 168t109.5 219.5q16 106 -40.5 172t-181.5 66q-85 0 -158 -32t-122.5 -90t-62.5 -139h-98q18 106 80.5 183.5t157 120t209.5 41.5q168 1 253.5 -88t60.5 -235q-22 -140 -132 -257.5t-280.5 -198t-377.5 -109.5zM632 480l67 56
q82 -58 113 -152t7 -231q-43 -266 -241.5 -411t-571.5 -178l13 85q219 23 366 85.5t229.5 167.5t107.5 255q19 115 -4.5 196.5t-85.5 126.5z" />
    <glyph glyph-name="uni021E" unicode="&#x21e;" horiz-adv-x="1451" 
d="M95 0l247 1490h94l-114 -686h895l114 686h92l-247 -1490h-92l119 719h-895l-119 -719h-94zM765 1935l157 -212l227 212h97l-1 -3l-297 -273h-76l-204 273l1 3h96z" />
    <glyph glyph-name="uni021F" unicode="&#x21f;" horiz-adv-x="1137" 
d="M268 691l-114 -691h-89l247 1490h89l-109 -654h-22q43 90 106 148.5t140.5 87t161.5 28.5q113 0 194.5 -48t119 -136t17.5 -212l-117 -704h-89l116 699q25 146 -47.5 231.5t-213.5 85.5q-95 0 -177.5 -39.5t-139 -113t-73.5 -172.5zM238 1935l157 -212l227 212h97l-1 -3
l-297 -273h-76l-204 273l1 3h96z" />
    <glyph glyph-name="uni0220" unicode="&#x220;" horiz-adv-x="1080" 
d="M845 -417h-100l231 1390q39 241 -38.5 345t-292.5 105q-106 -1 -198.5 -25.5t-169.5 -73.5l-2 83q51 31 112 54.5t129.5 36t144.5 12.5q160 0 262.5 -57t142 -176.5t8.5 -306.5zM330 1490l-246 -1490h-100l248 1490h98z" />
    <glyph glyph-name="uni0221" unicode="&#x221;" horiz-adv-x="1487" 
d="M1041 -413q-87 0 -142.5 36.5t-78 98.5t-9.5 137l43 262h89l-44 -268q-15 -87 30.5 -136t125.5 -49q75 0 132.5 43.5t69.5 114.5q12 69 -30.5 113t-115.5 46q-50 2 -98.5 -19.5t-102 -69.5t-119.5 -127l-160 -161l-55 55l145 147q119 138 214 197t187 59q113 0 178 -66
t48 -174q-18 -107 -104 -173t-203 -66zM459 -20q-175 0 -276.5 117.5t-101.5 313.5q0 128 39 250.5t111.5 221.5t174.5 158t227 59q94 0 164.5 -35t114 -95t55.5 -135h5l108 655h89l-246 -1490h-88l40 241h-5q-39 -75 -100.5 -134.5t-140.5 -93t-170 -33.5zM470 63
q110 0 197 53t147.5 141t92 195.5t31.5 215.5q0 160 -78 254.5t-220 94.5q-109 0 -196 -52t-148 -139.5t-93.5 -194t-32.5 -216.5q0 -161 80 -256.5t220 -95.5z" />
    <glyph glyph-name="uni0222" unicode="&#x222;" horiz-adv-x="1144" 
d="M604 848h31q162 0 269.5 -49.5t154.5 -146t25 -234.5q-24 -148 -104 -245t-206 -145t-291 -48h-16q-159 0 -269.5 49t-159.5 146.5t-26 240.5q24 143 101 239t201.5 144.5t289.5 48.5zM621 764h-31q-209 0 -328.5 -88t-148.5 -261q-29 -174 66.5 -260t301.5 -86h18
q204 0 329 85.5t153 262.5q29 170 -62.5 258.5t-297.5 88.5zM601 853h38q124 0 219 30t155 96.5t77 173.5q20 121 -28.5 189.5t-146.5 87.5l14 85q89 -10 154.5 -54.5t95.5 -121t12 -185.5q-22 -135 -98.5 -220t-196.5 -125t-272 -40h-37q-111 0 -199.5 22.5t-148 69.5
t-84 119.5t-7.5 173.5q18 108 69 182.5t127 117.5t167 56l-15 -87q-97 -21 -162.5 -87.5t-85.5 -182.5q-17 -108 20.5 -174t123 -96t209.5 -30z" />
    <glyph glyph-name="uni0223" unicode="&#x223;" horiz-adv-x="1180" 
d="M603 846h67q161 0 269 -48.5t155 -143.5t24 -234q-24 -143 -104.5 -241t-206.5 -148.5t-288 -50.5h-52q-159 0 -269 51t-159 149t-26 240q25 142 102 236.5t201 142.5t287 47zM656 764h-66q-203 0 -326.5 -87.5t-151.5 -257.5q-29 -174 67.5 -264t300.5 -90h55
q200 0 327 91t156 264q29 172 -64 258t-298 86zM685 850q122 0 218.5 35t157.5 107t79 181q21 129 -23 203t-150 100l14 80q95 -11 159.5 -59.5t91 -130.5t7.5 -193q-23 -136 -100 -226t-197 -134.5t-272 -45.5h-92q-149 1 -255 46.5t-154.5 135.5t-26.5 224
q19 112 68.5 191t125 126t171.5 61l-14 -84q-102 -27 -166.5 -99t-84.5 -195q-19 -112 18 -183.5t121.5 -105.5t209.5 -34h94z" />
    <glyph glyph-name="uni0224" unicode="&#x224;" horiz-adv-x="1196" 
d="M624 -418l13 83q18 0 40 -0.5t35 -0.5q72 0 109 31.5t49 103.5l33 201h92l-34 -203q-18 -110 -82.5 -163t-171.5 -53h-43t-40 1zM27 0l13 75l1068 1329h-847l14 86h962l-13 -77l-1069 -1328h854l-14 -85h-968z" />
    <glyph glyph-name="uni0225" unicode="&#x225;" horiz-adv-x="1006" 
d="M756 -205l6 36q14 82 -11.5 125.5t-108.5 43.5h-620l13 75l806 920l1 5h-635l14 84h747l-13 -79l-800 -917l-1 -4h500q115 0 164 -62t31 -172l-9 -55h-84z" />
    <glyph glyph-name="uni0226" unicode="&#x226;" horiz-adv-x="1296" 
d="M-51 0l800 1490h112l307 -1490h-93l-216 1067q-15 80 -33 173.5t-37 209.5h27q-57 -115 -104.5 -208t-92.5 -175l-568 -1067h-102zM266 468l14 85h740l-14 -85h-740zM846 1732q-29 0 -46.5 21t-12.5 50q4 29 29 49.5t54 20.5q30 0 47 -20.5t13 -49.5q-5 -29 -29.5 -50
t-54.5 -21z" />
    <glyph glyph-name="uni0227" unicode="&#x227;" horiz-adv-x="1168" 
d="M454 -20q-134 0 -225 70.5t-128 197t-9 293.5q27 165 106 291.5t193.5 197t247.5 70.5q93 0 162 -34.5t112 -94t55 -134.5h5l41 247h88l-179 -1084h-88l40 242h-6q-38 -74 -101 -133.5t-142.5 -94t-171.5 -34.5zM474 63q113 0 207 60.5t158 168t87 249.5q24 142 -3 249.5
t-99.5 167t-185.5 59.5q-112 0 -207 -59.5t-160.5 -167t-89.5 -249.5q-23 -143 5.5 -250.5t102 -167.5t185.5 -60zM695 1326q-29 0 -46.5 21t-12.5 50q4 29 29 49.5t54 20.5q30 0 47 -20.5t13 -49.5q-5 -29 -29.5 -50t-54.5 -21z" />
    <glyph glyph-name="uni0228" unicode="&#x228;" horiz-adv-x="1180" 
d="M95 0l247 1490h884l-15 -86h-790l-100 -606h731l-14 -85h-731l-104 -628h798l-14 -85h-892zM374 -418l11 65h104q60 0 96 25t43 71q8 46 -19 71.5t-92 25.5h-66l67 188h55v-28l-32 -97q89 -3 131.5 -44.5t30.5 -114.5q-13 -78 -72 -120t-152 -42h-105z" />
    <glyph glyph-name="uni0229" unicode="&#x229;" horiz-adv-x="1081" 
d="M483 -19q-121 0 -211 52t-140 149t-50 233q0 142 43.5 267t122.5 219.5t186.5 147.5t235.5 53q107 0 182 -37t114 -103t39 -152q0 -106 -59 -169t-170 -95t-270 -42.5t-359 -10.5l8 77q186 0 328 7.5t238.5 31t145.5 71.5t49 129q0 94 -64 152t-188 58q-115 0 -206.5 -50
t-156 -135.5t-98 -194t-33.5 -226.5q0 -103 35.5 -181.5t106.5 -123t175 -44.5q124 0 224 62t153 161l85 -16q-61 -128 -185 -209t-281 -81zM310 -418l11 65h104q60 0 96 25t43 71q8 46 -19 71.5t-92 25.5h-66l67 188h55v-28l-32 -97q89 -3 131.5 -44.5t30.5 -114.5
q-13 -78 -72 -120t-152 -42h-105z" />
    <glyph glyph-name="uni022A" unicode="&#x22a;" horiz-adv-x="1489" 
d="M657 -21q-163 0 -281.5 73.5t-182.5 207t-64 311.5q0 175 53.5 342t155 302t243.5 215.5t319 80.5q162 0 280.5 -73.5t182.5 -206.5t64 -313q0 -173 -54 -340.5t-154.5 -302.5t-242.5 -215.5t-319 -80.5zM661 67q156 0 280.5 73.5t212.5 196t135 273t47 305.5
q0 158 -54 271.5t-152.5 175t-232.5 61.5q-157 0 -282 -73.5t-213.5 -196.5t-135.5 -273.5t-47 -305.5q0 -156 54 -270t153.5 -175.5t234.5 -61.5zM1144 1692q-29 0 -46 21t-13 50q5 29 29.5 49.5t53.5 20.5t46 -20.5t12 -49.5t-29 -50t-53 -21zM735 1692q-29 0 -46 21
t-13 50q5 29 29.5 49.5t53.5 20.5t45.5 -20.5t12.5 -49.5q-5 -29 -29 -50t-53 -21zM1256 2082l-14 -73h-494l13 73h495z" />
    <glyph glyph-name="uni022B" unicode="&#x22b;" horiz-adv-x="1133" 
d="M479 -21q-122 0 -211.5 56t-137.5 155.5t-48 230.5q0 127 41 248.5t117.5 218.5t182 155t232.5 58q122 0 210.5 -56t137 -155.5t48.5 -231.5q0 -127 -41.5 -248.5t-117.5 -218.5t-181 -154.5t-232 -57.5zM481 62q109 0 197.5 51.5t152 137.5t97.5 192t34 215
q0 108 -36 189t-105 126t-168 45q-107 0 -195.5 -51t-152.5 -136.5t-99.5 -192t-35.5 -217.5q0 -161 81.5 -260t229.5 -99zM899 1286q-29 0 -46 21t-13 50q5 29 29.5 49.5t53.5 20.5t46 -20.5t12 -49.5t-29 -50t-53 -21zM490 1286q-29 0 -46 21t-13 50q5 29 29.5 49.5
t53.5 20.5t45.5 -20.5t12.5 -49.5q-5 -29 -29 -50t-53 -21zM1011 1676l-14 -73h-494l13 73h495z" />
    <glyph glyph-name="uni022C" unicode="&#x22c;" horiz-adv-x="1489" 
d="M657 -21q-163 0 -281.5 73.5t-182.5 207t-64 311.5q0 175 53.5 342t155 302t243.5 215.5t319 80.5q162 0 280.5 -73.5t182.5 -206.5t64 -313q0 -173 -54 -340.5t-154.5 -302.5t-242.5 -215.5t-319 -80.5zM661 67q156 0 280.5 73.5t212.5 196t135 273t47 305.5
q0 158 -54 271.5t-152.5 175t-232.5 61.5q-157 0 -282 -73.5t-213.5 -196.5t-135.5 -273.5t-47 -305.5q0 -156 54 -270t153.5 -175.5t234.5 -61.5zM1062 1670q-40 0 -70 16t-54.5 37t-48.5 37t-54 16q-41 0 -70.5 -28t-40.5 -72h-72q17 75 66.5 124t118.5 49q44 0 74 -16
t53.5 -37t46 -37.5t51.5 -16.5q37 0 63.5 23.5t44.5 75.5h72q-22 -79 -70 -125t-110 -46zM1256 2082l-13 -73h-495l13 73h495z" />
    <glyph glyph-name="uni022D" unicode="&#x22d;" horiz-adv-x="1133" 
d="M479 -21q-122 0 -211.5 56t-137.5 155.5t-48 230.5q0 127 41 248.5t117.5 218.5t182 155t232.5 58q122 0 210.5 -56t137 -155.5t48.5 -231.5q0 -127 -41.5 -248.5t-117.5 -218.5t-181 -154.5t-232 -57.5zM481 62q109 0 197.5 51.5t152 137.5t97.5 192t34 215
q0 108 -36 189t-105 126t-168 45q-107 0 -195.5 -51t-152.5 -136.5t-99.5 -192t-35.5 -217.5q0 -161 81.5 -260t229.5 -99zM817 1264q-40 0 -70 16t-54.5 37t-48.5 37t-54 16q-41 0 -70.5 -28t-40.5 -72h-72q17 75 66.5 124t118.5 49q44 0 74 -16t53.5 -37t46 -37.5
t51.5 -16.5q37 0 63.5 23.5t44.5 75.5h72q-22 -79 -70 -125t-110 -46zM1011 1676l-13 -73h-495l13 73h495z" />
    <glyph glyph-name="uni022E" unicode="&#x22e;" horiz-adv-x="1489" 
d="M657 -21q-163 0 -281.5 73.5t-182.5 207t-64 311.5q0 175 53.5 342t155 302t243.5 215.5t319 80.5q162 0 280.5 -73.5t182.5 -206.5t64 -313q0 -173 -54 -340.5t-154.5 -302.5t-242.5 -215.5t-319 -80.5zM661 67q156 0 280.5 73.5t212.5 196t135 273t47 305.5
q0 158 -54 271.5t-152.5 175t-232.5 61.5q-157 0 -282 -73.5t-213.5 -196.5t-135.5 -273.5t-47 -305.5q0 -156 54 -270t153.5 -175.5t234.5 -61.5zM942 1732q-29 0 -46.5 21t-12.5 50q4 29 29 49.5t54 20.5q30 0 47 -20.5t13 -49.5q-5 -29 -29.5 -50t-54.5 -21z" />
    <glyph glyph-name="uni022F" unicode="&#x22f;" horiz-adv-x="1133" 
d="M479 -21q-122 0 -211.5 56t-137.5 155.5t-48 230.5q0 127 41 248.5t117.5 218.5t182 155t232.5 58q122 0 210.5 -56t137 -155.5t48.5 -231.5q0 -127 -41.5 -248.5t-117.5 -218.5t-181 -154.5t-232 -57.5zM481 62q109 0 197.5 51.5t152 137.5t97.5 192t34 215
q0 108 -36 189t-105 126t-168 45q-107 0 -195.5 -51t-152.5 -136.5t-99.5 -192t-35.5 -217.5q0 -161 81.5 -260t229.5 -99zM696 1326q-29 0 -46.5 21t-12.5 50q4 29 29 49.5t54 20.5q30 0 47 -20.5t13 -49.5q-5 -29 -29.5 -50t-54.5 -21z" />
    <glyph glyph-name="uni0230" unicode="&#x230;" horiz-adv-x="1489" 
d="M657 -21q-163 0 -281.5 73.5t-182.5 207t-64 311.5q0 175 53.5 342t155 302t243.5 215.5t319 80.5q162 0 280.5 -73.5t182.5 -206.5t64 -313q0 -173 -54 -340.5t-154.5 -302.5t-242.5 -215.5t-319 -80.5zM661 67q156 0 280.5 73.5t212.5 196t135 273t47 305.5
q0 158 -54 271.5t-152.5 175t-232.5 61.5q-157 0 -282 -73.5t-213.5 -196.5t-135.5 -273.5t-47 -305.5q0 -156 54 -270t153.5 -175.5t234.5 -61.5zM936 1692q-29 0 -46.5 21t-13.5 50q5 29 29.5 49.5t54.5 20.5q29 0 46.5 -20.5t12.5 -49.5q-4 -30 -28.5 -50.5t-54.5 -20.5z
M1256 2082l-13 -73h-495l14 73h494z" />
    <glyph glyph-name="uni0231" unicode="&#x231;" horiz-adv-x="1133" 
d="M479 -21q-122 0 -211.5 56t-137.5 155.5t-48 230.5q0 127 41 248.5t117.5 218.5t182 155t232.5 58q122 0 210.5 -56t137 -155.5t48.5 -231.5q0 -127 -41.5 -248.5t-117.5 -218.5t-181 -154.5t-232 -57.5zM481 62q109 0 197.5 51.5t152 137.5t97.5 192t34 215
q0 108 -36 189t-105 126t-168 45q-107 0 -195.5 -51t-152.5 -136.5t-99.5 -192t-35.5 -217.5q0 -161 81.5 -260t229.5 -99zM691 1286q-29 0 -46.5 21t-13.5 50q5 29 29.5 49.5t54.5 20.5q29 0 46.5 -20.5t12.5 -49.5q-4 -30 -28.5 -50.5t-54.5 -20.5zM1011 1676l-13 -73
h-495l14 73h494z" />
    <glyph glyph-name="uni0232" unicode="&#x232;" horiz-adv-x="1290" 
d="M509 0l112 675l-426 815h101l258 -493q36 -68 68.5 -134.5t65.5 -139.5h-38q56 73 111.5 140t111.5 134l420 493h116l-696 -815l-111 -675h-93zM1107 1836l-13 -78h-495l14 78h494z" />
    <glyph glyph-name="uni0233" unicode="&#x233;" horiz-adv-x="1064" 
d="M-30 -410l26 80l57 -2q52 -10 94.5 1t80 50t77.5 110l91 165l-250 1090h91l159 -710q18 -81 33.5 -162t30.5 -162h-27q42 81 84.5 162t87.5 162l393 710h100l-719 -1286q-43 -77 -88.5 -125.5t-98 -71.5t-116.5 -23q-30 0 -54.5 3.5t-51.5 8.5zM925 1430l-13 -78h-495
l14 78h494z" />
    <glyph glyph-name="uni0234" unicode="&#x234;" horiz-adv-x="719" 
d="M273 -413q-87 0 -142.5 36.5t-78 98.5t-10.5 137l43 262h89l-44 -268q-14 -87 31.5 -136t124.5 -49q76 0 133 43.5t69 114.5q12 69 -30.5 113t-115.5 46q-49 2 -97.5 -19.5t-102 -69.5t-119.5 -127l-161 -161l-55 55l146 147q118 138 213.5 197t187.5 59q112 0 177.5 -66
t47.5 -174q-17 -107 -103 -173t-203 -66zM401 1490l-247 -1490h-89l247 1490h89z" />
    <glyph glyph-name="uni0235" unicode="&#x235;" horiz-adv-x="1457" 
d="M1011 -413q-87 0 -142.5 36.5t-78 98.5t-9.5 137l42 262h89l-44 -268q-14 -87 31.5 -136t124.5 -49q76 0 133 43.5t70 114.5q11 69 -31.5 113t-115.5 46q-49 2 -97.5 -19.5t-102 -69.5t-119.5 -127l-161 -161l-54 55l145 147q118 138 213.5 197t187.5 59q112 0 177.5 -66
t48.5 -174q-18 -107 -104 -173t-203 -66zM268 688l-114 -688h-88l179 1084h87l-41 -248l-21 2q64 135 175 198.5t237 63.5q114 0 194.5 -48.5t116.5 -137.5t15 -213l-116 -701h-88l116 702q24 146 -45.5 230t-208.5 84q-97 0 -181.5 -40.5t-142 -114.5t-74.5 -173z" />
    <glyph glyph-name="uni0236" unicode="&#x236;" horiz-adv-x="756" 
d="M355 -17q-88 0 -143.5 36.5t-77.5 98t-10 137.5l43 262h89l-44 -268q-15 -87 31 -136.5t125 -49.5q76 0 133 44t69 115q12 69 -30.5 112.5t-115.5 46.5q-49 2 -97.5 -19.5t-102 -69.5t-119.5 -128l-161 -160l-55 55l146 147q118 138 213.5 197t186.5 59
q113 0 178.5 -66.5t47.5 -173.5q-17 -107 -103 -173t-203 -66zM147 396l163 981h88l-162 -981h-89zM89 1026l13 81h481l-13 -81h-481z" />
    <glyph glyph-name="uni0237" unicode="&#x237;" horiz-adv-x="403" 
d="M249 1084h89l-204 -1231q-14 -83 -59 -144t-111.5 -94t-144.5 -33h-31l13 83h28q78 0 140 50.5t77 142.5z" />
    <glyph glyph-name="uni0238" unicode="&#x238;" horiz-adv-x="1723" 
d="M1665 559l-3 -24q-27 -165 -100 -291t-178 -196t-231 -71q-70 0 -127 23t-100.5 66t-73 104.5t-42.5 138.5l81 493q52 104 122.5 178t155 114t178.5 39q125 1 205.5 -70t111 -200t1.5 -304zM1563 535l4 24q24 146 4 255.5t-82 170.5t-167 61q-115 0 -219 -69.5
t-170 -177.5l-80 -486q23 -72 65.5 -128t103.5 -87.5t137 -31.5q105 0 187.5 59.5t138.5 165.5t78 244zM754 201l213 1289h99l-247 -1490h-88zM54 535l4 25q27 177 100.5 305.5t179 198.5t230.5 69q94 1 165 -39t117 -114t62 -178l-81 -493q-51 -103 -121.5 -177
t-154.5 -114t-177 -41q-124 1 -206 71t-113 195.5t-5 291.5zM157 559l-4 -23q-24 -138 -3.5 -244.5t84.5 -166t168 -59.5q114 -1 216 69t171 178l81 486q-20 72 -63 127.5t-104.5 87.5t-137.5 32q-105 0 -187.5 -61t-138 -170.5t-82.5 -255.5z" />
    <glyph glyph-name="uni0239" unicode="&#x239;" horiz-adv-x="1723" 
d="M651 -416l221 1333l44 201h78l-23 -201l-221 -1333h-99zM54 535l4 25q27 177 100.5 305.5t179 198.5t230.5 69q94 1 165 -38.5t117 -114t62 -178.5l-81 -493q-51 -103 -121.5 -177t-154.5 -114t-177 -41q-124 1 -206 71t-113 195.5t-5 291.5zM157 559l-4 -23
q-24 -138 -3.5 -244.5t84.5 -166t168 -59.5q113 -1 215 68.5t172 178.5l81 486q-20 72 -63.5 128t-104.5 87.5t-137 31.5q-105 0 -187.5 -61.5t-138 -171t-82.5 -254.5zM1665 559l-3 -24q-27 -165 -100 -291t-178 -196t-231 -71q-70 0 -127 23t-100.5 66t-73 104.5
t-42.5 138.5l81 493q52 103 122 177.5t155 114.5t179 39q125 1 205.5 -70t111 -200t1.5 -304zM1563 535l4 24q24 146 4 255.5t-82 170.5t-167 61q-115 0 -219 -69.5t-170 -177.5l-80 -486q23 -72 65.5 -128.5t103.5 -87.5t137 -31q105 0 187.5 59.5t138.5 165.5t78 244z" />
    <glyph glyph-name="uni023A" unicode="&#x23a;" horiz-adv-x="1296" 
d="M1203 1678l-973 -1868h-89l973 1868h89zM-51 0l800 1490h112l307 -1490h-93l-216 1067q-15 80 -33 173.5t-37 209.5h27q-57 -115 -104.5 -208t-92.5 -175l-568 -1067h-102zM266 468l14 85h740l-14 -85h-740z" />
    <glyph glyph-name="uni023B" unicode="&#x23b;" horiz-adv-x="1435" 
d="M206 -190l1012 1868h89l-1013 -1868h-88zM659 -21q-164 0 -283 73t-183 206t-64 313q0 174 53.5 341.5t155 302.5t244 215.5t320.5 80.5q127 0 222 -41.5t158 -112t94.5 -157.5t32.5 -179h-92q-4 77 -31 149t-79 129t-129 90.5t-179 33.5q-152 0 -277 -71.5t-215 -192.5
t-139 -273t-49 -314q0 -163 57.5 -276t157.5 -171t229 -58q104 0 194 33.5t162 90.5t124.5 129t81.5 149h93q-31 -91 -90.5 -178t-144.5 -157.5t-191.5 -112.5t-232.5 -42z" />
    <glyph glyph-name="uni023C" unicode="&#x23c;" horiz-adv-x="1073" 
d="M0 -418l1024 1922h78l-1023 -1922h-79zM480 -19q-129 0 -221 62t-137.5 171.5t-36.5 251.5q8 124 52.5 238t120 203.5t176 141.5t220.5 52q87 0 154.5 -28t114 -74t72 -102.5t28.5 -114.5l-87 -12q-3 45 -22 89t-54 80t-86.5 57.5t-121.5 21.5q-102 0 -186.5 -46
t-147.5 -124.5t-100 -178t-44 -207.5q-9 -118 25 -207.5t105.5 -140t176.5 -50.5q71 0 132.5 22.5t110.5 59.5t84 81.5t53 90.5l87 -17q-22 -58 -65.5 -115t-104.5 -103t-136.5 -74t-161.5 -28z" />
    <glyph glyph-name="uni023D" unicode="&#x23d;" horiz-adv-x="1126" 
d="M118 0l247 1490h94l-233 -1405h740l-14 -85h-834zM59 704l13 82h622l-14 -82h-621z" />
    <glyph glyph-name="uni023E" unicode="&#x23e;" horiz-adv-x="1249" 
d="M106 -190l1013 1868h85l-1011 -1868h-87zM227 1405l15 85h1080l-15 -85h-493l-233 -1405h-92l233 1405h-495z" />
    </font>
</defs>
</svg>
