<?xml version="1.0" standalone="no"?>
<!DOCTYPE svg PUBLIC "-//W3C//DTD SVG 1.1//EN" "http://www.w3.org/Graphics/SVG/1.1/DTD/svg11.dtd" >
<svg xmlns="http://www.w3.org/2000/svg" xmlns:xlink="http://www.w3.org/1999/xlink" version="1.1">
<metadata>
Created by FontForge 20201107 at Fri May 24 21:06:22 2024
 By 
Copyright 2016 The Inter Project Authors (https://github.com/rsms/inter)
</metadata>
<defs>
<font id="Inter28pt-BlackItalic" horiz-adv-x="0" >
  <font-face 
    font-family="Inter 28pt Black"
    font-weight="900"
    font-style="italic"
    font-stretch="normal"
    units-per-em="2048"
    panose-1="2 0 5 3 0 0 0 2 0 4"
    ascent="1638"
    descent="-410"
    x-height="1070"
    cap-height="1490"
    bbox="-1722 -701 5312 2308"
    underline-thickness="254"
    underline-position="-263"
    slope="-9.3988"
    unicode-range="U+0020-1F852"
  />
<missing-glyph horiz-adv-x="1344" 
d="M859 -416h-688l376 2272h688zM392 -192l-10 -64h320l10 64h-215l236 127l11 65h-320l-11 -64h216zM477 320l-42 -256h320l42 256h-320zM701 128h-192l21 128h192zM541 704l-43 -256h320l43 256h-192l-22 -128h64l11 64h64l-21 -128h-192l32 192h-64zM562 832l-11 -64h320
l37 224h-64l-26 -160h-256zM583 960l-11 -64h192l27 160h128l10 64h-320l-10 -64h128l-16 -96h-128zM759 1248h-64l15 96h64zM657 1408l-37 -224h320l11 64h-128l26 160h-192zM678 1536l-10 -64h320l10 64h-144l16 96h144l11 64h-320l-11 -64h112l-16 -96h-112z" />
    <glyph glyph-name=".notdef" horiz-adv-x="1344" 
d="M859 -416h-688l376 2272h688zM392 -192l-10 -64h320l10 64h-215l236 127l11 65h-320l-11 -64h216zM477 320l-42 -256h320l42 256h-320zM701 128h-192l21 128h192zM541 704l-43 -256h320l43 256h-192l-22 -128h64l11 64h64l-21 -128h-192l32 192h-64zM562 832l-11 -64h320
l37 224h-64l-26 -160h-256zM583 960l-11 -64h192l27 160h128l10 64h-320l-10 -64h128l-16 -96h-128zM759 1248h-64l15 96h64zM657 1408l-37 -224h320l11 64h-128l26 160h-192zM678 1536l-10 -64h320l10 64h-144l16 96h144l11 64h-320l-11 -64h112l-16 -96h-112z" />
    <glyph glyph-name=".null" horiz-adv-x="1200" 
 />
    <glyph glyph-name="nonmarkingreturn" horiz-adv-x="682" 
 />
    <glyph glyph-name="space" unicode=" " horiz-adv-x="383" 
 />
    <glyph glyph-name="exclam" unicode="!" horiz-adv-x="602" 
d="M114 471l133 1019h424l-205 -1019h-352zM225 -20q-94 0 -150 68.5t-40 164.5q13 77 75.5 129t142.5 52q94 0 149.5 -68.5t39.5 -164.5q-13 -76 -75.5 -128.5t-141.5 -52.5z" />
    <glyph glyph-name="quotedbl" unicode="&#x22;" horiz-adv-x="1130" 
d="M224 868l68 622h357l-138 -622h-287zM729 868l68 622h357l-138 -622h-287z" />
    <glyph glyph-name="numbersign" unicode="#" horiz-adv-x="1331" 
d="M596 0l441 1490h292l-443 -1490h-290zM-20 340l89 292h1198l-88 -292h-1199zM72 0l441 1490h292l-442 -1490h-291zM134 858l88 292h1198l-88 -292h-1198z" />
    <glyph glyph-name="dollar" unicode="$" horiz-adv-x="1394" 
d="M491 -211l317 1912h193l-317 -1912h-193zM632 -23q-207 0 -345 61t-197.5 178.5t-32.5 285.5h391q-7 -62 17 -105.5t76 -67t127 -23.5q66 0 117 16.5t82 46t37 67.5q6 36 -12.5 63t-66 48t-128.5 36l-144 29q-204 41 -303 156t-70 290q23 136 113 238.5t231 159.5t317 57
q186 0 315 -59.5t189 -170t38 -264.5h-383q5 80 -42.5 122.5t-143.5 42.5q-59 0 -105.5 -16t-75 -44t-34.5 -65q-6 -35 10.5 -61t59 -45t115.5 -33l117 -23q124 -25 209.5 -64.5t136 -96t67 -130.5t2.5 -166q-24 -149 -112 -252.5t-232 -157t-340 -53.5z" />
    <glyph glyph-name="percent" unicode="%" horiz-adv-x="2097" 
d="M528 709q-109 0 -184.5 47.5t-108.5 133.5t-14 200l7 41q19 115 80.5 201t153 134t200.5 48q111 0 187 -48t108.5 -134t13.5 -201l-7 -41q-19 -114 -80 -200t-153 -133.5t-203 -47.5zM566 937q53 0 88.5 38.5t47.5 114.5l7 41q13 77 -9 117t-76 40q-52 0 -87 -40.5
t-47 -116.5l-7 -41q-12 -76 10 -114.5t73 -38.5zM1502 -24q-109 0 -185 47.5t-108.5 133.5t-13.5 200l6 41q20 115 81.5 201t153 134t200.5 48q110 0 186 -48t109 -134t14 -201l-7 -41q-19 -115 -80.5 -200.5t-153.5 -133t-202 -47.5zM1540 204q53 0 88 38.5t48 114.5l7 41
q12 76 -10 116.5t-75 40.5q-52 0 -87 -40.5t-47 -116.5l-7 -41q-13 -76 9.5 -114.5t73.5 -38.5zM320 0l1271 1490h253l-1271 -1490h-253z" />
    <glyph glyph-name="ampersand" unicode="&#x26;" horiz-adv-x="1393" 
d="M494 -24q-166 0 -276.5 60.5t-159.5 162t-29 223.5q13 77 52.5 137t103 112.5t147.5 104.5l375 209q44 24 70.5 45.5t39 42t12.5 42.5q0 36 -29 58.5t-78 22.5q-37 0 -68.5 -14.5t-50.5 -42.5t-19 -71q0 -32 13.5 -70.5t45.5 -90t87 -123.5l599 -784h-393l-493 650
q-36 48 -80.5 118t-70.5 160t-8 198q18 107 83.5 194.5t167.5 139.5t227 52q131 0 217.5 -55t123.5 -147t18 -202q-11 -66 -41 -125.5t-79.5 -111.5t-120.5 -97l-347 -218q-65 -41 -94.5 -79t-29.5 -85q0 -32 14 -55t41 -35t65 -12q81 0 166 39.5t160.5 108t129 156
t69.5 182.5h318q-21 -133 -66 -254.5t-118.5 -221.5t-180.5 -168l-122 -51q-99 -58 -202 -81.5t-189 -23.5z" />
    <glyph glyph-name="quotesingle" unicode="'" horiz-adv-x="625" 
d="M224 868l68 622h357l-138 -622h-287z" />
    <glyph glyph-name="parenleft" unicode="(" horiz-adv-x="749" 
d="M113 595q29 178 88.5 359.5t139 342t167.5 272.5h378q-82 -140 -155.5 -303t-129 -334t-82.5 -337q-24 -144 -23.5 -280t22 -283t60.5 -323h-378q-83 192 -105 418t18 468z" />
    <glyph glyph-name="parenright" unicode=")" horiz-adv-x="745" 
d="M-103 -294q92 170 162 315.5t117 284t72 286.5q28 169 29 341.5t-18.5 334t-53.5 298.5h382q49 -111 73.5 -270.5t22.5 -341.5t-31 -362q-41 -246 -136 -472t-237 -414h-382z" />
    <glyph glyph-name="asterisk" unicode="*" horiz-adv-x="1221" 
d="M513 652l66 256l-237 -148l-83 202l251 108l-216 108l151 204l188 -148l18 256h233l-65 -256l236 148l83 -204l-250 -108l215 -108l-151 -202l-187 148l-20 -256h-232z" />
    <glyph glyph-name="plus" unicode="+" horiz-adv-x="1395" 
d="M457 66l178 1078h326l-178 -1078h-326zM144 442l54 326h1076l-54 -326h-1076z" />
    <glyph glyph-name="comma" unicode="," horiz-adv-x="593" 
d="M-92 -357l170 622h373l-271 -622h-272z" />
    <glyph glyph-name="hyphen" unicode="-" horiz-adv-x="947" 
d="M854 725l-50 -302h-698l50 302h698z" />
    <glyph glyph-name="period" unicode="." horiz-adv-x="593" 
d="M225 -20q-94 0 -150 68.5t-40 164.5q13 77 75.5 129t142.5 52q94 0 149.5 -68.5t39.5 -164.5q-13 -76 -75.5 -128.5t-141.5 -52.5z" />
    <glyph glyph-name="slash" unicode="/" horiz-adv-x="819" 
d="M989 1560l-774 -1784h-340l774 1784h340z" />
    <glyph glyph-name="zero" unicode="0" horiz-adv-x="1409" 
d="M613 -23q-206 0 -338 92.5t-182 264t-11 410.5q40 239 146.5 411.5t269.5 265t369 92.5q207 0 339 -92.5t182 -265t10 -411.5q-39 -239 -146 -411t-269.5 -264t-369.5 -92zM666 299q82 0 149 53t114 153t70 239q24 140 9 240t-63.5 154t-130.5 54q-81 0 -148 -54
t-115 -154t-71 -240q-23 -139 -8.5 -239t64 -153t130.5 -53z" />
    <glyph glyph-name="one" unicode="1" horiz-adv-x="864" 
d="M938 1490l-247 -1490h-401l187 1129h-4l-364 -207l57 344l396 224h376z" />
    <glyph glyph-name="two" unicode="2" horiz-adv-x="1298" 
d="M-9 0l48 290l635 454q49 35 101 74.5t92 88t50 108.5q9 56 -8 96.5t-55 62t-94 21.5q-59 0 -110.5 -27t-87 -78.5t-47.5 -125.5h-382q28 169 115 292t223.5 190t310.5 67t299 -57t185 -163t35 -254q-13 -78 -45 -144.5t-84.5 -128.5t-127 -125t-171.5 -134l-248 -181
l-1 -4h564l-53 -322h-1144z" />
    <glyph glyph-name="three" unicode="3" horiz-adv-x="1320" 
d="M575 -23q-205 0 -328.5 72.5t-171.5 191.5t-25 258h393q-11 -64 7 -111t61 -72.5t107 -25.5q59 0 107.5 21t80 58t38.5 84q8 50 -14 86t-69 56.5t-116 20.5h-146l46 280h146q65 0 116 19t82 53.5t39 81.5t-9.5 83t-54 56.5t-89.5 20.5q-55 0 -102 -22t-78.5 -61.5
t-40.5 -91.5h-388q23 137 109 245t225 170.5t318 62.5q165 0 284.5 -53.5t177.5 -147.5t38 -217q-22 -134 -121.5 -216.5t-230.5 -97.5v-5q111 -11 180 -61.5t96.5 -127t12.5 -165.5q-21 -128 -113.5 -229t-238 -158.5t-328.5 -57.5z" />
    <glyph glyph-name="four" unicode="4" horiz-adv-x="1419" 
d="M25 276l52 314l755 900h268l-64 -383h-147l-432 -519l-1 -5h904l-51 -307h-1284zM707 0l61 372l25 138l163 980h387l-247 -1490h-389z" />
    <glyph glyph-name="five" unicode="5" horiz-adv-x="1283" 
d="M561 -23q-172 0 -296 60.5t-185.5 172t-44.5 264.5h387q-13 -83 34 -137t135 -54q61 0 113.5 27t88.5 76t47 114q11 66 -5 116t-55.5 78t-100.5 28q-74 0 -137 -33t-92 -89l-366 16l191 874h1027l-54 -324h-670l-64 -260h3q52 50 120.5 78t157.5 28q143 0 250.5 -61
t160 -173t26.5 -266q-26 -156 -116 -277t-232 -189.5t-323 -68.5z" />
    <glyph glyph-name="six" unicode="6" horiz-adv-x="1335" 
d="M624 -23q-148 0 -262.5 50.5t-187.5 148t-98.5 240t5.5 325.5q30 181 94 324t160 243t221.5 152.5t275.5 52.5q165 0 285.5 -62t183.5 -166t54 -232h-386q-1 70 -41.5 108.5t-120.5 38.5q-87 0 -154 -46t-112 -130.5t-64 -201.5h4q46 59 98 97.5t115 57.5t139 19
q155 0 264.5 -63t159.5 -174.5t25 -257.5q-25 -157 -115 -275t-229.5 -183.5t-313.5 -65.5zM639 288q61 0 114.5 27t90 74.5t46.5 108.5q11 61 -6 108.5t-57.5 74.5t-101.5 27q-47 0 -88.5 -15.5t-75 -43.5t-55.5 -66.5t-30 -84.5q-10 -61 7 -108.5t57.5 -74.5t98.5 -27z
" />
    <glyph glyph-name="seven" unicode="7" horiz-adv-x="1193" 
d="M48 0l775 1152l1 3h-678l55 335h1106l-54 -324l-781 -1166h-424z" />
    <glyph glyph-name="eight" unicode="8" horiz-adv-x="1331" 
d="M589 -23q-184 0 -318.5 53.5t-200.5 150t-45 223.5q15 94 70.5 170.5t140.5 127.5t188 67l1 4q-128 23 -192.5 114.5t-44.5 218.5q20 121 103 212.5t216 143t301 51.5q173 0 297.5 -50.5t185 -142t39.5 -214.5q-14 -85 -62 -154.5t-121 -116t-164 -62.5l-1 -4
q99 -16 167 -67t98.5 -127.5t14.5 -170.5q-21 -127 -110.5 -223.5t-233 -150t-329.5 -53.5zM618 255q57 0 105.5 23.5t81 65t41.5 93.5t-10 92.5t-60 63.5t-99 23q-56 0 -104 -23t-80 -63t-41 -93q-8 -53 10 -94t58.5 -64.5t97.5 -23.5zM725 905q53 0 96 19.5t70.5 56
t35.5 83.5q9 49 -7 84.5t-52.5 55t-89.5 19.5q-52 0 -94.5 -19.5t-70 -55t-36.5 -84.5q-8 -47 8 -83.5t52 -56t88 -19.5z" />
    <glyph glyph-name="nine" unicode="9" horiz-adv-x="1335" 
d="M609 -24q-164 0 -293.5 62t-201.5 167t-64 232h386q1 -69 45 -108.5t124 -39.5q88 0 153 46.5t107.5 131.5t62.5 201h-4q-46 -59 -103 -97.5t-123.5 -57.5t-143.5 -19q-148 0 -253.5 64t-154 176t-24.5 255q26 157 116.5 275t230.5 184t314 66q148 0 262.5 -48.5
t188 -144t98.5 -235.5t-6 -324q-30 -181 -89.5 -326t-148.5 -248t-209 -157.5t-270 -54.5zM687 782q45 0 85 15.5t72.5 43.5t54.5 66.5t29 84.5q10 61 -9 108.5t-60.5 74.5t-101.5 27q-59 0 -111 -27t-87 -74.5t-45 -108.5t9 -108.5t61.5 -74.5t102.5 -27z" />
    <glyph glyph-name="colon" unicode=":" horiz-adv-x="594" 
d="M226 -20q-94 0 -150 68.5t-40 164.5q13 77 75.5 129t142.5 52q94 0 149.5 -68.5t39.5 -164.5q-13 -76 -75.5 -128.5t-141.5 -52.5zM331 620q-94 0 -150 68.5t-40 164.5q13 77 75.5 129t142.5 52q94 0 149.5 -68.5t39.5 -164.5q-13 -76 -75.5 -128.5t-141.5 -52.5z" />
    <glyph glyph-name="semicolon" unicode=";" horiz-adv-x="597" 
d="M-92 -357l170 622h373l-271 -622h-272zM335 620q-94 0 -150 68.5t-40 164.5q13 77 75.5 129t142.5 52q94 0 149.5 -68.5t39.5 -164.5q-13 -76 -75.5 -128.5t-141.5 -52.5z" />
    <glyph glyph-name="less" unicode="&#x3c;" horiz-adv-x="1395" 
d="M130 430l58 350l1154 434l-61 -368l-728 -238l15 18l-7 -42l-9 18l649 -238l-61 -366z" />
    <glyph glyph-name="equal" unicode="=" horiz-adv-x="1395" 
d="M187 702l54 324h1076l-54 -324h-1076zM101 184l54 326h1076l-54 -326h-1076z" />
    <glyph glyph-name="greater" unicode="&#x3e;" horiz-adv-x="1395" 
d="M1230 430l-1154 -432l61 366l729 238l-15 -18l7 42l9 -18l-650 238l61 368l1010 -434z" />
    <glyph glyph-name="question" unicode="?" horiz-adv-x="1235" 
d="M403 489l6 34q17 97 47.5 160.5t84 108.5t139.5 85q74 37 118 81.5t52 98.5q7 42 -7.5 73.5t-46.5 49.5t-78 18q-49 0 -91.5 -21.5t-70.5 -60t-36 -90.5h-372q25 146 101.5 255t200 169t284.5 60q158 0 281.5 -51t187.5 -143t43 -216q-19 -120 -84.5 -208t-174.5 -150
q-63 -35 -114 -69.5t-83.5 -74t-41.5 -92.5l-3 -17h-342zM495 -20q-89 0 -139.5 59.5t-36.5 146.5q15 87 85.5 146.5t158.5 59.5q89 0 139 -59.5t36 -146.5t-84 -146.5t-159 -59.5z" />
    <glyph glyph-name="at" unicode="@" horiz-adv-x="2131" 
d="M937 -455q-240 0 -423 67.5t-300.5 194.5t-161.5 308.5t-7 407.5q38 225 135 407t248 313t350.5 201.5t440.5 70.5q230 0 408.5 -64.5t294.5 -185t162 -289t11 -376.5q-23 -145 -74 -257t-125 -189.5t-168.5 -117t-206.5 -39.5q-77 0 -136 19t-92 54.5t-34 83.5h-3
q-34 -64 -119.5 -108t-209.5 -44q-144 0 -241 64.5t-137.5 183t-14.5 277.5q29 171 113 286t200.5 172.5t242.5 57.5q100 0 171 -33.5t90 -88.5h4l16 100h254l-114 -690q-7 -41 6.5 -54t36.5 -13q49 0 92.5 40t75.5 113t48 173q25 150 0 266t-97.5 195.5t-188 120.5
t-271.5 41q-169 0 -311.5 -47.5t-252 -137t-180.5 -216t-97 -284.5q-27 -159 -1 -285.5t102 -215t198.5 -134.5t290.5 -46q86 0 165 9.5t146 26t116 35.5l86 -268q-52 -23 -129 -47.5t-178.5 -41t-230.5 -16.5zM1001 291q68 0 122 27.5t90 80.5t48 128q13 76 -1 129t-55 80
t-109 27q-72 0 -128 -27t-92.5 -79.5t-49.5 -128.5t2 -129t58.5 -80.5t114.5 -27.5z" />
    <glyph glyph-name="A" unicode="A" horiz-adv-x="1579" 
d="M-78 0l743 1490h558l257 -1490h-452l-72 578q-23 188 -42.5 375.5t-34.5 386.5h107q-80 -199 -161 -386.5t-168 -375.5l-267 -578h-468zM334 254l52 316h820l-52 -316h-820z" />
    <glyph glyph-name="B" unicode="B" horiz-adv-x="1339" 
d="M-5 0l246 1490h636q170 0 280 -51t157 -141t27 -206q-12 -79 -61 -142.5t-123.5 -105.5t-163.5 -59v-4q96 -6 167 -55.5t104 -133.5t14 -196q-19 -115 -93 -204.5t-195 -140.5t-283 -51h-712zM451 314h211q81 0 136 41.5t67 112.5q7 45 -8.5 77.5t-50.5 50t-89 17.5h-216
zM548 897h186q48 0 87 18t64.5 51t32.5 77q11 62 -25 98t-107 36h-192z" />
    <glyph glyph-name="C" unicode="C" horiz-adv-x="1514" 
d="M698 -23q-184 0 -325 71.5t-221 210.5t-80 337q0 186 58.5 351.5t168.5 293t265.5 200t347.5 72.5q142 0 258 -39.5t197.5 -115t122.5 -183t34 -243.5h-417q0 52 -13 93.5t-39 70t-64 44t-89 15.5q-107 0 -185.5 -50.5t-129.5 -133t-76 -180.5t-25 -192q0 -87 27 -145.5
t80 -88.5t132 -30q58 0 108.5 15t91.5 44t72 70t49 92h417q-34 -123 -104 -229t-169 -184.5t-223.5 -122t-268.5 -43.5z" />
    <glyph glyph-name="D" unicode="D" horiz-adv-x="1461" 
d="M648 0h-481l57 344h389q120 0 205 41.5t138.5 130.5t75.5 228q24 141 -0.5 230t-98 130.5t-197.5 41.5h-385l57 344h386q230 0 390.5 -91.5t232 -259t32.5 -395.5q-37 -227 -139 -394t-267 -258.5t-395 -91.5zM656 1490l-247 -1490h-414l247 1490h414z" />
    <glyph glyph-name="E" unicode="E" horiz-adv-x="1286" 
d="M-5 0l247 1490h1136l-57 -346h-723l-38 -230h666l-56 -336h-666l-38 -232h722l-57 -346h-1136z" />
    <glyph glyph-name="F" unicode="F" horiz-adv-x="1230" 
d="M-5 0l247 1490h1103l-57 -346h-690l-46 -280h644l-55 -334h-645l-87 -530h-414z" />
    <glyph glyph-name="G" unicode="G" horiz-adv-x="1523" 
d="M707 -23q-198 0 -340 75t-218.5 214t-76.5 331q0 189 60 354.5t171.5 292t266.5 198t344 71.5q132 0 247 -36t200 -105.5t129.5 -168t33.5 -222.5h-420q-1 41 -13.5 73.5t-36.5 55t-59.5 34t-83.5 11.5q-111 0 -191.5 -50t-132 -132t-76 -179.5t-24.5 -192.5
q0 -131 62.5 -198.5t188.5 -67.5q94 0 163 29.5t111.5 80t52.5 113.5l78 -21h-352l49 295h672l-37 -226q-24 -147 -90.5 -263.5t-168 -198t-231 -124.5t-278.5 -43z" />
    <glyph glyph-name="H" unicode="H" horiz-adv-x="1499" 
d="M-5 0l247 1490h414l-94 -559h505l93 559h414l-247 -1490h-414l97 585h-505l-96 -585h-414z" />
    <glyph glyph-name="I" unicode="I" horiz-adv-x="581" 
d="M656 1490l-247 -1490h-414l247 1490h414z" />
    <glyph glyph-name="J" unicode="J" horiz-adv-x="1205" 
d="M500 -23q-226 0 -351 100t-125 289q0 17 2 39t8 63.5t18 116.5h389q-11 -66 -15.5 -97.5t-5.5 -43t-1 -17.5q0 -55 29.5 -84t85.5 -29q67 0 109 39.5t55 114.5l169 1022h412l-171 -1027q-39 -234 -192.5 -360t-415.5 -126z" />
    <glyph glyph-name="K" unicode="K" horiz-adv-x="1507" 
d="M339 224l60 468q60 72 119 139.5t120.5 135t130.5 140.5l360 383h498l-750 -767l-37 4zM-5 0l247 1490h416l-53 -320l-73 -429l-31 -197l-90 -544h-416zM956 0l-260 599l277 308l435 -907h-452z" />
    <glyph glyph-name="L" unicode="L" horiz-adv-x="1174" 
d="M-5 0l247 1490h414l-190 -1144h633l-57 -346h-1047z" />
    <glyph glyph-name="M" unicode="M" horiz-adv-x="1909" 
d="M-5 0l247 1490h625l57 -466q8 -60 15.5 -149.5t15 -188.5t12.5 -189.5t7 -152.5h-100q23 62 57.5 152.5t74.5 189.5t77 188.5t64 149.5l210 466h626l-247 -1490h-408l95 576q9 51 25 133t35 179t38 196t33 185h42q-36 -88 -76 -186.5t-80.5 -194.5t-76 -177t-60.5 -135
l-268 -576h-336l-81 576q-10 72 -22.5 190t-24.5 252.5t-22 250.5h48q-14 -86 -28 -185t-27 -196t-24 -179t-20 -133l-95 -576h-408z" />
    <glyph glyph-name="N" unicode="N" horiz-adv-x="1527" 
d="M-5 0l247 1490h428l264 -585q21 -46 47 -114t53 -146.5t50 -157.5l-62 -90q9 81 22 185t27 202t23 160l91 546h416l-247 -1490h-427l-247 544q-26 59 -57 136.5t-64.5 170.5t-66.5 195l76 19q-9 -105 -21.5 -206.5t-24.5 -183.5t-21 -131l-90 -544h-416z" />
    <glyph glyph-name="O" unicode="O" horiz-adv-x="1543" 
d="M700 -23q-184 0 -325.5 72t-222 210.5t-80.5 337.5q0 185 59 350.5t169 293t265.5 200t347.5 72.5q183 0 324.5 -71.5t222.5 -209.5t81 -339q0 -189 -60 -354.5t-171 -292t-265.5 -198t-344.5 -71.5zM718 335q106 0 183 51t127 134t74 180.5t24 190.5q0 86 -26 144.5
t-77 89t-128 30.5q-105 0 -181.5 -50.5t-127 -133t-75.5 -180t-25 -192.5q0 -85 26.5 -144t78 -89.5t127.5 -30.5z" />
    <glyph glyph-name="P" unicode="P" horiz-adv-x="1329" 
d="M-5 0l247 1490h635q176 0 293.5 -64t168.5 -181t25 -277q-26 -159 -116.5 -276t-230.5 -180.5t-316 -63.5h-392l56 336h349q65 0 115.5 23t83 64t42.5 97q9 57 -9.5 98t-62 63.5t-108.5 22.5h-176l-190 -1152h-414z" />
    <glyph glyph-name="Q" unicode="Q" horiz-adv-x="1543" 
d="M611 552h287l91 -142l156 -218l206 -302h-325l-137 206l-109 172zM700 -23q-184 0 -325.5 72t-222 210.5t-80.5 337.5q0 185 59 350.5t169 293t265.5 200t347.5 72.5q183 0 324.5 -71.5t222.5 -209.5t81 -339q0 -189 -60 -354.5t-171 -292t-265.5 -198t-344.5 -71.5z
M718 335q106 0 183 51t127 134t74 180.5t24 190.5q0 86 -26 144.5t-77 89t-128 30.5q-105 0 -181.5 -50.5t-127 -133t-75.5 -180t-25 -192.5q0 -85 26.5 -144t78 -89.5t127.5 -30.5z" />
    <glyph glyph-name="R" unicode="R" horiz-adv-x="1364" 
d="M-5 0l247 1490h635q176 0 294 -63t169 -178.5t25 -275.5q-26 -156 -117.5 -268.5t-234.5 -172.5t-325 -60h-362l53 320h336q65 0 115.5 22t83 62.5t42.5 96.5q14 85 -34.5 133.5t-145.5 48.5h-176l-191 -1155h-414zM821 0l-220 678h419l229 -678h-428z" />
    <glyph glyph-name="S" unicode="S" horiz-adv-x="1394" 
d="M632 -23q-207 0 -345 61t-197.5 178.5t-32.5 285.5h391q-7 -62 17 -105.5t76 -67t127 -23.5q66 0 117 16.5t82 46t37 67.5q6 36 -12.5 63t-66 48t-128.5 36l-144 29q-204 41 -303 156t-70 290q23 136 113 238.5t231 159.5t317 57q186 0 315 -59.5t189 -170t38 -264.5
h-383q5 80 -42.5 122.5t-143.5 42.5q-59 0 -105.5 -16t-75 -44t-34.5 -65q-6 -35 10.5 -61t59 -45t115.5 -33l117 -23q124 -25 209.5 -64.5t136 -96t67 -130.5t2.5 -166q-24 -149 -112 -252.5t-232 -157t-340 -53.5z" />
    <glyph glyph-name="T" unicode="T" horiz-adv-x="1359" 
d="M144 1144l58 346h1271l-58 -346h-429l-189 -1144h-413l189 1144h-429z" />
    <glyph glyph-name="U" unicode="U" horiz-adv-x="1452" 
d="M654 -23q-200 0 -337.5 71.5t-198.5 199.5t-33 296l156 946h404l-154 -938q-11 -69 8 -119.5t63.5 -78t108.5 -27.5q75 0 139 34t107 91t54 126l151 912h404l-161 -972q-28 -168 -125 -289.5t-247 -186.5t-339 -65z" />
    <glyph glyph-name="V" unicode="V" horiz-adv-x="1556" 
d="M421 0l-253 1490h449l77 -578q26 -188 44.5 -378t35.5 -380h-115q80 190 159 380t163 378l262 578h461l-731 -1490h-552z" />
    <glyph glyph-name="W" unicode="W" horiz-adv-x="2144" 
d="M316 0l-148 1490h452l23 -578q5 -109 6 -223t0.5 -227.5t-0.5 -223.5h-92q40 110 79 223.5t80 227.5t84 223l228 578h404l36 -578q7 -109 10.5 -223t5 -227.5t3.5 -223.5h-93q37 110 74 223.5t76 227.5t80 223l216 578h452l-642 -1490h-457l-53 670q-8 97 -8.5 227.5
t-9.5 298.5h118q-66 -168 -109 -298t-82 -228l-276 -670h-457z" />
    <glyph glyph-name="X" unicode="X" horiz-adv-x="1538" 
d="M-78 0l793 911l-51 -309l-435 888h456l86 -194q24 -55 45 -108.5t40 -105t39 -101.5h-122q38 50 74.5 101.5t75.5 105t82 108.5l154 194h470l-707 -864l47 289l471 -915h-474l-120 256q-20 44 -37 83t-32.5 76t-32.5 75h54q-30 -38 -58 -75t-58.5 -76t-67.5 -83
l-213 -256h-479z" />
    <glyph glyph-name="Y" unicode="Y" horiz-adv-x="1516" 
d="M476 0l85 510l-393 980h460l143 -425q18 -54 33 -109t30 -113h-59q31 58 62.5 113t65.5 109l272 425h489l-701 -980l-85 -510h-402z" />
    <glyph glyph-name="Z" unicode="Z" horiz-adv-x="1398" 
d="M1 0l37 224l860 940h-702l54 326h1216l-37 -224l-860 -940h702l-54 -326h-1216z" />
    <glyph glyph-name="bracketleft" unicode="[" horiz-adv-x="749" 
d="M-21 -291l308 1860h568l-50 -301h-169l-209 -1257h170l-50 -302h-568z" />
    <glyph glyph-name="backslash" unicode="\" horiz-adv-x="818" 
d="M354 -224l-185 1784h338l185 -1784h-338z" />
    <glyph glyph-name="bracketright" unicode="]" horiz-adv-x="749" 
d="M-71 -291l49 302h170l209 1257h-170l50 301h567l-308 -1860h-567z" />
    <glyph glyph-name="asciicircum" unicode="^" horiz-adv-x="999" 
d="M604 1306h52l-14 -84h-52zM92 814l419 652h285l204 -652h-274l-111 436h11l-255 -436h-279z" />
    <glyph glyph-name="underscore" unicode="_" horiz-adv-x="1011" 
d="M922 0l-47 -286h-1010l47 286h1010z" />
    <glyph glyph-name="grave" unicode="`" horiz-adv-x="726" 
d="M484 1198l-233 326h363l134 -326h-264z" />
    <glyph glyph-name="a" unicode="a" horiz-adv-x="1284" 
d="M409 -22q-134 0 -225.5 67.5t-127.5 192.5t-7 298q28 171 108 295.5t192.5 192.5t239.5 68q72 0 125.5 -20t90 -57.5t56.5 -90.5h5l24 146h392l-177 -1070h-392l27 162h-5q-32 -58 -81.5 -99t-111 -63t-133.5 -22zM586 291q55 0 101.5 30t79 85t44.5 130
q13 75 -1.5 129.5t-51 84.5t-91.5 30t-98 -30t-72.5 -84.5t-41.5 -129.5t-1.5 -130t44.5 -85t88 -30z" />
    <glyph glyph-name="b" unicode="b" horiz-adv-x="1291" 
d="M722 -22q-79 0 -139 24.5t-98 70t-54 107.5h-3l-30 -180h-397l246 1490h401l-91 -562h3q27 53 72.5 89t105 55.5t125.5 19.5q115 0 201 -55.5t134.5 -157.5t48.5 -244q0 -114 -33 -230t-99 -212.5t-164 -155.5t-229 -59zM601 291q61 0 107 33t76.5 84.5t45.5 111
t15 112.5q0 71 -30.5 109.5t-91.5 38.5q-59 0 -106 -29.5t-80.5 -79t-51.5 -107t-18 -114.5q0 -75 35.5 -117t98.5 -42z" />
    <glyph glyph-name="c" unicode="c" horiz-adv-x="1202" 
d="M545 -23q-156 0 -268 58t-172.5 163.5t-60.5 246.5q0 129 43.5 245.5t127 207t203.5 142.5t270 52q112 0 206 -32t161 -91.5t98.5 -143t19.5 -187.5l-382 -12q3 32 -1 61t-16 50.5t-33.5 34t-54.5 12.5q-61 0 -106.5 -33t-75.5 -85.5t-44.5 -114t-14.5 -118.5
q0 -49 12.5 -82t39 -49.5t65.5 -16.5q35 0 67 12t59.5 34t46.5 51.5t27 64.5l377 -12q-19 -104 -70.5 -188.5t-130 -144.5t-178 -92.5t-215.5 -32.5z" />
    <glyph glyph-name="d" unicode="d" horiz-adv-x="1289" 
d="M430 -22q-179 0 -284 116.5t-105 322.5q0 125 35.5 245t104 217t166 155t222.5 58q77 0 133 -23t94.5 -66t60.5 -102h3l96 589h401l-246 -1490h-397l27 161h-3q-33 -64 -79.5 -104.5t-104.5 -59.5t-124 -19zM566 291q59 0 106 30t81 79.5t51.5 107.5t17.5 115
q0 74 -36 115.5t-98 41.5q-60 0 -105.5 -31.5t-76 -82.5t-46 -110.5t-15.5 -116.5q0 -70 30 -109t91 -39z" />
    <glyph glyph-name="e" unicode="e" horiz-adv-x="1207" 
d="M554 -24q-175 0 -297 61t-178 179.5t-33 291.5q17 131 71.5 238t141.5 184.5t201 119.5t250 42q127 0 232 -38.5t167.5 -115.5t62.5 -196q0 -122 -71.5 -190t-205 -97.5t-320 -36t-417.5 -6.5l37 229q198 0 319.5 5.5t185.5 16t86.5 28t22.5 41.5q0 37 -36.5 57.5
t-104.5 20.5q-80 0 -124.5 -30t-66 -77.5t-29 -102.5t-14.5 -105q-8 -72 -3 -126t40.5 -83.5t115.5 -29.5q79 0 123 28.5t59 75.5l364 -6q-56 -170 -202.5 -274t-376.5 -104z" />
    <glyph glyph-name="f" unicode="f" horiz-adv-x="868" 
d="M912 1070l-50 -302h-803l50 302h803zM35 -426h-83.5t-76 1t-54.5 2l56 302q18 -1 48.5 -1.5t55.5 -0.5q61 0 91 26.5t41 87.5l190 1146q21 125 78.5 206.5t155.5 121.5t238 40q66 0 125 -1t91 -4l-61 -300q-18 1 -48.5 1.5t-60.5 0.5q-58 0 -86.5 -24.5t-38.5 -81.5
l-191 -1153q-20 -125 -78 -207t-155 -122t-237 -40z" />
    <glyph glyph-name="g" unicode="g" horiz-adv-x="1289" 
d="M492 -434q-176 0 -285 46.5t-159 126.5t-50 179l366 6q3 -26 18 -45t43 -29.5t70 -10.5q95 0 152.5 52.5t72.5 146.5l26 156h-10q-34 -60 -78 -100t-98.5 -59t-124.5 -19q-120 0 -208 52t-135.5 148t-47.5 226q0 122 37 238t106 209t166 148t216 55q57 0 104 -14.5
t83.5 -39.5t62 -59.5t41.5 -73.5h2l28 165h398l-168 -1015q-28 -172 -110.5 -280t-213.5 -158.5t-304 -50.5zM569 317q59 0 106 28.5t80 75.5t50.5 103t17.5 110q0 73 -36 113t-98 40q-59 0 -104 -30t-76 -79t-46.5 -106t-15.5 -111q0 -69 30.5 -106.5t91.5 -37.5z" />
    <glyph glyph-name="h" unicode="h" horiz-adv-x="1280" 
d="M497 575l-95 -575h-401l247 1490h398l-117 -710h-49q47 90 104.5 160.5t135.5 111t184 40.5q118 0 194 -51.5t106.5 -145t9.5 -219.5l-112 -676h-400l97 588q13 80 -18.5 124t-103.5 44q-47 0 -84 -20t-61.5 -60.5t-34.5 -100.5z" />
    <glyph glyph-name="i" unicode="i" horiz-adv-x="581" 
d="M1 0l178 1070h400l-177 -1070h-401zM390 1150q-91 0 -141 54t-36 136q13 83 81 136.5t160 53.5q91 0 141 -53.5t36 -135.5q-13 -83 -81 -137t-160 -54z" />
    <glyph glyph-name="j" unicode="j" horiz-adv-x="582" 
d="M180 1070h400l-183 -1108q-21 -131 -85 -215.5t-167.5 -124.5t-246.5 -40h-138l50 302h68q57 0 85.5 25.5t38.5 83.5zM392 1150q-91 0 -141 54t-36 136q13 83 81 136.5t160 53.5q91 0 141 -53.5t36 -135.5q-13 -83 -81 -137t-160 -54z" />
    <glyph glyph-name="k" unicode="k" horiz-adv-x="1211" 
d="M401 245l78 474h48l327 351h452l-544 -564h-112zM1 0l247 1490h401l-247 -1490h-401zM685 0l-184 417l306 281l333 -698h-455z" />
    <glyph glyph-name="l" unicode="l" horiz-adv-x="580" 
d="M649 1490l-247 -1490h-401l247 1490h401z" />
    <glyph glyph-name="m" unicode="m" horiz-adv-x="1898" 
d="M1 0l177 1070h380l-36 -266l-20 13q42 100 101 160.5t128.5 87.5t140.5 27q84 0 148.5 -35t101 -103t35.5 -171l-29 26q37 102 99 163.5t139 90.5t155 29q112 0 189 -50t111 -137t15 -201l-116 -704h-401l104 629q8 48 -0.5 80t-31.5 47.5t-60 15.5q-45 0 -83 -22
t-63.5 -60.5t-33.5 -86.5l-100 -603h-381l104 629q12 72 -12 107.5t-79 35.5q-46 0 -84.5 -22t-64 -60.5t-33.5 -86.5l-99 -603h-401z" />
    <glyph glyph-name="n" unicode="n" horiz-adv-x="1280" 
d="M494 562l-92 -562h-401l177 1070h391l-45 -290l-45 12q68 136 168.5 218t251.5 82q123 0 200 -55t105.5 -151.5t7.5 -222.5l-110 -663h-400l99 601q13 80 -21 117.5t-99 37.5q-52 0 -90.5 -23.5t-62.5 -67t-34 -103.5z" />
    <glyph glyph-name="o" unicode="o" horiz-adv-x="1252" 
d="M554 -23q-158 0 -272.5 57t-176.5 161.5t-62 247.5q0 139 47.5 257.5t134.5 206t207 136.5t266 49q158 0 272.5 -57.5t176 -162t61.5 -247.5q0 -132 -44.5 -249t-129.5 -207t-206 -141t-274 -51zM579 286q58 0 101.5 33t71.5 84.5t42 111.5t14 116q0 51 -18.5 84.5
t-49 50t-67.5 16.5q-58 0 -101.5 -32.5t-72 -84t-42 -111.5t-13.5 -115q0 -77 40.5 -115t94.5 -38z" />
    <glyph glyph-name="p" unicode="p" horiz-adv-x="1289" 
d="M-69 -418l247 1488h396l-24 -146h3q37 57 84 94.5t103.5 55.5t122.5 18q115 0 201 -54t134.5 -153.5t48.5 -237.5q0 -118 -34 -237t-101 -216.5t-166 -156.5t-230 -59q-77 0 -135.5 25t-95.5 69t-52 102h-3l-98 -592h-401zM601 291q61 0 107 33t76.5 84.5t45.5 111
t15 112.5q0 71 -30.5 109.5t-91.5 38.5q-59 0 -106 -29.5t-80.5 -79t-51.5 -107t-18 -114.5q0 -75 35.5 -117t98.5 -42z" />
    <glyph glyph-name="q" unicode="q" horiz-adv-x="1289" 
d="M1041 -418h-401l95 570h-3q-33 -59 -78.5 -97.5t-101.5 -57.5t-122 -19q-120 0 -207 52.5t-134.5 151.5t-47.5 235q0 125 35.5 245t104 217t166 155t222.5 58q77 0 134 -23.5t96.5 -65.5t61.5 -100h3l27 167h396zM566 291q59 0 106 30t81 79.5t51.5 107.5t17.5 115
q0 74 -36 115.5t-98 41.5q-60 0 -105.5 -31.5t-76 -82.5t-46 -110.5t-15.5 -116.5q0 -70 30 -109t91 -39z" />
    <glyph glyph-name="r" unicode="r" horiz-adv-x="861" 
d="M1 0l178 1070h388l-33 -197h5q47 110 116.5 155t174.5 45q28 0 52 -1t48 -3l-54 -325q-22 3 -65.5 4t-80.5 1q-61 0 -111.5 -27.5t-84.5 -78.5t-45 -120l-87 -523h-401z" />
    <glyph glyph-name="s" unicode="s" horiz-adv-x="1157" 
d="M512 -25q-150 0 -263.5 44.5t-176.5 126t-64 192.5v4v4l387 6q1 -54 34 -82t101 -28q39 0 71.5 9.5t52.5 27.5t20 43q0 23 -21.5 38t-72.5 23l-192 33q-145 25 -220 98t-75 185q0 120 71 207.5t195.5 135t283.5 47.5q222 0 350 -86.5t129 -234.5q0 -9 -1 -20.5t-2 -22.5
l-362 -5q2 52 -29.5 78t-92.5 26q-35 0 -67 -10t-51.5 -28.5t-19.5 -43.5q0 -22 17.5 -37t57.5 -21l220 -39q150 -26 223.5 -89.5t73.5 -170.5q0 -90 -44.5 -165.5t-122.5 -130t-183 -84.5t-227 -30z" />
    <glyph glyph-name="t" unicode="t" horiz-adv-x="849" 
d="M892 1070l-51 -302h-782l50 302h783zM326 1353h401l-161 -973q-7 -44 8.5 -61.5t66.5 -17.5q25 0 65 1t56 2l-39 -301q-37 -4 -99.5 -5.5t-127.5 -1.5q-204 0 -286 78t-55 243z" />
    <glyph glyph-name="u" unicode="u" horiz-adv-x="1280" 
d="M361 -22q-118 0 -190.5 51.5t-99 145t-5.5 219.5l112 676h400l-97 -588q-13 -80 19 -124t103 -44q48 0 84.5 20t61 60.5t34.5 100.5l96 575h400l-177 -1070h-391l46 290h43q-68 -136 -174 -224t-265 -88z" />
    <glyph glyph-name="v" unicode="v" horiz-adv-x="1227" 
d="M293 0l-205 1070h401l57 -462q14 -109 22.5 -219.5t16.5 -224.5h-88q46 114 91 224.5t93 219.5l206 462h429l-560 -1070h-463z" />
    <glyph glyph-name="w" unicode="w" horiz-adv-x="1793" 
d="M231 0l-146 1070h420l15 -302q7 -119 10.5 -249.5t5.5 -263.5h-50q50 133 101.5 263.5t99.5 249.5l124 302h348l22 -302q10 -119 18 -249.5t14 -263.5h-48q45 133 89.5 263t89.5 250l113 302h428l-502 -1070h-412l-47 368q-7 53 -11.5 113.5t-8.5 123t-9 119.5h64
q-24 -57 -48.5 -119.5t-49 -123t-49.5 -113.5l-169 -368h-412z" />
    <glyph glyph-name="x" unicode="x" horiz-adv-x="1173" 
d="M-86 0l521 636l-37 -171l-280 605h414l36 -106q27 -77 46.5 -147.5t41.5 -139.5h-110q47 69 91 139.5t97 147.5l75 106h436l-498 -605l37 171l299 -636h-413l-42 114q-28 75 -48.5 144.5t-43.5 137.5h90q-46 -68 -91.5 -137.5t-99.5 -144.5l-81 -114h-440z" />
    <glyph glyph-name="y" unicode="y" horiz-adv-x="1229" 
d="M-35 -411l69 300l135 -3q43 -4 70 5t44 31t30 58l5 20l-230 1070h403l59 -462q14 -109 22 -219t16 -225h-107q45 115 92.5 225.5t97.5 218.5l220 462h427l-648 -1197q-53 -100 -115 -165t-140.5 -96.5t-184.5 -31.5q-66 0 -135 2.5t-130 6.5z" />
    <glyph glyph-name="z" unicode="z" horiz-adv-x="1161" 
d="M13 0l41 248l557 514v3h-468l51 305h943l-44 -266l-534 -498l-1 -3h464l-51 -303h-958z" />
    <glyph glyph-name="braceleft" unicode="{" horiz-adv-x="1004" 
d="M136 603l35 210q126 0 184 50.5t76 157.5l21 128q26 157 89.5 243.5t153 123.5t196 45t219.5 8l-49 -295q-120 0 -167 -37.5t-64 -139.5l-28 -172q-9 -54 -42.5 -111t-106.5 -104.5t-198 -77t-319 -29.5zM802 -291q-113 0 -216.5 8t-181 45t-112.5 123.5t-9 243.5l22 128
q17 107 -24 157.5t-168 50.5l35 211q193 0 309 -29.5t173 -77t71.5 -104.5t5.5 -111l-29 -173q-16 -101 18.5 -139t154.5 -38zM113 465l58 348h355l-58 -348h-355z" />
    <glyph glyph-name="bar" unicode="|" horiz-adv-x="805" 
d="M836 1970l-406 -2450h-393l406 2450h393z" />
    <glyph glyph-name="braceright" unicode="}" horiz-adv-x="1004" 
d="M890 603q-193 0 -309 29.5t-172.5 77t-71 104.5t-5.5 111l28 172q17 102 -17.5 139.5t-154.5 37.5l49 295q113 0 216.5 -8t181 -45t112 -123.5t8.5 -243.5l-21 -128q-19 -107 23 -157.5t169 -50.5zM-71 -291l49 295q120 0 166.5 38t63.5 139l29 173q9 54 42.5 111
t106 104.5t198.5 77t319 29.5l-35 -211q-127 0 -185 -50.5t-75 -157.5l-22 -128q-26 -157 -89 -243.5t-153 -123.5t-196 -45t-219 -8zM868 465h-356l58 348h356z" />
    <glyph glyph-name="asciitilde" unicode="~" horiz-adv-x="1395" 
d="M110 376q18 149 71.5 258.5t139.5 169.5t201 60q65 0 123.5 -25.5t125.5 -96.5q30 -30 53.5 -50t61.5 -20q44 0 81.5 37.5t49.5 124.5h292q-19 -148 -74.5 -258t-142 -170t-196.5 -60q-71 0 -130 28.5t-123 93.5q-35 36 -54.5 53t-55.5 17q-46 0 -83.5 -37.5
t-48.5 -124.5h-291z" />
    <glyph glyph-name="uni00A0" unicode="&#xa0;" horiz-adv-x="383" 
 />
    <glyph glyph-name="exclamdown" unicode="&#xa1;" horiz-adv-x="603" 
d="M-67 -408l204 1011h351l-131 -1011h-424zM325 682q-88 0 -138.5 59t-36.5 147q14 87 84.5 146.5t159.5 59.5q88 0 138.5 -59.5t35.5 -146.5q-14 -88 -84 -147t-159 -59z" />
    <glyph glyph-name="cent" unicode="&#xa2;" horiz-adv-x="1202" 
d="M480 0l247 1490h108l-247 -1490h-108zM580 188q-156 0 -268.5 58t-173 163.5t-60.5 246.5q0 129 44 245.5t127.5 207t203.5 142.5t270 52q112 0 206 -32t161 -91.5t98.5 -143t19.5 -187.5l-382 -12q3 32 -1 61t-16 50.5t-33.5 34t-54.5 12.5q-61 0 -106.5 -33
t-75.5 -85.5t-44.5 -114t-14.5 -118.5q0 -49 12.5 -82t39 -49.5t65.5 -16.5q35 0 67 12t59.5 34t46.5 51.5t27 64.5l377 -12q-19 -104 -71 -188.5t-130 -144.5t-177.5 -92.5t-215.5 -32.5z" />
    <glyph glyph-name="sterling" unicode="&#xa3;" horiz-adv-x="1324" 
d="M14 270l10 58q78 0 122.5 30t50.5 90l49 516q17 181 106.5 303t225.5 184.5t290 62.5q152 0 265 -62.5t168.5 -177t34.5 -273.5l-381 -13q15 108 -16.5 153t-101.5 45q-49 0 -88 -20t-64 -63.5t-34 -114.5l-60 -464q-10 -75 -52 -122.5t-105 -74.5t-136 -39.5t-147 -15
t-137 -2.5zM-31 0l54 328h808q14 0 23.5 8t11.5 22l9 51h373l-11 -63q-29 -166 -141.5 -256t-295.5 -90h-831zM65 582l47 287h791l-47 -287h-791z" />
    <glyph glyph-name="currency" unicode="&#xa4;" horiz-adv-x="1599" 
d="M709 -20q-129 0 -234.5 47.5t-177 133t-101 200t-7.5 247.5t89 247t167 199t221.5 132.5t250.5 47.5q127 0 231.5 -47.5t177 -132.5t103 -199t8.5 -247t-90.5 -247.5t-169 -200t-221 -133t-247.5 -47.5zM745 190q87 0 168 31t148.5 88t113.5 133t61 166
q20 121 -21.5 215.5t-128 149t-203.5 53.5q-119 1 -223.5 -53.5t-176 -149t-91.5 -215.5q-20 -119 19.5 -214t126.5 -149.5t207 -54.5zM1321 908l-128 156l243 208l131 -158zM1219 -32l-174 206l180 154l178 -202zM195 -32l-128 158l244 202l130 -154zM407 908l-175 206
l180 158l178 -208z" />
    <glyph glyph-name="yen" unicode="&#xa5;" horiz-adv-x="1179" 
d="M579 1490l143 -698l-300 -230l-247 928h404zM549 802l367 688h405l-559 -928zM823 786l-130 -786h-398l130 786h398zM1097 786l-35 -212h-983l34 212h984zM1049 498l-35 -212h-984l36 212h983z" />
    <glyph glyph-name="brokenbar" unicode="&#xa6;" horiz-adv-x="789" 
d="M199 424h354l-116 -704h-355zM729 1490l-116 -702h-354l116 702h354z" />
    <glyph glyph-name="section" unicode="&#xa7;" horiz-adv-x="1117" 
d="M422 -300q-143 0 -243 50.5t-147 141.5t-30 213l342 11q-7 -48 27 -75.5t101 -27.5q61 0 98.5 22.5t44.5 63.5q4 26 -7 47t-38.5 38.5t-75.5 29.5l-237 61q-75 20 -125 61.5t-71 101t-8 132.5q13 76 52.5 124t91.5 72.5t101 27.5v1q-69 48 -104.5 124.5t-16.5 194.5
q21 125 91 214.5t181 137.5t254 48t238 -47.5t137 -136t25 -211.5l-344 -11q6 45 -21 69.5t-85 24.5q-55 0 -89 -23t-41 -66q-5 -30 7 -55t44 -43.5t84 -31.5l236 -57q71 -17 119 -56t68.5 -95.5t8.5 -126.5q-12 -73 -52.5 -125t-94 -81t-106.5 -36l-1 -1q59 -31 89.5 -80.5
t39 -109t-2.5 -121.5q-20 -119 -95 -208t-189.5 -137.5t-255.5 -48.5zM651 470q18 -4 41 1.5t44.5 22t33.5 45.5q10 25 7 52t-26 50.5t-72 35.5l-191 48q-18 5 -42.5 1t-47.5 -20t-36 -47q-14 -33 -6 -63t34 -51.5t65 -30.5z" />
    <glyph glyph-name="dieresis" unicode="&#xa8;" horiz-adv-x="1280" 
d="M976 1158q-85 0 -131.5 52t-32.5 132q13 80 77 132.5t148 52.5q85 0 132 -52.5t34 -132.5q-14 -80 -78.5 -132t-148.5 -52zM508 1158q-84 0 -130.5 52t-31.5 132q12 80 75.5 132.5t148.5 52.5q86 0 132.5 -52.5t33.5 -132.5q-14 -80 -78 -132t-150 -52z" />
    <glyph glyph-name="copyright" unicode="&#xa9;" horiz-adv-x="1849" 
d="M567 744q19 110 85 199.5t164 143t207 53.5q97 0 172.5 -43t117.5 -116.5t36 -166.5h-242q-2 42 -35 68t-82 26q-44 0 -85.5 -21.5t-69.5 -58.5t-36 -82q-7 -45 9 -82t50 -59.5t78 -22.5q48 0 90 26t58 66h242q-25 -92 -88 -165.5t-149.5 -116t-183.5 -42.5
q-110 0 -192.5 53.5t-123 143t-22.5 197.5zM833 -23q-137 0 -255 49.5t-207 138t-139.5 205t-50.5 249.5q0 183 71.5 344t196.5 285t289 194.5t349 70.5q155 0 282.5 -57.5t215.5 -159t127 -235.5t18 -288q-20 -162 -101 -305.5t-205 -254t-276 -173.5t-315 -63zM881 267
q101 0 196 39t172.5 107.5t127.5 158t63 191.5q17 127 -31.5 231.5t-144.5 166.5t-225 62q-115 0 -216.5 -44t-179.5 -121t-122.5 -177.5t-44.5 -213.5q0 -110 54 -201.5t146 -145t205 -53.5z" />
    <glyph glyph-name="ordfeminine" unicode="&#xaa;" horiz-adv-x="951" 
d="M349 638q-84 0 -145 27t-89 82.5t-14 138.5q15 94 67.5 150t130.5 84t170 34q116 8 166 23t56 51v4q5 32 -20 51t-74 19q-34 0 -61 -9.5t-44.5 -27.5t-26.5 -45l-276 7q23 89 82.5 153t152.5 98.5t218 34.5q94 0 164 -20t115 -57.5t62.5 -92t5.5 -123.5l-94 -567h-293
l20 119h-4q-51 -72 -117 -103t-152 -31zM477 829q39 0 76 15t63 42.5t32 66.5l12 71q-16 -7 -38 -12t-48.5 -10t-58.5 -10q-56 -9 -89 -31.5t-38 -57.5q-6 -35 19.5 -54.5t69.5 -19.5z" />
    <glyph glyph-name="guillemotleft" unicode="&#xab;" horiz-adv-x="1442" 
d="M375 144l-302 447l451 447h432l-443 -447l295 -447h-433zM897 144l-302 447l451 447h432l-443 -447l295 -447h-433z" />
    <glyph glyph-name="logicalnot" unicode="&#xac;" horiz-adv-x="1395" 
d="M807 303l33 201h-638l52 310h964l-85 -511h-326z" />
    <glyph glyph-name="registered" unicode="&#xae;" horiz-adv-x="1325" 
d="M629 346q-120 0 -218 45.5t-164.5 125.5t-93.5 185.5t-7 225.5t82.5 225.5t155 185.5t205.5 125.5t233 45.5q121 0 219 -45.5t164.5 -125.5t94.5 -185.5t8 -225.5t-82.5 -225.5t-156 -185.5t-206.5 -125.5t-234 -45.5zM656 510q87 0 169 32.5t149 89.5t112 133t60 163
q19 116 -22 210.5t-127 151t-202 56.5q-86 0 -167 -32.5t-148.5 -90t-112.5 -133t-59 -162.5q-19 -115 21.5 -210t126 -151.5t200.5 -56.5zM768 663l-64 244h163l77 -244h-176zM459 663l88 536h248q68 0 113.5 -23t64.5 -66t10 -101q-9 -57 -43.5 -98t-88.5 -63.5
t-125 -22.5h-139l20 124h130q32 0 54 15.5t26 42.5q6 28 -11 44t-50 16h-64l-66 -404h-167z" />
    <glyph glyph-name="macron" unicode="&#xaf;" horiz-adv-x="783" 
d="M845 1457l-39 -232h-600l39 232h600z" />
    <glyph glyph-name="degree" unicode="&#xb0;" horiz-adv-x="923" 
d="M512 754q-103 0 -181 50t-117.5 134.5t-26.5 187.5q14 103 75 187.5t152 134.5t194 50q102 0 180.5 -50t117.5 -134.5t25 -187.5q-12 -103 -73 -187.5t-152 -134.5t-194 -50zM544 1000q35 1 65 18t50.5 45.5t25.5 62.5q5 35 -8.5 63t-39.5 45t-61 16q-34 1 -65 -16
t-51 -45t-25 -63q-5 -34 8.5 -62.5t40 -45.5t60.5 -18z" />
    <glyph glyph-name="plusminus" unicode="&#xb1;" horiz-adv-x="1395" 
d="M75 46l50 304h1082l-50 -304h-1082zM177 664l49 290h1082l-49 -290h-1082zM518 442l121 734h326l-121 -734h-326z" />
    <glyph glyph-name="two.sups" unicode="&#xb2;" horiz-adv-x="863" 
d="M128 861l32 194l388 246q23 15 50.5 32.5t49.5 39.5t26 52q6 36 -18.5 58t-69.5 22q-48 0 -82.5 -27.5t-43.5 -81.5h-258q26 150 138.5 235t281.5 85q161 0 250 -72t68 -200q-9 -48 -29 -88t-54.5 -76t-84 -69.5t-116.5 -67.5l-111 -64l-1 -3h339l-36 -215h-719z" />
    <glyph glyph-name="three.sups" unicode="&#xb3;" horiz-adv-x="883" 
d="M495 848q-127 0 -204 43.5t-107 114t-17 150.5h266q-7 -46 18.5 -73t77.5 -27q47 0 80 19.5t38 51.5q5 33 -23.5 53t-80.5 20h-102l29 173h101q53 0 84.5 18.5t36.5 50.5t-18 52t-66 20q-45 0 -77.5 -21.5t-38.5 -54.5h-262q13 80 68.5 142.5t143.5 99t200 36.5
q157 0 244.5 -67.5t69.5 -173.5q-12 -76 -73.5 -121t-140.5 -50v-4q107 -9 151.5 -65.5t31.5 -131.5q-12 -74 -70.5 -131.5t-151 -90.5t-208.5 -33z" />
    <glyph glyph-name="acute" unicode="&#xb4;" horiz-adv-x="630" 
d="M150 1198l241 326h362l-339 -326h-264z" />
    <glyph glyph-name="uni00B5" unicode="&#xb5;" horiz-adv-x="1314" 
d="M-68 -418l246 1488h400l-99 -598q-9 -54 1.5 -93t41 -60t78.5 -21q49 0 86 21t61 60t33 93l99 598h400l-116 -700q-5 -31 8.5 -48.5t44.5 -17.5h58l-50 -304h-204q-151 0 -211 82t-35 234l17 101h56q-18 -112 -48 -186.5t-67.5 -118t-78.5 -62t-81 -18.5
q-43 0 -79.5 18.5t-60.5 62t-30 118t12 186.5h56l-138 -835h-400z" />
    <glyph glyph-name="paragraph" unicode="&#xb6;" horiz-adv-x="1194" 
d="M1186 1198h-437l-107 -646h-88q-167 0 -271.5 61t-146 167.5t-19.5 241.5q23 134 99 239.5t201.5 167t292.5 61.5h525zM731 0l247 1490h290l-247 -1490h-290z" />
    <glyph glyph-name="periodcentered" unicode="&#xb7;" horiz-adv-x="593" 
d="M310 498q-94 0 -150 68.5t-40 164.5q13 77 75.5 129t142.5 52q94 0 149.5 -68.5t39.5 -164.5q-13 -76 -75.5 -128.5t-141.5 -52.5z" />
    <glyph glyph-name="cedilla" unicode="&#xb8;" horiz-adv-x="889" 
d="M141 -418l22 137h123q40 0 62.5 13.5t26.5 41.5q5 27 -12.5 40.5t-58.5 13.5h-87l77 212h137l-7 -40l-15 -78q92 3 134.5 -44t30.5 -120q-15 -87 -84.5 -131.5t-190.5 -44.5h-158z" />
    <glyph glyph-name="one.sups" unicode="&#xb9;" horiz-adv-x="601" 
d="M723 1703l-140 -842h-271l100 602h-3l-218 -112l37 227l239 125h256z" />
    <glyph glyph-name="ordmasculine" unicode="&#xba;" horiz-adv-x="993" 
d="M514 635q-136 0 -230 54t-134 152.5t-19 232.5q23 133 96 231.5t184 153t248 54.5q138 0 231 -54.5t133.5 -153t17.5 -231.5q-22 -133 -95 -232t-184 -153t-248 -54zM553 870q43 0 80.5 23.5t64 69t37.5 111.5t-0.5 111.5t-41 69t-73.5 23.5q-43 0 -80.5 -23.5t-64 -69
t-37.5 -111.5t0.5 -111.5t41.5 -69t73 -23.5z" />
    <glyph glyph-name="guillemotright" unicode="&#xbb;" horiz-adv-x="1442" 
d="M-18 144l443 447l-295 447h433l302 -447l-451 -447h-432zM504 144l443 447l-295 447h433l302 -447l-451 -447h-432z" />
    <glyph glyph-name="onequarter" unicode="&#xbc;" horiz-adv-x="1749" 
d="M623 1490l-139 -842h-237l105 632h-3l-199 -118l33 202l216 126h224zM83 0l1271 1490h252l-1271 -1490h-252zM912 146l31 185l411 511h159l-38 -229h-89l-219 -282l-1 -3h493l-31 -182h-716zM1286 0l34 203l15 81l93 558h227l-140 -842h-229z" />
    <glyph glyph-name="onehalf" unicode="&#xbd;" horiz-adv-x="1809" 
d="M623 1490l-139 -842h-237l105 632h-3l-199 -118l33 202l216 126h224zM83 0l1271 1490h252l-1271 -1490h-252zM1022 0l28 170l352 256q24 18 51 39t48.5 47t26.5 58q9 48 -14 73.5t-65 25.5q-44 0 -79 -31.5t-45 -90.5h-225q23 143 119 225t244 82q145 0 229.5 -71
t62.5 -197q-7 -42 -24 -78.5t-46.5 -72.5t-73 -74.5t-104.5 -83.5l-112 -85l-1 -3h299l-31 -189h-640z" />
    <glyph glyph-name="threequarters" unicode="&#xbe;" horiz-adv-x="1931" 
d="M412 635q-111 0 -181 40.5t-98 106.5t-15 144h233q-9 -47 15 -76t73 -29q44 0 75 24.5t37 61.5q7 41 -21.5 63.5t-78.5 22.5h-84l27 164h84q46 0 80 20.5t41 61.5q7 38 -15 61t-60 23q-41 0 -73 -25t-40 -66h-228q13 77 62 138t126.5 96.5t177.5 35.5q140 0 218.5 -67
t62.5 -170q-12 -74 -66.5 -121t-130.5 -55v-3q93 -10 133.5 -65t28.5 -132q-18 -110 -123 -182t-260 -72zM264 0l1271 1490h252l-1271 -1490h-252zM1094 146l31 185l411 511h159l-38 -229h-89l-219 -282l-1 -3h493l-31 -182h-716zM1468 0l34 203l15 81l93 558h227l-140 -842
h-229z" />
    <glyph glyph-name="questiondown" unicode="&#xbf;" horiz-adv-x="1203" 
d="M796 605l-6 -34q-17 -97 -47.5 -160.5t-83.5 -108t-139 -85.5q-75 -37 -119 -81.5t-52 -98.5q-7 -42 7.5 -73.5t46.5 -49.5t78 -18q51 0 92.5 21.5t69.5 60t36 90.5h372q-24 -146 -101 -255t-200.5 -169t-284.5 -60q-157 0 -281 51t-188 143t-43 216q20 120 85.5 208.5
t173.5 149.5q64 36 114.5 70t83 74t41.5 92l3 17h342zM704 1114q89 0 139.5 -59.5t36.5 -146.5t-84.5 -146.5t-159.5 -59.5t-139 59.5t-36 146.5t84.5 146.5t158.5 59.5z" />
    <glyph glyph-name="Agrave" unicode="&#xc0;" horiz-adv-x="1579" 
d="M-78 0l743 1490h558l257 -1490h-452l-72 578q-23 188 -42.5 375.5t-34.5 386.5h107q-80 -199 -161 -386.5t-168 -375.5l-267 -578h-468zM334 254l52 316h820l-52 -316h-820zM854 1618l-233 326h363l134 -326h-264z" />
    <glyph glyph-name="Aacute" unicode="&#xc1;" horiz-adv-x="1579" 
d="M-78 0l743 1490h558l257 -1490h-452l-72 578q-23 188 -42.5 375.5t-34.5 386.5h107q-80 -199 -161 -386.5t-168 -375.5l-267 -578h-468zM334 254l52 316h820l-52 -316h-820zM820 1618l241 326h362l-339 -326h-264z" />
    <glyph glyph-name="Acircumflex" unicode="&#xc2;" horiz-adv-x="1579" 
d="M-78 0l743 1490h558l257 -1490h-452l-72 578q-23 188 -42.5 375.5t-34.5 386.5h107q-80 -199 -161 -386.5t-168 -375.5l-267 -578h-468zM334 254l52 316h820l-52 -316h-820zM843 1618h-295v2l325 324h293l225 -324l-1 -2h-294l-104 161z" />
    <glyph glyph-name="Atilde" unicode="&#xc3;" horiz-adv-x="1579" 
d="M-78 0l743 1490h558l257 -1490h-452l-72 578q-23 188 -42.5 375.5t-34.5 386.5h107q-80 -199 -161 -386.5t-168 -375.5l-267 -578h-468zM334 254l52 316h820l-52 -316h-820zM1118 1620q-57 0 -93 18t-61 42t-46.5 42t-49.5 18q-35 0 -59.5 -28.5t-35.5 -83.5h-198
q29 158 113 235t187 77q56 0 93 -17.5t63 -40t47.5 -40t47.5 -17.5q42 0 64 28.5t32 80.5h196q-28 -154 -113 -234t-187 -80z" />
    <glyph glyph-name="Adieresis" unicode="&#xc4;" horiz-adv-x="1579" 
d="M-78 0l743 1490h558l257 -1490h-452l-72 578q-23 188 -42.5 375.5t-34.5 386.5h107q-80 -199 -161 -386.5t-168 -375.5l-267 -578h-468zM334 254l52 316h820l-52 -316h-820zM1195 1578q-85 0 -131.5 52t-32.5 132q13 80 77 132.5t148 52.5q85 0 132 -52.5t34 -132.5
q-14 -80 -78.5 -132t-148.5 -52zM727 1578q-84 0 -130.5 52t-31.5 132q12 80 75.5 132.5t148.5 52.5q86 0 132.5 -52.5t33.5 -132.5q-14 -80 -78 -132t-150 -52z" />
    <glyph glyph-name="Aring" unicode="&#xc5;" horiz-adv-x="1579" 
d="M-78 0l743 1490h558l257 -1490h-452l-72 578q-23 188 -42.5 375.5t-34.5 386.5h107q-80 -199 -161 -386.5t-168 -375.5l-267 -578h-468zM334 254l52 316h820l-52 -316h-820zM981 1566q-85 0 -144 34t-85.5 94.5t-13.5 138.5q11 62 49.5 110.5t99 76t133.5 27.5
q85 0 144 -34t85.5 -94t13.5 -138q-10 -63 -49 -111.5t-99 -76t-134 -27.5zM985 1711q43 0 75 26.5t39 69.5q7 42 -16 69t-67 27q-43 0 -74.5 -27t-38.5 -69q-7 -43 15.5 -69.5t66.5 -26.5z" />
    <glyph glyph-name="AE" unicode="&#xc6;" horiz-adv-x="2115" 
d="M-78 0l827 1490h1458l-56 -340h-675l-41 -245h585l-53 -317h-584l-41 -248h670l-56 -340h-1070l188 1131h-116l-604 -1131h-432zM328 298l50 302h748l-50 -302h-748z" />
    <glyph glyph-name="Ccedilla" unicode="&#xc7;" horiz-adv-x="1514" 
d="M698 -23q-184 0 -325 71.5t-221 210.5t-80 337q0 186 58.5 351.5t168.5 293t265.5 200t347.5 72.5q142 0 258 -39.5t197.5 -115t122.5 -183t34 -243.5h-417q0 52 -13 93.5t-39 70t-64 44t-89 15.5q-107 0 -185.5 -50.5t-129.5 -133t-76 -180.5t-25 -192q0 -87 27 -145.5
t80 -88.5t132 -30q58 0 108.5 15t91.5 44t72 70t49 92h417q-34 -123 -104 -229t-169 -184.5t-223.5 -122t-268.5 -43.5zM458 -412l22 137h123q40 0 62.5 13.5t26.5 41.5q5 27 -12.5 40.5t-58.5 13.5h-87l77 212h137l-7 -40l-15 -78q92 3 134.5 -44t30.5 -120
q-15 -87 -84.5 -131.5t-190.5 -44.5h-158z" />
    <glyph glyph-name="Egrave" unicode="&#xc8;" horiz-adv-x="1286" 
d="M-5 0l247 1490h1136l-57 -346h-723l-38 -230h666l-56 -336h-666l-38 -232h722l-57 -346h-1136zM717 1618l-233 326h363l134 -326h-264z" />
    <glyph glyph-name="Eacute" unicode="&#xc9;" horiz-adv-x="1286" 
d="M-5 0l247 1490h1136l-57 -346h-723l-38 -230h666l-56 -336h-666l-38 -232h722l-57 -346h-1136zM683 1618l241 326h362l-339 -326h-264z" />
    <glyph glyph-name="Ecircumflex" unicode="&#xca;" horiz-adv-x="1286" 
d="M-5 0l247 1490h1136l-57 -346h-723l-38 -230h666l-56 -336h-666l-38 -232h722l-57 -346h-1136zM705 1618h-295v2l325 324h293l225 -324l-1 -2h-294l-104 161z" />
    <glyph glyph-name="Edieresis" unicode="&#xcb;" horiz-adv-x="1286" 
d="M-5 0l247 1490h1136l-57 -346h-723l-38 -230h666l-56 -336h-666l-38 -232h722l-57 -346h-1136zM1058 1578q-85 0 -131.5 52t-32.5 132q13 80 77 132.5t148 52.5q85 0 132 -52.5t34 -132.5q-14 -80 -78.5 -132t-148.5 -52zM590 1578q-84 0 -130.5 52t-31.5 132
q12 80 75.5 132.5t148.5 52.5q86 0 132.5 -52.5t33.5 -132.5q-14 -80 -78 -132t-150 -52z" />
    <glyph glyph-name="Igrave" unicode="&#xcc;" horiz-adv-x="581" 
d="M656 1490l-247 -1490h-414l247 1490h414zM356 1618l-233 326h363l134 -326h-264z" />
    <glyph glyph-name="Iacute" unicode="&#xcd;" horiz-adv-x="581" 
d="M656 1490l-247 -1490h-414l247 1490h414zM322 1618l241 326h362l-339 -326h-264z" />
    <glyph glyph-name="Icircumflex" unicode="&#xce;" horiz-adv-x="581" 
d="M656 1490l-247 -1490h-414l247 1490h414zM344 1618h-295v2l325 324h293l225 -324l-1 -2h-294l-104 161z" />
    <glyph glyph-name="Idieresis" unicode="&#xcf;" horiz-adv-x="581" 
d="M656 1490l-247 -1490h-414l247 1490h414zM697 1578q-85 0 -131.5 52t-32.5 132q13 80 77 132.5t148 52.5q85 0 132 -52.5t34 -132.5q-14 -80 -78.5 -132t-148.5 -52zM229 1578q-84 0 -130.5 52t-31.5 132q12 80 75.5 132.5t148.5 52.5q86 0 132.5 -52.5t33.5 -132.5
q-14 -80 -78 -132t-150 -52z" />
    <glyph glyph-name="Eth" unicode="&#xd0;" horiz-adv-x="1583" 
d="M770 0h-481l57 344h389q120 0 205 41.5t138.5 130.5t75.5 228q24 141 -0.5 230t-98 130.5t-197.5 41.5h-385l57 344h386q230 0 390.5 -91.5t232 -259t32.5 -395.5q-37 -227 -139 -394t-267 -258.5t-395 -91.5zM778 1490l-247 -1490h-414l247 1490h414zM28 618l42 254h855
l-43 -254h-854z" />
    <glyph glyph-name="Ntilde" unicode="&#xd1;" horiz-adv-x="1527" 
d="M-5 0l247 1490h428l264 -585q21 -46 47 -114t53 -146.5t50 -157.5l-62 -90q9 81 22 185t27 202t23 160l91 546h416l-247 -1490h-427l-247 544q-26 59 -57 136.5t-64.5 170.5t-66.5 195l76 19q-9 -105 -21.5 -206.5t-24.5 -183.5t-21 -131l-90 -544h-416zM1093 1620
q-57 0 -93 18t-61 42t-46.5 42t-49.5 18q-35 0 -59.5 -28.5t-35.5 -83.5h-198q29 158 113 235t187 77q56 0 93 -17.5t63 -40t47.5 -40t47.5 -17.5q42 0 64 28.5t32 80.5h196q-28 -154 -113 -234t-187 -80z" />
    <glyph glyph-name="Ograve" unicode="&#xd2;" horiz-adv-x="1543" 
d="M700 -23q-184 0 -325.5 72t-222 210.5t-80.5 337.5q0 185 59 350.5t169 293t265.5 200t347.5 72.5q183 0 324.5 -71.5t222.5 -209.5t81 -339q0 -189 -60 -354.5t-171 -292t-265.5 -198t-344.5 -71.5zM718 335q106 0 183 51t127 134t74 180.5t24 190.5q0 86 -26 144.5
t-77 89t-128 30.5q-105 0 -181.5 -50.5t-127 -133t-75.5 -180t-25 -192.5q0 -85 26.5 -144t78 -89.5t127.5 -30.5zM836 1618l-233 326h363l134 -326h-264z" />
    <glyph glyph-name="Oacute" unicode="&#xd3;" horiz-adv-x="1543" 
d="M700 -23q-184 0 -325.5 72t-222 210.5t-80.5 337.5q0 185 59 350.5t169 293t265.5 200t347.5 72.5q183 0 324.5 -71.5t222.5 -209.5t81 -339q0 -189 -60 -354.5t-171 -292t-265.5 -198t-344.5 -71.5zM718 335q106 0 183 51t127 134t74 180.5t24 190.5q0 86 -26 144.5
t-77 89t-128 30.5q-105 0 -181.5 -50.5t-127 -133t-75.5 -180t-25 -192.5q0 -85 26.5 -144t78 -89.5t127.5 -30.5zM802 1618l241 326h362l-339 -326h-264z" />
    <glyph glyph-name="Ocircumflex" unicode="&#xd4;" horiz-adv-x="1543" 
d="M700 -23q-184 0 -325.5 72t-222 210.5t-80.5 337.5q0 185 59 350.5t169 293t265.5 200t347.5 72.5q183 0 324.5 -71.5t222.5 -209.5t81 -339q0 -189 -60 -354.5t-171 -292t-265.5 -198t-344.5 -71.5zM718 335q106 0 183 51t127 134t74 180.5t24 190.5q0 86 -26 144.5
t-77 89t-128 30.5q-105 0 -181.5 -50.5t-127 -133t-75.5 -180t-25 -192.5q0 -85 26.5 -144t78 -89.5t127.5 -30.5zM825 1618h-295v2l325 324h293l225 -324l-1 -2h-294l-104 161z" />
    <glyph glyph-name="Otilde" unicode="&#xd5;" horiz-adv-x="1543" 
d="M700 -23q-184 0 -325.5 72t-222 210.5t-80.5 337.5q0 185 59 350.5t169 293t265.5 200t347.5 72.5q183 0 324.5 -71.5t222.5 -209.5t81 -339q0 -189 -60 -354.5t-171 -292t-265.5 -198t-344.5 -71.5zM718 335q106 0 183 51t127 134t74 180.5t24 190.5q0 86 -26 144.5
t-77 89t-128 30.5q-105 0 -181.5 -50.5t-127 -133t-75.5 -180t-25 -192.5q0 -85 26.5 -144t78 -89.5t127.5 -30.5zM1099 1620q-57 0 -93 18t-61 42t-46.5 42t-49.5 18q-35 0 -59.5 -28.5t-35.5 -83.5h-198q29 158 113 235t187 77q56 0 93 -17.5t63 -40t47.5 -40t47.5 -17.5
q42 0 64 28.5t32 80.5h196q-28 -154 -113 -234t-187 -80z" />
    <glyph glyph-name="Odieresis" unicode="&#xd6;" horiz-adv-x="1543" 
d="M700 -23q-184 0 -325.5 72t-222 210.5t-80.5 337.5q0 185 59 350.5t169 293t265.5 200t347.5 72.5q183 0 324.5 -71.5t222.5 -209.5t81 -339q0 -189 -60 -354.5t-171 -292t-265.5 -198t-344.5 -71.5zM718 335q106 0 183 51t127 134t74 180.5t24 190.5q0 86 -26 144.5
t-77 89t-128 30.5q-105 0 -181.5 -50.5t-127 -133t-75.5 -180t-25 -192.5q0 -85 26.5 -144t78 -89.5t127.5 -30.5zM1177 1578q-85 0 -131.5 52t-32.5 132q13 80 77 132.5t148 52.5q85 0 132 -52.5t34 -132.5q-14 -80 -78.5 -132t-148.5 -52zM709 1578q-84 0 -130.5 52
t-31.5 132q12 80 75.5 132.5t148.5 52.5q86 0 132.5 -52.5t33.5 -132.5q-14 -80 -78 -132t-150 -52z" />
    <glyph glyph-name="multiply" unicode="&#xd7;" horiz-adv-x="1395" 
d="M943 32l-753 898l287 248l750 -902zM287 32l-206 244l1052 902l203 -248z" />
    <glyph glyph-name="Oslash" unicode="&#xd8;" horiz-adv-x="1543" 
d="M700 -23q-184 0 -325.5 72t-222 210.5t-80.5 337.5q0 185 59 350.5t169 293t265.5 200t347.5 72.5q183 0 324.5 -71.5t222.5 -209.5t81 -339q0 -189 -60 -354.5t-171 -292t-265.5 -198t-344.5 -71.5zM718 335q106 0 183 51t127 134t74 180.5t24 190.5q0 86 -26 144.5
t-77 89t-128 30.5q-105 0 -181.5 -50.5t-127 -133t-75.5 -180t-25 -192.5q0 -85 26.5 -144t78 -89.5t127.5 -30.5zM135 -87l-167 163l1512 1500l166 -163z" />
    <glyph glyph-name="Ugrave" unicode="&#xd9;" horiz-adv-x="1452" 
d="M654 -23q-200 0 -337.5 71.5t-198.5 199.5t-33 296l156 946h404l-154 -938q-11 -69 8 -119.5t63.5 -78t108.5 -27.5q75 0 139 34t107 91t54 126l151 912h404l-161 -972q-28 -168 -125 -289.5t-247 -186.5t-339 -65zM790 1618l-233 326h363l134 -326h-264z" />
    <glyph glyph-name="Uacute" unicode="&#xda;" horiz-adv-x="1452" 
d="M654 -23q-200 0 -337.5 71.5t-198.5 199.5t-33 296l156 946h404l-154 -938q-11 -69 8 -119.5t63.5 -78t108.5 -27.5q75 0 139 34t107 91t54 126l151 912h404l-161 -972q-28 -168 -125 -289.5t-247 -186.5t-339 -65zM756 1618l241 326h362l-339 -326h-264z" />
    <glyph glyph-name="Ucircumflex" unicode="&#xdb;" horiz-adv-x="1452" 
d="M654 -23q-200 0 -337.5 71.5t-198.5 199.5t-33 296l156 946h404l-154 -938q-11 -69 8 -119.5t63.5 -78t108.5 -27.5q75 0 139 34t107 91t54 126l151 912h404l-161 -972q-28 -168 -125 -289.5t-247 -186.5t-339 -65zM779 1618h-295v2l325 324h293l225 -324l-1 -2h-294
l-104 161z" />
    <glyph glyph-name="Udieresis" unicode="&#xdc;" horiz-adv-x="1452" 
d="M654 -23q-200 0 -337.5 71.5t-198.5 199.5t-33 296l156 946h404l-154 -938q-11 -69 8 -119.5t63.5 -78t108.5 -27.5q75 0 139 34t107 91t54 126l151 912h404l-161 -972q-28 -168 -125 -289.5t-247 -186.5t-339 -65zM1131 1578q-85 0 -131.5 52t-32.5 132q13 80 77 132.5
t148 52.5q85 0 132 -52.5t34 -132.5q-14 -80 -78.5 -132t-148.5 -52zM663 1578q-84 0 -130.5 52t-31.5 132q12 80 75.5 132.5t148.5 52.5q86 0 132.5 -52.5t33.5 -132.5q-14 -80 -78 -132t-150 -52z" />
    <glyph glyph-name="Yacute" unicode="&#xdd;" horiz-adv-x="1516" 
d="M476 0l85 510l-393 980h460l143 -425q18 -54 33 -109t30 -113h-59q31 58 62.5 113t65.5 109l272 425h489l-701 -980l-85 -510h-402zM788 1618l241 326h362l-339 -326h-264z" />
    <glyph glyph-name="Thorn" unicode="&#xde;" horiz-adv-x="1403" 
d="M244 1490h405l-246 -1490h-406zM390 1240h389q194 0 317.5 -61t175 -167.5t28.5 -245.5q-23 -140 -110 -246.5t-230.5 -166t-337.5 -59.5h-389l49 296h389q81 1 131.5 27.5t77 66t33.5 78.5q6 41 -7 82t-54.5 68.5t-122.5 27.5h-388z" />
    <glyph glyph-name="germandbls" unicode="&#xdf;" horiz-adv-x="1395" 
d="M-5 0l180 1088q22 132 106.5 226.5t220.5 145t311 50.5q158 0 286.5 -45t196 -137t44.5 -234q-18 -107 -83.5 -186t-166.5 -102l-3 -18q147 -7 211.5 -113.5t37.5 -264.5q-23 -139 -103 -230t-202 -135.5t-270 -44.5h-220l52 314h134q57 0 101.5 17.5t73 50.5t35.5 78
q11 69 -38.5 107.5t-145.5 38.5h-106l48 292h68q39 0 71 18t54 49t28 71q11 66 -26 107t-117 41q-84 0 -139.5 -46t-69.5 -126l-167 -1012h-402z" />
    <glyph glyph-name="agrave" unicode="&#xe0;" horiz-adv-x="1284" 
d="M409 -22q-134 0 -225.5 67.5t-127.5 192.5t-7 298q28 171 108 295.5t192.5 192.5t239.5 68q72 0 125.5 -20t90 -57.5t56.5 -90.5h5l24 146h392l-177 -1070h-392l27 162h-5q-32 -58 -81.5 -99t-111 -63t-133.5 -22zM586 291q55 0 101.5 30t79 85t44.5 130
q13 75 -1.5 129.5t-51 84.5t-91.5 30t-98 -30t-72.5 -84.5t-41.5 -129.5t-1.5 -130t44.5 -85t88 -30zM651 1198l-233 326h363l134 -326h-264z" />
    <glyph glyph-name="aacute" unicode="&#xe1;" horiz-adv-x="1284" 
d="M409 -22q-134 0 -225.5 67.5t-127.5 192.5t-7 298q28 171 108 295.5t192.5 192.5t239.5 68q72 0 125.5 -20t90 -57.5t56.5 -90.5h5l24 146h392l-177 -1070h-392l27 162h-5q-32 -58 -81.5 -99t-111 -63t-133.5 -22zM586 291q55 0 101.5 30t79 85t44.5 130
q13 75 -1.5 129.5t-51 84.5t-91.5 30t-98 -30t-72.5 -84.5t-41.5 -129.5t-1.5 -130t44.5 -85t88 -30zM617 1198l241 326h362l-339 -326h-264z" />
    <glyph glyph-name="acircumflex" unicode="&#xe2;" horiz-adv-x="1284" 
d="M409 -22q-134 0 -225.5 67.5t-127.5 192.5t-7 298q28 171 108 295.5t192.5 192.5t239.5 68q72 0 125.5 -20t90 -57.5t56.5 -90.5h5l24 146h392l-177 -1070h-392l27 162h-5q-32 -58 -81.5 -99t-111 -63t-133.5 -22zM586 291q55 0 101.5 30t79 85t44.5 130
q13 75 -1.5 129.5t-51 84.5t-91.5 30t-98 -30t-72.5 -84.5t-41.5 -129.5t-1.5 -130t44.5 -85t88 -30zM639 1198h-295v2l325 324h293l225 -324l-1 -2h-294l-104 161z" />
    <glyph glyph-name="atilde" unicode="&#xe3;" horiz-adv-x="1284" 
d="M409 -22q-134 0 -225.5 67.5t-127.5 192.5t-7 298q28 171 108 295.5t192.5 192.5t239.5 68q72 0 125.5 -20t90 -57.5t56.5 -90.5h5l24 146h392l-177 -1070h-392l27 162h-5q-32 -58 -81.5 -99t-111 -63t-133.5 -22zM586 291q55 0 101.5 30t79 85t44.5 130
q13 75 -1.5 129.5t-51 84.5t-91.5 30t-98 -30t-72.5 -84.5t-41.5 -129.5t-1.5 -130t44.5 -85t88 -30zM914 1200q-57 0 -93 18t-61 42t-46.5 42t-49.5 18q-35 0 -59.5 -28.5t-35.5 -83.5h-198q29 158 113 235t187 77q56 0 93 -17.5t63 -40t47.5 -40t47.5 -17.5q42 0 64 28.5
t32 80.5h196q-28 -154 -113 -234t-187 -80z" />
    <glyph glyph-name="adieresis" unicode="&#xe4;" horiz-adv-x="1284" 
d="M409 -22q-134 0 -225.5 67.5t-127.5 192.5t-7 298q28 171 108 295.5t192.5 192.5t239.5 68q72 0 125.5 -20t90 -57.5t56.5 -90.5h5l24 146h392l-177 -1070h-392l27 162h-5q-32 -58 -81.5 -99t-111 -63t-133.5 -22zM586 291q55 0 101.5 30t79 85t44.5 130
q13 75 -1.5 129.5t-51 84.5t-91.5 30t-98 -30t-72.5 -84.5t-41.5 -129.5t-1.5 -130t44.5 -85t88 -30zM992 1158q-85 0 -131.5 52t-32.5 132q13 80 77 132.5t148 52.5q85 0 132 -52.5t34 -132.5q-14 -80 -78.5 -132t-148.5 -52zM524 1158q-84 0 -130.5 52t-31.5 132
q12 80 75.5 132.5t148.5 52.5q86 0 132.5 -52.5t33.5 -132.5q-14 -80 -78 -132t-150 -52z" />
    <glyph glyph-name="aring" unicode="&#xe5;" horiz-adv-x="1284" 
d="M409 -22q-134 0 -225.5 67.5t-127.5 192.5t-7 298q28 171 108 295.5t192.5 192.5t239.5 68q72 0 125.5 -20t90 -57.5t56.5 -90.5h5l24 146h392l-177 -1070h-392l27 162h-5q-32 -58 -81.5 -99t-111 -63t-133.5 -22zM586 291q55 0 101.5 30t79 85t44.5 130
q13 75 -1.5 129.5t-51 84.5t-91.5 30t-98 -30t-72.5 -84.5t-41.5 -129.5t-1.5 -130t44.5 -85t88 -30zM757 1151q-77 0 -132 31.5t-80.5 87t-13.5 126.5q12 72 55.5 127.5t109.5 87t142 31.5q78 0 133 -31.5t80.5 -87t13.5 -127.5q-11 -71 -55 -126.5t-110 -87t-143 -31.5z
M782 1298q42 0 74.5 28t39.5 70q8 43 -15.5 71t-66.5 28q-42 0 -74.5 -28t-40.5 -71q-7 -42 16.5 -70t66.5 -28z" />
    <glyph glyph-name="ae" unicode="&#xe6;" horiz-adv-x="1879" 
d="M384 -19q-197 0 -298 85t-77 230q17 102 79.5 176t160.5 115t223 44q52 1 103.5 1.5t103 1.5t102.5 2l-34 -211q-52 -1 -104 -2.5t-105 -3.5q-65 -1 -104 -29.5t-46 -69.5q-7 -42 21.5 -65.5t79.5 -23.5q44 0 87 17t74.5 50t39.5 81l56 338q8 47 -22 72t-93 25
q-41 0 -73 -11.5t-54 -33t-31 -52.5l-364 8q27 101 100.5 184t192 133t278.5 50q156 0 240 -47t110.5 -128t9.5 -184l-58 -349l-17 -5q-21 -126 -89.5 -215t-190 -136t-301.5 -47zM1225 -24q-179 0 -303 64t-178 188.5t-24 305.5q21 130 78 233t144 175.5t198 111t241 38.5
q127 0 232 -36t167.5 -108t62.5 -181q0 -113 -71.5 -181t-205 -103t-320 -47t-417.5 -12l37 216q199 0 320.5 5t185 16.5t86 29t22.5 41.5q0 35 -36.5 56.5t-104.5 21.5q-62 0 -105.5 -18t-70 -59.5t-39.5 -114.5q-4 -24 -10.5 -64t-11.5 -80t-5 -65q0 -89 45.5 -121
t115.5 -32q79 0 123.5 28.5t58.5 75.5h366q-58 -174 -203.5 -279t-377.5 -105z" />
    <glyph glyph-name="ccedilla" unicode="&#xe7;" horiz-adv-x="1202" 
d="M545 -23q-156 0 -268 58t-172.5 163.5t-60.5 246.5q0 129 43.5 245.5t127 207t203.5 142.5t270 52q112 0 206 -32t161 -91.5t98.5 -143t19.5 -187.5l-382 -12q3 32 -1 61t-16 50.5t-33.5 34t-54.5 12.5q-61 0 -106.5 -33t-75.5 -85.5t-44.5 -114t-14.5 -118.5
q0 -49 12.5 -82t39 -49.5t65.5 -16.5q35 0 67 12t59.5 34t46.5 51.5t27 64.5l377 -12q-19 -104 -70.5 -188.5t-130 -144.5t-178 -92.5t-215.5 -32.5zM316 -418l22 137h123q40 0 62.5 13.5t26.5 41.5q5 27 -12.5 40.5t-58.5 13.5h-87l77 212h137l-7 -40l-15 -78
q92 3 134.5 -44t30.5 -120q-15 -87 -84.5 -131.5t-190.5 -44.5h-158z" />
    <glyph glyph-name="egrave" unicode="&#xe8;" horiz-adv-x="1207" 
d="M554 -24q-175 0 -297 61t-178 179.5t-33 291.5q17 131 71.5 238t141.5 184.5t201 119.5t250 42q127 0 232 -38.5t167.5 -115.5t62.5 -196q0 -122 -71.5 -190t-205 -97.5t-320 -36t-417.5 -6.5l37 229q198 0 319.5 5.5t185.5 16t86.5 28t22.5 41.5q0 37 -36.5 57.5
t-104.5 20.5q-80 0 -124.5 -30t-66 -77.5t-29 -102.5t-14.5 -105q-8 -72 -3 -126t40.5 -83.5t115.5 -29.5q79 0 123 28.5t59 75.5l364 -6q-56 -170 -202.5 -274t-376.5 -104zM629 1198l-233 326h363l134 -326h-264z" />
    <glyph glyph-name="eacute" unicode="&#xe9;" horiz-adv-x="1207" 
d="M554 -24q-175 0 -297 61t-178 179.5t-33 291.5q17 131 71.5 238t141.5 184.5t201 119.5t250 42q127 0 232 -38.5t167.5 -115.5t62.5 -196q0 -122 -71.5 -190t-205 -97.5t-320 -36t-417.5 -6.5l37 229q198 0 319.5 5.5t185.5 16t86.5 28t22.5 41.5q0 37 -36.5 57.5
t-104.5 20.5q-80 0 -124.5 -30t-66 -77.5t-29 -102.5t-14.5 -105q-8 -72 -3 -126t40.5 -83.5t115.5 -29.5q79 0 123 28.5t59 75.5l364 -6q-56 -170 -202.5 -274t-376.5 -104zM595 1198l241 326h362l-339 -326h-264z" />
    <glyph glyph-name="ecircumflex" unicode="&#xea;" horiz-adv-x="1207" 
d="M554 -24q-175 0 -297 61t-178 179.5t-33 291.5q17 131 71.5 238t141.5 184.5t201 119.5t250 42q127 0 232 -38.5t167.5 -115.5t62.5 -196q0 -122 -71.5 -190t-205 -97.5t-320 -36t-417.5 -6.5l37 229q198 0 319.5 5.5t185.5 16t86.5 28t22.5 41.5q0 37 -36.5 57.5
t-104.5 20.5q-80 0 -124.5 -30t-66 -77.5t-29 -102.5t-14.5 -105q-8 -72 -3 -126t40.5 -83.5t115.5 -29.5q79 0 123 28.5t59 75.5l364 -6q-56 -170 -202.5 -274t-376.5 -104zM617 1198h-295v2l325 324h293l225 -324l-1 -2h-294l-104 161z" />
    <glyph glyph-name="edieresis" unicode="&#xeb;" horiz-adv-x="1207" 
d="M554 -24q-175 0 -297 61t-178 179.5t-33 291.5q17 131 71.5 238t141.5 184.5t201 119.5t250 42q127 0 232 -38.5t167.5 -115.5t62.5 -196q0 -122 -71.5 -190t-205 -97.5t-320 -36t-417.5 -6.5l37 229q198 0 319.5 5.5t185.5 16t86.5 28t22.5 41.5q0 37 -36.5 57.5
t-104.5 20.5q-80 0 -124.5 -30t-66 -77.5t-29 -102.5t-14.5 -105q-8 -72 -3 -126t40.5 -83.5t115.5 -29.5q79 0 123 28.5t59 75.5l364 -6q-56 -170 -202.5 -274t-376.5 -104zM970 1158q-85 0 -131.5 52t-32.5 132q13 80 77 132.5t148 52.5q85 0 132 -52.5t34 -132.5
q-14 -80 -78.5 -132t-148.5 -52zM502 1158q-84 0 -130.5 52t-31.5 132q12 80 75.5 132.5t148.5 52.5q86 0 132.5 -52.5t33.5 -132.5q-14 -80 -78 -132t-150 -52z" />
    <glyph glyph-name="igrave" unicode="&#xec;" horiz-adv-x="581" 
d="M1 0l178 1070h400l-177 -1070h-401zM285 1198l-233 326h363l134 -326h-264z" />
    <glyph glyph-name="iacute" unicode="&#xed;" horiz-adv-x="581" 
d="M1 0l178 1070h400l-177 -1070h-401zM251 1198l241 326h362l-339 -326h-264z" />
    <glyph glyph-name="icircumflex" unicode="&#xee;" horiz-adv-x="581" 
d="M1 0l178 1070h400l-177 -1070h-401zM274 1198h-295v2l325 324h293l225 -324l-1 -2h-294l-104 161z" />
    <glyph glyph-name="idieresis" unicode="&#xef;" horiz-adv-x="581" 
d="M1 0l178 1070h400l-177 -1070h-401zM626 1158q-85 0 -131.5 52t-32.5 132q13 80 77 132.5t148 52.5q85 0 132 -52.5t34 -132.5q-14 -80 -78.5 -132t-148.5 -52zM158 1158q-84 0 -130.5 52t-31.5 132q12 80 75.5 132.5t148.5 52.5q86 0 132.5 -52.5t33.5 -132.5
q-14 -80 -78 -132t-150 -52z" />
    <glyph glyph-name="eth" unicode="&#xf0;" horiz-adv-x="1229" 
d="M1070 1394l-802 -388l28 164l802 386zM514 -24q-166 1 -281 67.5t-165.5 187t-23.5 281.5q23 141 98 257.5t189.5 186.5t256.5 70q57 0 104 -12t84.5 -33t63.5 -51h16q-39 112 -127.5 200.5t-196 149.5t-204.5 90l33 194q191 -25 356 -103.5t283 -204.5t171 -294t19 -372
q-30 -182 -122 -320.5t-233 -215.5t-321 -78zM574 270q59 0 108 32t83 93t49 147q14 81 1 138t-51 87.5t-102 30.5t-112 -30.5t-79 -87.5t-44 -138q-14 -85 -0.5 -146.5t51.5 -93.5t96 -32z" />
    <glyph glyph-name="ntilde" unicode="&#xf1;" horiz-adv-x="1280" 
d="M494 562l-92 -562h-401l177 1070h391l-45 -290l-45 12q68 136 168.5 218t251.5 82q123 0 200 -55t105.5 -151.5t7.5 -222.5l-110 -663h-400l99 601q13 80 -21 117.5t-99 37.5q-52 0 -90.5 -23.5t-62.5 -67t-34 -103.5zM897 1200q-57 0 -93 18t-61 42t-46.5 42t-49.5 18
q-35 0 -59.5 -28.5t-35.5 -83.5h-198q29 158 113 235t187 77q56 0 93 -17.5t63 -40t47.5 -40t47.5 -17.5q42 0 64 28.5t32 80.5h196q-28 -154 -113 -234t-187 -80z" />
    <glyph glyph-name="ograve" unicode="&#xf2;" horiz-adv-x="1252" 
d="M554 -23q-158 0 -272.5 57t-176.5 161.5t-62 247.5q0 139 47.5 257.5t134.5 206t207 136.5t266 49q158 0 272.5 -57.5t176 -162t61.5 -247.5q0 -132 -44.5 -249t-129.5 -207t-206 -141t-274 -51zM579 286q58 0 101.5 33t71.5 84.5t42 111.5t14 116q0 51 -18.5 84.5
t-49 50t-67.5 16.5q-58 0 -101.5 -32.5t-72 -84t-42 -111.5t-13.5 -115q0 -77 40.5 -115t94.5 -38zM621 1198l-233 326h363l134 -326h-264z" />
    <glyph glyph-name="oacute" unicode="&#xf3;" horiz-adv-x="1252" 
d="M554 -23q-158 0 -272.5 57t-176.5 161.5t-62 247.5q0 139 47.5 257.5t134.5 206t207 136.5t266 49q158 0 272.5 -57.5t176 -162t61.5 -247.5q0 -132 -44.5 -249t-129.5 -207t-206 -141t-274 -51zM579 286q58 0 101.5 33t71.5 84.5t42 111.5t14 116q0 51 -18.5 84.5
t-49 50t-67.5 16.5q-58 0 -101.5 -32.5t-72 -84t-42 -111.5t-13.5 -115q0 -77 40.5 -115t94.5 -38zM587 1198l241 326h362l-339 -326h-264z" />
    <glyph glyph-name="ocircumflex" unicode="&#xf4;" horiz-adv-x="1252" 
d="M554 -23q-158 0 -272.5 57t-176.5 161.5t-62 247.5q0 139 47.5 257.5t134.5 206t207 136.5t266 49q158 0 272.5 -57.5t176 -162t61.5 -247.5q0 -132 -44.5 -249t-129.5 -207t-206 -141t-274 -51zM579 286q58 0 101.5 33t71.5 84.5t42 111.5t14 116q0 51 -18.5 84.5
t-49 50t-67.5 16.5q-58 0 -101.5 -32.5t-72 -84t-42 -111.5t-13.5 -115q0 -77 40.5 -115t94.5 -38zM609 1198h-295v2l325 324h293l225 -324l-1 -2h-294l-104 161z" />
    <glyph glyph-name="otilde" unicode="&#xf5;" horiz-adv-x="1252" 
d="M554 -23q-158 0 -272.5 57t-176.5 161.5t-62 247.5q0 139 47.5 257.5t134.5 206t207 136.5t266 49q158 0 272.5 -57.5t176 -162t61.5 -247.5q0 -132 -44.5 -249t-129.5 -207t-206 -141t-274 -51zM579 286q58 0 101.5 33t71.5 84.5t42 111.5t14 116q0 51 -18.5 84.5
t-49 50t-67.5 16.5q-58 0 -101.5 -32.5t-72 -84t-42 -111.5t-13.5 -115q0 -77 40.5 -115t94.5 -38zM884 1200q-57 0 -93 18t-61 42t-46.5 42t-49.5 18q-35 0 -59.5 -28.5t-35.5 -83.5h-198q29 158 113 235t187 77q56 0 93 -17.5t63 -40t47.5 -40t47.5 -17.5q42 0 64 28.5
t32 80.5h196q-28 -154 -113 -234t-187 -80z" />
    <glyph glyph-name="odieresis" unicode="&#xf6;" horiz-adv-x="1252" 
d="M554 -23q-158 0 -272.5 57t-176.5 161.5t-62 247.5q0 139 47.5 257.5t134.5 206t207 136.5t266 49q158 0 272.5 -57.5t176 -162t61.5 -247.5q0 -132 -44.5 -249t-129.5 -207t-206 -141t-274 -51zM579 286q58 0 101.5 33t71.5 84.5t42 111.5t14 116q0 51 -18.5 84.5
t-49 50t-67.5 16.5q-58 0 -101.5 -32.5t-72 -84t-42 -111.5t-13.5 -115q0 -77 40.5 -115t94.5 -38zM962 1158q-85 0 -131.5 52t-32.5 132q13 80 77 132.5t148 52.5q85 0 132 -52.5t34 -132.5q-14 -80 -78.5 -132t-148.5 -52zM494 1158q-84 0 -130.5 52t-31.5 132
q12 80 75.5 132.5t148.5 52.5q86 0 132.5 -52.5t33.5 -132.5q-14 -80 -78 -132t-150 -52z" />
    <glyph glyph-name="divide" unicode="&#xf7;" horiz-adv-x="1395" 
d="M1272 756l-50 -302h-1076l50 302h1076zM610 -24q-89 1 -140 62.5t-36 150.5q9 55 43.5 100t84.5 71.5t106 25.5q87 1 137.5 -60.5t36.5 -146.5t-82 -143.5t-150 -59.5zM750 824q-58 0 -101.5 28.5t-64 76.5t-10.5 106q13 83 82 140.5t153 58.5q87 -1 136.5 -61.5
t36.5 -147.5q-14 -83 -81 -142.5t-151 -58.5z" />
    <glyph glyph-name="oslash" unicode="&#xf8;" horiz-adv-x="1252" 
d="M554 -23q-158 0 -272.5 57t-176.5 161.5t-62 247.5q0 139 47.5 257.5t134.5 206t207 136.5t266 49q158 0 272.5 -57.5t176 -162t61.5 -247.5q0 -132 -44.5 -249t-129.5 -207t-206 -141t-274 -51zM579 286q58 0 101.5 33t71.5 84.5t42 111.5t14 116q0 51 -18.5 84.5
t-49 50t-67.5 16.5q-58 0 -101.5 -32.5t-72 -84t-42 -111.5t-13.5 -115q0 -77 40.5 -115t94.5 -38zM72 -51l-89 102l1196 1070l89 -102z" />
    <glyph glyph-name="ugrave" unicode="&#xf9;" horiz-adv-x="1280" 
d="M361 -22q-118 0 -190.5 51.5t-99 145t-5.5 219.5l112 676h400l-97 -588q-13 -80 19 -124t103 -44q48 0 84.5 20t61 60.5t34.5 100.5l96 575h400l-177 -1070h-391l46 290h43q-68 -136 -174 -224t-265 -88zM635 1198l-233 326h363l134 -326h-264z" />
    <glyph glyph-name="uacute" unicode="&#xfa;" horiz-adv-x="1280" 
d="M361 -22q-118 0 -190.5 51.5t-99 145t-5.5 219.5l112 676h400l-97 -588q-13 -80 19 -124t103 -44q48 0 84.5 20t61 60.5t34.5 100.5l96 575h400l-177 -1070h-391l46 290h43q-68 -136 -174 -224t-265 -88zM601 1198l241 326h362l-339 -326h-264z" />
    <glyph glyph-name="ucircumflex" unicode="&#xfb;" horiz-adv-x="1280" 
d="M361 -22q-118 0 -190.5 51.5t-99 145t-5.5 219.5l112 676h400l-97 -588q-13 -80 19 -124t103 -44q48 0 84.5 20t61 60.5t34.5 100.5l96 575h400l-177 -1070h-391l46 290h43q-68 -136 -174 -224t-265 -88zM624 1198h-295v2l325 324h293l225 -324l-1 -2h-294l-104 161z" />
    <glyph glyph-name="udieresis" unicode="&#xfc;" horiz-adv-x="1280" 
d="M361 -22q-118 0 -190.5 51.5t-99 145t-5.5 219.5l112 676h400l-97 -588q-13 -80 19 -124t103 -44q48 0 84.5 20t61 60.5t34.5 100.5l96 575h400l-177 -1070h-391l46 290h43q-68 -136 -174 -224t-265 -88zM976 1158q-85 0 -131.5 52t-32.5 132q13 80 77 132.5t148 52.5
q85 0 132 -52.5t34 -132.5q-14 -80 -78.5 -132t-148.5 -52zM508 1158q-84 0 -130.5 52t-31.5 132q12 80 75.5 132.5t148.5 52.5q86 0 132.5 -52.5t33.5 -132.5q-14 -80 -78 -132t-150 -52z" />
    <glyph glyph-name="yacute" unicode="&#xfd;" horiz-adv-x="1229" 
d="M-35 -411l69 300l135 -3q43 -4 70 5t44 31t30 58l5 20l-230 1070h403l59 -462q14 -109 22 -219t16 -225h-107q45 115 92.5 225.5t97.5 218.5l220 462h427l-648 -1197q-53 -100 -115 -165t-140.5 -96.5t-184.5 -31.5q-66 0 -135 2.5t-130 6.5zM551 1198l241 326h362
l-339 -326h-264z" />
    <glyph glyph-name="thorn" unicode="&#xfe;" horiz-adv-x="1290" 
d="M697 -22q-72 0 -126 22t-88 63t-49 99h-4l-97 -580h-402l316 1908h402l-93 -566h5q38 53 86 90.5t107 57.5t131 20q128 0 218.5 -68t128.5 -192.5t9 -295.5q-28 -173 -106 -298t-191 -192.5t-247 -67.5zM623 291q55 0 98 30t72.5 85t41.5 130q13 75 2 129.5t-44.5 84.5
t-88.5 30t-101.5 -30t-79 -84.5t-45.5 -129.5q-12 -75 2.5 -130t51 -85t91.5 -30z" />
    <glyph glyph-name="ydieresis" unicode="&#xff;" horiz-adv-x="1229" 
d="M-35 -411l69 300l135 -3q43 -4 70 5t44 31t30 58l5 20l-230 1070h403l59 -462q14 -109 22 -219t16 -225h-107q45 115 92.5 225.5t97.5 218.5l220 462h427l-648 -1197q-53 -100 -115 -165t-140.5 -96.5t-184.5 -31.5q-66 0 -135 2.5t-130 6.5zM926 1158q-85 0 -131.5 52
t-32.5 132q13 80 77 132.5t148 52.5q85 0 132 -52.5t34 -132.5q-14 -80 -78.5 -132t-148.5 -52zM458 1158q-84 0 -130.5 52t-31.5 132q12 80 75.5 132.5t148.5 52.5q86 0 132.5 -52.5t33.5 -132.5q-14 -80 -78 -132t-150 -52z" />
    <glyph glyph-name="Amacron" unicode="&#x100;" horiz-adv-x="1579" 
d="M-78 0l743 1490h558l257 -1490h-452l-72 578q-23 188 -42.5 375.5t-34.5 386.5h107q-80 -199 -161 -386.5t-168 -375.5l-267 -578h-468zM334 254l52 316h820l-52 -316h-820zM1312 1877l-39 -232h-600l39 232h600z" />
    <glyph glyph-name="amacron" unicode="&#x101;" horiz-adv-x="1284" 
d="M409 -22q-134 0 -225.5 67.5t-127.5 192.5t-7 298q28 171 108 295.5t192.5 192.5t239.5 68q72 0 125.5 -20t90 -57.5t56.5 -90.5h5l24 146h392l-177 -1070h-392l27 162h-5q-32 -58 -81.5 -99t-111 -63t-133.5 -22zM586 291q55 0 101.5 30t79 85t44.5 130
q13 75 -1.5 129.5t-51 84.5t-91.5 30t-98 -30t-72.5 -84.5t-41.5 -129.5t-1.5 -130t44.5 -85t88 -30zM1109 1457l-39 -232h-600l39 232h600z" />
    <glyph glyph-name="Abreve" unicode="&#x102;" horiz-adv-x="1579" 
d="M-78 0l743 1490h558l257 -1490h-452l-72 578q-23 188 -42.5 375.5t-34.5 386.5h107q-80 -199 -161 -386.5t-168 -375.5l-267 -578h-468zM334 254l52 316h820l-52 -316h-820zM966 1602q-112 0 -193 44.5t-119.5 120.5t-23.5 169h218q-10 -62 32 -102t118 -40q50 0 92 18.5
t69.5 50t33.5 73.5h221q-15 -93 -79.5 -169t-160.5 -120.5t-208 -44.5z" />
    <glyph glyph-name="abreve" unicode="&#x103;" horiz-adv-x="1284" 
d="M409 -22q-134 0 -225.5 67.5t-127.5 192.5t-7 298q28 171 108 295.5t192.5 192.5t239.5 68q72 0 125.5 -20t90 -57.5t56.5 -90.5h5l24 146h392l-177 -1070h-392l27 162h-5q-32 -58 -81.5 -99t-111 -63t-133.5 -22zM586 291q55 0 101.5 30t79 85t44.5 130
q13 75 -1.5 129.5t-51 84.5t-91.5 30t-98 -30t-72.5 -84.5t-41.5 -129.5t-1.5 -130t44.5 -85t88 -30zM762 1182q-112 0 -193 44.5t-119.5 120.5t-23.5 169h218q-10 -62 32 -102t118 -40q50 0 92 18.5t69.5 50t33.5 73.5h221q-15 -93 -79.5 -169t-160.5 -120.5t-208 -44.5z
" />
    <glyph glyph-name="Aogonek" unicode="&#x104;" horiz-adv-x="1579" 
d="M-78 0l743 1490h558l257 -1490h-452l-72 578q-23 188 -42.5 375.5t-34.5 386.5h107q-80 -199 -161 -386.5t-168 -375.5l-267 -578h-468zM334 254l52 316h820l-52 -316h-820zM1208 -420q-155 0 -236.5 56t-63.5 164q11 67 51.5 119t96.5 99l425 -18q-85 -37 -120.5 -68
t-41.5 -68q-5 -31 11.5 -46t52.5 -15q15 0 29.5 1t29.5 3l-21 -215q-39 -6 -104 -9t-109 -3z" />
    <glyph glyph-name="aogonek" unicode="&#x105;" horiz-adv-x="1284" 
d="M409 -22q-134 0 -225.5 67.5t-127.5 192.5t-7 298q28 171 108 295.5t192.5 192.5t239.5 68q72 0 125.5 -20t90 -57.5t56.5 -90.5h5l24 146h392l-177 -1070h-392l27 162h-5q-32 -58 -81.5 -99t-111 -63t-133.5 -22zM586 291q55 0 101.5 30t79 85t44.5 130
q13 75 -1.5 129.5t-51 84.5t-91.5 30t-98 -30t-72.5 -84.5t-41.5 -129.5t-1.5 -130t44.5 -85t88 -30zM849 -420q-155 0 -230.5 57.5t-58.5 160.5q11 66 53 117.5t109 100.5l384 -16q-85 -37 -120.5 -68t-42.5 -68q-5 -31 11.5 -46t53.5 -15q15 0 29.5 1t28.5 3l-20 -215
q-39 -6 -96 -9t-101 -3z" />
    <glyph glyph-name="Cacute" unicode="&#x106;" horiz-adv-x="1514" 
d="M698 -23q-184 0 -325 71.5t-221 210.5t-80 337q0 186 58.5 351.5t168.5 293t265.5 200t347.5 72.5q142 0 258 -39.5t197.5 -115t122.5 -183t34 -243.5h-417q0 52 -13 93.5t-39 70t-64 44t-89 15.5q-107 0 -185.5 -50.5t-129.5 -133t-76 -180.5t-25 -192q0 -87 27 -145.5
t80 -88.5t132 -30q58 0 108.5 15t91.5 44t72 70t49 92h417q-34 -123 -104 -229t-169 -184.5t-223.5 -122t-268.5 -43.5zM796 1618l241 326h362l-339 -326h-264z" />
    <glyph glyph-name="cacute" unicode="&#x107;" horiz-adv-x="1202" 
d="M545 -23q-156 0 -268 58t-172.5 163.5t-60.5 246.5q0 129 43.5 245.5t127 207t203.5 142.5t270 52q112 0 206 -32t161 -91.5t98.5 -143t19.5 -187.5l-382 -12q3 32 -1 61t-16 50.5t-33.5 34t-54.5 12.5q-61 0 -106.5 -33t-75.5 -85.5t-44.5 -114t-14.5 -118.5
q0 -49 12.5 -82t39 -49.5t65.5 -16.5q35 0 67 12t59.5 34t46.5 51.5t27 64.5l377 -12q-19 -104 -70.5 -188.5t-130 -144.5t-178 -92.5t-215.5 -32.5zM577 1198l241 326h362l-339 -326h-264z" />
    <glyph glyph-name="Ccircumflex" unicode="&#x108;" horiz-adv-x="1514" 
d="M698 -23q-184 0 -325 71.5t-221 210.5t-80 337q0 186 58.5 351.5t168.5 293t265.5 200t347.5 72.5q142 0 258 -39.5t197.5 -115t122.5 -183t34 -243.5h-417q0 52 -13 93.5t-39 70t-64 44t-89 15.5q-107 0 -185.5 -50.5t-129.5 -133t-76 -180.5t-25 -192q0 -87 27 -145.5
t80 -88.5t132 -30q58 0 108.5 15t91.5 44t72 70t49 92h417q-34 -123 -104 -229t-169 -184.5t-223.5 -122t-268.5 -43.5zM819 1618h-295v2l325 324h293l225 -324l-1 -2h-294l-104 161z" />
    <glyph glyph-name="ccircumflex" unicode="&#x109;" horiz-adv-x="1202" 
d="M545 -23q-156 0 -268 58t-172.5 163.5t-60.5 246.5q0 129 43.5 245.5t127 207t203.5 142.5t270 52q112 0 206 -32t161 -91.5t98.5 -143t19.5 -187.5l-382 -12q3 32 -1 61t-16 50.5t-33.5 34t-54.5 12.5q-61 0 -106.5 -33t-75.5 -85.5t-44.5 -114t-14.5 -118.5
q0 -49 12.5 -82t39 -49.5t65.5 -16.5q35 0 67 12t59.5 34t46.5 51.5t27 64.5l377 -12q-19 -104 -70.5 -188.5t-130 -144.5t-178 -92.5t-215.5 -32.5zM600 1198h-295v2l325 324h293l225 -324l-1 -2h-294l-104 161z" />
    <glyph glyph-name="Cdotaccent" unicode="&#x10a;" horiz-adv-x="1514" 
d="M698 -23q-184 0 -325 71.5t-221 210.5t-80 337q0 186 58.5 351.5t168.5 293t265.5 200t347.5 72.5q142 0 258 -39.5t197.5 -115t122.5 -183t34 -243.5h-417q0 52 -13 93.5t-39 70t-64 44t-89 15.5q-107 0 -185.5 -50.5t-129.5 -133t-76 -180.5t-25 -192q0 -87 27 -145.5
t80 -88.5t132 -30q58 0 108.5 15t91.5 44t72 70t49 92h417q-34 -123 -104 -229t-169 -184.5t-223.5 -122t-268.5 -43.5zM935 1570q-91 0 -141 54t-36 136q13 83 81 136.5t160 53.5q91 0 141 -53.5t36 -135.5q-13 -83 -81 -137t-160 -54z" />
    <glyph glyph-name="cdotaccent" unicode="&#x10b;" horiz-adv-x="1202" 
d="M545 -23q-156 0 -268 58t-172.5 163.5t-60.5 246.5q0 129 43.5 245.5t127 207t203.5 142.5t270 52q112 0 206 -32t161 -91.5t98.5 -143t19.5 -187.5l-382 -12q3 32 -1 61t-16 50.5t-33.5 34t-54.5 12.5q-61 0 -106.5 -33t-75.5 -85.5t-44.5 -114t-14.5 -118.5
q0 -49 12.5 -82t39 -49.5t65.5 -16.5q35 0 67 12t59.5 34t46.5 51.5t27 64.5l377 -12q-19 -104 -70.5 -188.5t-130 -144.5t-178 -92.5t-215.5 -32.5zM717 1150q-91 0 -141 54t-36 136q13 83 81 136.5t160 53.5q91 0 141 -53.5t36 -135.5q-13 -83 -81 -137t-160 -54z" />
    <glyph glyph-name="Ccaron" unicode="&#x10c;" horiz-adv-x="1514" 
d="M698 -23q-184 0 -325 71.5t-221 210.5t-80 337q0 186 58.5 351.5t168.5 293t265.5 200t347.5 72.5q142 0 258 -39.5t197.5 -115t122.5 -183t34 -243.5h-417q0 52 -13 93.5t-39 70t-64 44t-89 15.5q-107 0 -185.5 -50.5t-129.5 -133t-76 -180.5t-25 -192q0 -87 27 -145.5
t80 -88.5t132 -30q58 0 108.5 15t91.5 44t72 70t49 92h417q-34 -123 -104 -229t-169 -184.5t-223.5 -122t-268.5 -43.5zM872 1944l97 -162l156 162h294v-2l-331 -324h-292l-219 324v2h295z" />
    <glyph glyph-name="ccaron" unicode="&#x10d;" horiz-adv-x="1202" 
d="M545 -23q-156 0 -268 58t-172.5 163.5t-60.5 246.5q0 129 43.5 245.5t127 207t203.5 142.5t270 52q112 0 206 -32t161 -91.5t98.5 -143t19.5 -187.5l-382 -12q3 32 -1 61t-16 50.5t-33.5 34t-54.5 12.5q-61 0 -106.5 -33t-75.5 -85.5t-44.5 -114t-14.5 -118.5
q0 -49 12.5 -82t39 -49.5t65.5 -16.5q35 0 67 12t59.5 34t46.5 51.5t27 64.5l377 -12q-19 -104 -70.5 -188.5t-130 -144.5t-178 -92.5t-215.5 -32.5zM653 1524l97 -162l156 162h294v-2l-331 -324h-292l-219 324v2h295z" />
    <glyph glyph-name="Dcaron" unicode="&#x10e;" horiz-adv-x="1461" 
d="M648 0h-481l57 344h389q120 0 205 41.5t138.5 130.5t75.5 228q24 141 -0.5 230t-98 130.5t-197.5 41.5h-385l57 344h386q230 0 390.5 -91.5t232 -259t32.5 -395.5q-37 -227 -139 -394t-267 -258.5t-395 -91.5zM656 1490l-247 -1490h-414l247 1490h414zM695 1944l97 -162
l156 162h294v-2l-331 -324h-292l-219 324v2h295z" />
    <glyph glyph-name="dcaron" unicode="&#x10f;" horiz-adv-x="1563" 
d="M430 -22q-179 0 -284 116.5t-105 322.5q0 125 35.5 245t104 217t166 155t222.5 58q77 0 133 -23t94.5 -66t60.5 -102h3l96 589h401l-246 -1490h-397l27 161h-3q-33 -64 -79.5 -104.5t-104.5 -59.5t-124 -19zM566 291q59 0 106 30t81 79.5t51.5 107.5t17.5 115
q0 74 -36 115.5t-98 41.5q-60 0 -105.5 -31.5t-76 -82.5t-46 -110.5t-15.5 -116.5q0 -70 30 -109t91 -39zM1425 1182l64 388h270l-118 -388h-216z" />
    <glyph glyph-name="Dcroat" unicode="&#x110;" horiz-adv-x="1583" 
d="M770 0h-481l57 344h389q120 0 205 41.5t138.5 130.5t75.5 228q24 141 -0.5 230t-98 130.5t-197.5 41.5h-385l57 344h386q230 0 390.5 -91.5t232 -259t32.5 -395.5q-37 -227 -139 -394t-267 -258.5t-395 -91.5zM778 1490l-247 -1490h-414l247 1490h414zM28 618l42 254h855
l-43 -254h-854z" />
    <glyph glyph-name="dcroat" unicode="&#x111;" horiz-adv-x="1289" 
d="M430 -22q-179 0 -284 116.5t-105 322.5q0 125 35.5 245t104 217t166 155t222.5 58q77 0 133 -23t94.5 -66t60.5 -102h3l96 589h401l-246 -1490h-397l27 161h-3q-33 -64 -79.5 -104.5t-104.5 -59.5t-124 -19zM566 291q59 0 106 30t81 79.5t51.5 107.5t17.5 115
q0 74 -36 115.5t-98 41.5q-60 0 -105.5 -31.5t-76 -82.5t-46 -110.5t-15.5 -116.5q0 -70 30 -109t91 -39zM587 1163l36 216h844l-36 -216h-844z" />
    <glyph glyph-name="Emacron" unicode="&#x112;" horiz-adv-x="1286" 
d="M-5 0l247 1490h1136l-57 -346h-723l-38 -230h666l-56 -336h-666l-38 -232h722l-57 -346h-1136zM1175 1877l-39 -232h-600l39 232h600z" />
    <glyph glyph-name="emacron" unicode="&#x113;" horiz-adv-x="1207" 
d="M554 -24q-175 0 -297 61t-178 179.5t-33 291.5q17 131 71.5 238t141.5 184.5t201 119.5t250 42q127 0 232 -38.5t167.5 -115.5t62.5 -196q0 -122 -71.5 -190t-205 -97.5t-320 -36t-417.5 -6.5l37 229q198 0 319.5 5.5t185.5 16t86.5 28t22.5 41.5q0 37 -36.5 57.5
t-104.5 20.5q-80 0 -124.5 -30t-66 -77.5t-29 -102.5t-14.5 -105q-8 -72 -3 -126t40.5 -83.5t115.5 -29.5q79 0 123 28.5t59 75.5l364 -6q-56 -170 -202.5 -274t-376.5 -104zM1087 1457l-39 -232h-600l39 232h600z" />
    <glyph glyph-name="Ebreve" unicode="&#x114;" horiz-adv-x="1286" 
d="M-5 0l247 1490h1136l-57 -346h-723l-38 -230h666l-56 -336h-666l-38 -232h722l-57 -346h-1136zM828 1602q-112 0 -193 44.5t-119.5 120.5t-23.5 169h218q-10 -62 32 -102t118 -40q50 0 92 18.5t69.5 50t33.5 73.5h221q-15 -93 -79.5 -169t-160.5 -120.5t-208 -44.5z" />
    <glyph glyph-name="ebreve" unicode="&#x115;" horiz-adv-x="1207" 
d="M554 -24q-175 0 -297 61t-178 179.5t-33 291.5q17 131 71.5 238t141.5 184.5t201 119.5t250 42q127 0 232 -38.5t167.5 -115.5t62.5 -196q0 -122 -71.5 -190t-205 -97.5t-320 -36t-417.5 -6.5l37 229q198 0 319.5 5.5t185.5 16t86.5 28t22.5 41.5q0 37 -36.5 57.5
t-104.5 20.5q-80 0 -124.5 -30t-66 -77.5t-29 -102.5t-14.5 -105q-8 -72 -3 -126t40.5 -83.5t115.5 -29.5q79 0 123 28.5t59 75.5l364 -6q-56 -170 -202.5 -274t-376.5 -104zM740 1182q-112 0 -193 44.5t-119.5 120.5t-23.5 169h218q-10 -62 32 -102t118 -40q50 0 92 18.5
t69.5 50t33.5 73.5h221q-15 -93 -79.5 -169t-160.5 -120.5t-208 -44.5z" />
    <glyph glyph-name="Edotaccent" unicode="&#x116;" horiz-adv-x="1286" 
d="M-5 0l247 1490h1136l-57 -346h-723l-38 -230h666l-56 -336h-666l-38 -232h722l-57 -346h-1136zM822 1570q-91 0 -141 54t-36 136q13 83 81 136.5t160 53.5q91 0 141 -53.5t36 -135.5q-13 -83 -81 -137t-160 -54z" />
    <glyph glyph-name="edotaccent" unicode="&#x117;" horiz-adv-x="1207" 
d="M554 -24q-175 0 -297 61t-178 179.5t-33 291.5q17 131 71.5 238t141.5 184.5t201 119.5t250 42q127 0 232 -38.5t167.5 -115.5t62.5 -196q0 -122 -71.5 -190t-205 -97.5t-320 -36t-417.5 -6.5l37 229q198 0 319.5 5.5t185.5 16t86.5 28t22.5 41.5q0 37 -36.5 57.5
t-104.5 20.5q-80 0 -124.5 -30t-66 -77.5t-29 -102.5t-14.5 -105q-8 -72 -3 -126t40.5 -83.5t115.5 -29.5q79 0 123 28.5t59 75.5l364 -6q-56 -170 -202.5 -274t-376.5 -104zM734 1150q-91 0 -141 54t-36 136q13 83 81 136.5t160 53.5q91 0 141 -53.5t36 -135.5
q-13 -83 -81 -137t-160 -54z" />
    <glyph glyph-name="Eogonek" unicode="&#x118;" horiz-adv-x="1286" 
d="M-5 0l247 1490h1136l-57 -346h-723l-38 -230h666l-56 -336h-666l-38 -232h722l-57 -346h-1136zM874 -420q-155 0 -230.5 57.5t-58.5 160.5q11 67 53 123.5t104 105.5l389 -27q-85 -37 -120.5 -68t-42.5 -68q-5 -31 11.5 -46t53.5 -15q15 0 29.5 1t28.5 3l-20 -215
q-39 -6 -96 -9t-101 -3z" />
    <glyph glyph-name="eogonek" unicode="&#x119;" horiz-adv-x="1207" 
d="M554 -24q-175 0 -297 61t-178 179.5t-33 291.5q17 131 71.5 238t141.5 184.5t201 119.5t250 42q127 0 232 -38.5t167.5 -115.5t62.5 -196q0 -122 -71.5 -190t-205 -97.5t-320 -36t-417.5 -6.5l37 229q198 0 319.5 5.5t185.5 16t86.5 28t22.5 41.5q0 37 -36.5 57.5
t-104.5 20.5q-80 0 -124.5 -30t-66 -77.5t-29 -102.5t-14.5 -105q-8 -72 -3 -126t40.5 -83.5t115.5 -29.5q79 0 123 28.5t59 75.5l364 -6q-56 -170 -202.5 -274t-376.5 -104zM776 -408q-155 0 -230.5 57.5t-58.5 160.5q11 66 50.5 115t100.5 106l494 324q-26 -80 -69 -148.5
t-87 -127t-75.5 -109t-36.5 -94.5q-4 -31 12 -46t53 -15q14 0 28.5 1t29.5 3l-20 -215q-39 -6 -93.5 -9t-97.5 -3z" />
    <glyph glyph-name="Ecaron" unicode="&#x11a;" horiz-adv-x="1286" 
d="M-5 0l247 1490h1136l-57 -346h-723l-38 -230h666l-56 -336h-666l-38 -232h722l-57 -346h-1136zM759 1944l97 -162l156 162h294v-2l-331 -324h-292l-219 324v2h295z" />
    <glyph glyph-name="ecaron" unicode="&#x11b;" horiz-adv-x="1207" 
d="M554 -24q-175 0 -297 61t-178 179.5t-33 291.5q17 131 71.5 238t141.5 184.5t201 119.5t250 42q127 0 232 -38.5t167.5 -115.5t62.5 -196q0 -122 -71.5 -190t-205 -97.5t-320 -36t-417.5 -6.5l37 229q198 0 319.5 5.5t185.5 16t86.5 28t22.5 41.5q0 37 -36.5 57.5
t-104.5 20.5q-80 0 -124.5 -30t-66 -77.5t-29 -102.5t-14.5 -105q-8 -72 -3 -126t40.5 -83.5t115.5 -29.5q79 0 123 28.5t59 75.5l364 -6q-56 -170 -202.5 -274t-376.5 -104zM671 1524l97 -162l156 162h294v-2l-331 -324h-292l-219 324v2h295z" />
    <glyph glyph-name="Gcircumflex" unicode="&#x11c;" horiz-adv-x="1523" 
d="M707 -23q-198 0 -340 75t-218.5 214t-76.5 331q0 189 60 354.5t171.5 292t266.5 198t344 71.5q132 0 247 -36t200 -105.5t129.5 -168t33.5 -222.5h-420q-1 41 -13.5 73.5t-36.5 55t-59.5 34t-83.5 11.5q-111 0 -191.5 -50t-132 -132t-76 -179.5t-24.5 -192.5
q0 -131 62.5 -198.5t188.5 -67.5q94 0 163 29.5t111.5 80t52.5 113.5l78 -21h-352l49 295h672l-37 -226q-24 -147 -90.5 -263.5t-168 -198t-231 -124.5t-278.5 -43zM823 1618h-295v2l325 324h293l225 -324l-1 -2h-294l-104 161z" />
    <glyph glyph-name="gcircumflex" unicode="&#x11d;" horiz-adv-x="1289" 
d="M492 -434q-176 0 -285 46.5t-159 126.5t-50 179l366 6q3 -26 18 -45t43 -29.5t70 -10.5q95 0 152.5 52.5t72.5 146.5l26 156h-10q-34 -60 -78 -100t-98.5 -59t-124.5 -19q-120 0 -208 52t-135.5 148t-47.5 226q0 122 37 238t106 209t166 148t216 55q57 0 104 -14.5
t83.5 -39.5t62 -59.5t41.5 -73.5h2l28 165h398l-168 -1015q-28 -172 -110.5 -280t-213.5 -158.5t-304 -50.5zM569 317q59 0 106 28.5t80 75.5t50.5 103t17.5 110q0 73 -36 113t-98 40q-59 0 -104 -30t-76 -79t-46.5 -106t-15.5 -111q0 -69 30.5 -106.5t91.5 -37.5zM609 1198
h-295v2l325 324h293l225 -324l-1 -2h-294l-104 161z" />
    <glyph glyph-name="Gbreve" unicode="&#x11e;" horiz-adv-x="1523" 
d="M707 -23q-198 0 -340 75t-218.5 214t-76.5 331q0 189 60 354.5t171.5 292t266.5 198t344 71.5q132 0 247 -36t200 -105.5t129.5 -168t33.5 -222.5h-420q-1 41 -13.5 73.5t-36.5 55t-59.5 34t-83.5 11.5q-111 0 -191.5 -50t-132 -132t-76 -179.5t-24.5 -192.5
q0 -131 62.5 -198.5t188.5 -67.5q94 0 163 29.5t111.5 80t52.5 113.5l78 -21h-352l49 295h672l-37 -226q-24 -147 -90.5 -263.5t-168 -198t-231 -124.5t-278.5 -43zM946 1602q-112 0 -193 44.5t-119.5 120.5t-23.5 169h218q-10 -62 32 -102t118 -40q50 0 92 18.5t69.5 50
t33.5 73.5h221q-15 -93 -79.5 -169t-160.5 -120.5t-208 -44.5z" />
    <glyph glyph-name="gbreve" unicode="&#x11f;" horiz-adv-x="1289" 
d="M492 -434q-176 0 -285 46.5t-159 126.5t-50 179l366 6q3 -26 18 -45t43 -29.5t70 -10.5q95 0 152.5 52.5t72.5 146.5l26 156h-10q-34 -60 -78 -100t-98.5 -59t-124.5 -19q-120 0 -208 52t-135.5 148t-47.5 226q0 122 37 238t106 209t166 148t216 55q57 0 104 -14.5
t83.5 -39.5t62 -59.5t41.5 -73.5h2l28 165h398l-168 -1015q-28 -172 -110.5 -280t-213.5 -158.5t-304 -50.5zM569 317q59 0 106 28.5t80 75.5t50.5 103t17.5 110q0 73 -36 113t-98 40q-59 0 -104 -30t-76 -79t-46.5 -106t-15.5 -111q0 -69 30.5 -106.5t91.5 -37.5zM732 1182
q-112 0 -193 44.5t-119.5 120.5t-23.5 169h218q-10 -62 32 -102t118 -40q50 0 92 18.5t69.5 50t33.5 73.5h221q-15 -93 -79.5 -169t-160.5 -120.5t-208 -44.5z" />
    <glyph glyph-name="Gdotaccent" unicode="&#x120;" horiz-adv-x="1523" 
d="M707 -23q-198 0 -340 75t-218.5 214t-76.5 331q0 189 60 354.5t171.5 292t266.5 198t344 71.5q132 0 247 -36t200 -105.5t129.5 -168t33.5 -222.5h-420q-1 41 -13.5 73.5t-36.5 55t-59.5 34t-83.5 11.5q-111 0 -191.5 -50t-132 -132t-76 -179.5t-24.5 -192.5
q0 -131 62.5 -198.5t188.5 -67.5q94 0 163 29.5t111.5 80t52.5 113.5l78 -21h-352l49 295h672l-37 -226q-24 -147 -90.5 -263.5t-168 -198t-231 -124.5t-278.5 -43zM940 1570q-91 0 -141 54t-36 136q13 83 81 136.5t160 53.5q91 0 141 -53.5t36 -135.5q-13 -83 -81 -137
t-160 -54z" />
    <glyph glyph-name="gdotaccent" unicode="&#x121;" horiz-adv-x="1289" 
d="M492 -434q-176 0 -285 46.5t-159 126.5t-50 179l366 6q3 -26 18 -45t43 -29.5t70 -10.5q95 0 152.5 52.5t72.5 146.5l26 156h-10q-34 -60 -78 -100t-98.5 -59t-124.5 -19q-120 0 -208 52t-135.5 148t-47.5 226q0 122 37 238t106 209t166 148t216 55q57 0 104 -14.5
t83.5 -39.5t62 -59.5t41.5 -73.5h2l28 165h398l-168 -1015q-28 -172 -110.5 -280t-213.5 -158.5t-304 -50.5zM569 317q59 0 106 28.5t80 75.5t50.5 103t17.5 110q0 73 -36 113t-98 40q-59 0 -104 -30t-76 -79t-46.5 -106t-15.5 -111q0 -69 30.5 -106.5t91.5 -37.5zM726 1150
q-91 0 -141 54t-36 136q13 83 81 136.5t160 53.5q91 0 141 -53.5t36 -135.5q-13 -83 -81 -137t-160 -54z" />
    <glyph glyph-name="uni0122" unicode="&#x122;" horiz-adv-x="1523" 
d="M707 -23q-198 0 -340 75t-218.5 214t-76.5 331q0 189 60 354.5t171.5 292t266.5 198t344 71.5q132 0 247 -36t200 -105.5t129.5 -168t33.5 -222.5h-420q-1 41 -13.5 73.5t-36.5 55t-59.5 34t-83.5 11.5q-111 0 -191.5 -50t-132 -132t-76 -179.5t-24.5 -192.5
q0 -131 62.5 -198.5t188.5 -67.5q94 0 163 29.5t111.5 80t52.5 113.5l78 -21h-352l49 295h672l-37 -226q-24 -147 -90.5 -263.5t-168 -198t-231 -124.5t-278.5 -43zM330 -466l154 348h360l-242 -348h-272z" />
    <glyph glyph-name="uni0123" unicode="&#x123;" horiz-adv-x="1289" 
d="M492 -434q-176 0 -285 46.5t-159 126.5t-50 179l366 6q3 -26 18 -45t43 -29.5t70 -10.5q95 0 152.5 52.5t72.5 146.5l26 156h-10q-34 -60 -78 -100t-98.5 -59t-124.5 -19q-120 0 -208 52t-135.5 148t-47.5 226q0 122 37 238t106 209t166 148t216 55q57 0 104 -14.5
t83.5 -39.5t62 -59.5t41.5 -73.5h2l28 165h398l-168 -1015q-28 -172 -110.5 -280t-213.5 -158.5t-304 -50.5zM569 317q59 0 106 28.5t80 75.5t50.5 103t17.5 110q0 73 -36 113t-98 40q-59 0 -104 -30t-76 -79t-46.5 -106t-15.5 -111q0 -69 30.5 -106.5t91.5 -37.5zM602 1180
l24 146q14 86 42 151.5t68.5 112t93.5 74.5l172 -70q-25 -31 -67 -107.5t-58 -174.5l-21 -132h-254z" />
    <glyph glyph-name="Hcircumflex" unicode="&#x124;" horiz-adv-x="1499" 
d="M-5 0l247 1490h414l-94 -559h505l93 559h414l-247 -1490h-414l97 585h-505l-96 -585h-414zM803 1618h-295v2l325 324h293l225 -324l-1 -2h-294l-104 161z" />
    <glyph glyph-name="hcircumflex" unicode="&#x125;" horiz-adv-x="1280" 
d="M497 575l-95 -575h-401l247 1490h398l-117 -710h-49q47 90 104.5 160.5t135.5 111t184 40.5q118 0 194 -51.5t106.5 -145t9.5 -219.5l-112 -676h-400l97 588q13 80 -18.5 124t-103.5 44q-47 0 -84 -20t-61.5 -60.5t-34.5 -100.5zM342 1618h-295v2l325 324h293l225 -324
l-1 -2h-294l-104 161z" />
    <glyph glyph-name="Hbar" unicode="&#x126;" horiz-adv-x="1681" 
d="M1759 1268l-32 -192h-1594l32 192h1594zM79 0l247 1490h414l-94 -559h505l93 559h414l-247 -1490h-414l97 585h-505l-96 -585h-414z" />
    <glyph glyph-name="hbar" unicode="&#x127;" horiz-adv-x="1280" 
d="M497 575l-95 -575h-401l247 1490h398l-117 -710h-49q47 90 104.5 160.5t135.5 111t184 40.5q118 0 194 -51.5t106.5 -145t9.5 -219.5l-112 -676h-400l97 588q13 80 -18.5 124t-103.5 44q-47 0 -84 -20t-61.5 -60.5t-34.5 -100.5zM60 1163l36 216h844l-36 -216h-844z" />
    <glyph glyph-name="Itilde" unicode="&#x128;" horiz-adv-x="581" 
d="M656 1490l-247 -1490h-414l247 1490h414zM619 1620q-57 0 -93 18t-61 42t-46.5 42t-49.5 18q-35 0 -59.5 -28.5t-35.5 -83.5h-198q29 158 113 235t187 77q56 0 93 -17.5t63 -40t47.5 -40t47.5 -17.5q42 0 64 28.5t32 80.5h196q-28 -154 -113 -234t-187 -80z" />
    <glyph glyph-name="itilde" unicode="&#x129;" horiz-adv-x="581" 
d="M1 0l178 1070h400l-177 -1070h-401zM549 1200q-57 0 -93 18t-61 42t-46.5 42t-49.5 18q-35 0 -59.5 -28.5t-35.5 -83.5h-198q29 158 113 235t187 77q56 0 93 -17.5t63 -40t47.5 -40t47.5 -17.5q42 0 64 28.5t32 80.5h196q-28 -154 -113 -234t-187 -80z" />
    <glyph glyph-name="Imacron" unicode="&#x12a;" horiz-adv-x="581" 
d="M656 1490l-247 -1490h-414l247 1490h414zM814 1877l-39 -232h-600l39 232h600z" />
    <glyph glyph-name="imacron" unicode="&#x12b;" horiz-adv-x="581" 
d="M1 0l178 1070h400l-177 -1070h-401zM743 1457l-39 -232h-600l39 232h600z" />
    <glyph glyph-name="Ibreve" unicode="&#x12c;" horiz-adv-x="581" 
d="M656 1490l-247 -1490h-414l247 1490h414zM467 1602q-112 0 -193 44.5t-119.5 120.5t-23.5 169h218q-10 -62 32 -102t118 -40q50 0 92 18.5t69.5 50t33.5 73.5h221q-15 -93 -79.5 -169t-160.5 -120.5t-208 -44.5z" />
    <glyph glyph-name="ibreve" unicode="&#x12d;" horiz-adv-x="581" 
d="M1 0l178 1070h400l-177 -1070h-401zM397 1182q-112 0 -193 44.5t-119.5 120.5t-23.5 169h218q-10 -62 32 -102t118 -40q50 0 92 18.5t69.5 50t33.5 73.5h221q-15 -93 -79.5 -169t-160.5 -120.5t-208 -44.5z" />
    <glyph glyph-name="Iogonek" unicode="&#x12e;" horiz-adv-x="581" 
d="M656 1490l-247 -1490h-414l247 1490h414zM152 -420q-155 0 -230.5 57.5t-58.5 160.5q11 67 53 123.5t104 105.5l389 -27q-85 -37 -120.5 -68t-42.5 -68q-5 -31 11.5 -46t53.5 -15q15 0 29.5 1t28.5 3l-20 -215q-39 -6 -96 -9t-101 -3z" />
    <glyph glyph-name="iogonek" unicode="&#x12f;" horiz-adv-x="581" 
d="M1 0l178 1070h400l-177 -1070h-401zM145 -420q-155 0 -230.5 57.5t-58.5 160.5q11 67 53 123.5t104 105.5l389 -27q-85 -37 -120.5 -68t-42.5 -68q-5 -31 11.5 -46t53.5 -15q15 0 29.5 1t28.5 3l-20 -215q-39 -6 -96 -9t-101 -3zM390 1150q-91 0 -141 54t-36 136
q13 83 81 136.5t160 53.5q91 0 141 -53.5t36 -135.5q-13 -83 -81 -137t-160 -54z" />
    <glyph glyph-name="Idotaccent" unicode="&#x130;" horiz-adv-x="581" 
d="M656 1490l-247 -1490h-414l247 1490h414zM461 1570q-91 0 -141 54t-36 136q13 83 81 136.5t160 53.5q91 0 141 -53.5t36 -135.5q-13 -83 -81 -137t-160 -54z" />
    <glyph glyph-name="dotlessi" unicode="&#x131;" horiz-adv-x="581" 
d="M1 0l178 1070h400l-177 -1070h-401z" />
    <glyph glyph-name="IJ" unicode="&#x132;" horiz-adv-x="1786" 
d="M656 1490l-247 -1490h-414l247 1490h414zM1081 -23q-226 0 -351 100t-125 289q0 17 2 39t8 63.5t18 116.5h389q-11 -66 -15.5 -97.5t-5.5 -43t-1 -17.5q0 -55 29.5 -84t85.5 -29q67 0 109 39.5t55 114.5l169 1022h412l-171 -1027q-39 -234 -192.5 -360t-415.5 -126z" />
    <glyph glyph-name="ij" unicode="&#x133;" horiz-adv-x="1162" 
d="M1 0l178 1070h400l-177 -1070h-401zM390 1150q-91 0 -141 54t-36 136q13 83 81 136.5t160 53.5q91 0 141 -53.5t36 -135.5q-13 -83 -81 -137t-160 -54zM761 1070h400l-183 -1108q-21 -131 -85 -215.5t-167.5 -124.5t-246.5 -40h-138l50 302h68q57 0 85.5 25.5t38.5 83.5z
M973 1150q-91 0 -141 54t-36 136q13 83 81 136.5t160 53.5q91 0 141 -53.5t36 -135.5q-13 -83 -81 -137t-160 -54z" />
    <glyph glyph-name="Jcircumflex" unicode="&#x134;" horiz-adv-x="1205" 
d="M500 -23q-226 0 -351 100t-125 289q0 17 2 39t8 63.5t18 116.5h389q-11 -66 -15.5 -97.5t-5.5 -43t-1 -17.5q0 -55 29.5 -84t85.5 -29q67 0 109 39.5t55 114.5l169 1022h412l-171 -1027q-39 -234 -192.5 -360t-415.5 -126zM968 1618h-295v2l325 324h293l225 -324l-1 -2
h-294l-104 161z" />
    <glyph glyph-name="jcircumflex" unicode="&#x135;" horiz-adv-x="582" 
d="M180 1070h400l-183 -1108q-21 -131 -85 -215.5t-167.5 -124.5t-246.5 -40h-138l50 302h68q57 0 85.5 25.5t38.5 83.5zM275 1198h-295v2l325 324h293l225 -324l-1 -2h-294l-104 161z" />
    <glyph glyph-name="uni0136" unicode="&#x136;" horiz-adv-x="1507" 
d="M339 224l60 468q60 72 119 139.5t120.5 135t130.5 140.5l360 383h498l-750 -767l-37 4zM-5 0l247 1490h416l-53 -320l-73 -429l-31 -197l-90 -544h-416zM956 0l-260 599l277 308l435 -907h-452zM302 -466l154 348h360l-242 -348h-272z" />
    <glyph glyph-name="uni0137" unicode="&#x137;" horiz-adv-x="1211" 
d="M401 245l78 474h48l327 351h452l-544 -564h-112zM1 0l247 1490h401l-247 -1490h-401zM685 0l-184 417l306 281l333 -698h-455zM180 -466l154 348h360l-242 -348h-272z" />
    <glyph glyph-name="kgreenlandic" unicode="&#x138;" horiz-adv-x="1273" 
d="M581 1070l-178 -1070h-402l178 1070h402zM1379 1070l-591 -693h-375l19 301h178l303 392h466zM715 0l-149 399l367 164l264 -563h-482z" />
    <glyph glyph-name="Lacute" unicode="&#x139;" horiz-adv-x="1174" 
d="M-5 0l247 1490h414l-190 -1144h633l-57 -346h-1047zM320 1618l241 326h362l-339 -326h-264z" />
    <glyph glyph-name="lacute" unicode="&#x13a;" horiz-adv-x="580" 
d="M649 1490l-247 -1490h-401l247 1490h401zM321 1618l241 326h362l-339 -326h-264z" />
    <glyph glyph-name="uni013B" unicode="&#x13b;" horiz-adv-x="1174" 
d="M-5 0l247 1490h414l-190 -1144h633l-57 -346h-1047zM155 -466l154 348h360l-242 -348h-272z" />
    <glyph glyph-name="uni013C" unicode="&#x13c;" horiz-adv-x="580" 
d="M649 1490l-247 -1490h-401l247 1490h401zM-147 -466l154 348h360l-242 -348h-272z" />
    <glyph glyph-name="Lcaron" unicode="&#x13d;" horiz-adv-x="1174" 
d="M-5 0l247 1490h414l-190 -1144h633l-57 -346h-1047zM804 1182l64 388h270l-118 -388h-216z" />
    <glyph glyph-name="lcaron" unicode="&#x13e;" horiz-adv-x="841" 
d="M649 1490l-247 -1490h-401l247 1490h401zM715 1182l64 388h270l-118 -388h-216z" />
    <glyph glyph-name="Ldot" unicode="&#x13f;" horiz-adv-x="1185" 
d="M3 0l247 1490h414l-190 -1144h633l-57 -346h-1047zM806 670q-91 0 -141 54t-36 136q13 83 81 136.5t160 53.5q91 0 141 -53.5t36 -135.5q-13 -83 -81 -137t-160 -54z" />
    <glyph glyph-name="ldot" unicode="&#x140;" horiz-adv-x="1027" 
d="M649 1490l-247 -1490h-401l247 1490h401zM794 538q-94 0 -150 68.5t-40 164.5q13 77 75.5 129t142.5 52q94 0 149.5 -68.5t39.5 -164.5q-13 -76 -75.5 -128.5t-141.5 -52.5z" />
    <glyph glyph-name="Lslash" unicode="&#x141;" horiz-adv-x="1174" 
d="M-5 0l247 1490h414l-190 -1144h633l-57 -346h-1047zM12 300l54 327l1025 540l-54 -327z" />
    <glyph glyph-name="lslash" unicode="&#x142;" horiz-adv-x="580" 
d="M649 1490l-247 -1490h-401l247 1490h401zM-57 415l48 288l714 376l-48 -288z" />
    <glyph glyph-name="Nacute" unicode="&#x143;" horiz-adv-x="1527" 
d="M-5 0l247 1490h428l264 -585q21 -46 47 -114t53 -146.5t50 -157.5l-62 -90q9 81 22 185t27 202t23 160l91 546h416l-247 -1490h-427l-247 544q-26 59 -57 136.5t-64.5 170.5t-66.5 195l76 19q-9 -105 -21.5 -206.5t-24.5 -183.5t-21 -131l-90 -544h-416zM796 1618
l241 326h362l-339 -326h-264z" />
    <glyph glyph-name="nacute" unicode="&#x144;" horiz-adv-x="1280" 
d="M494 562l-92 -562h-401l177 1070h391l-45 -290l-45 12q68 136 168.5 218t251.5 82q123 0 200 -55t105.5 -151.5t7.5 -222.5l-110 -663h-400l99 601q13 80 -21 117.5t-99 37.5q-52 0 -90.5 -23.5t-62.5 -67t-34 -103.5zM600 1198l241 326h362l-339 -326h-264z" />
    <glyph glyph-name="uni0145" unicode="&#x145;" horiz-adv-x="1527" 
d="M-5 0l247 1490h428l264 -585q21 -46 47 -114t53 -146.5t50 -157.5l-62 -90q9 81 22 185t27 202t23 160l91 546h416l-247 -1490h-427l-247 544q-26 59 -57 136.5t-64.5 170.5t-66.5 195l76 19q-9 -105 -21.5 -206.5t-24.5 -183.5t-21 -131l-90 -544h-416zM329 -466
l154 348h360l-242 -348h-272z" />
    <glyph glyph-name="uni0146" unicode="&#x146;" horiz-adv-x="1280" 
d="M494 562l-92 -562h-401l177 1070h391l-45 -290l-45 12q68 136 168.5 218t251.5 82q123 0 200 -55t105.5 -151.5t7.5 -222.5l-110 -663h-400l99 601q13 80 -21 117.5t-99 37.5q-52 0 -90.5 -23.5t-62.5 -67t-34 -103.5zM203 -466l154 348h360l-242 -348h-272z" />
    <glyph glyph-name="Ncaron" unicode="&#x147;" horiz-adv-x="1527" 
d="M-5 0l247 1490h428l264 -585q21 -46 47 -114t53 -146.5t50 -157.5l-62 -90q9 81 22 185t27 202t23 160l91 546h416l-247 -1490h-427l-247 544q-26 59 -57 136.5t-64.5 170.5t-66.5 195l76 19q-9 -105 -21.5 -206.5t-24.5 -183.5t-21 -131l-90 -544h-416zM872 1944
l97 -162l156 162h294v-2l-331 -324h-292l-219 324v2h295z" />
    <glyph glyph-name="ncaron" unicode="&#x148;" horiz-adv-x="1280" 
d="M494 562l-92 -562h-401l177 1070h391l-45 -290l-45 12q68 136 168.5 218t251.5 82q123 0 200 -55t105.5 -151.5t7.5 -222.5l-110 -663h-400l99 601q13 80 -21 117.5t-99 37.5q-52 0 -90.5 -23.5t-62.5 -67t-34 -103.5zM676 1524l97 -162l156 162h294v-2l-331 -324h-292
l-219 324v2h295z" />
    <glyph glyph-name="Eng" unicode="&#x14a;" horiz-adv-x="1527" 
d="M652 -418l53 315q20 -1 54 -1.5t77 -0.5q45 0 69.5 20t31.5 62l23 139h414l-27 -162q-31 -188 -151.5 -282.5t-331.5 -94.5q-66 0 -121.5 1.5t-90.5 3.5zM-5 0l247 1490h428l264 -585q21 -46 47 -114t53 -146.5t50 -157.5l-62 -90q9 81 22 185t27 202t23 160l91 546h416
l-247 -1490h-427l-247 544q-26 59 -57 136.5t-64.5 170.5t-66.5 195l76 19q-9 -105 -21.5 -206.5t-24.5 -183.5t-21 -131l-90 -544h-416z" />
    <glyph glyph-name="eng" unicode="&#x14b;" horiz-adv-x="1280" 
d="M444 -418l51 310q30 0 48.5 -1t51.5 -1q46 0 71 21t32 66l4 23h400l-7 -46q-31 -188 -145.5 -282.5t-325.5 -94.5q-65 0 -105 1.5t-75 3.5zM494 562l-92 -562h-401l177 1070h391l-45 -290l-45 12q68 136 168.5 218t251.5 82q123 0 200 -55t105.5 -151.5t7.5 -222.5
l-110 -663h-400l99 601q13 80 -21 117.5t-99 37.5q-52 0 -90.5 -23.5t-62.5 -67t-34 -103.5z" />
    <glyph glyph-name="Omacron" unicode="&#x14c;" horiz-adv-x="1543" 
d="M700 -23q-184 0 -325.5 72t-222 210.5t-80.5 337.5q0 185 59 350.5t169 293t265.5 200t347.5 72.5q183 0 324.5 -71.5t222.5 -209.5t81 -339q0 -189 -60 -354.5t-171 -292t-265.5 -198t-344.5 -71.5zM718 335q106 0 183 51t127 134t74 180.5t24 190.5q0 86 -26 144.5
t-77 89t-128 30.5q-105 0 -181.5 -50.5t-127 -133t-75.5 -180t-25 -192.5q0 -85 26.5 -144t78 -89.5t127.5 -30.5zM1294 1877l-39 -232h-600l39 232h600z" />
    <glyph glyph-name="omacron" unicode="&#x14d;" horiz-adv-x="1252" 
d="M554 -23q-158 0 -272.5 57t-176.5 161.5t-62 247.5q0 139 47.5 257.5t134.5 206t207 136.5t266 49q158 0 272.5 -57.5t176 -162t61.5 -247.5q0 -132 -44.5 -249t-129.5 -207t-206 -141t-274 -51zM579 286q58 0 101.5 33t71.5 84.5t42 111.5t14 116q0 51 -18.5 84.5
t-49 50t-67.5 16.5q-58 0 -101.5 -32.5t-72 -84t-42 -111.5t-13.5 -115q0 -77 40.5 -115t94.5 -38zM1079 1457l-39 -232h-600l39 232h600z" />
    <glyph glyph-name="Obreve" unicode="&#x14e;" horiz-adv-x="1543" 
d="M700 -23q-184 0 -325.5 72t-222 210.5t-80.5 337.5q0 185 59 350.5t169 293t265.5 200t347.5 72.5q183 0 324.5 -71.5t222.5 -209.5t81 -339q0 -189 -60 -354.5t-171 -292t-265.5 -198t-344.5 -71.5zM718 335q106 0 183 51t127 134t74 180.5t24 190.5q0 86 -26 144.5
t-77 89t-128 30.5q-105 0 -181.5 -50.5t-127 -133t-75.5 -180t-25 -192.5q0 -85 26.5 -144t78 -89.5t127.5 -30.5zM948 1602q-112 0 -193 44.5t-119.5 120.5t-23.5 169h218q-10 -62 32 -102t118 -40q50 0 92 18.5t69.5 50t33.5 73.5h221q-15 -93 -79.5 -169t-160.5 -120.5
t-208 -44.5z" />
    <glyph glyph-name="obreve" unicode="&#x14f;" horiz-adv-x="1252" 
d="M554 -23q-158 0 -272.5 57t-176.5 161.5t-62 247.5q0 139 47.5 257.5t134.5 206t207 136.5t266 49q158 0 272.5 -57.5t176 -162t61.5 -247.5q0 -132 -44.5 -249t-129.5 -207t-206 -141t-274 -51zM579 286q58 0 101.5 33t71.5 84.5t42 111.5t14 116q0 51 -18.5 84.5
t-49 50t-67.5 16.5q-58 0 -101.5 -32.5t-72 -84t-42 -111.5t-13.5 -115q0 -77 40.5 -115t94.5 -38zM732 1182q-112 0 -193 44.5t-119.5 120.5t-23.5 169h218q-10 -62 32 -102t118 -40q50 0 92 18.5t69.5 50t33.5 73.5h221q-15 -93 -79.5 -169t-160.5 -120.5t-208 -44.5z" />
    <glyph glyph-name="Ohungarumlaut" unicode="&#x150;" horiz-adv-x="1543" 
d="M700 -23q-184 0 -325.5 72t-222 210.5t-80.5 337.5q0 185 59 350.5t169 293t265.5 200t347.5 72.5q183 0 324.5 -71.5t222.5 -209.5t81 -339q0 -189 -60 -354.5t-171 -292t-265.5 -198t-344.5 -71.5zM718 335q106 0 183 51t127 134t74 180.5t24 190.5q0 86 -26 144.5
t-77 89t-128 30.5q-105 0 -181.5 -50.5t-127 -133t-75.5 -180t-25 -192.5q0 -85 26.5 -144t78 -89.5t127.5 -30.5zM826 1618h-264l189 326h326zM1215 1618h-272l260 326h360z" />
    <glyph glyph-name="ohungarumlaut" unicode="&#x151;" horiz-adv-x="1252" 
d="M554 -23q-158 0 -272.5 57t-176.5 161.5t-62 247.5q0 139 47.5 257.5t134.5 206t207 136.5t266 49q158 0 272.5 -57.5t176 -162t61.5 -247.5q0 -132 -44.5 -249t-129.5 -207t-206 -141t-274 -51zM579 286q58 0 101.5 33t71.5 84.5t42 111.5t14 116q0 51 -18.5 84.5
t-49 50t-67.5 16.5q-58 0 -101.5 -32.5t-72 -84t-42 -111.5t-13.5 -115q0 -77 40.5 -115t94.5 -38zM610 1198h-264l189 326h326zM999 1198h-272l260 326h360z" />
    <glyph glyph-name="OE" unicode="&#x152;" horiz-adv-x="2166" 
d="M698 0q-221 0 -373.5 89.5t-217.5 256t-26 398.5q39 233 160.5 400t303.5 256.5t404 89.5h399l-57 -340h-378q-115 0 -199.5 -42t-138 -132t-76.5 -232q-24 -142 -1 -231.5t91.5 -131t180.5 -41.5h384l-57 -340h-399zM875 0l247 1490h1136l-57 -346h-723l-38 -230h666
l-56 -336h-666l-38 -232h722l-57 -346h-1136z" />
    <glyph glyph-name="oe" unicode="&#x153;" horiz-adv-x="1977" 
d="M554 -23q-158 0 -272.5 57t-176.5 161.5t-62 247.5q0 139 47.5 257.5t134.5 206t207 136.5t266 49q158 0 272.5 -57.5t176 -162t61.5 -247.5q0 -132 -44.5 -249t-129.5 -207t-206 -141t-274 -51zM579 286q58 0 101.5 33t71.5 84.5t42 111.5t14 116q0 51 -18.5 84.5
t-49 50t-67.5 16.5q-58 0 -101.5 -32.5t-72 -84t-42 -111.5t-13.5 -115q0 -77 40.5 -115t94.5 -38zM1324 -24q-175 0 -297 61t-178 179.5t-33 291.5q17 131 71.5 238t141.5 184.5t201 119.5t250 42q127 0 232 -38.5t167.5 -115.5t62.5 -196q0 -122 -71.5 -190t-205 -97.5
t-320 -36t-417.5 -6.5l37 229q198 0 319.5 5.5t185.5 16t86.5 28t22.5 41.5q0 37 -36.5 57.5t-104.5 20.5q-80 0 -124.5 -30t-66 -77.5t-29 -102.5t-14.5 -105q-8 -72 -3 -126t40.5 -83.5t115.5 -29.5q79 0 123 28.5t59 75.5l364 -6q-56 -170 -202.5 -274t-376.5 -104z" />
    <glyph glyph-name="Racute" unicode="&#x154;" horiz-adv-x="1364" 
d="M-5 0l247 1490h635q176 0 294 -63t169 -178.5t25 -275.5q-26 -156 -117.5 -268.5t-234.5 -172.5t-325 -60h-362l53 320h336q65 0 115.5 22t83 62.5t42.5 96.5q14 85 -34.5 133.5t-145.5 48.5h-176l-191 -1155h-414zM821 0l-220 678h419l229 -678h-428zM703 1618l241 326
h362l-339 -326h-264z" />
    <glyph glyph-name="racute" unicode="&#x155;" horiz-adv-x="861" 
d="M1 0l178 1070h388l-33 -197h5q47 110 116.5 155t174.5 45q28 0 52 -1t48 -3l-54 -325q-22 3 -65.5 4t-80.5 1q-61 0 -111.5 -27.5t-84.5 -78.5t-45 -120l-87 -523h-401zM431 1198l241 326h362l-339 -326h-264z" />
    <glyph glyph-name="uni0156" unicode="&#x156;" horiz-adv-x="1364" 
d="M-5 0l247 1490h635q176 0 294 -63t169 -178.5t25 -275.5q-26 -156 -117.5 -268.5t-234.5 -172.5t-325 -60h-362l53 320h336q65 0 115.5 22t83 62.5t42.5 96.5q14 85 -34.5 133.5t-145.5 48.5h-176l-191 -1155h-414zM821 0l-220 678h419l229 -678h-428zM254 -466l154 348
h360l-242 -348h-272z" />
    <glyph glyph-name="uni0157" unicode="&#x157;" horiz-adv-x="861" 
d="M1 0l178 1070h388l-33 -197h5q47 110 116.5 155t174.5 45q28 0 52 -1t48 -3l-54 -325q-22 3 -65.5 4t-80.5 1q-61 0 -111.5 -27.5t-84.5 -78.5t-45 -120l-87 -523h-401zM-145 -466l154 348h360l-242 -348h-272z" />
    <glyph glyph-name="Rcaron" unicode="&#x158;" horiz-adv-x="1364" 
d="M-5 0l247 1490h635q176 0 294 -63t169 -178.5t25 -275.5q-26 -156 -117.5 -268.5t-234.5 -172.5t-325 -60h-362l53 320h336q65 0 115.5 22t83 62.5t42.5 96.5q14 85 -34.5 133.5t-145.5 48.5h-176l-191 -1155h-414zM821 0l-220 678h419l229 -678h-428zM779 1944l97 -162
l156 162h294v-2l-331 -324h-292l-219 324v2h295z" />
    <glyph glyph-name="rcaron" unicode="&#x159;" horiz-adv-x="861" 
d="M1 0l178 1070h388l-33 -197h5q47 110 116.5 155t174.5 45q28 0 52 -1t48 -3l-54 -325q-22 3 -65.5 4t-80.5 1q-61 0 -111.5 -27.5t-84.5 -78.5t-45 -120l-87 -523h-401zM507 1524l97 -162l156 162h294v-2l-331 -324h-292l-219 324v2h295z" />
    <glyph glyph-name="Sacute" unicode="&#x15a;" horiz-adv-x="1394" 
d="M632 -23q-207 0 -345 61t-197.5 178.5t-32.5 285.5h391q-7 -62 17 -105.5t76 -67t127 -23.5q66 0 117 16.5t82 46t37 67.5q6 36 -12.5 63t-66 48t-128.5 36l-144 29q-204 41 -303 156t-70 290q23 136 113 238.5t231 159.5t317 57q186 0 315 -59.5t189 -170t38 -264.5
h-383q5 80 -42.5 122.5t-143.5 42.5q-59 0 -105.5 -16t-75 -44t-34.5 -65q-6 -35 10.5 -61t59 -45t115.5 -33l117 -23q124 -25 209.5 -64.5t136 -96t67 -130.5t2.5 -166q-24 -149 -112 -252.5t-232 -157t-340 -53.5zM727 1618l241 326h362l-339 -326h-264z" />
    <glyph glyph-name="sacute" unicode="&#x15b;" horiz-adv-x="1157" 
d="M512 -25q-150 0 -263.5 44.5t-176.5 126t-64 192.5v4v4l387 6q1 -54 34 -82t101 -28q39 0 71.5 9.5t52.5 27.5t20 43q0 23 -21.5 38t-72.5 23l-192 33q-145 25 -220 98t-75 185q0 120 71 207.5t195.5 135t283.5 47.5q222 0 350 -86.5t129 -234.5q0 -9 -1 -20.5t-2 -22.5
l-362 -5q2 52 -29.5 78t-92.5 26q-35 0 -67 -10t-51.5 -28.5t-19.5 -43.5q0 -22 17.5 -37t57.5 -21l220 -39q150 -26 223.5 -89.5t73.5 -170.5q0 -90 -44.5 -165.5t-122.5 -130t-183 -84.5t-227 -30zM541 1198l241 326h362l-339 -326h-264z" />
    <glyph glyph-name="Scircumflex" unicode="&#x15c;" horiz-adv-x="1394" 
d="M632 -23q-207 0 -345 61t-197.5 178.5t-32.5 285.5h391q-7 -62 17 -105.5t76 -67t127 -23.5q66 0 117 16.5t82 46t37 67.5q6 36 -12.5 63t-66 48t-128.5 36l-144 29q-204 41 -303 156t-70 290q23 136 113 238.5t231 159.5t317 57q186 0 315 -59.5t189 -170t38 -264.5
h-383q5 80 -42.5 122.5t-143.5 42.5q-59 0 -105.5 -16t-75 -44t-34.5 -65q-6 -35 10.5 -61t59 -45t115.5 -33l117 -23q124 -25 209.5 -64.5t136 -96t67 -130.5t2.5 -166q-24 -149 -112 -252.5t-232 -157t-340 -53.5zM750 1618h-295v2l325 324h293l225 -324l-1 -2h-294
l-104 161z" />
    <glyph glyph-name="scircumflex" unicode="&#x15d;" horiz-adv-x="1157" 
d="M512 -25q-150 0 -263.5 44.5t-176.5 126t-64 192.5v4v4l387 6q1 -54 34 -82t101 -28q39 0 71.5 9.5t52.5 27.5t20 43q0 23 -21.5 38t-72.5 23l-192 33q-145 25 -220 98t-75 185q0 120 71 207.5t195.5 135t283.5 47.5q222 0 350 -86.5t129 -234.5q0 -9 -1 -20.5t-2 -22.5
l-362 -5q2 52 -29.5 78t-92.5 26q-35 0 -67 -10t-51.5 -28.5t-19.5 -43.5q0 -22 17.5 -37t57.5 -21l220 -39q150 -26 223.5 -89.5t73.5 -170.5q0 -90 -44.5 -165.5t-122.5 -130t-183 -84.5t-227 -30zM564 1198h-295v2l325 324h293l225 -324l-1 -2h-294l-104 161z" />
    <glyph glyph-name="Scedilla" unicode="&#x15e;" horiz-adv-x="1394" 
d="M632 -23q-207 0 -345 61t-197.5 178.5t-32.5 285.5h391q-7 -62 17 -105.5t76 -67t127 -23.5q66 0 117 16.5t82 46t37 67.5q6 36 -12.5 63t-66 48t-128.5 36l-144 29q-204 41 -303 156t-70 290q23 136 113 238.5t231 159.5t317 57q186 0 315 -59.5t189 -170t38 -264.5
h-383q5 80 -42.5 122.5t-143.5 42.5q-59 0 -105.5 -16t-75 -44t-34.5 -65q-6 -35 10.5 -61t59 -45t115.5 -33l117 -23q124 -25 209.5 -64.5t136 -96t67 -130.5t2.5 -166q-24 -149 -112 -252.5t-232 -157t-340 -53.5zM397 -418l22 137h123q40 0 62.5 13.5t26.5 41.5
q5 27 -12.5 40.5t-58.5 13.5h-87l77 212h137l-7 -40l-15 -78q92 3 134.5 -44t30.5 -120q-15 -87 -84.5 -131.5t-190.5 -44.5h-158z" />
    <glyph glyph-name="scedilla" unicode="&#x15f;" horiz-adv-x="1157" 
d="M512 -25q-150 0 -263.5 44.5t-176.5 126t-64 192.5v4v4l387 6q1 -54 34 -82t101 -28q39 0 71.5 9.5t52.5 27.5t20 43q0 23 -21.5 38t-72.5 23l-192 33q-145 25 -220 98t-75 185q0 120 71 207.5t195.5 135t283.5 47.5q222 0 350 -86.5t129 -234.5q0 -9 -1 -20.5t-2 -22.5
l-362 -5q2 52 -29.5 78t-92.5 26q-35 0 -67 -10t-51.5 -28.5t-19.5 -43.5q0 -22 17.5 -37t57.5 -21l220 -39q150 -26 223.5 -89.5t73.5 -170.5q0 -90 -44.5 -165.5t-122.5 -130t-183 -84.5t-227 -30zM280 -418l22 137h123q40 0 62.5 13.5t26.5 41.5q5 27 -12.5 40.5
t-58.5 13.5h-87l77 212h137l-7 -40l-15 -78q92 3 134.5 -44t30.5 -120q-15 -87 -84.5 -131.5t-190.5 -44.5h-158z" />
    <glyph glyph-name="Scaron" unicode="&#x160;" horiz-adv-x="1394" 
d="M632 -23q-207 0 -345 61t-197.5 178.5t-32.5 285.5h391q-7 -62 17 -105.5t76 -67t127 -23.5q66 0 117 16.5t82 46t37 67.5q6 36 -12.5 63t-66 48t-128.5 36l-144 29q-204 41 -303 156t-70 290q23 136 113 238.5t231 159.5t317 57q186 0 315 -59.5t189 -170t38 -264.5
h-383q5 80 -42.5 122.5t-143.5 42.5q-59 0 -105.5 -16t-75 -44t-34.5 -65q-6 -35 10.5 -61t59 -45t115.5 -33l117 -23q124 -25 209.5 -64.5t136 -96t67 -130.5t2.5 -166q-24 -149 -112 -252.5t-232 -157t-340 -53.5zM803 1944l97 -162l156 162h294v-2l-331 -324h-292
l-219 324v2h295z" />
    <glyph glyph-name="scaron" unicode="&#x161;" horiz-adv-x="1157" 
d="M512 -25q-150 0 -263.5 44.5t-176.5 126t-64 192.5v4v4l387 6q1 -54 34 -82t101 -28q39 0 71.5 9.5t52.5 27.5t20 43q0 23 -21.5 38t-72.5 23l-192 33q-145 25 -220 98t-75 185q0 120 71 207.5t195.5 135t283.5 47.5q222 0 350 -86.5t129 -234.5q0 -9 -1 -20.5t-2 -22.5
l-362 -5q2 52 -29.5 78t-92.5 26q-35 0 -67 -10t-51.5 -28.5t-19.5 -43.5q0 -22 17.5 -37t57.5 -21l220 -39q150 -26 223.5 -89.5t73.5 -170.5q0 -90 -44.5 -165.5t-122.5 -130t-183 -84.5t-227 -30zM617 1524l97 -162l156 162h294v-2l-331 -324h-292l-219 324v2h295z" />
    <glyph glyph-name="uni021A" unicode="&#x162;" horiz-adv-x="1359" 
d="M144 1144l58 346h1271l-58 -346h-429l-189 -1144h-413l189 1144h-429zM372 -418l22 137h123q40 0 62.5 13.5t26.5 41.5q5 27 -12.5 40.5t-58.5 13.5h-87l77 212h137l-7 -40l-15 -78q92 3 134.5 -44t30.5 -120q-15 -87 -84.5 -131.5t-190.5 -44.5h-158z" />
    <glyph glyph-name="uni0163" unicode="&#x163;" horiz-adv-x="849" 
d="M892 1070l-51 -302h-782l50 302h783zM326 1353h401l-161 -973q-7 -44 8.5 -61.5t66.5 -17.5q25 0 65 1t56 2l-39 -301q-37 -4 -99.5 -5.5t-127.5 -1.5q-204 0 -286 78t-55 243zM231 -418l22 137h123q40 0 62.5 13.5t26.5 41.5q5 27 -12.5 40.5t-58.5 13.5h-87l77 212h137
l-7 -40l-15 -78q92 3 134.5 -44t30.5 -120q-15 -87 -84.5 -131.5t-190.5 -44.5h-158z" />
    <glyph glyph-name="Tcaron" unicode="&#x164;" horiz-adv-x="1359" 
d="M144 1144l58 346h1271l-58 -346h-429l-189 -1144h-413l189 1144h-429zM787 1944l97 -162l156 162h294v-2l-331 -324h-292l-219 324v2h295z" />
    <glyph glyph-name="tcaron" unicode="&#x165;" horiz-adv-x="927" 
d="M892 1070l-51 -302h-782l50 302h783zM326 1353h401l-161 -973q-7 -44 8.5 -61.5t66.5 -17.5q25 0 65 1t56 2l-39 -301q-37 -4 -99.5 -5.5t-127.5 -1.5q-204 0 -286 78t-55 243zM834 1198l64 388h270l-118 -388h-216z" />
    <glyph glyph-name="Tbar" unicode="&#x166;" horiz-adv-x="1359" 
d="M144 1144l58 346h1271l-58 -346h-429l-189 -1144h-413l189 1144h-429zM204 539l42 254h952l-43 -254h-951z" />
    <glyph glyph-name="tbar" unicode="&#x167;" horiz-adv-x="850" 
d="M826 675l-35 -217h-783l35 217h783zM893 1070l-51 -302h-782l50 302h783zM327 1353h401l-161 -973q-7 -44 8.5 -61.5t66.5 -17.5q25 0 65 1t56 2l-39 -301q-37 -4 -99.5 -5.5t-127.5 -1.5q-204 0 -286 78t-55 243z" />
    <glyph glyph-name="Utilde" unicode="&#x168;" horiz-adv-x="1452" 
d="M654 -23q-200 0 -337.5 71.5t-198.5 199.5t-33 296l156 946h404l-154 -938q-11 -69 8 -119.5t63.5 -78t108.5 -27.5q75 0 139 34t107 91t54 126l151 912h404l-161 -972q-28 -168 -125 -289.5t-247 -186.5t-339 -65zM1053 1620q-57 0 -93 18t-61 42t-46.5 42t-49.5 18
q-35 0 -59.5 -28.5t-35.5 -83.5h-198q29 158 113 235t187 77q56 0 93 -17.5t63 -40t47.5 -40t47.5 -17.5q42 0 64 28.5t32 80.5h196q-28 -154 -113 -234t-187 -80z" />
    <glyph glyph-name="utilde" unicode="&#x169;" horiz-adv-x="1280" 
d="M361 -22q-118 0 -190.5 51.5t-99 145t-5.5 219.5l112 676h400l-97 -588q-13 -80 19 -124t103 -44q48 0 84.5 20t61 60.5t34.5 100.5l96 575h400l-177 -1070h-391l46 290h43q-68 -136 -174 -224t-265 -88zM899 1200q-57 0 -93 18t-61 42t-46.5 42t-49.5 18
q-35 0 -59.5 -28.5t-35.5 -83.5h-198q29 158 113 235t187 77q56 0 93 -17.5t63 -40t47.5 -40t47.5 -17.5q42 0 64 28.5t32 80.5h196q-28 -154 -113 -234t-187 -80z" />
    <glyph glyph-name="Umacron" unicode="&#x16a;" horiz-adv-x="1452" 
d="M654 -23q-200 0 -337.5 71.5t-198.5 199.5t-33 296l156 946h404l-154 -938q-11 -69 8 -119.5t63.5 -78t108.5 -27.5q75 0 139 34t107 91t54 126l151 912h404l-161 -972q-28 -168 -125 -289.5t-247 -186.5t-339 -65zM1248 1877l-39 -232h-600l39 232h600z" />
    <glyph glyph-name="umacron" unicode="&#x16b;" horiz-adv-x="1280" 
d="M361 -22q-118 0 -190.5 51.5t-99 145t-5.5 219.5l112 676h400l-97 -588q-13 -80 19 -124t103 -44q48 0 84.5 20t61 60.5t34.5 100.5l96 575h400l-177 -1070h-391l46 290h43q-68 -136 -174 -224t-265 -88zM1093 1457l-39 -232h-600l39 232h600z" />
    <glyph glyph-name="Ubreve" unicode="&#x16c;" horiz-adv-x="1452" 
d="M654 -23q-200 0 -337.5 71.5t-198.5 199.5t-33 296l156 946h404l-154 -938q-11 -69 8 -119.5t63.5 -78t108.5 -27.5q75 0 139 34t107 91t54 126l151 912h404l-161 -972q-28 -168 -125 -289.5t-247 -186.5t-339 -65zM902 1602q-112 0 -193 44.5t-119.5 120.5t-23.5 169
h218q-10 -62 32 -102t118 -40q50 0 92 18.5t69.5 50t33.5 73.5h221q-15 -93 -79.5 -169t-160.5 -120.5t-208 -44.5z" />
    <glyph glyph-name="ubreve" unicode="&#x16d;" horiz-adv-x="1280" 
d="M361 -22q-118 0 -190.5 51.5t-99 145t-5.5 219.5l112 676h400l-97 -588q-13 -80 19 -124t103 -44q48 0 84.5 20t61 60.5t34.5 100.5l96 575h400l-177 -1070h-391l46 290h43q-68 -136 -174 -224t-265 -88zM747 1182q-112 0 -193 44.5t-119.5 120.5t-23.5 169h218
q-10 -62 32 -102t118 -40q50 0 92 18.5t69.5 50t33.5 73.5h221q-15 -93 -79.5 -169t-160.5 -120.5t-208 -44.5z" />
    <glyph glyph-name="Uring" unicode="&#x16e;" horiz-adv-x="1452" 
d="M654 -23q-200 0 -337.5 71.5t-198.5 199.5t-33 296l156 946h404l-154 -938q-11 -69 8 -119.5t63.5 -78t108.5 -27.5q75 0 139 34t107 91t54 126l151 912h404l-161 -972q-28 -168 -125 -289.5t-247 -186.5t-339 -65zM917 1566q-85 0 -144 34t-85.5 94.5t-13.5 138.5
q11 62 49.5 110.5t99 76t133.5 27.5q85 0 144 -34t85.5 -94t13.5 -138q-10 -63 -49 -111.5t-99 -76t-134 -27.5zM921 1711q43 0 75 26.5t39 69.5q7 42 -16 69t-67 27q-43 0 -74.5 -27t-38.5 -69q-7 -43 15.5 -69.5t66.5 -26.5z" />
    <glyph glyph-name="uring" unicode="&#x16f;" horiz-adv-x="1280" 
d="M361 -22q-118 0 -190.5 51.5t-99 145t-5.5 219.5l112 676h400l-97 -588q-13 -80 19 -124t103 -44q48 0 84.5 20t61 60.5t34.5 100.5l96 575h400l-177 -1070h-391l46 290h43q-68 -136 -174 -224t-265 -88zM742 1151q-77 0 -132 31.5t-80.5 87t-13.5 126.5
q12 72 55.5 127.5t109.5 87t142 31.5q78 0 133 -31.5t80.5 -87t13.5 -127.5q-11 -71 -55 -126.5t-110 -87t-143 -31.5zM767 1298q42 0 74.5 28t39.5 70q8 43 -15.5 71t-66.5 28q-42 0 -74.5 -28t-40.5 -71q-7 -42 16.5 -70t66.5 -28z" />
    <glyph glyph-name="Uhungarumlaut" unicode="&#x170;" horiz-adv-x="1452" 
d="M654 -23q-200 0 -337.5 71.5t-198.5 199.5t-33 296l156 946h404l-154 -938q-11 -69 8 -119.5t63.5 -78t108.5 -27.5q75 0 139 34t107 91t54 126l151 912h404l-161 -972q-28 -168 -125 -289.5t-247 -186.5t-339 -65zM780 1618h-264l189 326h326zM1169 1618h-272l260 326
h360z" />
    <glyph glyph-name="uhungarumlaut" unicode="&#x171;" horiz-adv-x="1280" 
d="M361 -22q-118 0 -190.5 51.5t-99 145t-5.5 219.5l112 676h400l-97 -588q-13 -80 19 -124t103 -44q48 0 84.5 20t61 60.5t34.5 100.5l96 575h400l-177 -1070h-391l46 290h43q-68 -136 -174 -224t-265 -88zM625 1198h-264l189 326h326zM1014 1198h-272l260 326h360z" />
    <glyph glyph-name="Uogonek" unicode="&#x172;" horiz-adv-x="1452" 
d="M654 -23q-200 0 -337.5 71.5t-198.5 199.5t-33 296l156 946h404l-154 -938q-11 -69 8 -119.5t63.5 -78t108.5 -27.5q75 0 139 34t107 91t54 126l151 912h404l-161 -972q-28 -168 -125 -289.5t-247 -186.5t-339 -65zM654 -420q-156 0 -231 57.5t-58 160.5q12 77 63.5 129
t127.5 88.5t165 68t179 67.5t167.5 85t132 120t72.5 175l93 -13q-24 -131 -76 -219.5t-119.5 -145t-138 -93t-132 -64t-102.5 -57.5t-49 -75q-5 -31 11.5 -46t52.5 -15q15 0 29.5 1t29.5 3l-20 -215q-39 -6 -96.5 -9t-100.5 -3z" />
    <glyph glyph-name="uogonek" unicode="&#x173;" horiz-adv-x="1280" 
d="M361 -22q-118 0 -190.5 51.5t-99 145t-5.5 219.5l112 676h400l-97 -588q-13 -80 19 -124t103 -44q48 0 84.5 20t61 60.5t34.5 100.5l96 575h400l-177 -1070h-391l46 290h43q-68 -136 -174 -224t-265 -88zM845 -420q-155 0 -230.5 57.5t-58.5 160.5q11 67 53 123.5
t104 105.5l389 -27q-85 -37 -120.5 -68t-42.5 -68q-5 -31 11.5 -46t53.5 -15q15 0 29.5 1t28.5 3l-20 -215q-39 -6 -96 -9t-101 -3z" />
    <glyph glyph-name="Wcircumflex" unicode="&#x174;" horiz-adv-x="2144" 
d="M316 0l-148 1490h452l23 -578q5 -109 6 -223t0.5 -227.5t-0.5 -223.5h-92q40 110 79 223.5t80 227.5t84 223l228 578h404l36 -578q7 -109 10.5 -223t5 -227.5t3.5 -223.5h-93q37 110 74 223.5t76 227.5t80 223l216 578h452l-642 -1490h-457l-53 670q-8 97 -8.5 227.5
t-9.5 298.5h118q-66 -168 -109 -298t-82 -228l-276 -670h-457zM1125 1618h-295v2l325 324h293l225 -324l-1 -2h-294l-104 161z" />
    <glyph glyph-name="wcircumflex" unicode="&#x175;" horiz-adv-x="1793" 
d="M231 0l-146 1070h420l15 -302q7 -119 10.5 -249.5t5.5 -263.5h-50q50 133 101.5 263.5t99.5 249.5l124 302h348l22 -302q10 -119 18 -249.5t14 -263.5h-48q45 133 89.5 263t89.5 250l113 302h428l-502 -1070h-412l-47 368q-7 53 -11.5 113.5t-8.5 123t-9 119.5h64
q-24 -57 -48.5 -119.5t-49 -123t-49.5 -113.5l-169 -368h-412zM879 1198h-295v2l325 324h293l225 -324l-1 -2h-294l-104 161z" />
    <glyph glyph-name="Ycircumflex" unicode="&#x176;" horiz-adv-x="1516" 
d="M476 0l85 510l-393 980h460l143 -425q18 -54 33 -109t30 -113h-59q31 58 62.5 113t65.5 109l272 425h489l-701 -980l-85 -510h-402zM811 1618h-295v2l325 324h293l225 -324l-1 -2h-294l-104 161z" />
    <glyph glyph-name="ycircumflex" unicode="&#x177;" horiz-adv-x="1229" 
d="M-35 -411l69 300l135 -3q43 -4 70 5t44 31t30 58l5 20l-230 1070h403l59 -462q14 -109 22 -219t16 -225h-107q45 115 92.5 225.5t97.5 218.5l220 462h427l-648 -1197q-53 -100 -115 -165t-140.5 -96.5t-184.5 -31.5q-66 0 -135 2.5t-130 6.5zM574 1198h-295v2l325 324
h293l225 -324l-1 -2h-294l-104 161z" />
    <glyph glyph-name="Ydieresis" unicode="&#x178;" horiz-adv-x="1516" 
d="M476 0l85 510l-393 980h460l143 -425q18 -54 33 -109t30 -113h-59q31 58 62.5 113t65.5 109l272 425h489l-701 -980l-85 -510h-402zM1164 1578q-85 0 -131.5 52t-32.5 132q13 80 77 132.5t148 52.5q85 0 132 -52.5t34 -132.5q-14 -80 -78.5 -132t-148.5 -52zM696 1578
q-84 0 -130.5 52t-31.5 132q12 80 75.5 132.5t148.5 52.5q86 0 132.5 -52.5t33.5 -132.5q-14 -80 -78 -132t-150 -52z" />
    <glyph glyph-name="Zacute" unicode="&#x179;" horiz-adv-x="1398" 
d="M1 0l37 224l860 940h-702l54 326h1216l-37 -224l-860 -940h702l-54 -326h-1216zM735 1618l241 326h362l-339 -326h-264z" />
    <glyph glyph-name="zacute" unicode="&#x17a;" horiz-adv-x="1161" 
d="M13 0l41 248l557 514v3h-468l51 305h943l-44 -266l-534 -498l-1 -3h464l-51 -303h-958zM541 1198l241 326h362l-339 -326h-264z" />
    <glyph glyph-name="Zdotaccent" unicode="&#x17b;" horiz-adv-x="1398" 
d="M1 0l37 224l860 940h-702l54 326h1216l-37 -224l-860 -940h702l-54 -326h-1216zM874 1570q-91 0 -141 54t-36 136q13 83 81 136.5t160 53.5q91 0 141 -53.5t36 -135.5q-13 -83 -81 -137t-160 -54z" />
    <glyph glyph-name="zdotaccent" unicode="&#x17c;" horiz-adv-x="1161" 
d="M13 0l41 248l557 514v3h-468l51 305h943l-44 -266l-534 -498l-1 -3h464l-51 -303h-958zM680 1150q-91 0 -141 54t-36 136q13 83 81 136.5t160 53.5q91 0 141 -53.5t36 -135.5q-13 -83 -81 -137t-160 -54z" />
    <glyph glyph-name="Zcaron" unicode="&#x17d;" horiz-adv-x="1398" 
d="M1 0l37 224l860 940h-702l54 326h1216l-37 -224l-860 -940h702l-54 -326h-1216zM811 1944l97 -162l156 162h294v-2l-331 -324h-292l-219 324v2h295z" />
    <glyph glyph-name="zcaron" unicode="&#x17e;" horiz-adv-x="1161" 
d="M13 0l41 248l557 514v3h-468l51 305h943l-44 -266l-534 -498l-1 -3h464l-51 -303h-958zM617 1524l97 -162l156 162h294v-2l-331 -324h-292l-219 324v2h295z" />
    <glyph glyph-name="longs" unicode="&#x17f;" horiz-adv-x="718" 
d="M-78 -426h-83.5t-76 1t-54.5 2l56 302q18 -1 48.5 -1.5t55.5 -0.5q61 0 91 26.5t41 87.5l190 1146q21 125 78.5 206.5t155.5 121.5t238 40q66 0 125 -1t91 -4l-61 -300q-18 1 -48.5 1.5t-60.5 0.5q-58 0 -86.5 -24.5t-38.5 -81.5l-191 -1153q-20 -125 -78 -207t-155 -122
t-237 -40z" />
    <glyph glyph-name="bbar" unicode="&#x180;" horiz-adv-x="1291" 
d="M722 -22q-79 0 -139 24.5t-98 70t-54 107.5h-3l-30 -180h-397l246 1490h401l-91 -562h3q27 53 72.5 89t105 55.5t125.5 19.5q115 0 201 -55.5t134.5 -157.5t48.5 -244q0 -114 -33 -230t-99 -212.5t-164 -155.5t-229 -59zM601 291q61 0 107 33t76.5 84.5t45.5 111
t15 112.5q0 71 -30.5 109.5t-91.5 38.5q-59 0 -106 -29.5t-80.5 -79t-51.5 -107t-18 -114.5q0 -75 35.5 -117t98.5 -42zM63 1163l36 216h844l-36 -216h-844z" />
    <glyph glyph-name="uni0181" unicode="&#x181;" horiz-adv-x="1819" 
d="M105 1019l17 110q28 164 135 262.5t284 98.5h180l-56 -337h-67q-40 0 -65 -19.5t-31 -56.5l-9 -58h-388zM475 0l246 1490h636q170 0 280 -51t157 -141t27 -206q-12 -79 -61 -142.5t-123.5 -105.5t-163.5 -59v-4q96 -6 167 -55.5t104 -133.5t14 -196q-19 -115 -93 -204.5
t-195 -140.5t-283 -51h-712zM931 314h211q81 0 136 41.5t67 112.5q7 45 -8.5 77.5t-50.5 50t-89 17.5h-216zM1028 897h186q48 0 87 18t64.5 51t32.5 77q11 62 -25 98t-107 36h-192z" />
    <glyph glyph-name="uni0182" unicode="&#x182;" horiz-adv-x="1316" 
d="M-5 0l248 1490h1048l-56 -326h-642l-26 -174h150q187 0 317.5 -61t190.5 -170.5t36 -258.5q-25 -148 -122 -260.5t-248 -176t-340 -63.5h-556zM453 318h150q74 0 128 24t87 66t41 96q14 76 -35.5 126.5t-158.5 49.5h-152z" />
    <glyph glyph-name="uni0183" unicode="&#x183;" horiz-adv-x="1291" 
d="M402 1189l-155 301h899l-50 -301h-694zM722 -22q-79 0 -139 24.5t-98 70t-54 107.5h-3l-30 -180h-397l246 1490h401l-91 -562h3q27 53 72.5 89t105 55.5t125.5 19.5q115 0 201 -55.5t134.5 -157.5t48.5 -244q0 -114 -33 -230t-99 -212.5t-164 -155.5t-229 -59zM601 291
q61 0 107 33t76.5 84.5t45.5 111t15 112.5q0 71 -30.5 109.5t-91.5 38.5q-59 0 -106 -29.5t-80.5 -79t-51.5 -107t-18 -114.5q0 -75 35.5 -117t98.5 -42z" />
    <glyph glyph-name="uni0184" unicode="&#x184;" horiz-adv-x="1747" 
d="M360 891l-264 166l318 433h393zM817 1016h366q183 0 306.5 -61.5t177 -175t27.5 -269.5q-26 -157 -110.5 -271.5t-217.5 -176.5t-304 -62h-665l247 1490h414l-192 -1156h186q66 0 116.5 21.5t83 62t41.5 96.5t-7.5 95.5t-57.5 61t-107 21.5h-358z" />
    <glyph glyph-name="uni0185" unicode="&#x185;" horiz-adv-x="1485" 
d="M271 553l-243 152l263 365h368zM681 752h319q150 0 248 -45t140 -128.5t22 -203.5q-20 -119 -89.5 -202.5t-182.5 -128t-263 -44.5h-550l178 1070h400l-127 -770h139q49 0 78 20.5t35 57.5q6 39 -16.5 59.5t-70.5 20.5h-309z" />
    <glyph glyph-name="uni0186" unicode="&#x186;" horiz-adv-x="1514" 
d="M885 1513q185 0 326 -71.5t221 -210t80 -337.5q0 -186 -58.5 -351.5t-168.5 -293t-265.5 -200t-347.5 -72.5q-142 0 -258 39.5t-197.5 115t-122.5 183t-34 243.5h417q0 -52 13 -93.5t39 -70t64 -44t89 -15.5q107 0 185.5 50.5t129.5 133t75.5 180.5t24.5 192
q0 87 -26.5 145.5t-79.5 88.5t-133 30q-57 0 -107.5 -15t-92 -44t-72 -70t-48.5 -92h-417q35 123 104.5 229t168.5 184.5t223.5 122t267.5 43.5z" />
    <glyph glyph-name="uni0187" unicode="&#x187;" horiz-adv-x="1514" 
d="M1127 932l62 372q31 189 145 283t325 94q65 0 120.5 -1t90.5 -4l-51 -305q-20 1 -54.5 1.5t-76.5 0.5q-46 0 -71.5 -21t-32.5 -65l-59 -355h-398zM698 -23q-184 0 -325 71.5t-221 210.5t-80 337q0 186 58.5 351.5t168.5 293t265.5 200t347.5 72.5q142 0 258 -39.5
t197.5 -115t122.5 -183t34 -243.5h-417q0 52 -13 93.5t-39 70t-64 44t-89 15.5q-107 0 -185.5 -50.5t-129.5 -133t-76 -180.5t-25 -192q0 -87 27 -145.5t80 -88.5t132 -30q58 0 108.5 15t91.5 44t72 70t49 92h417q-34 -123 -104 -229t-169 -184.5t-223.5 -122t-268.5 -43.5z
" />
    <glyph glyph-name="uni0188" unicode="&#x188;" horiz-adv-x="1202" 
d="M834 638l27 268q19 186 115 276.5t307 90.5q60 0 112.5 -0.5t84.5 -1.5l-52 -309q-19 2 -51.5 2.5t-73.5 0.5q-46 0 -70 -21t-30 -65l-30 -241h-339zM545 -23q-156 0 -268 58t-172.5 163.5t-60.5 246.5q0 129 43.5 245.5t127 207t203.5 142.5t270 52q112 0 206 -32
t161 -91.5t98.5 -143t19.5 -187.5l-382 -12q3 32 -1 61t-16 50.5t-33.5 34t-54.5 12.5q-61 0 -106.5 -33t-75.5 -85.5t-44.5 -114t-14.5 -118.5q0 -49 12.5 -82t39 -49.5t65.5 -16.5q35 0 67 12t59.5 34t46.5 51.5t27 64.5l377 -12q-19 -104 -70.5 -188.5t-130 -144.5
t-178 -92.5t-215.5 -32.5z" />
    <glyph glyph-name="Dbar1" unicode="&#x189;" horiz-adv-x="1583" 
d="M770 0h-481l57 344h389q120 0 205 41.5t138.5 130.5t75.5 228q24 141 -0.5 230t-98 130.5t-197.5 41.5h-385l57 344h386q230 0 390.5 -91.5t232 -259t32.5 -395.5q-37 -227 -139 -394t-267 -258.5t-395 -91.5zM778 1490l-247 -1490h-414l247 1490h414zM28 618l42 254h855
l-43 -254h-854z" />
    <glyph glyph-name="uni018A" unicode="&#x18a;" horiz-adv-x="1941" 
d="M106 1019l17 110q28 164 135 262.5t284 98.5h180l-56 -337h-68q-40 0 -64.5 -19.5t-30.5 -56.5l-9 -58h-388zM1128 0h-481l57 344h389q120 0 205 41.5t138.5 130.5t75.5 228q24 141 -0.5 230t-98 130.5t-197.5 41.5h-385l57 344h386q230 0 390.5 -91.5t232 -259
t32.5 -395.5q-37 -227 -139 -394t-267 -258.5t-395 -91.5zM1136 1490l-247 -1490h-414l247 1490h414z" />
    <glyph glyph-name="uni018B" unicode="&#x18b;" horiz-adv-x="1403" 
d="M1202 0h-556q-188 0 -318 64t-189 177t-35 259q24 147 120.5 257t248 171.5t339.5 61.5h166l32 194h-658l52 318h1048zM864 312l60 368h-166q-110 1 -180 -49.5t-84 -126.5q-8 -54 12.5 -97.5t69 -69t122.5 -25.5h166z" />
    <glyph glyph-name="uni018C" unicode="&#x18c;" horiz-adv-x="1289" 
d="M1103 1189h-694l50 301h898zM430 -22q-179 0 -284 116.5t-105 322.5q0 125 35.5 245t104 217t166 155t222.5 58q77 0 133 -23t94.5 -66t60.5 -102h3l96 589h401l-246 -1490h-397l27 161h-3q-33 -64 -79.5 -104.5t-104.5 -59.5t-124 -19zM566 291q59 0 106 30t81 79.5
t51.5 107.5t17.5 115q0 74 -36 115.5t-98 41.5q-60 0 -105.5 -31.5t-76 -82.5t-46 -110.5t-15.5 -116.5q0 -70 30 -109t91 -39z" />
    <glyph glyph-name="deltaturn" unicode="&#x18d;" horiz-adv-x="1473" 
d="M1018 -376h-888l50 300h404q-15 11 -36 20t-50 27t-70 53q-86 73 -146.5 154.5t-87.5 174t-12 197.5l4 20q25 168 109.5 294.5t221.5 197t317 70.5q179 0 291.5 -62.5t158 -176t22.5 -265.5l-4 -20q-21 -148 -94.5 -259t-173 -178.5t-200.5 -86.5q1 0 -12.5 0h-25.5
q26 -21 62 -59.5t74 -81.5t68.5 -80t45.5 -55zM918 550l4 20q10 68 8 127.5t-34 97t-112 37.5q-74 0 -118.5 -34t-68.5 -93t-35 -135l-4 -20q-16 -109 14.5 -180.5t85.5 -101.5q8 -4 17 -5t17 -1q69 0 114 38t72 103.5t40 146.5z" />
    <glyph glyph-name="Eturn" unicode="&#x18e;" horiz-adv-x="1286" 
d="M1360 1490l-247 -1490h-1135l57 346h723l38 230h-666l55 336h666l39 232h-722l57 346h1135z" />
    <glyph glyph-name="uni018F" unicode="&#x18f;" horiz-adv-x="1516" 
d="M660 -23q-203 0 -346.5 79t-207.5 223t-32 340l36 213h1079l-48 -295h-760l84 8q-11 -63 15.5 -110t86 -73.5t146.5 -26.5q108 0 182.5 45.5t121 137t68.5 227.5q22 132 6 223t-75 139t-168 48q-55 0 -99.5 -11.5t-80 -34t-60.5 -55t-40 -73.5h-421q30 120 102.5 217
t176 168t228 109t259.5 38q204 0 351.5 -88.5t214.5 -260.5t25 -420q-29 -177 -102 -318.5t-183.5 -242t-251.5 -153.5t-307 -53z" />
    <glyph glyph-name="Epsilon1" unicode="&#x190;" horiz-adv-x="1320" 
d="M580 -23q-182 0 -314 57.5t-195.5 158.5t-42.5 229q15 89 67 165.5t137.5 127t201.5 61.5v5q-125 15 -197 97.5t-51 216.5q21 123 105.5 217t217 147.5t297.5 53.5q179 0 301.5 -62.5t178.5 -170.5t33 -245h-388q9 52 -8.5 91.5t-55.5 61.5t-93 22q-52 0 -97.5 -20.5
t-76 -56.5t-38.5 -83q-7 -47 12.5 -81.5t63.5 -53.5t109 -19h146l-46 -280h-146q-68 0 -122.5 -20.5t-88.5 -56.5t-42 -86q-7 -47 10.5 -84t57 -58t98.5 -21q64 0 117 25.5t88 72.5t46 111h393q-23 -139 -105 -258t-225 -191.5t-348 -72.5z" />
    <glyph glyph-name="uni0191" unicode="&#x191;" horiz-adv-x="1230" 
d="M-293 -418l52 315q20 -1 54.5 -1.5t76.5 -0.5q46 0 70 20t31 62l24 139h413l-27 -162q-31 -188 -151.5 -282.5t-331.5 -94.5q-65 0 -120.5 1.5t-90.5 3.5zM-5 0l247 1490h1103l-57 -346h-690l-46 -280h644l-55 -334h-645l-87 -530h-414z" />
    <glyph glyph-name="florin" unicode="&#x192;" horiz-adv-x="1049" 
d="M1007 1082l-45 -268h-227l-133 -808q-23 -138 -89 -233t-168 -143t-234 -48q-42 -1 -82.5 2t-88.5 12l63 296q18 -4 43.5 -7.5t48.5 -4.5q75 1 95.5 35t30.5 91l133 808h-160l45 268h160l12 78q22 130 92.5 218t183.5 133t262 45q50 0 89.5 -5t80.5 -13l-66 -284
q-23 5 -47 7t-66 1q-58 1 -98 -25t-49 -77l-13 -78h227z" />
    <glyph glyph-name="uni0193" unicode="&#x193;" horiz-adv-x="1523" 
d="M1233 1023l-5 300q-2 127 45 205t142 114t235 36q65 0 120.5 -1.5t90.5 -4.5l-51 -304q-20 0 -54 1t-77 1q-46 0 -71 -21.5t-33 -65.5l-50 -302zM707 -23q-198 0 -340 75t-218.5 214t-76.5 331q0 189 60 354.5t171.5 292t266.5 198t344 71.5q132 0 247 -36t200 -105.5
t129.5 -168t33.5 -222.5h-420q-1 41 -13.5 73.5t-36.5 55t-59.5 34t-83.5 11.5q-111 0 -191.5 -50t-132 -132t-76 -179.5t-24.5 -192.5q0 -131 62.5 -198.5t188.5 -67.5q94 0 163 29.5t111.5 80t52.5 113.5l78 -21h-352l49 295h672l-37 -226q-24 -147 -90.5 -263.5
t-168 -198t-231 -124.5t-278.5 -43z" />
    <glyph glyph-name="Gamma1" unicode="&#x194;" horiz-adv-x="1657" 
d="M244 1490h466l251 -804q69 -220 112 -385.5t60 -277.5t7 -175q-14 -81 -78 -147t-166 -104.5t-230 -38.5q-194 0 -303 81t-85 221q4 26 16 58.5t40 85.5t79 139.5t133.5 219t204.5 325.5l509 802h468l-919 -1322q-33 -47 -59.5 -97.5t-44.5 -99t-25 -89.5q-6 -34 1 -51
t28 -17q22 0 34.5 16.5t17.5 53.5q7 41 5.5 90t-11 99.5t-26.5 94.5z" />
    <glyph glyph-name="uni0195" unicode="&#x195;" horiz-adv-x="2038" 
d="M1 0l246 1490h387l-97 -586h12q56 107 154 167.5t222 60.5q118 0 196.5 -54t111.5 -148.5t12 -217.5l-26 -154h-401l11 70q14 83 -19.5 130.5t-110.5 47.5q-49 0 -89 -21.5t-66.5 -61t-36.5 -95.5l-104 -628h-402zM1225 -20q-169 0 -271.5 57t-140.5 158.5t-16 234.5
l21 128h401l-20 -128q-7 -38 2 -66t32.5 -43t58.5 -15q83 0 144.5 85t107.5 243.5t83 377.5l18 106h400l-18 -106q-55 -336 -152.5 -566t-255.5 -348t-394 -118z" />
    <glyph glyph-name="Iota" unicode="&#x196;" horiz-adv-x="647" 
d="M403 -1q-210 0 -293 77t-55 250l193 1164h401l-187 -1126q-5 -34 11 -52t52 -18q13 0 24.5 0.5t20.5 0.5l-35 -290q-28 -2 -61.5 -4t-70.5 -2z" />
    <glyph glyph-name="uni0197" unicode="&#x197;" horiz-adv-x="766" 
d="M748 1490l-247 -1490h-414l247 1490h414zM47 720l22 136h733l-23 -136h-732z" />
    <glyph glyph-name="uni0198" unicode="&#x198;" horiz-adv-x="1545" 
d="M-5 0l246 1490h404l-95 -576h20l494 428q104 90 209 132t211 33t212 -73l-167 -282q-64 33 -108 12t-98 -68l-353 -304l477 -792h-484l-301 504l-211 -186l-52 -318h-404z" />
    <glyph glyph-name="uni0199" unicode="&#x199;" horiz-adv-x="1211" 
d="M142 846l37 224l7 46q32 189 147 283t326 94q65 0 120.5 -1.5t90.5 -3.5l-50 -305q-20 1 -54.5 1.5t-76.5 0.5q-46 0 -71.5 -21t-33.5 -65l-5 -29l-37 -224h-400zM401 245l78 474h48l327 351h452l-543 -564h-113zM1 0l178 1070h400l-177 -1070h-401zM685 0l-184 417
l306 281l333 -698h-455z" />
    <glyph glyph-name="uni019A" unicode="&#x19a;" horiz-adv-x="580" 
d="M649 1490l-247 -1490h-401l247 1490h401zM-113 660l36 216h844l-36 -216h-844z" />
    <glyph glyph-name="lambdabar" unicode="&#x19b;" horiz-adv-x="1395" 
d="M1064 1370l-36 -212l-756 -218l34 218zM700 606l-296 -606h-402l592 1120l260 2zM598 1556q114 0 182 -46t90 -132l258 -970q7 -25 17.5 -56t30 -53.5t50.5 -22.5h20.5h13.5l-50 -294q-28 -4 -61.5 -3t-76.5 1q-101 0 -166.5 36t-100.5 92t-47 116l-140 722l-70 224
q-12 38 -44 61t-94 23q-13 0 -28.5 -0.5t-41.5 -3.5l34 280q50 14 117 20t107 6z" />
    <glyph glyph-name="mcapturn" unicode="&#x19c;" horiz-adv-x="1997" 
d="M1430 286l202 1204h378l-248 -1490h-334zM1518 504l100 2q-25 -151 -97 -270t-180.5 -187.5t-244.5 -68.5q-116 0 -194 43t-109 138.5t-5 252.5l178 1076h372l-178 -1076q-7 -39 2.5 -69.5t37.5 -47.5t74 -17q76 0 126.5 29t79 80t38.5 115zM852 504l104 2
q-26 -155 -96.5 -274t-179.5 -185.5t-250 -66.5q-132 0 -209 43.5t-101 139t2 251.5l178 1076h372l-178 -1076q-6 -39 3.5 -69.5t37 -47.5t73.5 -17q76 0 125.5 28.5t78.5 79t40 116.5z" />
    <glyph glyph-name="Nhook" unicode="&#x19d;" horiz-adv-x="1527" 
d="M-293 -418l52 315q20 -1 54.5 -1.5t76.5 -0.5q46 0 70 20t31 62l24 139h413l-27 -162q-31 -188 -151.5 -282.5t-331.5 -94.5q-65 0 -120.5 1.5t-90.5 3.5zM-5 0l247 1490h428l264 -585q21 -46 47 -114t53 -146.5t50 -157.5l-62 -90q9 81 22 185t27 202t23 160l91 546h416
l-247 -1490h-427l-247 544q-26 59 -57 136.5t-64.5 170.5t-66.5 195l76 19q-9 -105 -21.5 -206.5t-24.5 -183.5t-21 -131l-90 -544h-416z" />
    <glyph glyph-name="uni019E" unicode="&#x19e;" horiz-adv-x="1281" 
d="M497 575l-95 -575h-401l178 1070h391l-46 -290l-45 9q46 91 104.5 158.5t136 106t179.5 38.5q122 0 199 -54t106.5 -150t8.5 -222l-179 -1084h-401l166 1006q14 80 -14.5 124t-100.5 44q-47 0 -86 -20t-65 -60.5t-36 -100.5z" />
    <glyph glyph-name="Obar" unicode="&#x19f;" horiz-adv-x="1543" 
d="M1313 862l-38 -234h-914l38 234h914zM700 -23q-184 0 -325.5 72t-222 210.5t-80.5 337.5q0 185 59 350.5t169 293t265.5 200t347.5 72.5q183 0 324.5 -71.5t222.5 -209.5t81 -339q0 -189 -60 -354.5t-171 -292t-265.5 -198t-344.5 -71.5zM718 335q106 0 183 51t127 134
t74 180.5t24 190.5q0 86 -26 144.5t-77 89t-128 30.5q-105 0 -181.5 -50.5t-127 -133t-75.5 -180t-25 -192.5q0 -85 26.5 -144t78 -89.5t127.5 -30.5z" />
    <glyph glyph-name="Ohorn" unicode="&#x1a0;" horiz-adv-x="1550" 
d="M898 1279l39 234q35 0 64 -2.5t57.5 -5.5t60 -6.5t70 -6t88.5 -2.5q31 0 37 32l33 201h348l-41 -249q-19 -114 -102.5 -164t-191.5 -50q-58 0 -115.5 2.5t-115.5 7t-115.5 7t-115.5 2.5zM700 -23q-184 0 -325.5 72t-222 210.5t-80.5 337.5q0 185 59 350.5t169 293
t265.5 200t347.5 72.5q183 0 324.5 -71.5t222.5 -209.5t81 -339q0 -189 -60 -354.5t-171 -292t-265.5 -198t-344.5 -71.5zM718 335q106 0 183 51t127 134t74 180.5t24 190.5q0 86 -26 144.5t-77 89t-128 30.5q-105 0 -181.5 -50.5t-127 -133t-75.5 -180t-25 -192.5
q0 -85 26.5 -144t78 -89.5t127.5 -30.5z" />
    <glyph glyph-name="ohorn" unicode="&#x1a1;" horiz-adv-x="1252" 
d="M676 841l42 251q41 0 74.5 -3.5t62 -7.5t52.5 -7t47 -3q34 0 38 31l34 201h340l-41 -249q-12 -76 -60 -122.5t-116 -68.5t-140 -22h-166.5h-166.5zM554 -23q-158 0 -272.5 57t-176.5 161.5t-62 247.5q0 139 47.5 257.5t134.5 206t207 136.5t266 49q158 0 272.5 -57.5
t176 -162t61.5 -247.5q0 -132 -44.5 -249t-129.5 -207t-206 -141t-274 -51zM579 286q58 0 101.5 33t71.5 84.5t42 111.5t14 116q0 51 -18.5 84.5t-49 50t-67.5 16.5q-58 0 -101.5 -32.5t-72 -84t-42 -111.5t-13.5 -115q0 -77 40.5 -115t94.5 -38z" />
    <glyph glyph-name="OI" unicode="&#x1a2;" horiz-adv-x="1989" 
d="M1436 966l-132 -788q-48 -41 -138.5 -87t-214.5 -78.5t-273 -32.5q-219 0 -360.5 84t-198 243t-19.5 383l14 84l400 2l-16 -86q-19 -119 -7 -209t72 -140t181 -51q71 1 125 17t83 33l106 626h378zM1492 1312l-128 -776l-380 -6l104 622q-32 26 -84.5 36.5t-105.5 9.5
q-97 0 -163 -26.5t-108.5 -77.5t-68 -125t-40.5 -169l-18 -104l-398 2l16 102q38 226 146.5 384.5t278.5 242t389 83.5q150 0 263.5 -32t188 -78t108.5 -88zM2056 1490l-316 -1908h-372l238 1434l-410 -184l74 434l508 224h278z" />
    <glyph glyph-name="uni01A3" unicode="&#x1a3;" horiz-adv-x="1651" 
d="M560 282q44 0 78 11.5t56 34.5l58 358h374l-72 -438q-48 -71 -117 -132.5t-170.5 -98.5t-248.5 -37q-179 0 -286 70.5t-145 195.5t-11 286l2 18q29 175 110 305.5t212 203.5t310 73q132 0 224 -52t146 -124t70 -132l-36 -222l-370 36l20 128q-13 32 -40.5 49t-77.5 17
q-69 0 -106.5 -37t-56.5 -101t-33 -144l-2 -18q-10 -58 -13.5 -115.5t22.5 -96t103 -38.5zM1670 1118l-254 -1536h-378l188 1136l-264 -72l52 316l412 156h244z" />
    <glyph glyph-name="uni01A4" unicode="&#x1a4;" horiz-adv-x="1809" 
d="M109 1019l17 110q28 164 135 262.5t284 98.5h180l-56 -337h-68q-39 0 -64 -19.5t-31 -56.5l-9 -58h-388zM475 0l247 1490h635q176 0 293.5 -64t168.5 -181t25 -277q-26 -159 -116.5 -276t-230.5 -180.5t-316 -63.5h-392l56 336h349q65 0 115.5 23t83 64t42.5 97
q9 57 -9.5 98t-62 63.5t-108.5 22.5h-176l-190 -1152h-414z" />
    <glyph glyph-name="uni01A5" unicode="&#x1a5;" horiz-adv-x="1289" 
d="M141 846l37 224l8 46q31 189 146.5 283t326.5 94q65 0 120.5 -1.5t90.5 -3.5l-51 -305q-20 1 -54.5 1.5t-76.5 0.5q-46 0 -71.5 -21t-33.5 -65l-5 -29l-37 -224h-400zM-69 -418l247 1488h396l-24 -146h3q37 57 84 94.5t103.5 55.5t122.5 18q115 0 201 -54t134.5 -153.5
t48.5 -237.5q0 -118 -34 -237t-101 -216.5t-166 -156.5t-230 -59q-77 0 -135.5 25t-95.5 69t-52 102h-3l-98 -592h-401zM601 291q61 0 107 33t76.5 84.5t45.5 111t15 112.5q0 71 -30.5 109.5t-91.5 38.5q-59 0 -106 -29.5t-80.5 -79t-51.5 -107t-18 -114.5q0 -75 35.5 -117
t98.5 -42z" />
    <glyph glyph-name="YR" unicode="&#x1a6;" horiz-adv-x="1593" 
d="M218 1388l34 204h390l-34 -204h-390zM236 1490h616q176 0 298.5 -51t179 -149t32.5 -242q-22 -135 -76 -220.5t-134 -137.5t-180 -90l-148 -82h-508l48 312h378q63 0 109.5 19.5t76 57.5t38.5 93q14 83 -30.5 129t-135.5 47h-224l-196 -1176h-392zM944 -344l-352 984h412
l362 -968l-4 -16h-418z" />
    <glyph glyph-name="uni01A7" unicode="&#x1a7;" horiz-adv-x="1394" 
d="M621 -23q-199 0 -335.5 56.5t-198.5 164.5t-37 262q15 88 54.5 158.5t107 124.5t165.5 92.5t228 62.5l124 23q79 15 130 33.5t77.5 44t32.5 60.5q7 37 -10.5 65t-56.5 44t-99 16q-62 0 -113.5 -20t-86 -56.5t-48.5 -88.5h-383q30 154 116 264.5t224 170t322 59.5
q180 0 312.5 -60t197.5 -166.5t41 -248.5q-28 -168 -159.5 -277t-350.5 -150l-154 -29q-85 -17 -141.5 -37t-86 -46.5t-35.5 -62.5q-10 -57 38.5 -93.5t145.5 -36.5q77 0 138 23.5t101.5 67t53.5 105.5h391q-28 -171 -117 -288.5t-236.5 -177t-351.5 -59.5z" />
    <glyph glyph-name="uni01A8" unicode="&#x1a8;" horiz-adv-x="1157" 
d="M98 716q22 116 99 199t200 128.5t282 45.5t265 -43t153 -122.5t29 -190.5q-22 -129 -119 -209.5t-263 -107.5l-204 -33q-62 -10 -94.5 -27.5t-36.5 -45.5q-5 -31 25 -50t88 -19q66 0 110.5 29.5t59.5 77.5h395q-30 -111 -114 -195.5t-211.5 -131t-287.5 -46.5
q-157 0 -268 48t-163 134t-34 200q21 120 113.5 190.5t264.5 98.5l233 39q52 8 79.5 26.5t31.5 43.5q5 31 -23.5 50t-85.5 19q-58 0 -103.5 -30.5t-55.5 -77.5h-365z" />
    <glyph glyph-name="uni01A9" unicode="&#x1a9;" horiz-adv-x="1390" 
d="M-22 0l48 292l381 324q37 31 83.5 68t96 75t96.5 74t86 64l-45 -273q-39 38 -89 86t-97.5 99t-83.5 91l-246 286l51 304h1206l-58 -346h-420q-101 0 -204 1t-204 3l15 114q47 -45 95 -91t91.5 -90t77.5 -84l161 -189l-24 -144l-213 -182q-55 -46 -119.5 -97t-128 -99
t-114.5 -89l26 147q101 1 204.5 1.5t204.5 0.5h438l-57 -346h-1258z" />
    <glyph glyph-name="eshlooprev" unicode="&#x1aa;" horiz-adv-x="1465" 
d="M756 896l410 204l-182 -1092q-12 -73 21.5 -112.5t100.5 -39.5q26 0 50.5 2t57.5 6l-46 -294q-44 -8 -86 -11t-92 -3q-208 0 -312.5 116.5t-67.5 335.5zM226 1100q21 124 101 227.5t197 166t246 62.5q130 0 226.5 -62.5t143.5 -166t26 -227.5q-20 -125 -101.5 -229
t-198.5 -166t-246 -63q-128 1 -224.5 62.5t-143 165t-26.5 230.5zM674 954q39 0 74.5 16.5t60 49.5t31.5 82q11 73 -25.5 108t-92.5 36q-44 0 -80 -17t-60 -48.5t-32 -78.5q-14 -73 22.5 -110.5t101.5 -37.5z" />
    <glyph glyph-name="uni01AB" unicode="&#x1ab;" horiz-adv-x="849" 
d="M33 -418l50 304q21 0 55 -1t77 -1q52 0 82 24t35 68l7 52h388l-9 -63q-15 -127 -72 -214t-157 -131t-245 -44q-65 0 -120.5 1.5t-90.5 4.5zM892 1070l-51 -302h-782l50 302h783zM326 1353h401l-161 -973q-7 -44 8.5 -61.5t66.5 -17.5q25 0 65 1t56 2l-39 -301
q-37 -4 -99.5 -5.5t-127.5 -1.5q-204 0 -286 78t-55 243z" />
    <glyph glyph-name="uni01AC" unicode="&#x1ac;" horiz-adv-x="1575" 
d="M206 1019l17 110q28 164 135 262.5t283 98.5h181l-56 -337h-68q-40 0 -64.5 -19.5t-31.5 -56.5l-8 -58h-388zM764 1144l58 346h868l-58 -346h-447l-190 -1144h-413l189 1144h-7z" />
    <glyph glyph-name="uni01AD" unicode="&#x1ad;" horiz-adv-x="848" 
d="M488 -4q-202 0 -284 82.5t-53 257.5l100 606h401l-90 -543q-9 -53 10 -75.5t74 -22.5q25 0 56.5 1t46.5 2l-36 -300q-37 -4 -98.5 -6t-126.5 -2zM65 768l50 302h770l-50 -302h-770zM235 846l37 224l8 46q32 189 147 283t326 94q65 0 120.5 -1.5t90.5 -3.5l-50 -305
q-21 1 -55 1.5t-76 0.5q-47 0 -72.5 -21t-33.5 -65l-4 -29l-37 -224h-401z" />
    <glyph glyph-name="Trthook" unicode="&#x1ae;" horiz-adv-x="1359" 
d="M801 0l-6 -34q-8 -51 36.5 -68t97.5 -18h68l-50 -298h-176q-80 0 -156 11.5t-133 49.5t-82 115.5t-3 209.5l6 32h398zM144 1144l58 346h1271l-58 -346h-429l-189 -1144h-413l189 1144h-429z" />
    <glyph glyph-name="Uhorn" unicode="&#x1af;" horiz-adv-x="1451" 
d="M1083 1256l39 234h181q31 0 37 32l33 201h348l-41 -249q-18 -114 -102 -166t-192 -52h-303zM654 -23q-200 0 -337.5 71.5t-198.5 199.5t-33 296l156 946h404l-154 -938q-11 -69 8 -119.5t63.5 -78t108.5 -27.5q75 0 139 34t107 91t54 126l151 912h404l-161 -972
q-28 -168 -125 -289.5t-247 -186.5t-339 -65z" />
    <glyph glyph-name="uhorn" unicode="&#x1b0;" horiz-adv-x="1413" 
d="M1007 836l39 234h85q32 0 37 32l35 210h300l-42 -258q-20 -114 -103.5 -166t-191.5 -52h-159zM361 -22q-118 0 -190.5 51.5t-99 145t-5.5 219.5l112 676h400l-97 -588q-13 -80 19 -124t103 -44q48 0 84.5 20t61 60.5t34.5 100.5l96 575h400l-177 -1070h-391l46 290h43
q-68 -136 -174 -224t-265 -88z" />
    <glyph glyph-name="Upsilon2" unicode="&#x1b1;" horiz-adv-x="1593" 
d="M81 666q29 170 118 291t218 195l2 12h-256l54 326h632l-66 -408q-72 -26 -130.5 -81.5t-97.5 -131t-54 -163.5q-17 -108 10 -192t92 -131.5t159 -48.5q95 1 176 48.5t136.5 131.5t72.5 192q15 88 0.5 163.5t-54 131t-101.5 81.5l67 408h630l-54 -326h-256l-1 -12
q106 -74 155 -195t20 -291q-25 -150 -99.5 -275.5t-188.5 -217.5t-257 -142.5t-305 -50.5q-161 0 -287 50.5t-209.5 142.5t-117 217.5t-8.5 275.5z" />
    <glyph glyph-name="Vcursive" unicode="&#x1b2;" horiz-adv-x="1395" 
d="M604 -20q-181 0 -308 63t-183.5 184t-28.5 293l160 970h390l-160 -970q-17 -106 22.5 -167.5t161.5 -62.5q120 1 176 62.5t74 167.5l86 538q13 77 -4 104.5t-92 27.5q-23 0 -48.5 -2t-59.5 -6l54 310q48 10 88 14t78 4q221 0 318 -116t62 -336l-88 -538
q-27 -171 -121.5 -292t-242 -184.5t-334.5 -63.5z" />
    <glyph glyph-name="uni01B3" unicode="&#x1b3;" horiz-adv-x="1705" 
d="M880 850l6 34h35l-5 -34h-36zM197 1490h434l270 -620l313 407q94 122 204 175t221 53.5t211 -35.5l-131 -298q-84 24 -131.5 1t-105.5 -96l-433 -527l-92 -550h-400l92 550z" />
    <glyph glyph-name="uni01B4" unicode="&#x1b4;" horiz-adv-x="1492" 
d="M902 1070l29 58q45 90 84.5 158t87.5 114t115.5 69.5t168.5 23.5q74 0 131 -1.5t92 -4.5l-47 -304q-21 1 -46 1.5t-59 0.5q-36 0 -59 -14t-38.5 -36t-30.5 -48l-9 -17h-419zM-35 -411l69 300l135 -3q43 -4 70 5t44 31t30 58l5 20l-230 1070h403l59 -462q14 -109 22 -219
t16 -225h-107q45 115 92.5 225.5t97.5 218.5l220 462h427l-648 -1197q-53 -100 -115 -165t-140.5 -96.5t-184.5 -31.5q-66 0 -135 2.5t-130 6.5z" />
    <glyph glyph-name="Zbar" unicode="&#x1b5;" horiz-adv-x="1398" 
d="M1 0l37 224l860 940h-702l54 326h1216l-37 -224l-860 -940h702l-54 -326h-1216zM237 618l42 254h952l-43 -254h-951z" />
    <glyph glyph-name="zbar" unicode="&#x1b6;" horiz-adv-x="1161" 
d="M13 0l41 248l557 514v3h-468l51 305h943l-44 -266l-534 -498l-1 -3h464l-51 -303h-958zM205 467l22 136h733l-23 -136h-732z" />
    <glyph glyph-name="uni01B7" unicode="&#x1b7;" horiz-adv-x="1391" 
d="M-23 136h408q-9 -72 12.5 -127t68.5 -86t113 -31q78 0 139 41.5t101.5 114t55.5 166.5q17 106 -4.5 181.5t-74.5 116.5t-131 40h-194l46 280l414 314v12h-704l56 332h1190l-48 -292l-522 -392l-4 -14q148 -16 247 -92.5t140 -199t15 -278.5q-24 -145 -93 -266.5
t-172.5 -210.5t-232.5 -138t-272 -49q-186 0 -319.5 74.5t-196.5 205.5t-38 298z" />
    <glyph glyph-name="uni01B8" unicode="&#x1b8;" horiz-adv-x="1391" 
d="M1282 136q-31 -167 -138 -298t-264.5 -205.5t-343.5 -74.5q-143 0 -255.5 49t-186.5 138t-103 210.5t-5 266.5q26 156 107.5 278.5t205 199t275.5 92.5l4 14l-392 392l48 292h1190l-56 -332h-704v-12l308 -314l-48 -280h-194q-76 1 -142.5 -40t-113 -116.5t-64.5 -181.5
q-15 -94 1 -166.5t63 -114t124 -41.5q66 0 123.5 31t97.5 86t55 127h408z" />
    <glyph glyph-name="uni01B9" unicode="&#x1b9;" horiz-adv-x="1320" 
d="M497 -443q-180 0 -309 57.5t-190 158t-40 229.5q13 83 68 170t164.5 155t288.5 89v4l-350 358l49 292h1102l-56 -335h-615l-1 -3l251 -268l-44 -268h-188q-62 0 -115.5 -20.5t-89 -57t-43.5 -85.5q-8 -47 11 -84t60.5 -58t99.5 -21q64 0 115 25.5t85.5 72.5t44.5 111h394
q-24 -139 -108.5 -258t-230.5 -191.5t-353 -72.5z" />
    <glyph glyph-name="uni01BA" unicode="&#x1ba;" horiz-adv-x="1202" 
d="M248 1070h924l-35 -212l-610 -423h-222l35 210l210 125h-352zM357 -118q-6 -40 31 -57t90 -17q41 0 80.5 10.5t69 36.5t39.5 73h348q-17 -90 -89.5 -175t-195.5 -140t-292 -55q-147 0 -252.5 44t-155.5 123.5t-32 185.5q15 88 64 147.5t118.5 97t148.5 59t152 34.5
q56 10 102.5 21t76.5 31.5t36 57.5q7 41 -23 58.5t-80 17.5h-176l41 244h176q151 0 248.5 -46t140 -122.5t26.5 -170.5q-14 -89 -69 -150.5t-129.5 -100.5t-152 -62.5t-137.5 -38.5q-57 -12 -101 -26t-71 -32.5t-32 -47.5z" />
    <glyph glyph-name="uni01BB" unicode="&#x1bb;" horiz-adv-x="1298" 
d="M-9 0l48 290l635 454q49 35 101 74.5t92 88t50 108.5q9 56 -8 96.5t-55 62t-94 21.5q-59 0 -110.5 -27t-87 -78.5t-47.5 -125.5h-382q28 169 115 292t223.5 190t310.5 67t299 -57t185 -163t35 -254q-13 -78 -45 -144.5t-84.5 -128.5t-127 -125t-171.5 -134l-248 -181
l-1 -4h564l-53 -322h-1144zM272 527l42 254h952l-43 -254h-951z" />
    <glyph glyph-name="uni01BC" unicode="&#x1bc;" horiz-adv-x="1349" 
d="M524 1490l-54 -324h-322l54 324h322zM628 -23q-172 0 -296.5 60.5t-185.5 172t-44 264.5h387q-13 -83 33.5 -137t134.5 -54q61 0 113.5 27t89 76t47.5 114q11 66 -5.5 116t-56 78t-99.5 28q-75 0 -138 -33t-91 -89l-366 16l191 874h1027l-54 -324h-670l-65 -260h4
q51 50 120 78t158 28q142 0 249.5 -61t160 -173t27.5 -266q-26 -156 -116 -277t-232 -189.5t-323 -68.5z" />
    <glyph glyph-name="uni01BD" unicode="&#x1bd;" horiz-adv-x="1473" 
d="M622 454l-344 12l192 616h830l-46 -284h-528l-52 -144q39 16 100 28.5t142 13.5q194 -1 286 -94t66 -258q-18 -105 -85 -186.5t-188.5 -128t-304.5 -47.5q-110 0 -204.5 20t-162.5 62.5t-100 109t-17 160.5l378 12q2 -37 42 -49t112 -11q72 -1 111.5 22.5t48.5 69.5
q7 40 -30 63.5t-106 24.5q-53 -1 -88 -3t-52 -9zM588 1082l-48 -284h-328l46 284h330z" />
    <glyph glyph-name="glottalstopbarinv" unicode="&#x1be;" horiz-adv-x="1203" 
d="M706 312q6 36 -17.5 60t-63.5 46.5t-84.5 52.5t-81 76.5t-53.5 119t0 179.5l88 512h378l-86 -520q-12 -76 7.5 -121.5t57 -73t80.5 -50.5t79.5 -54t54.5 -83t3 -138q-15 -96 -89 -172.5t-194.5 -121t-276.5 -44.5q-164 0 -267.5 57.5t-148 143.5t-32.5 169h350
q-3 -45 17.5 -71.5t55.5 -37.5t75 -11t72 8t52.5 26.5t23.5 47.5zM1010 1082l-44 -268h-696l44 268h696z" />
    <glyph glyph-name="uni01BF" unicode="&#x1bf;" horiz-adv-x="1415" 
d="M606 910l-196 -1326h-378l226 1534h356zM534 574l-148 -4q44 149 107.5 277t159 206.5t233.5 78.5q143 0 230.5 -68t120.5 -190.5t11 -285.5l-8 -56q-28 -214 -144 -358.5t-313.5 -236.5t-470.5 -149v294q145 4 262.5 58.5t193.5 154t94 237.5l8 56q9 67 4.5 123t-33 90
t-93.5 33q-72 1 -116.5 -25t-67 -83.5t-30.5 -151.5z" />
    <glyph glyph-name="pipe" unicode="&#x1c0;" horiz-adv-x="635" 
d="M562 1446l-240 -1446h-194l238 1446h196z" />
    <glyph glyph-name="pipedbl" unicode="&#x1c1;" horiz-adv-x="831" 
d="M544 1446l-240 -1446h-194l238 1446h196zM812 1446l-240 -1446h-194l238 1446h196z" />
    <glyph glyph-name="pipedblbar" unicode="&#x1c2;" horiz-adv-x="581" 
d="M540 1446l-240 -1446h-194l238 1446h196zM-53 1021l36 216h844l-36 -216h-844zM-129 559l36 216h844l-36 -216h-844z" />
    <glyph glyph-name="exclam1" unicode="&#x1c3;" horiz-adv-x="602" 
d="M114 471l133 1019h424l-205 -1019h-352zM225 -20q-94 0 -150 68.5t-40 164.5q13 77 75.5 129t142.5 52q94 0 149.5 -68.5t39.5 -164.5q-13 -76 -75.5 -128.5t-141.5 -52.5z" />
    <glyph glyph-name="Dzcaron_" unicode="&#x1c5;" horiz-adv-x="2622" 
d="M648 0h-481l57 344h389q120 0 205 41.5t138.5 130.5t75.5 228q24 141 -0.5 230t-98 130.5t-197.5 41.5h-385l57 344h386q230 0 390.5 -91.5t232 -259t32.5 -395.5q-37 -227 -139 -394t-267 -258.5t-395 -91.5zM656 1490l-247 -1490h-414l247 1490h414zM1474 0l41 248
l557 514v3h-468l51 305h943l-44 -266l-534 -498l-1 -3h464l-51 -303h-958zM2078 1524l97 -162l156 162h294v-2l-331 -324h-292l-219 324v2h295z" />
    <glyph glyph-name="uni01C6" unicode="&#x1c6;" horiz-adv-x="2315" 
d="M430 -22q-179 0 -284 116.5t-105 322.5q0 125 35.5 245t104 217t166 155t222.5 58q77 0 133 -23t94.5 -66t60.5 -102h3l96 589h401l-246 -1490h-397l27 161h-3q-33 -64 -79.5 -104.5t-104.5 -59.5t-124 -19zM566 291q59 0 106 30t81 79.5t51.5 107.5t17.5 115
q0 74 -36 115.5t-98 41.5q-60 0 -105.5 -31.5t-76 -82.5t-46 -110.5t-15.5 -116.5q0 -70 30 -109t91 -39zM1167 0l41 248l557 514v3h-468l51 305h943l-44 -266l-534 -498l-1 -3h464l-51 -303h-958zM1771 1524l97 -162l156 162h294v-2l-331 -324h-292l-219 324v2h295z" />
    <glyph glyph-name="uni01C7" unicode="&#x1c7;" horiz-adv-x="2378" 
d="M-5 0l247 1490h414l-190 -1144h633l-57 -346h-1047zM1674 -23q-226 0 -351 100t-125 289q0 17 2 39t8 63.5t18 116.5h389q-11 -66 -15.5 -97.5t-5.5 -43t-1 -17.5q0 -55 29.5 -84t85.5 -29q67 0 109 39.5t55 114.5l169 1022h412l-171 -1027q-39 -234 -192.5 -360
t-415.5 -126z" />
    <glyph glyph-name="uni01C8" unicode="&#x1c8;" horiz-adv-x="1755" 
d="M-5 0l247 1490h414l-190 -1144h633l-57 -346h-1047zM1354 1070h400l-183 -1108q-21 -131 -85 -215.5t-167.5 -124.5t-246.5 -40h-138l50 302h68q57 0 85.5 25.5t38.5 83.5zM1566 1150q-91 0 -141 54t-36 136q13 83 81 136.5t160 53.5q91 0 141 -53.5t36 -135.5
q-13 -83 -81 -137t-160 -54z" />
    <glyph glyph-name="uni01C9" unicode="&#x1c9;" horiz-adv-x="1162" 
d="M649 1490l-247 -1490h-401l247 1490h401zM760 1070h400l-183 -1108q-21 -131 -85 -215.5t-167.5 -124.5t-246.5 -40h-138l50 302h68q57 0 85.5 25.5t38.5 83.5zM972 1150q-91 0 -141 54t-36 136q13 83 81 136.5t160 53.5q91 0 141 -53.5t36 -135.5q-13 -83 -81 -137
t-160 -54z" />
    <glyph glyph-name="uni01CA" unicode="&#x1ca;" horiz-adv-x="2732" 
d="M-5 0l247 1490h428l264 -585q21 -46 47 -114t53 -146.5t50 -157.5l-62 -90q9 81 22 185t27 202t23 160l91 546h416l-247 -1490h-427l-247 544q-26 59 -57 136.5t-64.5 170.5t-66.5 195l76 19q-9 -105 -21.5 -206.5t-24.5 -183.5t-21 -131l-90 -544h-416zM2027 -23
q-226 0 -351 100t-125 289q0 17 2 39t8 63.5t18 116.5h389q-11 -66 -15.5 -97.5t-5.5 -43t-1 -17.5q0 -55 29.5 -84t85.5 -29q67 0 109 39.5t55 114.5l169 1022h412l-171 -1027q-39 -234 -192.5 -360t-415.5 -126z" />
    <glyph glyph-name="uni01CB" unicode="&#x1cb;" horiz-adv-x="2109" 
d="M-5 0l247 1490h428l264 -585q21 -46 47 -114t53 -146.5t50 -157.5l-62 -90q9 81 22 185t27 202t23 160l91 546h416l-247 -1490h-427l-247 544q-26 59 -57 136.5t-64.5 170.5t-66.5 195l76 19q-9 -105 -21.5 -206.5t-24.5 -183.5t-21 -131l-90 -544h-416zM1707 1070h400
l-183 -1108q-21 -131 -85 -215.5t-167.5 -124.5t-246.5 -40h-138l50 302h68q57 0 85.5 25.5t38.5 83.5zM1919 1150q-91 0 -141 54t-36 136q13 83 81 136.5t160 53.5q91 0 141 -53.5t36 -135.5q-13 -83 -81 -137t-160 -54z" />
    <glyph glyph-name="uni01CC" unicode="&#x1cc;" horiz-adv-x="1862" 
d="M494 562l-92 -562h-401l177 1070h391l-45 -290l-45 12q68 136 168.5 218t251.5 82q123 0 200 -55t105.5 -151.5t7.5 -222.5l-110 -663h-400l99 601q13 80 -21 117.5t-99 37.5q-52 0 -90.5 -23.5t-62.5 -67t-34 -103.5zM1460 1070h400l-183 -1108q-21 -131 -85 -215.5
t-167.5 -124.5t-246.5 -40h-138l50 302h68q57 0 85.5 25.5t38.5 83.5zM1672 1150q-91 0 -141 54t-36 136q13 83 81 136.5t160 53.5q91 0 141 -53.5t36 -135.5q-13 -83 -81 -137t-160 -54z" />
    <glyph glyph-name="uni01CD" unicode="&#x1cd;" horiz-adv-x="1579" 
d="M-78 0l743 1490h558l257 -1490h-452l-72 578q-23 188 -42.5 375.5t-34.5 386.5h107q-80 -199 -161 -386.5t-168 -375.5l-267 -578h-468zM334 254l52 316h820l-52 -316h-820zM896 1944l97 -162l156 162h294v-2l-331 -324h-292l-219 324v2h295z" />
    <glyph glyph-name="uni01CE" unicode="&#x1ce;" horiz-adv-x="1284" 
d="M409 -22q-134 0 -225.5 67.5t-127.5 192.5t-7 298q28 171 108 295.5t192.5 192.5t239.5 68q72 0 125.5 -20t90 -57.5t56.5 -90.5h5l24 146h392l-177 -1070h-392l27 162h-5q-32 -58 -81.5 -99t-111 -63t-133.5 -22zM586 291q55 0 101.5 30t79 85t44.5 130
q13 75 -1.5 129.5t-51 84.5t-91.5 30t-98 -30t-72.5 -84.5t-41.5 -129.5t-1.5 -130t44.5 -85t88 -30zM693 1524l97 -162l156 162h294v-2l-331 -324h-292l-219 324v2h295z" />
    <glyph glyph-name="uni01CF" unicode="&#x1cf;" horiz-adv-x="581" 
d="M656 1490l-247 -1490h-414l247 1490h414zM398 1944l97 -162l156 162h294v-2l-331 -324h-292l-219 324v2h295z" />
    <glyph glyph-name="uni01D0" unicode="&#x1d0;" horiz-adv-x="581" 
d="M1 0l178 1070h400l-177 -1070h-401zM327 1524l97 -162l156 162h294v-2l-331 -324h-292l-219 324v2h295z" />
    <glyph glyph-name="uni01D1" unicode="&#x1d1;" horiz-adv-x="1543" 
d="M700 -23q-184 0 -325.5 72t-222 210.5t-80.5 337.5q0 185 59 350.5t169 293t265.5 200t347.5 72.5q183 0 324.5 -71.5t222.5 -209.5t81 -339q0 -189 -60 -354.5t-171 -292t-265.5 -198t-344.5 -71.5zM718 335q106 0 183 51t127 134t74 180.5t24 190.5q0 86 -26 144.5
t-77 89t-128 30.5q-105 0 -181.5 -50.5t-127 -133t-75.5 -180t-25 -192.5q0 -85 26.5 -144t78 -89.5t127.5 -30.5zM878 1944l97 -162l156 162h294v-2l-331 -324h-292l-219 324v2h295z" />
    <glyph glyph-name="uni01D2" unicode="&#x1d2;" horiz-adv-x="1252" 
d="M554 -23q-158 0 -272.5 57t-176.5 161.5t-62 247.5q0 139 47.5 257.5t134.5 206t207 136.5t266 49q158 0 272.5 -57.5t176 -162t61.5 -247.5q0 -132 -44.5 -249t-129.5 -207t-206 -141t-274 -51zM579 286q58 0 101.5 33t71.5 84.5t42 111.5t14 116q0 51 -18.5 84.5
t-49 50t-67.5 16.5q-58 0 -101.5 -32.5t-72 -84t-42 -111.5t-13.5 -115q0 -77 40.5 -115t94.5 -38zM663 1524l97 -162l156 162h294v-2l-331 -324h-292l-219 324v2h295z" />
    <glyph glyph-name="uni01D3" unicode="&#x1d3;" horiz-adv-x="1452" 
d="M654 -23q-200 0 -337.5 71.5t-198.5 199.5t-33 296l156 946h404l-154 -938q-11 -69 8 -119.5t63.5 -78t108.5 -27.5q75 0 139 34t107 91t54 126l151 912h404l-161 -972q-28 -168 -125 -289.5t-247 -186.5t-339 -65zM832 1944l97 -162l156 162h294v-2l-331 -324h-292
l-219 324v2h295z" />
    <glyph glyph-name="uni01D4" unicode="&#x1d4;" horiz-adv-x="1280" 
d="M361 -22q-118 0 -190.5 51.5t-99 145t-5.5 219.5l112 676h400l-97 -588q-13 -80 19 -124t103 -44q48 0 84.5 20t61 60.5t34.5 100.5l96 575h400l-177 -1070h-391l46 290h43q-68 -136 -174 -224t-265 -88zM677 1524l97 -162l156 162h294v-2l-331 -324h-292l-219 324v2h295
z" />
    <glyph glyph-name="uni01D5" unicode="&#x1d5;" horiz-adv-x="1452" 
d="M654 -23q-200 0 -337.5 71.5t-198.5 199.5t-33 296l156 946h404l-154 -938q-11 -69 8 -119.5t63.5 -78t108.5 -27.5q75 0 139 34t107 91t54 126l151 912h404l-161 -972q-28 -168 -125 -289.5t-247 -186.5t-339 -65zM1118 1572q-85 0 -131.5 52.5t-32.5 132.5
q13 80 77 132t148 52q85 0 132 -52t34 -132q-14 -80 -78.5 -132.5t-148.5 -52.5zM650 1572q-84 0 -130 52.5t-32 132.5q12 80 76 132t148 52q86 0 132.5 -52t33.5 -132q-14 -80 -78 -132.5t-150 -52.5zM1338 2239l-39 -203h-600l39 203h600z" />
    <glyph glyph-name="uni01D6" unicode="&#x1d6;" horiz-adv-x="1280" 
d="M361 -22q-118 0 -190.5 51.5t-99 145t-5.5 219.5l112 676h400l-97 -588q-13 -80 19 -124t103 -44q48 0 84.5 20t61 60.5t34.5 100.5l96 575h400l-177 -1070h-391l46 290h43q-68 -136 -174 -224t-265 -88zM963 1152q-85 0 -131.5 52.5t-32.5 132.5q13 80 77 132t148 52
q85 0 132 -52t34 -132q-14 -80 -78.5 -132.5t-148.5 -52.5zM495 1152q-84 0 -130 52.5t-32 132.5q12 80 76 132t148 52q86 0 132.5 -52t33.5 -132q-14 -80 -78 -132.5t-150 -52.5zM1183 1819l-39 -203h-600l39 203h600z" />
    <glyph glyph-name="uni01D7" unicode="&#x1d7;" horiz-adv-x="1452" 
d="M654 -23q-200 0 -337.5 71.5t-198.5 199.5t-33 296l156 946h404l-154 -938q-11 -69 8 -119.5t63.5 -78t108.5 -27.5q75 0 139 34t107 91t54 126l151 912h404l-161 -972q-28 -168 -125 -289.5t-247 -186.5t-339 -65zM1118 1572q-85 0 -131.5 52.5t-32.5 132.5
q13 80 77 132t148 52q85 0 132 -52t34 -132q-14 -80 -78.5 -132.5t-148.5 -52.5zM650 1572q-84 0 -130 52.5t-32 132.5q12 80 76 132t148 52q86 0 132.5 -52t33.5 -132q-14 -80 -78 -132.5t-150 -52.5zM855 1990l212 286h320l-301 -286h-231z" />
    <glyph glyph-name="uni01D8" unicode="&#x1d8;" horiz-adv-x="1280" 
d="M361 -22q-118 0 -190.5 51.5t-99 145t-5.5 219.5l112 676h400l-97 -588q-13 -80 19 -124t103 -44q48 0 84.5 20t61 60.5t34.5 100.5l96 575h400l-177 -1070h-391l46 290h43q-68 -136 -174 -224t-265 -88zM963 1152q-85 0 -131.5 52.5t-32.5 132.5q13 80 77 132t148 52
q85 0 132 -52t34 -132q-14 -80 -78.5 -132.5t-148.5 -52.5zM495 1152q-84 0 -130 52.5t-32 132.5q12 80 76 132t148 52q86 0 132.5 -52t33.5 -132q-14 -80 -78 -132.5t-150 -52.5zM700 1570l212 286h320l-301 -286h-231z" />
    <glyph glyph-name="uni01D9" unicode="&#x1d9;" horiz-adv-x="1452" 
d="M654 -23q-200 0 -337.5 71.5t-198.5 199.5t-33 296l156 946h404l-154 -938q-11 -69 8 -119.5t63.5 -78t108.5 -27.5q75 0 139 34t107 91t54 126l151 912h404l-161 -972q-28 -168 -125 -289.5t-247 -186.5t-339 -65zM1118 1572q-85 0 -131.5 52.5t-32.5 132.5
q13 80 77 132t148 52q85 0 132 -52t33 -132q-13 -80 -77 -132.5t-149 -52.5zM651 1572q-85 0 -131 52.5t-33 132.5t77 132t148 52q86 0 132.5 -52t33.5 -132q-14 -80 -78 -132.5t-149 -52.5zM909 2276l85 -142l136 142h258v-2l-289 -284h-257l-191 284v2h258z" />
    <glyph glyph-name="uni01DA" unicode="&#x1da;" horiz-adv-x="1280" 
d="M361 -22q-118 0 -190.5 51.5t-99 145t-5.5 219.5l112 676h400l-97 -588q-13 -80 19 -124t103 -44q48 0 84.5 20t61 60.5t34.5 100.5l96 575h400l-177 -1070h-391l46 290h43q-68 -136 -174 -224t-265 -88zM963 1152q-85 0 -131.5 52.5t-32.5 132.5q13 80 77 132t148 52
q85 0 132 -52t33 -132q-13 -80 -77 -132.5t-149 -52.5zM496 1152q-85 0 -131 52.5t-33 132.5t77 132t148 52q86 0 132.5 -52t33.5 -132q-14 -80 -78 -132.5t-149 -52.5zM754 1856l85 -142l136 142h258v-2l-289 -284h-257l-191 284v2h258z" />
    <glyph glyph-name="uni01DB" unicode="&#x1db;" horiz-adv-x="1452" 
d="M654 -23q-200 0 -337.5 71.5t-198.5 199.5t-33 296l156 946h404l-154 -938q-11 -69 8 -119.5t63.5 -78t108.5 -27.5q75 0 139 34t107 91t54 126l151 912h404l-161 -972q-28 -168 -125 -289.5t-247 -186.5t-339 -65zM1118 1573q-85 0 -131.5 52t-32.5 133q13 80 77 132
t148 52q85 0 132 -52t34 -132q-14 -81 -78.5 -133t-148.5 -52zM650 1573q-84 0 -130 52t-32 133q12 80 76 132t148 52q86 0 132.5 -52t33.5 -132q-14 -81 -78 -133t-150 -52zM858 1990l-207 286h320l119 -286h-232z" />
    <glyph glyph-name="uni01DC" unicode="&#x1dc;" horiz-adv-x="1280" 
d="M361 -22q-118 0 -190.5 51.5t-99 145t-5.5 219.5l112 676h400l-97 -588q-13 -80 19 -124t103 -44q48 0 84.5 20t61 60.5t34.5 100.5l96 575h400l-177 -1070h-391l46 290h43q-68 -136 -174 -224t-265 -88zM963 1153q-85 0 -131.5 52t-32.5 133q13 80 77 132t148 52
q85 0 132 -52t34 -132q-14 -81 -78.5 -133t-148.5 -52zM495 1153q-84 0 -130 52t-32 133q12 80 76 132t148 52q86 0 132.5 -52t33.5 -132q-14 -81 -78 -133t-150 -52zM703 1570l-207 286h320l119 -286h-232z" />
    <glyph glyph-name="eturn" unicode="&#x1dd;" horiz-adv-x="1207" 
d="M654 1094q175 0 296.5 -61t177.5 -179.5t33 -291.5q-17 -131 -71.5 -238.5t-141.5 -184.5t-201 -119t-249 -42q-127 0 -232 38.5t-167.5 116t-62.5 194.5q0 123 71.5 191t205 97.5t320 36t417.5 6.5l-37 -229q-199 0 -320.5 -5.5t-185 -16t-86 -27.5t-22.5 -42
q0 -36 36.5 -57t104.5 -21q79 0 124 29.5t66 77.5t29 102.5t14 105.5q9 72 3.5 126t-40.5 83.5t-116 29.5q-78 0 -122.5 -28.5t-58.5 -75.5l-364 6q56 170 202.5 274t376.5 104z" />
    <glyph glyph-name="uni01DE" unicode="&#x1de;" horiz-adv-x="1579" 
d="M-78 0l743 1490h558l257 -1490h-452l-72 578q-23 188 -42.5 375.5t-34.5 386.5h107q-80 -199 -161 -386.5t-168 -375.5l-267 -578h-468zM334 254l52 316h820l-52 -316h-820zM1182 1572q-85 0 -131.5 52.5t-32.5 132.5q13 80 77 132t148 52q85 0 132 -52t34 -132
q-14 -80 -78.5 -132.5t-148.5 -52.5zM714 1572q-84 0 -130 52.5t-32 132.5q12 80 76 132t148 52q86 0 132.5 -52t33.5 -132q-14 -80 -78 -132.5t-150 -52.5zM1402 2239l-39 -203h-600l39 203h600z" />
    <glyph glyph-name="uni01DF" unicode="&#x1df;" horiz-adv-x="1284" 
d="M409 -22q-134 0 -225.5 67.5t-127.5 192.5t-7 298q28 171 108 295.5t192.5 192.5t239.5 68q72 0 125.5 -20t90 -57.5t56.5 -90.5h5l24 146h392l-177 -1070h-392l27 162h-5q-32 -58 -81.5 -99t-111 -63t-133.5 -22zM586 291q55 0 101.5 30t79 85t44.5 130
q13 75 -1.5 129.5t-51 84.5t-91.5 30t-98 -30t-72.5 -84.5t-41.5 -129.5t-1.5 -130t44.5 -85t88 -30zM979 1152q-85 0 -131.5 52.5t-32.5 132.5q13 80 77 132t148 52q85 0 132 -52t34 -132q-14 -80 -78.5 -132.5t-148.5 -52.5zM511 1152q-84 0 -130 52.5t-32 132.5
q12 80 76 132t148 52q86 0 132.5 -52t33.5 -132q-14 -80 -78 -132.5t-150 -52.5zM1199 1819l-39 -203h-600l39 203h600z" />
    <glyph glyph-name="uni01E0" unicode="&#x1e0;" horiz-adv-x="1579" 
d="M-78 0l743 1490h558l257 -1490h-452l-72 578q-23 188 -42.5 375.5t-34.5 386.5h107q-80 -199 -161 -386.5t-168 -375.5l-267 -578h-468zM334 254l52 316h820l-52 -316h-820zM960 1564q-91 0 -141 54t-37 137q14 83 82 136.5t160 53.5q91 0 141 -53.5t36 -136.5
q-12 -83 -80.5 -137t-160.5 -54zM1402 2239l-39 -203h-600l39 203h600z" />
    <glyph glyph-name="uni01E1" unicode="&#x1e1;" horiz-adv-x="1284" 
d="M409 -22q-134 0 -225.5 67.5t-127.5 192.5t-7 298q28 171 108 295.5t192.5 192.5t239.5 68q72 0 125.5 -20t90 -57.5t56.5 -90.5h5l24 146h392l-177 -1070h-392l27 162h-5q-32 -58 -81.5 -99t-111 -63t-133.5 -22zM586 291q55 0 101.5 30t79 85t44.5 130
q13 75 -1.5 129.5t-51 84.5t-91.5 30t-98 -30t-72.5 -84.5t-41.5 -129.5t-1.5 -130t44.5 -85t88 -30zM756 1144q-91 0 -141 54t-37 137q14 83 82 136.5t160 53.5q91 0 141 -53.5t36 -136.5q-12 -83 -80.5 -137t-160.5 -54zM1198 1819l-39 -203h-600l39 203h600z" />
    <glyph glyph-name="uni01E2" unicode="&#x1e2;" horiz-adv-x="2115" 
d="M-78 0l827 1490h1458l-56 -340h-675l-41 -245h585l-53 -317h-584l-41 -248h670l-56 -340h-1070l188 1131h-116l-604 -1131h-432zM328 298l50 302h748l-50 -302h-748zM1846 1877l-39 -232h-600l39 232h600z" />
    <glyph glyph-name="uni01E3" unicode="&#x1e3;" horiz-adv-x="1879" 
d="M384 -19q-197 0 -298 85t-77 230q17 102 79.5 176t160.5 115t223 44q52 1 103.5 1.5t103 1.5t102.5 2l-34 -211q-52 -1 -104 -2.5t-105 -3.5q-65 -1 -104 -29.5t-46 -69.5q-7 -42 21.5 -65.5t79.5 -23.5q44 0 87 17t74.5 50t39.5 81l56 338q8 47 -22 72t-93 25
q-41 0 -73 -11.5t-54 -33t-31 -52.5l-364 8q27 101 100.5 184t192 133t278.5 50q156 0 240 -47t110.5 -128t9.5 -184l-58 -349l-17 -5q-21 -126 -89.5 -215t-190 -136t-301.5 -47zM1225 -24q-179 0 -303 64t-178 188.5t-24 305.5q21 130 78 233t144 175.5t198 111t241 38.5
q127 0 232 -36t167.5 -108t62.5 -181q0 -113 -71.5 -181t-205 -103t-320 -47t-417.5 -12l37 216q199 0 320.5 5t185 16.5t86 29t22.5 41.5q0 35 -36.5 56.5t-104.5 21.5q-62 0 -105.5 -18t-70 -59.5t-39.5 -114.5q-4 -24 -10.5 -64t-11.5 -80t-5 -65q0 -89 45.5 -121
t115.5 -32q79 0 123.5 28.5t58.5 75.5h366q-58 -174 -203.5 -279t-377.5 -105zM1367 1457l-39 -232h-600l39 232h600z" />
    <glyph glyph-name="Gbar" unicode="&#x1e4;" horiz-adv-x="1523" 
d="M707 -23q-198 0 -340 75t-218.5 214t-76.5 331q0 189 60 354.5t171.5 292t266.5 198t344 71.5q132 0 247 -36t200 -105.5t129.5 -168t33.5 -222.5h-420q-1 41 -13.5 73.5t-36.5 55t-59.5 34t-83.5 11.5q-111 0 -191.5 -50t-132 -132t-76 -179.5t-24.5 -192.5
q0 -131 62.5 -198.5t188.5 -67.5q94 0 163 29.5t111.5 80t52.5 113.5l78 -21h-352l49 295h672l-37 -226q-24 -147 -90.5 -263.5t-168 -198t-231 -124.5t-278.5 -43zM766 384l16 96h782l-16 -96h-782z" />
    <glyph glyph-name="gbar" unicode="&#x1e5;" horiz-adv-x="1289" 
d="M492 -434q-176 0 -285 46.5t-159 126.5t-50 179l366 6q3 -26 18 -45t43 -29.5t70 -10.5q95 0 152.5 52.5t72.5 146.5l26 156h-10q-34 -60 -78 -100t-98.5 -59t-124.5 -19q-120 0 -208 52t-135.5 148t-47.5 226q0 122 37 238t106 209t166 148t216 55q57 0 104 -14.5
t83.5 -39.5t62 -59.5t41.5 -73.5h2l28 165h398l-168 -1015q-28 -172 -110.5 -280t-213.5 -158.5t-304 -50.5zM569 317q59 0 106 28.5t80 75.5t50.5 103t17.5 110q0 73 -36 113t-98 40q-59 0 -104 -30t-76 -79t-46.5 -106t-15.5 -111q0 -69 30.5 -106.5t91.5 -37.5zM623 500
l22 136h733l-23 -136h-732z" />
    <glyph glyph-name="Gcaron" unicode="&#x1e6;" horiz-adv-x="1523" 
d="M707 -23q-198 0 -340 75t-218.5 214t-76.5 331q0 189 60 354.5t171.5 292t266.5 198t344 71.5q132 0 247 -36t200 -105.5t129.5 -168t33.5 -222.5h-420q-1 41 -13.5 73.5t-36.5 55t-59.5 34t-83.5 11.5q-111 0 -191.5 -50t-132 -132t-76 -179.5t-24.5 -192.5
q0 -131 62.5 -198.5t188.5 -67.5q94 0 163 29.5t111.5 80t52.5 113.5l78 -21h-352l49 295h672l-37 -226q-24 -147 -90.5 -263.5t-168 -198t-231 -124.5t-278.5 -43zM876 1944l97 -162l156 162h294v-2l-331 -324h-292l-219 324v2h295z" />
    <glyph glyph-name="gcaron" unicode="&#x1e7;" horiz-adv-x="1289" 
d="M492 -434q-176 0 -285 46.5t-159 126.5t-50 179l366 6q3 -26 18 -45t43 -29.5t70 -10.5q95 0 152.5 52.5t72.5 146.5l26 156h-10q-34 -60 -78 -100t-98.5 -59t-124.5 -19q-120 0 -208 52t-135.5 148t-47.5 226q0 122 37 238t106 209t166 148t216 55q57 0 104 -14.5
t83.5 -39.5t62 -59.5t41.5 -73.5h2l28 165h398l-168 -1015q-28 -172 -110.5 -280t-213.5 -158.5t-304 -50.5zM569 317q59 0 106 28.5t80 75.5t50.5 103t17.5 110q0 73 -36 113t-98 40q-59 0 -104 -30t-76 -79t-46.5 -106t-15.5 -111q0 -69 30.5 -106.5t91.5 -37.5zM662 1524
l97 -162l156 162h294v-2l-331 -324h-292l-219 324v2h295z" />
    <glyph glyph-name="uni01E8" unicode="&#x1e8;" horiz-adv-x="1507" 
d="M339 224l60 468q60 72 119 139.5t120.5 135t130.5 140.5l360 383h498l-750 -767l-37 4zM-5 0l247 1490h416l-53 -320l-73 -429l-31 -197l-90 -544h-416zM956 0l-260 599l277 308l435 -907h-452zM845 1944l97 -162l156 162h294v-2l-331 -324h-292l-219 324v2h295z" />
    <glyph glyph-name="uni01E9" unicode="&#x1e9;" horiz-adv-x="1211" 
d="M401 245l78 474h48l327 351h452l-544 -564h-112zM1 0l247 1490h401l-247 -1490h-401zM685 0l-184 417l306 281l333 -698h-455zM397 1944l97 -162l156 162h294v-2l-331 -324h-292l-219 324v2h295z" />
    <glyph glyph-name="uni01EA" unicode="&#x1ea;" horiz-adv-x="1543" 
d="M700 -23q-184 0 -325.5 72t-222 210.5t-80.5 337.5q0 185 59 350.5t169 293t265.5 200t347.5 72.5q183 0 324.5 -71.5t222.5 -209.5t81 -339q0 -189 -60 -354.5t-171 -292t-265.5 -198t-344.5 -71.5zM718 335q106 0 183 51t127 134t74 180.5t24 190.5q0 86 -26 144.5
t-77 89t-128 30.5q-105 0 -181.5 -50.5t-127 -133t-75.5 -180t-25 -192.5q0 -85 26.5 -144t78 -89.5t127.5 -30.5zM694 -420q-155 0 -230.5 57.5t-57.5 160.5q13 80 72.5 134t149 96.5t194 87.5t210 104.5t196 146.5t151.5 215t76 311h86q-12 -192 -57 -330t-110.5 -233
t-141.5 -157.5t-151.5 -104t-139 -72t-104.5 -60.5t-48 -72q-5 -31 11.5 -46t52.5 -15q15 0 29.5 1t29.5 3l-21 -215q-39 -6 -96 -9t-101 -3z" />
    <glyph glyph-name="uni01EB" unicode="&#x1eb;" horiz-adv-x="1252" 
d="M554 -23q-158 0 -272.5 57t-176.5 161.5t-62 247.5q0 139 47.5 257.5t134.5 206t207 136.5t266 49q158 0 272.5 -57.5t176 -162t61.5 -247.5q0 -132 -44.5 -249t-129.5 -207t-206 -141t-274 -51zM579 286q58 0 101.5 33t71.5 84.5t42 111.5t14 116q0 51 -18.5 84.5
t-49 50t-67.5 16.5q-58 0 -101.5 -32.5t-72 -84t-42 -111.5t-13.5 -115q0 -77 40.5 -115t94.5 -38zM537 -420q-156 0 -231 57.5t-58 160.5q14 86 76 141.5t152.5 96t191 79.5t192.5 90.5t158 130t86 198.5h98q-22 -129 -70 -218.5t-111.5 -149t-129 -99t-123.5 -70t-97 -61
t-46 -72.5q-5 -31 11.5 -46t52.5 -15q15 0 29.5 1t29.5 3l-20 -215q-39 -6 -93.5 -9t-97.5 -3z" />
    <glyph glyph-name="uni01EC" unicode="&#x1ec;" horiz-adv-x="1543" 
d="M700 -23q-184 0 -325.5 72t-222 210.5t-80.5 337.5q0 185 59 350.5t169 293t265.5 200t347.5 72.5q183 0 324.5 -71.5t222.5 -209.5t81 -339q0 -189 -60 -354.5t-171 -292t-265.5 -198t-344.5 -71.5zM718 335q106 0 183 51t127 134t74 180.5t24 190.5q0 86 -26 144.5
t-77 89t-128 30.5q-105 0 -181.5 -50.5t-127 -133t-75.5 -180t-25 -192.5q0 -85 26.5 -144t78 -89.5t127.5 -30.5zM694 -420q-155 0 -230.5 57.5t-57.5 160.5q13 80 72.5 134t149 96.5t194 87.5t210 104.5t196 146.5t151.5 215t76 311h86q-12 -192 -57 -330t-110.5 -233
t-141.5 -157.5t-151.5 -104t-139 -72t-104.5 -60.5t-48 -72q-5 -31 11.5 -46t52.5 -15q15 0 29.5 1t29.5 3l-21 -215q-39 -6 -96 -9t-101 -3zM1294 1877l-39 -232h-600l39 232h600z" />
    <glyph glyph-name="uni01ED" unicode="&#x1ed;" horiz-adv-x="1252" 
d="M554 -23q-158 0 -272.5 57t-176.5 161.5t-62 247.5q0 139 47.5 257.5t134.5 206t207 136.5t266 49q158 0 272.5 -57.5t176 -162t61.5 -247.5q0 -132 -44.5 -249t-129.5 -207t-206 -141t-274 -51zM579 286q58 0 101.5 33t71.5 84.5t42 111.5t14 116q0 51 -18.5 84.5
t-49 50t-67.5 16.5q-58 0 -101.5 -32.5t-72 -84t-42 -111.5t-13.5 -115q0 -77 40.5 -115t94.5 -38zM537 -420q-156 0 -231 57.5t-58 160.5q14 86 76 141.5t152.5 96t191 79.5t192.5 90.5t158 130t86 198.5h98q-22 -129 -70 -218.5t-111.5 -149t-129 -99t-123.5 -70t-97 -61
t-46 -72.5q-5 -31 11.5 -46t52.5 -15q15 0 29.5 1t29.5 3l-20 -215q-39 -6 -93.5 -9t-97.5 -3zM1079 1457l-39 -232h-600l39 232h600z" />
    <glyph glyph-name="uni01EE" unicode="&#x1ee;" horiz-adv-x="1391" 
d="M-23 136h408q-9 -72 12.5 -127t68.5 -86t113 -31q78 0 139 41.5t101.5 114t55.5 166.5q17 106 -4.5 181.5t-74.5 116.5t-131 40h-194l46 280l414 314v12h-704l56 332h1190l-48 -292l-522 -392l-4 -14q148 -16 247 -92.5t140 -199t15 -278.5q-24 -145 -93 -266.5
t-172.5 -210.5t-232.5 -138t-272 -49q-186 0 -319.5 74.5t-196.5 205.5t-38 298zM834 2130l97 -162l156 162h294v-2l-331 -324h-292l-219 324v2h295z" />
    <glyph glyph-name="uni01EF" unicode="&#x1ef;" horiz-adv-x="1311" 
d="M528 -443q-200 0 -330 72.5t-185.5 191.5t-32.5 258h393q-9 -61 10 -108t61.5 -74t103.5 -27t109.5 24t80.5 68.5t42 105.5q9 54 -10.5 94.5t-63 63t-109.5 22.5h-225l37 227l341 268v3h-587l54 324h1067l-50 -303l-535 -412l-19 88q180 20 300 -28t172.5 -145t30.5 -223
q-24 -145 -110.5 -255.5t-224.5 -172.5t-320 -62zM702 1524l97 -162l156 162h294v-2l-331 -324h-292l-219 324v2h295z" />
    <glyph glyph-name="uni01F0" unicode="&#x1f0;" horiz-adv-x="582" 
d="M180 1070h400l-183 -1108q-21 -131 -85 -215.5t-167.5 -124.5t-246.5 -40h-138l50 302h68q57 0 85.5 25.5t38.5 83.5zM329 1524l97 -162l156 162h294v-2l-331 -324h-292l-219 324v2h295z" />
    <glyph glyph-name="uni01F1" unicode="&#x1f1;" horiz-adv-x="2859" 
d="M648 0h-481l57 344h389q120 0 205 41.5t138.5 130.5t75.5 228q24 141 -0.5 230t-98 130.5t-197.5 41.5h-385l57 344h386q230 0 390.5 -91.5t232 -259t32.5 -395.5q-37 -227 -139 -394t-267 -258.5t-395 -91.5zM656 1490l-247 -1490h-414l247 1490h414zM1462 0l37 224
l860 940h-702l54 326h1216l-37 -224l-860 -940h702l-54 -326h-1216z" />
    <glyph glyph-name="uni01F2" unicode="&#x1f2;" horiz-adv-x="2622" 
d="M648 0h-481l57 344h389q120 0 205 41.5t138.5 130.5t75.5 228q24 141 -0.5 230t-98 130.5t-197.5 41.5h-385l57 344h386q230 0 390.5 -91.5t232 -259t32.5 -395.5q-37 -227 -139 -394t-267 -258.5t-395 -91.5zM656 1490l-247 -1490h-414l247 1490h414zM1474 0l41 248
l557 514v3h-468l51 305h943l-44 -266l-534 -498l-1 -3h464l-51 -303h-958z" />
    <glyph glyph-name="uni01F3" unicode="&#x1f3;" horiz-adv-x="2315" 
d="M430 -22q-179 0 -284 116.5t-105 322.5q0 125 35.5 245t104 217t166 155t222.5 58q77 0 133 -23t94.5 -66t60.5 -102h3l96 589h401l-246 -1490h-397l27 161h-3q-33 -64 -79.5 -104.5t-104.5 -59.5t-124 -19zM566 291q59 0 106 30t81 79.5t51.5 107.5t17.5 115
q0 74 -36 115.5t-98 41.5q-60 0 -105.5 -31.5t-76 -82.5t-46 -110.5t-15.5 -116.5q0 -70 30 -109t91 -39zM1167 0l41 248l557 514v3h-468l51 305h943l-44 -266l-534 -498l-1 -3h464l-51 -303h-958z" />
    <glyph glyph-name="uni01F4" unicode="&#x1f4;" horiz-adv-x="1523" 
d="M707 -23q-198 0 -340 75t-218.5 214t-76.5 331q0 189 60 354.5t171.5 292t266.5 198t344 71.5q132 0 247 -36t200 -105.5t129.5 -168t33.5 -222.5h-420q-1 41 -13.5 73.5t-36.5 55t-59.5 34t-83.5 11.5q-111 0 -191.5 -50t-132 -132t-76 -179.5t-24.5 -192.5
q0 -131 62.5 -198.5t188.5 -67.5q94 0 163 29.5t111.5 80t52.5 113.5l78 -21h-352l49 295h672l-37 -226q-24 -147 -90.5 -263.5t-168 -198t-231 -124.5t-278.5 -43zM800 1618l241 326h362l-339 -326h-264z" />
    <glyph glyph-name="uni01F5" unicode="&#x1f5;" horiz-adv-x="1289" 
d="M492 -434q-176 0 -285 46.5t-159 126.5t-50 179l366 6q3 -26 18 -45t43 -29.5t70 -10.5q95 0 152.5 52.5t72.5 146.5l26 156h-10q-34 -60 -78 -100t-98.5 -59t-124.5 -19q-120 0 -208 52t-135.5 148t-47.5 226q0 122 37 238t106 209t166 148t216 55q57 0 104 -14.5
t83.5 -39.5t62 -59.5t41.5 -73.5h2l28 165h398l-168 -1015q-28 -172 -110.5 -280t-213.5 -158.5t-304 -50.5zM569 317q59 0 106 28.5t80 75.5t50.5 103t17.5 110q0 73 -36 113t-98 40q-59 0 -104 -30t-76 -79t-46.5 -106t-15.5 -111q0 -69 30.5 -106.5t91.5 -37.5zM586 1198
l241 326h362l-339 -326h-264z" />
    <glyph glyph-name="uni01F6" unicode="&#x1f6;" horiz-adv-x="2240" 
d="M1509 -23q-177 0 -301.5 64.5t-182 177t-33.5 256.5l18 106h-505l-96 -581h-414l246 1490h414l-93 -563h505l93 563h413l-168 -1020q-14 -84 17 -126.5t100 -42.5q58 0 104.5 25.5t77 69.5t40.5 100l92 563h401l-101 -610q-23 -144 -109.5 -250t-219.5 -164t-298 -58z
" />
    <glyph glyph-name="uni01F7" unicode="&#x1f7;" horiz-adv-x="1665" 
d="M732 1486l-310 -1904h-388l312 1904h386zM294 -192l52 318q172 59 303.5 125t225 144t150.5 171.5t81 207.5l12 56q12 55 17 118t-8 119.5t-55.5 92.5t-125.5 36q-81 0 -162 -32.5t-147.5 -86t-102.5 -117.5l70 414q54 56 153.5 94.5t236.5 37.5q182 1 318 -80t196 -233
t12 -367l-12 -52q-34 -154 -123 -293t-237 -261t-360 -225.5t-494 -186.5z" />
    <glyph glyph-name="uni01F8" unicode="&#x1f8;" horiz-adv-x="1527" 
d="M-5 0l247 1490h428l264 -585q21 -46 47 -114t53 -146.5t50 -157.5l-62 -90q9 81 22 185t27 202t23 160l91 546h416l-247 -1490h-427l-247 544q-26 59 -57 136.5t-64.5 170.5t-66.5 195l76 19q-9 -105 -21.5 -206.5t-24.5 -183.5t-21 -131l-90 -544h-416zM830 1618
l-233 326h363l134 -326h-264z" />
    <glyph glyph-name="uni01F9" unicode="&#x1f9;" horiz-adv-x="1280" 
d="M494 562l-92 -562h-401l177 1070h391l-45 -290l-45 12q68 136 168.5 218t251.5 82q123 0 200 -55t105.5 -151.5t7.5 -222.5l-110 -663h-400l99 601q13 80 -21 117.5t-99 37.5q-52 0 -90.5 -23.5t-62.5 -67t-34 -103.5zM634 1198l-233 326h363l134 -326h-264z" />
    <glyph glyph-name="Aringacute" unicode="&#x1fa;" horiz-adv-x="1579" 
d="M-78 0l743 1490h558l257 -1490h-452l-72 578q-23 188 -42.5 375.5t-34.5 386.5h107q-80 -199 -161 -386.5t-168 -375.5l-267 -578h-468zM334 254l52 316h820l-52 -316h-820zM917 2078l184 230h308l-256 -230h-236zM981 1563q-85 0 -144 32.5t-85.5 90t-13.5 130.5
q11 60 49.5 106t99 72t133.5 26q85 0 144 -32t85.5 -89.5t13.5 -131.5q-10 -59 -49 -105.5t-99 -72.5t-134 -26zM985 1701q43 0 75 25t39 66q7 40 -16 65.5t-67 25.5q-43 0 -74.5 -25.5t-38.5 -65.5q-7 -41 15.5 -66t66.5 -25z" />
    <glyph glyph-name="aringacute" unicode="&#x1fb;" horiz-adv-x="1284" 
d="M409 -22q-134 0 -225.5 67.5t-127.5 192.5t-7 298q28 171 108 295.5t192.5 192.5t239.5 68q72 0 125.5 -20t90 -57.5t56.5 -90.5h5l24 146h392l-177 -1070h-392l27 162h-5q-32 -58 -81.5 -99t-111 -63t-133.5 -22zM586 291q55 0 101.5 30t79 85t44.5 130
q13 75 -1.5 129.5t-51 84.5t-91.5 30t-98 -30t-72.5 -84.5t-41.5 -129.5t-1.5 -130t44.5 -85t88 -30zM713 1657l184 230h308l-256 -230h-236zM777 1142q-85 0 -144 32.5t-85.5 90t-13.5 130.5q11 60 49.5 106t99 72t133.5 26q85 0 144 -32t85.5 -89.5t13.5 -131.5
q-10 -59 -49 -105.5t-99 -72.5t-134 -26zM781 1280q43 0 75 25t39 66q7 40 -16 65.5t-67 25.5q-43 0 -74.5 -25.5t-38.5 -65.5q-7 -41 15.5 -66t66.5 -25z" />
    <glyph glyph-name="AEacute" unicode="&#x1fc;" horiz-adv-x="2115" 
d="M-78 0l827 1490h1458l-56 -340h-675l-41 -245h585l-53 -317h-584l-41 -248h670l-56 -340h-1070l188 1131h-116l-604 -1131h-432zM328 298l50 302h748l-50 -302h-748zM1353 1618l241 326h362l-339 -326h-264z" />
    <glyph glyph-name="aeacute" unicode="&#x1fd;" horiz-adv-x="1879" 
d="M384 -19q-197 0 -298 85t-77 230q17 102 79.5 176t160.5 115t223 44q52 1 103.5 1.5t103 1.5t102.5 2l-34 -211q-52 -1 -104 -2.5t-105 -3.5q-65 -1 -104 -29.5t-46 -69.5q-7 -42 21.5 -65.5t79.5 -23.5q44 0 87 17t74.5 50t39.5 81l56 338q8 47 -22 72t-93 25
q-41 0 -73 -11.5t-54 -33t-31 -52.5l-364 8q27 101 100.5 184t192 133t278.5 50q156 0 240 -47t110.5 -128t9.5 -184l-58 -349l-17 -5q-21 -126 -89.5 -215t-190 -136t-301.5 -47zM1225 -24q-179 0 -303 64t-178 188.5t-24 305.5q21 130 78 233t144 175.5t198 111t241 38.5
q127 0 232 -36t167.5 -108t62.5 -181q0 -113 -71.5 -181t-205 -103t-320 -47t-417.5 -12l37 216q199 0 320.5 5t185 16.5t86 29t22.5 41.5q0 35 -36.5 56.5t-104.5 21.5q-62 0 -105.5 -18t-70 -59.5t-39.5 -114.5q-4 -24 -10.5 -64t-11.5 -80t-5 -65q0 -89 45.5 -121
t115.5 -32q79 0 123.5 28.5t58.5 75.5h366q-58 -174 -203.5 -279t-377.5 -105zM875 1198l241 326h362l-339 -326h-264z" />
    <glyph glyph-name="Oslashacute" unicode="&#x1fe;" horiz-adv-x="1543" 
d="M700 -23q-184 0 -325.5 72t-222 210.5t-80.5 337.5q0 185 59 350.5t169 293t265.5 200t347.5 72.5q183 0 324.5 -71.5t222.5 -209.5t81 -339q0 -189 -60 -354.5t-171 -292t-265.5 -198t-344.5 -71.5zM718 335q106 0 183 51t127 134t74 180.5t24 190.5q0 86 -26 144.5
t-77 89t-128 30.5q-105 0 -181.5 -50.5t-127 -133t-75.5 -180t-25 -192.5q0 -85 26.5 -144t78 -89.5t127.5 -30.5zM135 -87l-167 163l1512 1500l166 -163zM802 1618l241 326h362l-339 -326h-264z" />
    <glyph glyph-name="oslashacute" unicode="&#x1ff;" horiz-adv-x="1252" 
d="M554 -23q-158 0 -272.5 57t-176.5 161.5t-62 247.5q0 139 47.5 257.5t134.5 206t207 136.5t266 49q158 0 272.5 -57.5t176 -162t61.5 -247.5q0 -132 -44.5 -249t-129.5 -207t-206 -141t-274 -51zM579 286q58 0 101.5 33t71.5 84.5t42 111.5t14 116q0 51 -18.5 84.5
t-49 50t-67.5 16.5q-58 0 -101.5 -32.5t-72 -84t-42 -111.5t-13.5 -115q0 -77 40.5 -115t94.5 -38zM72 -51l-89 102l1196 1070l89 -102zM587 1198l241 326h362l-339 -326h-264z" />
    <glyph glyph-name="uni0200" unicode="&#x200;" horiz-adv-x="1579" 
d="M-78 0l743 1490h558l257 -1490h-452l-72 578q-23 188 -42.5 375.5t-34.5 386.5h107q-80 -199 -161 -386.5t-168 -375.5l-267 -578h-468zM334 254l52 316h820l-52 -316h-820zM1059 1618l-144 326h326l82 -326h-264zM670 1618l-242 326h360l154 -326h-272z" />
    <glyph glyph-name="uni0201" unicode="&#x201;" horiz-adv-x="1284" 
d="M409 -22q-134 0 -225.5 67.5t-127.5 192.5t-7 298q28 171 108 295.5t192.5 192.5t239.5 68q72 0 125.5 -20t90 -57.5t56.5 -90.5h5l24 146h392l-177 -1070h-392l27 162h-5q-32 -58 -81.5 -99t-111 -63t-133.5 -22zM586 291q55 0 101.5 30t79 85t44.5 130
q13 75 -1.5 129.5t-51 84.5t-91.5 30t-98 -30t-72.5 -84.5t-41.5 -129.5t-1.5 -130t44.5 -85t88 -30zM856 1198l-144 326h326l82 -326h-264zM467 1198l-242 326h360l154 -326h-272z" />
    <glyph glyph-name="uni0202" unicode="&#x202;" horiz-adv-x="1579" 
d="M-78 0l743 1490h558l257 -1490h-452l-72 578q-23 188 -42.5 375.5t-34.5 386.5h107q-80 -199 -161 -386.5t-168 -375.5l-267 -578h-468zM334 254l52 316h820l-52 -316h-820zM1024 1952q112 0 193.5 -44.5t120.5 -120t23 -169.5h-220q10 62 -32 102t-117 40
q-76 0 -131 -40t-65 -102h-219q16 94 79.5 169.5t159.5 120t208 44.5z" />
    <glyph glyph-name="uni0203" unicode="&#x203;" horiz-adv-x="1284" 
d="M409 -22q-134 0 -225.5 67.5t-127.5 192.5t-7 298q28 171 108 295.5t192.5 192.5t239.5 68q72 0 125.5 -20t90 -57.5t56.5 -90.5h5l24 146h392l-177 -1070h-392l27 162h-5q-32 -58 -81.5 -99t-111 -63t-133.5 -22zM586 291q55 0 101.5 30t79 85t44.5 130
q13 75 -1.5 129.5t-51 84.5t-91.5 30t-98 -30t-72.5 -84.5t-41.5 -129.5t-1.5 -130t44.5 -85t88 -30zM820 1532q112 0 193.5 -44.5t120.5 -120t23 -169.5h-220q10 62 -32 102t-117 40q-76 0 -131 -40t-65 -102h-219q16 94 79.5 169.5t159.5 120t208 44.5z" />
    <glyph glyph-name="uni0204" unicode="&#x204;" horiz-adv-x="1286" 
d="M-5 0l247 1490h1136l-57 -346h-723l-38 -230h666l-56 -336h-666l-38 -232h722l-57 -346h-1136zM922 1618l-144 326h326l82 -326h-264zM533 1618l-242 326h360l154 -326h-272z" />
    <glyph glyph-name="uni0205" unicode="&#x205;" horiz-adv-x="1207" 
d="M554 -24q-175 0 -297 61t-178 179.5t-33 291.5q17 131 71.5 238t141.5 184.5t201 119.5t250 42q127 0 232 -38.5t167.5 -115.5t62.5 -196q0 -122 -71.5 -190t-205 -97.5t-320 -36t-417.5 -6.5l37 229q198 0 319.5 5.5t185.5 16t86.5 28t22.5 41.5q0 37 -36.5 57.5
t-104.5 20.5q-80 0 -124.5 -30t-66 -77.5t-29 -102.5t-14.5 -105q-8 -72 -3 -126t40.5 -83.5t115.5 -29.5q79 0 123 28.5t59 75.5l364 -6q-56 -170 -202.5 -274t-376.5 -104zM834 1198l-144 326h326l82 -326h-264zM445 1198l-242 326h360l154 -326h-272z" />
    <glyph glyph-name="uni0206" unicode="&#x206;" horiz-adv-x="1286" 
d="M-5 0l247 1490h1136l-57 -346h-723l-38 -230h666l-56 -336h-666l-38 -232h722l-57 -346h-1136zM886 1952q112 0 193.5 -44.5t120.5 -120t23 -169.5h-220q10 62 -32 102t-117 40q-76 0 -131 -40t-65 -102h-219q16 94 79.5 169.5t159.5 120t208 44.5z" />
    <glyph glyph-name="uni0207" unicode="&#x207;" horiz-adv-x="1207" 
d="M554 -24q-175 0 -297 61t-178 179.5t-33 291.5q17 131 71.5 238t141.5 184.5t201 119.5t250 42q127 0 232 -38.5t167.5 -115.5t62.5 -196q0 -122 -71.5 -190t-205 -97.5t-320 -36t-417.5 -6.5l37 229q198 0 319.5 5.5t185.5 16t86.5 28t22.5 41.5q0 37 -36.5 57.5
t-104.5 20.5q-80 0 -124.5 -30t-66 -77.5t-29 -102.5t-14.5 -105q-8 -72 -3 -126t40.5 -83.5t115.5 -29.5q79 0 123 28.5t59 75.5l364 -6q-56 -170 -202.5 -274t-376.5 -104zM798 1532q112 0 193.5 -44.5t120.5 -120t23 -169.5h-220q10 62 -32 102t-117 40q-76 0 -131 -40
t-65 -102h-219q16 94 79.5 169.5t159.5 120t208 44.5z" />
    <glyph glyph-name="uni0208" unicode="&#x208;" horiz-adv-x="581" 
d="M656 1490l-247 -1490h-414l247 1490h414zM561 1618l-144 326h326l82 -326h-264zM172 1618l-242 326h360l154 -326h-272z" />
    <glyph glyph-name="uni0209" unicode="&#x209;" horiz-adv-x="581" 
d="M1 0l178 1070h400l-177 -1070h-401zM490 1198l-144 326h326l82 -326h-264zM101 1198l-242 326h360l154 -326h-272z" />
    <glyph glyph-name="uni020A" unicode="&#x20a;" horiz-adv-x="581" 
d="M656 1490l-247 -1490h-414l247 1490h414zM525 1952q112 0 193.5 -44.5t120.5 -120t23 -169.5h-220q10 62 -32 102t-117 40q-76 0 -131 -40t-65 -102h-219q16 94 79.5 169.5t159.5 120t208 44.5z" />
    <glyph glyph-name="uni020B" unicode="&#x20b;" horiz-adv-x="581" 
d="M1 0l178 1070h400l-177 -1070h-401zM455 1532q112 0 193.5 -44.5t120.5 -120t23 -169.5h-220q10 62 -32 102t-117 40q-76 0 -131 -40t-65 -102h-219q16 94 79.5 169.5t159.5 120t208 44.5z" />
    <glyph glyph-name="uni020C" unicode="&#x20c;" horiz-adv-x="1543" 
d="M700 -23q-184 0 -325.5 72t-222 210.5t-80.5 337.5q0 185 59 350.5t169 293t265.5 200t347.5 72.5q183 0 324.5 -71.5t222.5 -209.5t81 -339q0 -189 -60 -354.5t-171 -292t-265.5 -198t-344.5 -71.5zM718 335q106 0 183 51t127 134t74 180.5t24 190.5q0 86 -26 144.5
t-77 89t-128 30.5q-105 0 -181.5 -50.5t-127 -133t-75.5 -180t-25 -192.5q0 -85 26.5 -144t78 -89.5t127.5 -30.5zM1041 1618l-144 326h326l82 -326h-264zM652 1618l-242 326h360l154 -326h-272z" />
    <glyph glyph-name="uni020D" unicode="&#x20d;" horiz-adv-x="1252" 
d="M554 -23q-158 0 -272.5 57t-176.5 161.5t-62 247.5q0 139 47.5 257.5t134.5 206t207 136.5t266 49q158 0 272.5 -57.5t176 -162t61.5 -247.5q0 -132 -44.5 -249t-129.5 -207t-206 -141t-274 -51zM579 286q58 0 101.5 33t71.5 84.5t42 111.5t14 116q0 51 -18.5 84.5
t-49 50t-67.5 16.5q-58 0 -101.5 -32.5t-72 -84t-42 -111.5t-13.5 -115q0 -77 40.5 -115t94.5 -38zM826 1198l-144 326h326l82 -326h-264zM437 1198l-242 326h360l154 -326h-272z" />
    <glyph glyph-name="uni020E" unicode="&#x20e;" horiz-adv-x="1543" 
d="M700 -23q-184 0 -325.5 72t-222 210.5t-80.5 337.5q0 185 59 350.5t169 293t265.5 200t347.5 72.5q183 0 324.5 -71.5t222.5 -209.5t81 -339q0 -189 -60 -354.5t-171 -292t-265.5 -198t-344.5 -71.5zM718 335q106 0 183 51t127 134t74 180.5t24 190.5q0 86 -26 144.5
t-77 89t-128 30.5q-105 0 -181.5 -50.5t-127 -133t-75.5 -180t-25 -192.5q0 -85 26.5 -144t78 -89.5t127.5 -30.5zM1006 1952q112 0 193.5 -44.5t120.5 -120t23 -169.5h-220q10 62 -32 102t-117 40q-76 0 -131 -40t-65 -102h-219q16 94 79.5 169.5t159.5 120t208 44.5z" />
    <glyph glyph-name="uni020F" unicode="&#x20f;" horiz-adv-x="1252" 
d="M554 -23q-158 0 -272.5 57t-176.5 161.5t-62 247.5q0 139 47.5 257.5t134.5 206t207 136.5t266 49q158 0 272.5 -57.5t176 -162t61.5 -247.5q0 -132 -44.5 -249t-129.5 -207t-206 -141t-274 -51zM579 286q58 0 101.5 33t71.5 84.5t42 111.5t14 116q0 51 -18.5 84.5
t-49 50t-67.5 16.5q-58 0 -101.5 -32.5t-72 -84t-42 -111.5t-13.5 -115q0 -77 40.5 -115t94.5 -38zM790 1532q112 0 193.5 -44.5t120.5 -120t23 -169.5h-220q10 62 -32 102t-117 40q-76 0 -131 -40t-65 -102h-219q16 94 79.5 169.5t159.5 120t208 44.5z" />
    <glyph glyph-name="uni0210" unicode="&#x210;" horiz-adv-x="1364" 
d="M-5 0l247 1490h635q176 0 294 -63t169 -178.5t25 -275.5q-26 -156 -117.5 -268.5t-234.5 -172.5t-325 -60h-362l53 320h336q65 0 115.5 22t83 62.5t42.5 96.5q14 85 -34.5 133.5t-145.5 48.5h-176l-191 -1155h-414zM821 0l-220 678h419l229 -678h-428zM943 1618l-144 326
h326l82 -326h-264zM554 1618l-242 326h360l154 -326h-272z" />
    <glyph glyph-name="uni0211" unicode="&#x211;" horiz-adv-x="861" 
d="M1 0l178 1070h388l-33 -197h5q47 110 116.5 155t174.5 45q28 0 52 -1t48 -3l-54 -325q-22 3 -65.5 4t-80.5 1q-61 0 -111.5 -27.5t-84.5 -78.5t-45 -120l-87 -523h-401zM670 1198l-144 326h326l82 -326h-264zM281 1198l-242 326h360l154 -326h-272z" />
    <glyph glyph-name="uni0212" unicode="&#x212;" horiz-adv-x="1364" 
d="M-5 0l247 1490h635q176 0 294 -63t169 -178.5t25 -275.5q-26 -156 -117.5 -268.5t-234.5 -172.5t-325 -60h-362l53 320h336q65 0 115.5 22t83 62.5t42.5 96.5q14 85 -34.5 133.5t-145.5 48.5h-176l-191 -1155h-414zM821 0l-220 678h419l229 -678h-428zM907 1952
q112 0 193.5 -44.5t120.5 -120t23 -169.5h-220q10 62 -32 102t-117 40q-76 0 -131 -40t-65 -102h-219q16 94 79.5 169.5t159.5 120t208 44.5z" />
    <glyph glyph-name="uni0213" unicode="&#x213;" horiz-adv-x="861" 
d="M1 0l178 1070h388l-33 -197h5q47 110 116.5 155t174.5 45q28 0 52 -1t48 -3l-54 -325q-22 3 -65.5 4t-80.5 1q-61 0 -111.5 -27.5t-84.5 -78.5t-45 -120l-87 -523h-401zM635 1532q112 0 193.5 -44.5t120.5 -120t23 -169.5h-220q10 62 -32 102t-117 40q-76 0 -131 -40
t-65 -102h-219q16 94 79.5 169.5t159.5 120t208 44.5z" />
    <glyph glyph-name="uni0214" unicode="&#x214;" horiz-adv-x="1452" 
d="M654 -23q-200 0 -337.5 71.5t-198.5 199.5t-33 296l156 946h404l-154 -938q-11 -69 8 -119.5t63.5 -78t108.5 -27.5q75 0 139 34t107 91t54 126l151 912h404l-161 -972q-28 -168 -125 -289.5t-247 -186.5t-339 -65zM995 1618l-144 326h326l82 -326h-264zM606 1618
l-242 326h360l154 -326h-272z" />
    <glyph glyph-name="uni0215" unicode="&#x215;" horiz-adv-x="1280" 
d="M361 -22q-118 0 -190.5 51.5t-99 145t-5.5 219.5l112 676h400l-97 -588q-13 -80 19 -124t103 -44q48 0 84.5 20t61 60.5t34.5 100.5l96 575h400l-177 -1070h-391l46 290h43q-68 -136 -174 -224t-265 -88zM840 1198l-144 326h326l82 -326h-264zM451 1198l-242 326h360
l154 -326h-272z" />
    <glyph glyph-name="uni0216" unicode="&#x216;" horiz-adv-x="1452" 
d="M654 -23q-200 0 -337.5 71.5t-198.5 199.5t-33 296l156 946h404l-154 -938q-11 -69 8 -119.5t63.5 -78t108.5 -27.5q75 0 139 34t107 91t54 126l151 912h404l-161 -972q-28 -168 -125 -289.5t-247 -186.5t-339 -65zM960 1952q112 0 193.5 -44.5t120.5 -120t23 -169.5
h-220q10 62 -32 102t-117 40q-76 0 -131 -40t-65 -102h-219q16 94 79.5 169.5t159.5 120t208 44.5z" />
    <glyph glyph-name="uni0217" unicode="&#x217;" horiz-adv-x="1280" 
d="M361 -22q-118 0 -190.5 51.5t-99 145t-5.5 219.5l112 676h400l-97 -588q-13 -80 19 -124t103 -44q48 0 84.5 20t61 60.5t34.5 100.5l96 575h400l-177 -1070h-391l46 290h43q-68 -136 -174 -224t-265 -88zM805 1532q112 0 193.5 -44.5t120.5 -120t23 -169.5h-220
q10 62 -32 102t-117 40q-76 0 -131 -40t-65 -102h-219q16 94 79.5 169.5t159.5 120t208 44.5z" />
    <glyph glyph-name="uni0218" unicode="&#x218;" horiz-adv-x="1394" 
d="M632 -23q-207 0 -345 61t-197.5 178.5t-32.5 285.5h391q-7 -62 17 -105.5t76 -67t127 -23.5q66 0 117 16.5t82 46t37 67.5q6 36 -12.5 63t-66 48t-128.5 36l-144 29q-204 41 -303 156t-70 290q23 136 113 238.5t231 159.5t317 57q186 0 315 -59.5t189 -170t38 -264.5
h-383q5 80 -42.5 122.5t-143.5 42.5q-59 0 -105.5 -16t-75 -44t-34.5 -65q-6 -35 10.5 -61t59 -45t115.5 -33l117 -23q124 -25 209.5 -64.5t136 -96t67 -130.5t2.5 -166q-24 -149 -112 -252.5t-232 -157t-340 -53.5zM265 -466l154 348h360l-242 -348h-272z" />
    <glyph glyph-name="uni0219" unicode="&#x219;" horiz-adv-x="1157" 
d="M512 -25q-150 0 -263.5 44.5t-176.5 126t-64 192.5v4v4l387 6q1 -54 34 -82t101 -28q39 0 71.5 9.5t52.5 27.5t20 43q0 23 -21.5 38t-72.5 23l-192 33q-145 25 -220 98t-75 185q0 120 71 207.5t195.5 135t283.5 47.5q222 0 350 -86.5t129 -234.5q0 -9 -1 -20.5t-2 -22.5
l-362 -5q2 52 -29.5 78t-92.5 26q-35 0 -67 -10t-51.5 -28.5t-19.5 -43.5q0 -22 17.5 -37t57.5 -21l220 -39q150 -26 223.5 -89.5t73.5 -170.5q0 -90 -44.5 -165.5t-122.5 -130t-183 -84.5t-227 -30zM145 -466l154 348h360l-242 -348h-272z" />
    <glyph glyph-name="uni021A.1" unicode="&#x21a;" horiz-adv-x="1359" 
d="M144 1144l58 346h1271l-58 -346h-429l-189 -1144h-413l189 1144h-429zM242 -466l154 348h360l-242 -348h-272z" />
    <glyph glyph-name="uni021B" unicode="&#x21b;" horiz-adv-x="849" 
d="M892 1070l-51 -302h-782l50 302h783zM326 1353h401l-161 -973q-7 -44 8.5 -61.5t66.5 -17.5q25 0 65 1t56 2l-39 -301q-37 -4 -99.5 -5.5t-127.5 -1.5q-204 0 -286 78t-55 243zM45 -466l154 348h360l-242 -348h-272z" />
    <glyph glyph-name="uni021C" unicode="&#x21c;" horiz-adv-x="1401" 
d="M194 306l48 294q209 58 343 104t211 90t112.5 94.5t47.5 117.5q17 104 -26 148.5t-146 43.5q-56 1 -97 -12.5t-65 -38t-30 -59.5h-390q21 124 108 219t223 149t303 54q183 0 307.5 -48t179.5 -147t29 -253q-22 -133 -94 -242t-207 -199t-346 -167t-511 -148zM700 504
l76 230q163 13 278.5 -29.5t169.5 -131t32 -215.5q-25 -155 -122.5 -289.5t-254 -239.5t-362 -173t-447.5 -92l52 308q161 29 291.5 76.5t227 111.5t154.5 141.5t73 164.5q16 97 -20.5 125t-147.5 13z" />
    <glyph glyph-name="uni021D" unicode="&#x21d;" horiz-adv-x="1205" 
d="M180 120l44 266q182 62 289 114.5t158 109t63 128.5q11 62 -13.5 91t-82.5 29q-36 0 -62 -11.5t-40.5 -32.5t-19.5 -52h-378q19 116 87.5 199t183.5 127t271 44q240 0 353.5 -89.5t82.5 -268.5q-23 -143 -129 -259t-304.5 -213t-502.5 -182zM542 360l56 144
q242 18 356.5 -61.5t87.5 -246.5q-36 -213 -276.5 -372.5t-677.5 -259.5l46 270q192 75 304 135.5t164.5 119.5t63.5 127q14 81 -22.5 119.5t-101.5 24.5z" />
    <glyph glyph-name="uni021E" unicode="&#x21e;" horiz-adv-x="1499" 
d="M-5 0l247 1490h414l-94 -559h505l93 559h414l-247 -1490h-414l97 585h-505l-96 -585h-414zM856 1944l97 -162l156 162h294v-2l-331 -324h-292l-219 324v2h295z" />
    <glyph glyph-name="uni021F" unicode="&#x21f;" horiz-adv-x="1280" 
d="M497 575l-95 -575h-401l247 1490h398l-117 -710h-49q47 90 104.5 160.5t135.5 111t184 40.5q118 0 194 -51.5t106.5 -145t9.5 -219.5l-112 -676h-400l97 588q13 80 -18.5 124t-103.5 44q-47 0 -84 -20t-61.5 -60.5t-34.5 -100.5zM395 1944l97 -162l156 162h294v-2
l-331 -324h-292l-219 324v2h295z" />
    <glyph glyph-name="uni0220" unicode="&#x220;" horiz-adv-x="1407" 
d="M1110 -416h-380l248 1504q7 48 -19 86.5t-123 39.5q-130 -1 -269 -87t-291 -265l62 356q69 73 160 140t202.5 109.5t241.5 42.5q137 0 238.5 -51.5t150.5 -146t27 -224.5zM672 1490l-248 -1490h-378l248 1490h378z" />
    <glyph glyph-name="uni0221" unicode="&#x221;" horiz-adv-x="1609" 
d="M1115 -418q-164 0 -262 43.5t-133 133.5t-12 229l34 204h401l-53 -314q-6 -40 15 -60t59 -20q33 0 58 15t29 43q5 29 -16 47.5t-71 18.5q-29 0 -64 -10t-91 -39t-148 -85l-354 -218l-129 222l375 230q86 53 197.5 96.5t235.5 43.5q209 0 310 -93t78 -231
q-21 -126 -137 -191t-322 -65zM430 -22q-179 0 -284 116.5t-105 322.5q0 125 35.5 245t104 217t166 155t222.5 58q77 0 133 -23t94.5 -66t60.5 -102h3l96 589h401l-246 -1490h-397l27 161h-3q-33 -64 -79.5 -104.5t-104.5 -59.5t-124 -19zM566 291q59 0 106 30t81 79.5
t51.5 107.5t17.5 115q0 74 -36 115.5t-98 41.5q-60 0 -105.5 -31.5t-76 -82.5t-46 -110.5t-15.5 -116.5q0 -70 30 -109t91 -39z" />
    <glyph glyph-name="uni0222" unicode="&#x222;" horiz-adv-x="1403" 
d="M758 954h22q183 0 303.5 -55.5t172 -160t26.5 -252.5q-26 -154 -117 -267.5t-231 -176t-316 -62.5h-20q-177 0 -298.5 62t-175 175t-28.5 265q24 150 110 255.5t226.5 161t325.5 55.5zM734 684h-20q-85 0 -144.5 -55t-75.5 -147q-15 -88 27 -142.5t127 -53.5h20
q83 -1 141.5 52.5t72.5 147.5q14 92 -25.5 145t-122.5 53zM764 998h20q66 0 109.5 9.5t67.5 35t31 71.5q6 41 -7.5 63.5t-52.5 30.5l50 302q151 3 249 -44.5t139 -137t20 -214.5q-20 -126 -103.5 -211.5t-222.5 -129t-326 -43.5h-20q-140 0 -244 24t-170 72t-92.5 120
t-11.5 168q21 126 90.5 215.5t183 136.5t264.5 44l-50 -302q-43 -7 -62.5 -29.5t-27.5 -64.5q-7 -48 7.5 -73t53.5 -34t105 -9z" />
    <glyph glyph-name="uni0223" unicode="&#x223;" horiz-adv-x="1401" 
d="M754 928h20q166 0 287 -45.5t178 -145.5t29 -263q-26 -158 -117 -268.5t-229 -168t-306 -57.5h-20q-168 0 -288 57.5t-175 168t-29 268.5q28 163 118 263t226.5 145.5t305.5 45.5zM730 666h-20q-97 0 -155.5 -55.5t-72.5 -136.5q-13 -80 27 -136t137 -56h20q101 0 156 56
t68 136q13 81 -23 136.5t-137 55.5zM776 966q73 0 120 18.5t73.5 56t36.5 93.5q9 62 -13.5 93.5t-52.5 38.5l48 290q139 2 234.5 -43t137.5 -136.5t18 -232.5q-26 -160 -114.5 -256t-224.5 -138.5t-307 -43.5h-16q-169 1 -291 43.5t-179 138.5t-32 256q24 138 96 230
t183.5 138t250.5 44l-50 -290q-30 -7 -61 -38.5t-39 -93.5q-10 -58 2 -95t51.5 -55t110.5 -18h18z" />
    <glyph glyph-name="uni0224" unicode="&#x224;" horiz-adv-x="1398" 
d="M516 -418l52 315q20 -1 54.5 -1.5t76.5 -0.5q46 0 70 20t31 62l4 23h413l-7 -46q-31 -188 -151.5 -282.5t-331.5 -94.5q-65 0 -120.5 1.5t-90.5 3.5zM1 0l37 224l860 940h-702l54 326h1216l-37 -224l-860 -940h702l-54 -326h-1216z" />
    <glyph glyph-name="uni0225" unicode="&#x225;" horiz-adv-x="1161" 
d="M732 -228l16 98q11 68 -10 99t-77 31h-648l41 248l565 514v3h-476l51 305h943l-44 -266l-542 -498l-1 -3h216q183 0 262.5 -115t43.5 -330l-14 -86h-326z" />
    <glyph glyph-name="uni0226" unicode="&#x226;" horiz-adv-x="1579" 
d="M-78 0l743 1490h558l257 -1490h-452l-72 578q-23 188 -42.5 375.5t-34.5 386.5h107q-80 -199 -161 -386.5t-168 -375.5l-267 -578h-468zM334 254l52 316h820l-52 -316h-820zM959 1570q-91 0 -141 54t-36 136q13 83 81 136.5t160 53.5q91 0 141 -53.5t36 -135.5
q-13 -83 -81 -137t-160 -54z" />
    <glyph glyph-name="uni0227" unicode="&#x227;" horiz-adv-x="1284" 
d="M409 -22q-134 0 -225.5 67.5t-127.5 192.5t-7 298q28 171 108 295.5t192.5 192.5t239.5 68q72 0 125.5 -20t90 -57.5t56.5 -90.5h5l24 146h392l-177 -1070h-392l27 162h-5q-32 -58 -81.5 -99t-111 -63t-133.5 -22zM586 291q55 0 101.5 30t79 85t44.5 130
q13 75 -1.5 129.5t-51 84.5t-91.5 30t-98 -30t-72.5 -84.5t-41.5 -129.5t-1.5 -130t44.5 -85t88 -30zM756 1150q-91 0 -141 54t-36 136q13 83 81 136.5t160 53.5q91 0 141 -53.5t36 -135.5q-13 -83 -81 -137t-160 -54z" />
    <glyph glyph-name="uni0228" unicode="&#x228;" horiz-adv-x="1286" 
d="M-5 0l247 1490h1136l-57 -346h-723l-38 -230h666l-56 -336h-666l-38 -232h722l-57 -346h-1136zM350 -418l22 137h123q40 0 62.5 13.5t26.5 41.5q5 27 -12.5 40.5t-58.5 13.5h-87l77 212h137l-7 -40l-15 -78q92 3 134.5 -44t30.5 -120q-15 -87 -84.5 -131.5t-190.5 -44.5
h-158z" />
    <glyph glyph-name="uni0229" unicode="&#x229;" horiz-adv-x="1207" 
d="M554 -24q-175 0 -297 61t-178 179.5t-33 291.5q17 131 71.5 238t141.5 184.5t201 119.5t250 42q127 0 232 -38.5t167.5 -115.5t62.5 -196q0 -122 -71.5 -190t-205 -97.5t-320 -36t-417.5 -6.5l37 229q198 0 319.5 5.5t185.5 16t86.5 28t22.5 41.5q0 37 -36.5 57.5
t-104.5 20.5q-80 0 -124.5 -30t-66 -77.5t-29 -102.5t-14.5 -105q-8 -72 -3 -126t40.5 -83.5t115.5 -29.5q79 0 123 28.5t59 75.5l364 -6q-56 -170 -202.5 -274t-376.5 -104zM334 -418l22 137h123q40 0 62.5 13.5t26.5 41.5q5 27 -12.5 40.5t-58.5 13.5h-87l77 212h137
l-7 -40l-15 -78q92 3 134.5 -44t30.5 -120q-15 -87 -84.5 -131.5t-190.5 -44.5h-158z" />
    <glyph glyph-name="uni022A" unicode="&#x22a;" horiz-adv-x="1543" 
d="M700 -23q-184 0 -325.5 72t-222 210.5t-80.5 337.5q0 185 59 350.5t169 293t265.5 200t347.5 72.5q183 0 324.5 -71.5t222.5 -209.5t81 -339q0 -189 -60 -354.5t-171 -292t-265.5 -198t-344.5 -71.5zM718 335q106 0 183 51t127 134t74 180.5t24 190.5q0 86 -26 144.5
t-77 89t-128 30.5q-105 0 -181.5 -50.5t-127 -133t-75.5 -180t-25 -192.5q0 -85 26.5 -144t78 -89.5t127.5 -30.5zM1164 1572q-85 0 -131.5 52.5t-32.5 132.5q13 80 77 132t148 52q85 0 132 -52t34 -132q-14 -80 -78.5 -132.5t-148.5 -52.5zM696 1572q-84 0 -130 52.5
t-32 132.5q12 80 76 132t148 52q86 0 132.5 -52t33.5 -132q-14 -80 -78 -132.5t-150 -52.5zM1384 2239l-39 -203h-600l39 203h600z" />
    <glyph glyph-name="uni022B" unicode="&#x22b;" horiz-adv-x="1252" 
d="M554 -23q-158 0 -272.5 57t-176.5 161.5t-62 247.5q0 139 47.5 257.5t134.5 206t207 136.5t266 49q158 0 272.5 -57.5t176 -162t61.5 -247.5q0 -132 -44.5 -249t-129.5 -207t-206 -141t-274 -51zM579 286q58 0 101.5 33t71.5 84.5t42 111.5t14 116q0 51 -18.5 84.5
t-49 50t-67.5 16.5q-58 0 -101.5 -32.5t-72 -84t-42 -111.5t-13.5 -115q0 -77 40.5 -115t94.5 -38zM949 1152q-85 0 -131.5 52.5t-32.5 132.5q13 80 77 132t148 52q85 0 132 -52t34 -132q-14 -80 -78.5 -132.5t-148.5 -52.5zM481 1152q-84 0 -130 52.5t-32 132.5
q12 80 76 132t148 52q86 0 132.5 -52t33.5 -132q-14 -80 -78 -132.5t-150 -52.5zM1169 1819l-39 -203h-600l39 203h600z" />
    <glyph glyph-name="uni022C" unicode="&#x22c;" horiz-adv-x="1543" 
d="M700 -23q-184 0 -325.5 72t-222 210.5t-80.5 337.5q0 185 59 350.5t169 293t265.5 200t347.5 72.5q183 0 324.5 -71.5t222.5 -209.5t81 -339q0 -189 -60 -354.5t-171 -292t-265.5 -198t-344.5 -71.5zM718 335q106 0 183 51t127 134t74 180.5t24 190.5q0 86 -26 144.5
t-77 89t-128 30.5q-105 0 -181.5 -50.5t-127 -133t-75.5 -180t-25 -192.5q0 -85 26.5 -144t78 -89.5t127.5 -30.5zM1099 1615q-57 0 -93 18t-61 42t-46.5 42t-49.5 18q-35 0 -59.5 -28.5t-35.5 -83.5h-198q29 158 113 235t187 77q56 0 93 -17.5t63 -40.5t47.5 -40.5
t47.5 -17.5q42 0 64 29t32 81h196q-28 -154 -113 -234t-187 -80zM1386 2239l-39 -203h-600l39 203h600z" />
    <glyph glyph-name="uni022D" unicode="&#x22d;" horiz-adv-x="1252" 
d="M554 -23q-158 0 -272.5 57t-176.5 161.5t-62 247.5q0 139 47.5 257.5t134.5 206t207 136.5t266 49q158 0 272.5 -57.5t176 -162t61.5 -247.5q0 -132 -44.5 -249t-129.5 -207t-206 -141t-274 -51zM579 286q58 0 101.5 33t71.5 84.5t42 111.5t14 116q0 51 -18.5 84.5
t-49 50t-67.5 16.5q-58 0 -101.5 -32.5t-72 -84t-42 -111.5t-13.5 -115q0 -77 40.5 -115t94.5 -38zM884 1195q-57 0 -93 18t-61 42t-46.5 42t-49.5 18q-35 0 -59.5 -28.5t-35.5 -83.5h-198q29 158 113 235t187 77q56 0 93 -17.5t63 -40.5t47.5 -40.5t47.5 -17.5q42 0 64 29
t32 81h196q-28 -154 -113 -234t-187 -80zM1171 1819l-39 -203h-600l39 203h600z" />
    <glyph glyph-name="uni022E" unicode="&#x22e;" horiz-adv-x="1543" 
d="M700 -23q-184 0 -325.5 72t-222 210.5t-80.5 337.5q0 185 59 350.5t169 293t265.5 200t347.5 72.5q183 0 324.5 -71.5t222.5 -209.5t81 -339q0 -189 -60 -354.5t-171 -292t-265.5 -198t-344.5 -71.5zM718 335q106 0 183 51t127 134t74 180.5t24 190.5q0 86 -26 144.5
t-77 89t-128 30.5q-105 0 -181.5 -50.5t-127 -133t-75.5 -180t-25 -192.5q0 -85 26.5 -144t78 -89.5t127.5 -30.5zM941 1570q-91 0 -141 54t-36 136q13 83 81 136.5t160 53.5q91 0 141 -53.5t36 -135.5q-13 -83 -81 -137t-160 -54z" />
    <glyph glyph-name="uni022F" unicode="&#x22f;" horiz-adv-x="1252" 
d="M554 -23q-158 0 -272.5 57t-176.5 161.5t-62 247.5q0 139 47.5 257.5t134.5 206t207 136.5t266 49q158 0 272.5 -57.5t176 -162t61.5 -247.5q0 -132 -44.5 -249t-129.5 -207t-206 -141t-274 -51zM579 286q58 0 101.5 33t71.5 84.5t42 111.5t14 116q0 51 -18.5 84.5
t-49 50t-67.5 16.5q-58 0 -101.5 -32.5t-72 -84t-42 -111.5t-13.5 -115q0 -77 40.5 -115t94.5 -38zM726 1150q-91 0 -141 54t-36 136q13 83 81 136.5t160 53.5q91 0 141 -53.5t36 -135.5q-13 -83 -81 -137t-160 -54z" />
    <glyph glyph-name="uni0230" unicode="&#x230;" horiz-adv-x="1543" 
d="M700 -23q-184 0 -325.5 72t-222 210.5t-80.5 337.5q0 185 59 350.5t169 293t265.5 200t347.5 72.5q183 0 324.5 -71.5t222.5 -209.5t81 -339q0 -189 -60 -354.5t-171 -292t-265.5 -198t-344.5 -71.5zM718 335q106 0 183 51t127 134t74 180.5t24 190.5q0 86 -26 144.5
t-77 89t-128 30.5q-105 0 -181.5 -50.5t-127 -133t-75.5 -180t-25 -192.5q0 -85 26.5 -144t78 -89.5t127.5 -30.5zM941 1564q-91 0 -141 54t-37 137q14 83 82 136.5t160 53.5q91 0 141 -53.5t36 -136.5q-12 -83 -80.5 -137t-160.5 -54zM1383 2239l-39 -203h-600l39 203h600z
" />
    <glyph glyph-name="uni0231" unicode="&#x231;" horiz-adv-x="1252" 
d="M554 -23q-158 0 -272.5 57t-176.5 161.5t-62 247.5q0 139 47.5 257.5t134.5 206t207 136.5t266 49q158 0 272.5 -57.5t176 -162t61.5 -247.5q0 -132 -44.5 -249t-129.5 -207t-206 -141t-274 -51zM579 286q58 0 101.5 33t71.5 84.5t42 111.5t14 116q0 51 -18.5 84.5
t-49 50t-67.5 16.5q-58 0 -101.5 -32.5t-72 -84t-42 -111.5t-13.5 -115q0 -77 40.5 -115t94.5 -38zM726 1144q-91 0 -141 54t-37 137q14 83 82 136.5t160 53.5q91 0 141 -53.5t36 -136.5q-12 -83 -80.5 -137t-160.5 -54zM1168 1819l-39 -203h-600l39 203h600z" />
    <glyph glyph-name="uni0232" unicode="&#x232;" horiz-adv-x="1516" 
d="M476 0l85 510l-393 980h460l143 -425q18 -54 33 -109t30 -113h-59q31 58 62.5 113t65.5 109l272 425h489l-701 -980l-85 -510h-402zM1281 1877l-39 -232h-600l39 232h600z" />
    <glyph glyph-name="uni0233" unicode="&#x233;" horiz-adv-x="1229" 
d="M-35 -411l69 300l135 -3q43 -4 70 5t44 31t30 58l5 20l-230 1070h403l59 -462q14 -109 22 -219t16 -225h-107q45 115 92.5 225.5t97.5 218.5l220 462h427l-648 -1197q-53 -100 -115 -165t-140.5 -96.5t-184.5 -31.5q-66 0 -135 2.5t-130 6.5zM1044 1457l-39 -232h-600
l39 232h600z" />
    <glyph glyph-name="uni0234" unicode="&#x234;" horiz-adv-x="900" 
d="M406 -418q-164 0 -262 43.5t-133 133.5t-12 229l34 204h401l-53 -314q-6 -40 15 -60t59 -20q33 0 58 15t29 43q5 29 -16 47.5t-71 18.5q-29 0 -64 -10t-91 -39t-148 -85l-354 -218l-129 222l375 230q86 53 197.5 96.5t235.5 43.5q209 0 310 -93t78 -231
q-21 -126 -137 -191t-322 -65zM649 1490l-247 -1490h-401l247 1490h401z" />
    <glyph glyph-name="uni0235" unicode="&#x235;" horiz-adv-x="1600" 
d="M1107 -418q-164 0 -262 43.5t-133 133.5t-12 229l34 204h400l-52 -314q-7 -40 14 -60t59 -20q33 0 58 15t29 43q5 29 -16 47.5t-71 18.5q-29 0 -64 -10t-91 -39t-147 -85l-354 -218l-129 222l374 230q86 53 197.5 96.5t235.5 43.5q209 0 310 -93t78 -231
q-21 -126 -137 -191t-321 -65zM494 562l-92 -562h-401l177 1070h391l-45 -290l-45 12q68 136 168.5 218t251.5 82q123 0 200 -55t105.5 -151.5t7.5 -222.5l-110 -663h-400l99 601q13 80 -21 117.5t-99 37.5q-52 0 -90.5 -23.5t-62.5 -67t-34 -103.5z" />
    <glyph glyph-name="uni0236" unicode="&#x236;" horiz-adv-x="1090" 
d="M561 -20q-164 0 -262 43.5t-133.5 133.5t-12.5 229l34 204h401l-52 -314q-7 -40 14 -60t59 -20q33 0 58 15t29 43q5 29 -16 47.5t-71 18.5q-29 0 -64 -10t-91 -39t-147 -85l-354 -218l-129 222l374 230q86 53 197.5 96.5t235.5 43.5q209 0 310 -93t78 -231
q-21 -126 -137 -191t-321 -65zM155 398l158 955h400l-157 -955h-401zM59 768l50 302h770l-50 -302h-770z" />
    <glyph glyph-name="uni0237" unicode="&#x237;" horiz-adv-x="582" 
d="M180 1070h400l-183 -1108q-21 -131 -85 -215.5t-167.5 -124.5t-246.5 -40h-138l50 302h68q57 0 85.5 25.5t38.5 83.5z" />
    <glyph glyph-name="uni0238" unicode="&#x238;" horiz-adv-x="1993" 
d="M1878 564l-4 -20q-27 -166 -100 -293t-179.5 -199t-236.5 -72q-108 0 -176.5 45.5t-106 124.5t-52 180t-13.5 212v4q50 162 120.5 295t172.5 212t245 79q130 0 211.5 -70.5t112 -198.5t6.5 -299zM1496 544l4 20q14 85 9.5 145.5t-34 93t-91.5 31.5q-89 1 -149.5 -69.5
t-80.5 -208.5l-2 -20q-12 -83 -1 -140.5t46.5 -86.5t94.5 -29q70 0 111 35.5t62 95.5t31 133zM760 262l204 1228h378l-248 -1490h-340zM118 544l2 20q25 171 98 299t182 198.5t240 70.5q142 0 217 -79t101.5 -212t23.5 -295l-2 -4q-47 -147 -117 -275.5t-172 -207.5
t-247 -79q-128 0 -210.5 72t-113 199t-2.5 293zM498 564l-2 -20q-10 -73 -9.5 -133t28 -95.5t97.5 -35.5q89 -1 148 65t78 191l2 20q14 92 3.5 154t-45 93.5t-94.5 30.5q-61 1 -102 -31.5t-65.5 -93t-38.5 -145.5z" />
    <glyph glyph-name="uni0239" unicode="&#x239;" horiz-adv-x="1993" 
d="M648 -416l216 1298l86 236h304l-8 -208l-220 -1326h-378zM118 544l4 20q36 169 107.5 297t175.5 199.5t235 71.5q142 0 217 -79t102 -212t23 -295v-4q-48 -147 -118.5 -275.5t-172 -207.5t-245.5 -79q-129 0 -212 72t-113.5 199t-2.5 293zM500 564l-4 -20
q-16 -72 -15 -132t31 -96t100 -36q89 -1 144 65.5t82 190.5l4 20q19 91 7.5 153t-48.5 94t-97 31q-61 1 -101.5 -31.5t-65 -93t-37.5 -145.5zM1878 564l-4 -22q-27 -166 -99.5 -293t-179 -198t-235.5 -71q-108 0 -177 45.5t-107 124.5t-52.5 180t-13.5 212l2 4
q50 162 120 295t171.5 212t244.5 79q130 0 215 -71.5t116 -199t-1 -297.5zM1496 544l4 20q14 85 9.5 145.5t-34 93t-91.5 31.5q-89 1 -144 -70t-84 -208l-4 -20q-18 -82 -6.5 -139.5t49.5 -87t97 -29.5q70 0 108.5 36t59.5 96t36 132z" />
    <glyph glyph-name="uni023A" unicode="&#x23a;" horiz-adv-x="1579" 
d="M1314 1678l-873 -1868h-78l873 1868h78zM-78 0l743 1490h558l257 -1490h-452l-72 578q-23 188 -42.5 375.5t-34.5 386.5h107q-80 -199 -161 -386.5t-168 -375.5l-267 -578h-468zM334 254l52 316h820l-52 -316h-820z" />
    <glyph glyph-name="uni023B" unicode="&#x23b;" horiz-adv-x="1514" 
d="M271 -190l873 1868h208l-875 -1868h-206zM698 -23q-184 0 -325 71.5t-221 210.5t-80 337q0 186 58.5 351.5t168.5 293t265.5 200t347.5 72.5q142 0 258 -39.5t197.5 -115t122.5 -183t34 -243.5h-417q0 52 -13 93.5t-39 70t-64 44t-89 15.5q-107 0 -185.5 -50.5
t-129.5 -133t-76 -180.5t-25 -192q0 -87 27 -145.5t80 -88.5t132 -30q58 0 108.5 15t91.5 44t72 70t49 92h417q-34 -123 -104 -229t-169 -184.5t-223.5 -122t-268.5 -43.5z" />
    <glyph glyph-name="uni023C" unicode="&#x23c;" horiz-adv-x="1202" 
d="M125 -418l811 1908h190l-813 -1908h-188zM545 -23q-156 0 -268 58t-172.5 163.5t-60.5 246.5q0 129 43.5 245.5t127 207t203.5 142.5t270 52q112 0 206 -32t161 -91.5t98.5 -143t19.5 -187.5l-382 -12q3 32 -1 61t-16 50.5t-33.5 34t-54.5 12.5q-61 0 -106.5 -33
t-75.5 -85.5t-44.5 -114t-14.5 -118.5q0 -49 12.5 -82t39 -49.5t65.5 -16.5q35 0 67 12t59.5 34t46.5 51.5t27 64.5l377 -12q-19 -104 -70.5 -188.5t-130 -144.5t-178 -92.5t-215.5 -32.5z" />
    <glyph glyph-name="uni023D" unicode="&#x23d;" horiz-adv-x="1296" 
d="M117 0l247 1490h414l-190 -1144h633l-57 -346h-1047zM37 618l42 254h855l-43 -254h-854z" />
    <glyph glyph-name="uni023E" unicode="&#x23e;" horiz-adv-x="1359" 
d="M213 -190l874 1868h208l-876 -1868h-206zM144 1144l58 346h1271l-58 -346h-429l-189 -1144h-413l189 1144h-429z" />
    </font>
</defs>
</svg>
