<?xml version="1.0" encoding="UTF-8"?>
<svg id="Layer_1" xmlns="http://www.w3.org/2000/svg" version="1.1" viewBox="0 0 361.18 360.26">
  <!-- Generator: Adobe Illustrator 29.0.1, SVG Export Plug-In . SVG Version: 2.1.0 Build 192)  -->
  <path d="M260.88,86.93c6.98,3.23,12.3,9.46,14.33,17.05,1.18,4.44.82,9.16-.73,13.48-27.34,76.03-57.45,151.13-85.71,226.85-.25.67-.53,1.33-.87,1.95-9.53,17.41-33.22,18.23-44.26,2.66-1.19-1.68-2.06-3.56-2.66-5.52l-24.63-80.9c-2.68-8.81-9.53-15.72-18.3-18.53-24.7-7.93-50.46-13.84-74.82-22.25-7.12-2.46-13.04-4.32-17.71-10.73-9.63-13.22-4.62-31.09,9.27-38.5l2.07-.91,225.23-85.1c6.08-2.3,12.89-2.28,18.79.46ZM249.67,108.63L25.84,194.54c-.7.27-1.06,1.04-.83,1.75h0c.19.57.64,1.01,1.21,1.18l92.23,27.86c3.51,1.06,6.78,2.85,9.48,5.33.46.43.92.87,1.35,1.33,1.64,1.71,2.92,3.75,3.8,5.96,12.12,30.08,18.31,62.79,28.99,93.45.67,1.92,1.58,6.87,4.32,3.93l85.14-224.27c.48-1.25-.54-2.56-1.87-2.42h0s0,0,0,0Z"/>
  <path d="M154.61.87c3.54-.52,6.67.88,9.54,2.84l38.14,38.21c6.95,11.89-6.11,23.82-17.51,16.01-5.04-3.45-33.76-32.23-37.47-37.38-5.55-7.7-2.37-18.25,7.3-19.67Z"/>
  <path d="M310.3,156.57c3.54-.52,6.67.88,9.54,2.84l38.14,38.21c6.95,11.89-6.11,23.82-17.51,16.01-5.04-3.45-33.76-32.23-37.47-37.38-5.55-7.7-2.37-18.25,7.3-19.67Z"/>
  <path d="M346.25.89c10.63-1.31,17.46,10.57,10.97,19.24l-38.54,38.56c-11.72,6.57-23.9-5.99-16.01-17.51,4.21-6.14,30.59-32.07,37-37.11,2.09-1.64,3.82-2.84,6.58-3.18Z"/>
  <path d="M250.42,1.62c6.6-.97,12.91,4.13,13.66,10.69.57,5.04.65,23.46-.51,27.93-3.11,11.95-22,11.02-23.44-2.48-.54-5-.7-22.94.32-27.38s5.67-8.14,9.97-8.77Z"/>
  <path d="M321.52,96.7c5.33-.9,20.4-.74,26.05-.21,15.17,1.43,14.61,22.05,1.4,23.92-5.36.76-20.64.68-26.14.07-14.24-1.59-14.13-21.62-1.32-23.78Z"/>
</svg>