<svg width="43" height="44" viewBox="0 0 43 44" fill="none" xmlns="http://www.w3.org/2000/svg">
<path d="M41.3567 26.7426L40.5307 36.7575C40.221 39.8221 39.9732 42.1656 34.3773 42.1656H8.40102C2.80517 42.1656 2.55738 39.8221 2.24765 36.7575L1.42169 26.7426C1.2565 25.0802 1.79337 23.5379 2.76387 22.3561C2.78452 22.3361 2.78452 22.3361 2.80517 22.3161C3.94086 20.9741 5.65472 20.1328 7.57506 20.1328H35.2033C37.1236 20.1328 38.8168 20.9741 39.9319 22.276C39.9525 22.296 39.9732 22.3161 39.9732 22.3361C40.985 23.5178 41.5425 25.0601 41.3567 26.7426Z" stroke="white" stroke-width="2" stroke-miterlimit="10"/>
<path d="M3.83765 20.994V10.6787C3.83765 3.86855 5.5928 2.16602 12.6134 2.16602H15.2358C17.8582 2.16602 18.4571 2.92715 19.4482 4.20905L22.0706 7.61412C22.7314 8.45537 23.1237 8.97614 24.8789 8.97614H30.1443C37.165 8.97614 38.9201 10.6787 38.9201 17.4888V21.0741" stroke="white" stroke-width="2" stroke-miterlimit="10" stroke-linecap="round" stroke-linejoin="round"/>
<path d="M16.0825 32.1504H26.6961" stroke="white" stroke-width="2" stroke-miterlimit="10" stroke-linecap="round" stroke-linejoin="round"/>
</svg>
