<svg width="44" height="45" viewBox="0 0 44 45" fill="none" xmlns="http://www.w3.org/2000/svg">
<path d="M32.3818 1.29297C35.7267 1.29297 38.4207 2.13265 40.2715 3.9834C42.1223 5.83419 42.9619 8.52811 42.9619 11.873V19.873C42.9619 22.9538 42.2554 25.4783 40.7012 27.3037C39.2868 28.9647 37.2729 29.9234 34.7803 30.2744C34.4283 32.775 33.4656 34.7883 31.8018 36.2002C29.9737 37.7514 27.4498 38.4531 24.3799 38.4531H23.5801C23.395 38.4531 23.2108 38.5451 23.0996 38.6934L20.7002 41.8906L20.7012 41.8916C20.0126 42.8138 19.0379 43.3582 17.9805 43.3584C16.9229 43.3584 15.9474 42.8139 15.2588 41.8916V41.8906L12.8652 38.7002C12.8641 38.6987 12.8589 38.6927 12.8486 38.6826C12.8368 38.6711 12.8203 38.6563 12.7988 38.6396C12.7551 38.6057 12.6995 38.5698 12.6367 38.5381C12.5737 38.5063 12.5125 38.4831 12.4609 38.4688C12.4358 38.4618 12.4153 38.4573 12.4004 38.4551C12.3871 38.4531 12.3804 38.4531 12.3799 38.4531H11.5801C8.37379 38.4531 5.63802 38.0731 3.74023 36.416C1.80884 34.7295 1.00001 31.959 1 27.873V19.873C1 16.8014 1.7072 14.2775 3.26074 12.4502C4.67417 10.7877 6.68659 9.82464 9.17969 9.47266C9.53191 6.97957 10.4967 4.96713 12.1592 3.55371C13.9865 2.00016 16.5104 1.29297 19.582 1.29297H32.3818ZM11.582 11.293C11.0856 11.293 10.6303 11.3122 10.2061 11.3652C10.2038 11.3655 10.2015 11.365 10.1992 11.3652C10.1879 11.3666 10.1764 11.3682 10.165 11.3691C7.65701 11.5836 5.91469 12.4163 4.78418 13.7461C3.6429 15.0887 3 17.0849 3 19.873V27.873C3.00001 31.787 3.79207 33.8068 5.05566 34.9102C6.3529 36.0426 8.40688 36.4531 11.5801 36.4531H12.3799C12.8035 36.4531 13.2157 36.5895 13.5391 36.7529C13.8629 36.9167 14.2074 37.1629 14.4541 37.4854L14.46 37.4932L16.8604 40.6934L16.8613 40.6943C17.2327 41.1918 17.6482 41.3584 17.9805 41.3584C18.3127 41.3582 18.7275 41.1916 19.0986 40.6943L19.0996 40.6934L21.5 37.4932C21.9888 36.8415 22.7652 36.4531 23.5801 36.4531H24.3799C27.1697 36.4531 29.1658 35.8144 30.5078 34.6758C31.8364 33.5484 32.6692 31.8068 32.8838 29.2881L32.8877 29.249C32.9407 28.8248 32.96 28.3695 32.96 27.873V19.873C32.96 16.838 32.1997 14.7417 30.8555 13.3975C29.5113 12.0533 27.4149 11.293 24.3799 11.293H11.582ZM19.582 3.29297C16.7939 3.29297 14.7977 3.93584 13.4551 5.07715C12.3414 6.02397 11.5785 7.4004 11.2334 9.2959C11.3441 9.29386 11.4548 9.29304 11.5654 9.29297H24.3818C27.7267 9.29297 30.4207 10.1327 32.2715 11.9834C34.1223 13.8342 34.9619 16.5281 34.9619 19.873V27.873C34.9619 27.9892 34.9602 28.1055 34.958 28.2217C36.8553 27.8777 38.2313 27.1184 39.1777 26.0068C40.3183 24.6673 40.9619 22.6722 40.9619 19.873V11.873C40.9619 8.83798 40.2016 6.74168 38.8574 5.39746C37.5132 4.05328 35.4169 3.29297 32.3818 3.29297H19.582ZM11.0098 23.293C11.8382 23.293 12.5098 23.9645 12.5098 24.793C12.5098 25.6214 11.8382 26.293 11.0098 26.293H10.9922C10.1638 26.293 9.49219 25.6214 9.49219 24.793C9.49219 23.9645 10.1638 23.293 10.9922 23.293H11.0098ZM18.0098 23.293C18.8382 23.293 19.5098 23.9645 19.5098 24.793C19.5098 25.6214 18.8382 26.293 18.0098 26.293H17.9922C17.1638 26.293 16.4922 25.6214 16.4922 24.793C16.4922 23.9645 17.1638 23.293 17.9922 23.293H18.0098ZM25.0098 23.293C25.8382 23.293 26.5098 23.9645 26.5098 24.793C26.5098 25.6214 25.8382 26.293 25.0098 26.293H24.9922C24.1638 26.293 23.4922 25.6214 23.4922 24.793C23.4922 23.9645 24.1638 23.293 24.9922 23.293H25.0098Z" fill="url(#paint0_linear_786_5)"/>
<defs>
<linearGradient id="paint0_linear_786_5" x1="43" y1="26" x2="2.5" y2="26" gradientUnits="userSpaceOnUse">
<stop stop-color="#78ACFF"/>
<stop offset="1" stop-color="#0178FF"/>
</linearGradient>
</defs>
</svg>
