<svg width="43" height="45" viewBox="0 0 43 45" fill="none" xmlns="http://www.w3.org/2000/svg">
<path d="M15.2344 1.66797C16.6316 1.668 17.6389 1.86851 18.4561 2.34473C19.0541 2.69336 19.4901 3.16098 19.8711 3.63184L20.2373 4.09961L20.2383 4.10059L22.8555 7.49805L23.0879 7.79004C23.2902 8.03678 23.4134 8.15924 23.5693 8.25098C23.7539 8.35957 24.0891 8.47848 24.877 8.47852H30.1426C33.642 8.47852 36.2256 8.87817 37.8594 10.4629C39.5038 12.0581 39.918 14.5893 39.918 17.9912V21.3594C40.1779 21.5818 40.4218 21.8209 40.6455 22.0771C40.6513 22.0829 40.6583 22.0897 40.665 22.0967C40.6834 22.1157 40.7154 22.1495 40.75 22.1943C40.7635 22.2118 40.7849 22.2423 40.8105 22.2832C41.9358 23.6445 42.5633 25.4179 42.3496 27.3525L41.5254 37.3398V37.3486L41.5244 37.3584C41.3785 38.8024 41.2371 40.4983 40.2061 41.7471C39.1158 43.0672 37.2677 43.666 34.376 43.666H8.39941C5.50777 43.666 3.65953 43.0673 2.56934 41.7471C1.53836 40.4983 1.39691 38.8024 1.25098 37.3584L1.25 37.3486V37.3398L0.424805 27.3418L0.398438 26.9785C0.312637 25.1733 0.932605 23.5085 1.98926 22.2217L2.02539 22.1777L2.06641 22.1377C2.07385 22.1305 2.07802 22.125 2.08203 22.1211C2.31382 21.8522 2.56657 21.6023 2.83594 21.3711V11.1807C2.83594 7.77872 3.25009 5.24752 4.89453 3.65234C6.52823 2.06765 9.11213 1.668 12.6113 1.66797H15.2344ZM7.57324 21.6328C5.95063 21.6329 4.51512 22.3422 3.56738 23.4619L3.53516 23.5L3.50781 23.5254C2.71194 24.5114 2.27954 25.7794 2.41504 27.1436L2.41602 27.1523L2.41699 27.1602L3.24121 37.1572L3.30176 37.7363C3.4456 39.0239 3.61376 39.8708 4.11133 40.4736C4.62138 41.0913 5.69549 41.666 8.39941 41.666H34.376C37.0799 41.666 38.154 41.0913 38.6641 40.4736C39.2327 39.7847 39.3705 38.7771 39.5342 37.1572L40.3584 27.1602L40.3594 27.1465L40.3613 27.1328C40.5142 25.7484 40.0596 24.4763 39.2119 23.4863L38.9834 23.2197C38.0568 22.253 36.7191 21.6329 35.2021 21.6328H7.57324ZM26.6953 31.6523C27.2476 31.6523 27.6953 32.1001 27.6953 32.6523C27.6953 33.2046 27.2476 33.6523 26.6953 33.6523H16.082C15.5298 33.6523 15.082 33.2046 15.082 32.6523C15.082 32.1001 15.5298 31.6524 16.082 31.6523H26.6953ZM12.6113 3.66797C9.09054 3.66801 7.28604 4.11897 6.28711 5.08789C5.29888 6.04653 4.83594 7.77253 4.83594 11.1807V20.1572C5.68089 19.8184 6.60554 19.6329 7.57324 19.6328H35.2021C36.166 19.6329 37.0828 19.8165 37.918 20.1494V17.9912C37.918 14.5831 37.4551 12.8571 36.4668 11.8984C35.4678 10.9295 33.6636 10.4785 30.1426 10.4785H24.877C23.9101 10.4785 23.1711 10.3366 22.5557 9.97461C21.9634 9.62621 21.5866 9.12083 21.2822 8.7334L21.2764 8.72656L18.6543 5.32129V5.32031C18.1389 4.65377 17.8532 4.30826 17.4482 4.07227C17.0626 3.84764 16.4587 3.668 15.2344 3.66797H12.6113Z" fill="url(#paint0_linear_784_14)"/>
<defs>
<linearGradient id="paint0_linear_784_14" x1="42" y1="29" x2="2" y2="29" gradientUnits="userSpaceOnUse">
<stop stop-color="#78ACFF"/>
<stop offset="1" stop-color="#0178FF"/>
</linearGradient>
</defs>
</svg>
