<svg width="44" height="45" viewBox="0 0 44 45" fill="none" xmlns="http://www.w3.org/2000/svg">
<path d="M33.96 19.873V27.873C33.96 28.393 33.94 28.893 33.88 29.373C33.42 34.773 30.24 37.4529 24.38 37.4529H23.58C23.08 37.4529 22.6 37.693 22.3 38.093L19.9 41.293C18.84 42.713 17.12 42.713 16.06 41.293L13.66 38.093C13.4 37.753 12.82 37.4529 12.38 37.4529H11.58C5.20002 37.4529 2 35.873 2 27.873V19.873C2 14.013 4.70002 10.833 10.08 10.373C10.56 10.313 11.06 10.293 11.58 10.293H24.38C30.76 10.293 33.96 13.493 33.96 19.873Z" stroke="white" stroke-width="2" stroke-miterlimit="10" stroke-linecap="round" stroke-linejoin="round"/>
<path d="M41.9601 11.873V19.873C41.9601 25.753 39.2601 28.913 33.8801 29.373C33.9401 28.893 33.9601 28.393 33.9601 27.873V19.873C33.9601 13.493 30.7601 10.293 24.3801 10.293H11.5801C11.0601 10.293 10.5601 10.313 10.0801 10.373C10.5401 4.99299 13.7201 2.29297 19.5801 2.29297H32.3801C38.7601 2.29297 41.9601 5.49299 41.9601 11.873Z" stroke="white" stroke-width="2" stroke-miterlimit="10" stroke-linecap="round" stroke-linejoin="round"/>
<path d="M24.991 24.793H25.009" stroke="white" stroke-width="3" stroke-linecap="round" stroke-linejoin="round"/>
<path d="M17.991 24.793H18.009" stroke="white" stroke-width="3" stroke-linecap="round" stroke-linejoin="round"/>
<path d="M10.991 24.793H11.009" stroke="white" stroke-width="3" stroke-linecap="round" stroke-linejoin="round"/>
</svg>
