<svg width="42" height="43" viewBox="0 0 42 43" fill="none" xmlns="http://www.w3.org/2000/svg">
<g clip-path="url(#clip0_784_22)">
<path d="M27 0.292969C32.0986 0.292969 35.9277 1.30664 38.457 3.83594C40.9863 6.36523 42 10.1943 42 15.293V27.293C42 32.3916 40.9863 36.2207 38.457 38.75C35.9277 41.2793 32.0986 42.293 27 42.293H15C9.90137 42.293 6.07226 41.2793 3.54297 38.75C1.01369 36.2207 0 32.3916 0 27.293V15.293C4.04473e-06 10.1943 1.01368 6.36523 3.54297 3.83594C6.07226 1.30664 9.90137 0.292969 15 0.292969H27ZM2.125 12.5156C2.04359 13.373 2 14.2971 2 15.293V27.293C2 32.1943 2.98633 35.3652 4.95703 37.3359C6.92774 39.3066 10.0986 40.293 15 40.293H27C31.9014 40.293 35.0723 39.3066 37.043 37.3359C39.0137 35.3652 40 32.1943 40 27.293V15.293C40 14.2971 39.9564 13.373 39.875 12.5156H2.125ZM17.4219 19.7949C18.7154 19.0468 20.3234 19.2511 21.8389 20.1279L21.8398 20.127L26 22.5273H26.001C27.517 23.4051 28.4951 24.6994 28.4951 26.1934C28.495 27.6873 27.517 28.9807 26.001 29.8584L26 29.8594L21.8398 32.2598L21.8389 32.2588C20.3235 33.1356 18.7154 33.3398 17.4219 32.5918C16.1286 31.8438 15.5 30.3464 15.5 28.5928V23.793C15.5001 22.0394 16.1287 20.5428 17.4219 19.7949ZM20.8389 21.8584C19.6949 21.1962 18.8838 21.2598 18.4229 21.5264C17.9612 21.7935 17.5001 22.467 17.5 23.793V28.5928C17.5 29.919 17.9612 30.5933 18.4229 30.8604C18.8839 31.127 19.6948 31.1897 20.8389 30.5273H20.8398L25 28.127C26.1429 27.4649 26.495 26.7292 26.4951 26.1934C26.4951 25.6575 26.1433 24.9209 25 24.2588V24.2598L20.8398 21.8594L20.8389 21.8584ZM13.0391 2.35254C9.23315 2.59031 6.65143 3.5556 4.95703 5.25C3.7192 6.48783 2.87077 8.19937 2.41016 10.5156H13.0391V2.35254ZM15.0391 10.5156H26.9785C26.9674 10.4561 26.961 10.3948 26.9609 10.332V2.29297H15.0391V10.5156ZM28.9609 10.332C28.9609 10.3948 28.9544 10.4561 28.9434 10.5156H39.5898C39.1292 8.19937 38.2808 6.48783 37.043 5.25C35.3486 3.5556 32.7668 2.59031 28.9609 2.35254V10.332Z" fill="url(#paint0_linear_784_22)"/>
</g>
<defs>
<linearGradient id="paint0_linear_784_22" x1="42" y1="21" x2="2" y2="21" gradientUnits="userSpaceOnUse">
<stop stop-color="#78ACFF"/>
<stop offset="1" stop-color="#0178FF"/>
</linearGradient>
<clipPath id="clip0_784_22">
<rect width="42" height="43" fill="white"/>
</clipPath>
</defs>
</svg>
