<svg width="42" height="43" viewBox="0 0 42 43" fill="none" xmlns="http://www.w3.org/2000/svg">
<path d="M41 27.293V15.293C41 5.29297 37 1.29297 27 1.29297H15C5 1.29297 1 5.29297 1 15.293V27.293C1 37.293 5 41.293 15 41.293H27C37 41.293 41 37.293 41 27.293Z" stroke="white" stroke-width="2" stroke-linecap="round" stroke-linejoin="round"/>
<path d="M2.04004 11.5137H39.96" stroke="white" stroke-width="2" stroke-linecap="round" stroke-linejoin="round"/>
<path d="M14.04 1.51367V11.2337" stroke="white" stroke-width="2" stroke-linecap="round" stroke-linejoin="round"/>
<path d="M27.96 1.51367V10.3337" stroke="white" stroke-width="2" stroke-linecap="round" stroke-linejoin="round"/>
<path d="M16.5 26.1932V23.7932C16.5 20.7132 18.68 19.4532 21.34 20.9932L23.42 22.1932L25.5 23.3932C28.16 24.9332 28.16 27.4532 25.5 28.9932L23.42 30.1932L21.34 31.3932C18.68 32.9332 16.5 31.6732 16.5 28.5932V26.1932V26.1932Z" stroke="white" stroke-width="2" stroke-miterlimit="10" stroke-linecap="round" stroke-linejoin="round"/>
</svg>
