<?xml version="1.0" encoding="UTF-8"?>
<svg id="Layer_1" xmlns="http://www.w3.org/2000/svg" viewBox="0 0 539.28 146.19">
  <defs>
    <style>
      .cls-1 {
        fill: #fff;
      }
    </style>
  </defs>
  <g>
    <path class="cls-1" d="M103.23,72.83v70.54h-25.78v-64.91c0-7.49-2.39-13.66-7.14-18.52-4.79-4.82-10.92-7.26-18.41-7.26-4.98,0-9.45,1.08-13.35,3.28-3.9,2.2-6.95,5.25-9.15,9.15-2.16,3.9-3.28,8.37-3.28,13.35v64.91H.34V30.88h11.21c3.86,0,7.46,1.94,9.58,5.15l1.1,1.67c1.89,2.86,5.87,3.47,8.47,1.23,2.01-1.73,4.19-3.28,6.57-4.66,6.64-3.82,14.09-5.71,22.38-5.71s15.94,2.12,22.5,6.44c6.56,4.28,11.69,9.84,15.44,16.63,3.74,6.79,5.63,13.85,5.63,21.19Z"/>
    <path class="cls-1" d="M223.2,55.73c-4.59-8.45-10.92-15.09-18.99-19.91-8.03-4.86-17.29-7.26-27.75-7.26s-20.61,2.55-29.41,7.72c-8.84,5.17-15.82,12.16-20.99,20.95-5.13,8.84-7.72,18.79-7.72,29.91s2.62,21.07,7.83,29.98c5.25,8.91,12.35,15.9,21.34,20.95,8.99,5.09,19.1,7.64,30.33,7.64,8.76,0,17.02-1.66,24.85-4.94,7.8-3.28,14.43-8.1,19.91-14.51l-8.49-8.6c-3.93-3.98-10.19-5.04-14.9-2.02-1.73,1.11-3.58,2.07-5.56,2.87-4.9,2.05-10.26,3.05-16.05,3.05-6.71,0-12.66-1.43-17.79-4.32-5.17-2.89-9.15-6.98-11.96-12.31-1.35-2.51-2.35-5.25-3.05-8.18h80.82c1.9,0,3.51-1.42,3.74-3.31l.38-3.13c.23-1.97.35-3.9.35-5.75,0-10.77-2.28-20.38-6.91-28.83ZM144.9,75.64c.62-2.66,1.54-5.13,2.74-7.37,2.66-5.09,6.41-9.03,11.23-11.85,4.86-2.82,10.57-4.21,17.13-4.21,6.21,0,11.5,1.23,15.78,3.74,4.32,2.51,7.64,6.1,10,10.77,1.31,2.62,2.28,5.6,2.97,8.91h-59.85Z"/>
    <path class="cls-1" d="M411.76,41.45l-12.74,13.06c-2.12,2.17-5.46,2.61-8.04,1.02-.93-.58-1.91-1.05-2.92-1.42-2.47-.96-5.36-1.43-8.64-1.43-7.22,0-13.12,2.28-17.83,6.79-4.67,4.55-7.02,11.65-7.02,21.34v62.56h-25.78V30.88h11.23c3.66,0,7.1,1.74,9.28,4.68l1.23,1.67c1.96,2.65,5.76,3.01,8.19.79,4.5-4.12,12.75-9.46,25.14-9.45,5.63,0,10.69,1,15.24,3.05,4.52,2.01,8.72,5.29,12.66,9.84Z"/>
    <path class="cls-1" d="M464.71,145.71c-10.94,0-20.86-2.62-29.76-7.85-8.91-5.23-15.98-12.3-21.21-21.21-5.24-8.91-7.85-18.82-7.85-29.76s2.61-20.77,7.85-29.52c5.23-8.75,12.3-15.74,21.21-20.97,8.91-5.23,18.82-7.85,29.76-7.85s21.09,2.58,29.99,7.73,15.97,12.15,21.21,20.97c5.23,8.83,7.85,18.71,7.85,29.64s-2.62,20.86-7.85,29.76c-5.23,8.91-12.3,15.98-21.21,21.21-8.91,5.23-18.9,7.85-29.99,7.85ZM464.71,120.88c6.4,0,12.07-1.44,16.99-4.34,4.92-2.89,8.75-6.91,11.48-12.07,2.73-5.16,4.1-11.01,4.1-17.57s-1.41-12.34-4.22-17.34c-2.81-5-6.64-8.94-11.48-11.83-4.85-2.89-10.47-4.34-16.87-4.34s-11.83,1.45-16.76,4.34c-4.92,2.89-8.75,6.84-11.48,11.83-2.74,5-4.1,10.78-4.1,17.34s1.36,12.42,4.1,17.57c2.73,5.16,6.56,9.18,11.48,12.07,4.92,2.89,10.5,4.34,16.76,4.34Z"/>
    <path class="cls-1" d="M313.88,28.65v25.7h-26.94v89.03h-25.78V54.36h-26.24v-25.78h13.78c6.91,0,12.46-5.6,12.46-12.5V.29h25.78v28.36h26.94Z"/>
  </g>
  <g>
    <path class="cls-1" d="M530.89,41c.27-.05.51-.13.72-.23.4-.18.7-.45.92-.78.22-.34.33-.74.33-1.17s-.11-.83-.33-1.17-.52-.61-.9-.79c-.38-.2-.83-.29-1.34-.29h-3.12v7.64h1.7v-3.14h.18l2.29,3.14h2l-2.46-3.2ZM528.87,37.87h1.23c.34,0,.6.09.78.27s.27.42.27.69c0,.29-.09.52-.27.7-.18.16-.45.25-.78.25h-1.23v-1.91Z"/>
    <path class="cls-1" d="M529.83,33.18c3.97,0,7.19,3.22,7.19,7.19s-3.22,7.19-7.19,7.19-7.19-3.22-7.19-7.19,3.22-7.19,7.19-7.19M529.83,31.38c-4.96,0-9,4.04-9,9s4.04,9,9,9,9-4.04,9-9-4.04-9-9-9h0Z"/>
  </g>
</svg>