<svg width="380" height="158" viewBox="0 0 380 158" fill="none" xmlns="http://www.w3.org/2000/svg">
<mask id="mask0_5302_25310" style="mask-type:alpha" maskUnits="userSpaceOnUse" x="71" y="2" width="307" height="155">
<path fill-rule="evenodd" clip-rule="evenodd" d="M340.064 58V60H342.064H354.664H356.664V58V39.24H375.304H377.304V37.24V24.64V22.64H375.304H356.664V4V2H354.664H342.064H340.064V4V22.64H321.304H319.304V24.64V37.24V39.24H321.304H340.064V58ZM354.664 37.24V39.24V56V58H352.664H344.064H342.064V56V39.24V37.24H340.064H323.304H321.304V35.24V26.64V24.64H323.304H340.064H342.064V22.64V6V4H344.064H352.664H354.664V6V22.64V24.64H356.664H373.304H375.304V26.64V35.24V37.24H373.304H356.664H354.664ZM71.0883 151V153H73.0883H173.888H175.888V151V125.4V123.4H173.888H120.644L148.803 98.7073L148.804 98.7066C154.559 93.687 159.428 89.1887 163.402 85.2142L163.408 85.2083L163.414 85.2023C167.504 81.0435 170.619 76.506 172.727 71.5879L172.731 71.5784C174.867 66.523 175.888 60.3039 175.888 53C175.888 43.0301 173.685 34.1735 169.217 26.4942C164.768 18.8472 158.637 12.8896 150.854 8.64872C143.127 4.33476 134.388 2.2 124.688 2.2C114.164 2.2 104.843 4.21718 96.7816 8.31734C88.7256 12.4148 82.4078 18.2368 77.8747 25.7687C73.3235 33.3307 71.0883 42.2339 71.0883 52.4V54.4H73.0883H101.088H103.156L103.087 52.3334C102.966 48.6934 103.78 45.3599 105.527 42.2886L105.531 42.2814L105.535 42.2741C107.294 39.12 109.742 36.6077 112.912 34.7179L112.912 34.7179L112.922 34.7121C116.109 32.7881 119.81 31.8 124.088 31.8C128.176 31.8 131.636 32.7254 134.544 34.5057L134.557 34.5135L134.57 34.5212C137.505 36.2582 139.78 38.6768 141.413 41.8216L141.417 41.8287L141.421 41.8358C143.047 44.9084 143.888 48.4789 143.888 52.6C143.888 55.2574 143.079 58.2359 141.32 61.5658C139.609 64.805 136.601 68.3866 132.165 72.3003L132.161 72.3041L71.7608 125.904L71.0883 126.501V127.4V151ZM115.33 125.4H118.364H171.888H173.888V127.4V149V151H171.888H75.0883H73.0883V149V127.4L133.488 73.8C138.022 69.8 141.222 66.0333 143.088 62.5C144.955 58.9667 145.888 55.6667 145.888 52.6C145.888 48.2 144.988 44.3 143.188 40.9C141.388 37.4333 138.855 34.7333 135.588 32.8C132.322 30.8 128.488 29.8 124.088 29.8C119.488 29.8 115.422 30.8667 111.888 33C108.422 35.0667 105.722 37.8333 103.788 41.3C102.104 44.2613 101.204 47.4501 101.088 50.8666C101.071 51.3727 101.071 51.8839 101.088 52.4H99.0872H75.0883H73.0883C73.0883 51.7271 73.0983 51.0605 73.1185 50.4C73.3938 41.3757 75.5504 33.509 79.5883 26.8C83.9216 19.6 89.9549 14.0333 97.6883 10.1C105.422 6.16667 114.422 4.2 124.688 4.2C134.088 4.2 142.488 6.26667 149.888 10.4C157.355 14.4667 163.222 20.1667 167.488 27.5C171.755 34.8333 173.888 43.3333 173.888 53C173.888 60.1333 172.888 66.0667 170.888 70.8C168.888 75.4667 165.922 79.8 161.988 83.8C158.055 87.7333 153.222 92.2 147.488 97.2L117.611 123.4L115.33 125.4ZM222.216 149.246C230.56 153.905 240.24 156.2 251.191 156.2C262.143 156.2 271.823 153.905 280.166 149.246C288.49 144.599 294.99 138.099 299.638 129.775C304.296 121.431 306.591 111.752 306.591 100.8V57.6C306.591 46.6485 304.296 36.9687 299.638 28.625C294.99 20.3014 288.49 13.8011 280.166 9.15374C271.823 4.49518 262.143 2.2 251.191 2.2C240.24 2.2 230.56 4.49518 222.216 9.15374C213.893 13.8011 207.392 20.3014 202.745 28.625C198.087 36.9687 195.791 46.6485 195.791 57.6V100.8C195.791 111.752 198.087 121.431 202.745 129.775C207.392 138.099 213.893 144.599 222.216 149.246ZM263.18 123.275C259.642 125.349 255.662 126.4 251.191 126.4C246.721 126.4 242.741 125.349 239.203 123.275C235.631 121.181 232.81 118.36 230.717 114.789C228.643 111.25 227.591 107.271 227.591 102.8V55.4C227.591 50.9294 228.643 46.9496 230.717 43.4114C232.81 39.8399 235.631 37.0191 239.203 34.9254C242.741 32.8513 246.721 31.8 251.191 31.8C255.662 31.8 259.642 32.8513 263.18 34.9254C266.751 37.0191 269.572 39.8399 271.666 43.4114C273.74 46.9496 274.791 50.9294 274.791 55.4V102.8C274.791 107.271 273.74 111.25 271.666 114.789C269.572 118.36 266.751 121.181 263.18 123.275ZM251.191 154.2C240.525 154.2 231.191 151.967 223.191 147.5C215.191 143.033 208.958 136.8 204.491 128.8C200.025 120.8 197.791 111.467 197.791 100.8V57.6C197.791 46.9333 200.025 37.6 204.491 29.6C208.958 21.6 215.191 15.3667 223.191 10.9C231.191 6.43333 240.525 4.2 251.191 4.2C261.858 4.2 271.191 6.43333 279.191 10.9C287.191 15.3667 293.425 21.6 297.891 29.6C302.358 37.6 304.591 46.9333 304.591 57.6V100.8C304.591 111.467 302.358 120.8 297.891 128.8C293.425 136.8 287.191 143.033 279.191 147.5C271.191 151.967 261.858 154.2 251.191 154.2ZM251.191 128.4C255.991 128.4 260.325 127.267 264.191 125C268.058 122.733 271.125 119.667 273.391 115.8C275.658 111.933 276.791 107.6 276.791 102.8V55.4C276.791 50.6 275.658 46.2667 273.391 42.4C271.125 38.5333 268.058 35.4667 264.191 33.2C260.325 30.9333 255.991 29.8 251.191 29.8C246.391 29.8 242.058 30.9333 238.191 33.2C234.325 35.4667 231.258 38.5333 228.991 42.4C226.725 46.2667 225.591 50.6 225.591 55.4V102.8C225.591 107.6 226.725 111.933 228.991 115.8C231.258 119.667 234.325 122.733 238.191 125C242.058 127.267 246.391 128.4 251.191 128.4Z" fill="url(#paint0_linear_5302_25310)"/>
</mask>
<g mask="url(#mask0_5302_25310)">
<path fill-rule="evenodd" clip-rule="evenodd" d="M340.064 58V60H342.064H354.664H356.664V58V39.24H375.304H377.304V37.24V24.64V22.64H375.304H356.664V4V2H354.664H342.064H340.064V4V22.64H321.304H319.304V24.64V37.24V39.24H321.304H340.064V58ZM354.664 37.24V39.24V56V58H352.664H344.064H342.064V56V39.24V37.24H340.064H323.304H321.304V35.24V26.64V24.64H323.304H340.064H342.064V22.64V6V4H344.064H352.664H354.664V6V22.64V24.64H356.664H373.304H375.304V26.64V35.24V37.24H373.304H356.664H354.664ZM71.0883 151V153H73.0883H173.888H175.888V151V125.4V123.4H173.888H120.644L148.803 98.7073L148.804 98.7066C154.559 93.687 159.428 89.1887 163.402 85.2142L163.408 85.2083L163.414 85.2023C167.504 81.0435 170.619 76.506 172.727 71.5879L172.731 71.5784C174.867 66.523 175.888 60.3039 175.888 53C175.888 43.0301 173.685 34.1735 169.217 26.4942C164.768 18.8472 158.637 12.8896 150.854 8.64872C143.127 4.33476 134.388 2.2 124.688 2.2C114.164 2.2 104.843 4.21718 96.7816 8.31734C88.7256 12.4148 82.4078 18.2368 77.8747 25.7687C73.3235 33.3307 71.0883 42.2339 71.0883 52.4V54.4H73.0883H101.088H103.156L103.087 52.3334C102.966 48.6934 103.78 45.3599 105.527 42.2886L105.531 42.2814L105.535 42.2741C107.294 39.12 109.742 36.6077 112.912 34.7179L112.912 34.7179L112.922 34.7121C116.109 32.7881 119.81 31.8 124.088 31.8C128.176 31.8 131.636 32.7254 134.544 34.5057L134.557 34.5135L134.57 34.5212C137.505 36.2582 139.78 38.6768 141.413 41.8216L141.417 41.8287L141.421 41.8358C143.047 44.9084 143.888 48.4789 143.888 52.6C143.888 55.2574 143.079 58.2359 141.32 61.5658C139.609 64.805 136.601 68.3866 132.165 72.3003L132.161 72.3041L71.7608 125.904L71.0883 126.501V127.4V151ZM115.33 125.4H118.364H171.888H173.888V127.4V149V151H171.888H75.0883H73.0883V149V127.4L133.488 73.8C138.022 69.8 141.222 66.0333 143.088 62.5C144.955 58.9667 145.888 55.6667 145.888 52.6C145.888 48.2 144.988 44.3 143.188 40.9C141.388 37.4333 138.855 34.7333 135.588 32.8C132.322 30.8 128.488 29.8 124.088 29.8C119.488 29.8 115.422 30.8667 111.888 33C108.422 35.0667 105.722 37.8333 103.788 41.3C102.104 44.2613 101.204 47.4501 101.088 50.8666C101.071 51.3727 101.071 51.8839 101.088 52.4H99.0872H75.0883H73.0883C73.0883 51.7271 73.0983 51.0605 73.1185 50.4C73.3938 41.3757 75.5504 33.509 79.5883 26.8C83.9216 19.6 89.9549 14.0333 97.6883 10.1C105.422 6.16667 114.422 4.2 124.688 4.2C134.088 4.2 142.488 6.26667 149.888 10.4C157.355 14.4667 163.222 20.1667 167.488 27.5C171.755 34.8333 173.888 43.3333 173.888 53C173.888 60.1333 172.888 66.0667 170.888 70.8C168.888 75.4667 165.922 79.8 161.988 83.8C158.055 87.7333 153.222 92.2 147.488 97.2L117.611 123.4L115.33 125.4ZM222.216 149.246C230.56 153.905 240.24 156.2 251.191 156.2C262.143 156.2 271.823 153.905 280.166 149.246C288.49 144.599 294.99 138.099 299.638 129.775C304.296 121.431 306.591 111.752 306.591 100.8V57.6C306.591 46.6485 304.296 36.9687 299.638 28.625C294.99 20.3014 288.49 13.8011 280.166 9.15374C271.823 4.49518 262.143 2.2 251.191 2.2C240.24 2.2 230.56 4.49518 222.216 9.15374C213.893 13.8011 207.392 20.3014 202.745 28.625C198.087 36.9687 195.791 46.6485 195.791 57.6V100.8C195.791 111.752 198.087 121.431 202.745 129.775C207.392 138.099 213.893 144.599 222.216 149.246ZM263.18 123.275C259.642 125.349 255.662 126.4 251.191 126.4C246.721 126.4 242.741 125.349 239.203 123.275C235.631 121.181 232.81 118.36 230.717 114.789C228.643 111.25 227.591 107.271 227.591 102.8V55.4C227.591 50.9294 228.643 46.9496 230.717 43.4114C232.81 39.8399 235.631 37.0191 239.203 34.9254C242.741 32.8513 246.721 31.8 251.191 31.8C255.662 31.8 259.642 32.8513 263.18 34.9254C266.751 37.0191 269.572 39.8399 271.666 43.4114C273.74 46.9496 274.791 50.9294 274.791 55.4V102.8C274.791 107.271 273.74 111.25 271.666 114.789C269.572 118.36 266.751 121.181 263.18 123.275ZM251.191 154.2C240.525 154.2 231.191 151.967 223.191 147.5C215.191 143.033 208.958 136.8 204.491 128.8C200.025 120.8 197.791 111.467 197.791 100.8V57.6C197.791 46.9333 200.025 37.6 204.491 29.6C208.958 21.6 215.191 15.3667 223.191 10.9C231.191 6.43333 240.525 4.2 251.191 4.2C261.858 4.2 271.191 6.43333 279.191 10.9C287.191 15.3667 293.425 21.6 297.891 29.6C302.358 37.6 304.591 46.9333 304.591 57.6V100.8C304.591 111.467 302.358 120.8 297.891 128.8C293.425 136.8 287.191 143.033 279.191 147.5C271.191 151.967 261.858 154.2 251.191 154.2ZM251.191 128.4C255.991 128.4 260.325 127.267 264.191 125C268.058 122.733 271.125 119.667 273.391 115.8C275.658 111.933 276.791 107.6 276.791 102.8V55.4C276.791 50.6 275.658 46.2667 273.391 42.4C271.125 38.5333 268.058 35.4667 264.191 33.2C260.325 30.9333 255.991 29.8 251.191 29.8C246.391 29.8 242.058 30.9333 238.191 33.2C234.325 35.4667 231.258 38.5333 228.991 42.4C226.725 46.2667 225.591 50.6 225.591 55.4V102.8C225.591 107.6 226.725 111.933 228.991 115.8C231.258 119.667 234.325 122.733 238.191 125C242.058 127.267 246.391 128.4 251.191 128.4Z" fill="#794AFF"/>
</g>
<defs>
<linearGradient id="paint0_linear_5302_25310" x1="217.249" y1="-0.5" x2="217.249" y2="153.5" gradientUnits="userSpaceOnUse">
<stop stop-color="#13111C"/>
<stop offset="1" stop-color="#13111C" stop-opacity="0"/>
</linearGradient>
</defs>
</svg>
