<svg width="304" height="304" viewBox="0 0 304 304" fill="none" xmlns="http://www.w3.org/2000/svg">
<path d="M15.3892 138.75C14.3092 137.18 11.2392 134.78 9.77924 132.78C6.16924 127.81 3.62924 122.51 2.02924 116.95C-0.810764 107.07 0.0192363 96.54 3.69924 86.96C11.6692 66.17 16.9592 42.25 26.3392 23.09C33.1192 9.24 45.5092 1.71 60.5392 0.16C61.7692 0.03 63.0092 0 64.2492 0H240.549C241.579 0 242.619 0.03 243.649 0.13C259.879 1.68 271.779 10.01 278.509 24.97C287.389 44.7 293.269 67.59 300.869 88.44C303.929 96.84 304.549 105.99 302.319 114.64C299.819 124.37 294.639 133.05 287.369 141.14V263.15C287.379 268.62 286.469 274.08 284.389 279.14C278.419 293.7 265.099 302.72 248.039 303.93L56.3892 303.97C55.8292 303.96 55.2692 303.93 54.7092 303.9C33.0692 302.53 16.4692 284.07 16.4592 262.39L16.3992 142.6C16.4192 141.12 16.2292 139.98 15.3692 138.75H15.3892ZM109.959 16.5H57.9392C56.6292 16.5 49.9992 19.69 48.6292 20.66C35.7692 29.79 28.6592 70.66 20.4992 85.35L20.1392 88.35H97.2392L109.969 16.49L109.959 16.5ZM113.699 88.36H190.049L177.249 16.58L127.509 16.45L113.699 88.36ZM283.619 88.36C283.629 86.38 282.759 84.56 282.129 82.74C278.049 70.74 266.099 33.23 259.649 25.13C257.239 22.1 249.619 16.5 245.819 16.5H193.799L206.529 88.36H283.629H283.619ZM95.7292 104.08H16.3892C15.8192 119.11 27.1492 132.36 41.6892 135.3C50.7392 137.13 66.3992 137.05 75.1792 134.05C86.9492 130.04 96.5992 116.61 95.7392 104.08H95.7292ZM191.549 104.08H112.199C111.629 119.11 122.959 132.36 137.499 135.3C146.549 137.13 162.209 137.05 170.989 134.05C182.759 130.04 192.409 116.61 191.549 104.08ZM287.359 104.08H208.009C207.439 119.11 218.769 132.36 233.309 135.3C242.359 137.13 258.019 137.05 266.799 134.05C278.569 130.04 288.219 116.61 287.359 104.08ZM271.639 148.99C247.589 155.45 215.389 154.61 200.549 131.38L199.419 131.03C194.199 138.47 187.049 144.84 178.469 148.26C166.079 153.2 143.689 153.54 130.919 150.11C120.019 147.19 110.589 140.35 104.339 131.03C103.109 130.72 99.3092 136.88 98.0192 138.17C81.4092 154.75 53.3592 154.73 32.1192 148.99V267.63C32.1192 274.81 43.9592 287.47 51.2092 287.47H95.7492V213.74C95.7492 201.55 108.839 192.51 120.049 191.63C137.199 190.28 165.739 190.42 182.989 191.63C194.439 192.43 208.029 201.08 208.029 213.75V287.48H252.569C259.809 287.48 271.659 274.82 271.659 267.64V149L271.639 148.99ZM191.549 287.47V212.99C191.549 211.6 187.189 207.58 185.199 208.11C163.969 209.6 140.189 206.18 119.279 208.09C116.899 208.31 112.199 210.45 112.199 212.99V287.47H191.549Z" fill="white"/>
</svg>
